<svg xmlns="http://www.w3.org/2000/svg" fill="currentColor" viewBox="0 0 256 256"><path d="M64 104V64a8 8 0 0 1 8-8h112a8 8 0 0 1 8 8v40a8 8 0 0 1-8 8H72a8 8 0 0 1-8-8m144 40H48a8 8 0 0 0-8 8v40a8 8 0 0 0 8 8h160a8 8 0 0 0 8-8v-40a8 8 0 0 0-8-8" opacity=".2"/><path d="M208 136h-72v-16h48a16 16 0 0 0 16-16V64a16 16 0 0 0-16-16h-48V32a8 8 0 0 0-16 0v16H72a16 16 0 0 0-16 16v40a16 16 0 0 0 16 16h48v16H48a16 16 0 0 0-16 16v40a16 16 0 0 0 16 16h72v16a8 8 0 0 0 16 0v-16h72a16 16 0 0 0 16-16v-40a16 16 0 0 0-16-16M72 64h112v40H72Zm136 128H48v-40h160z"/></svg>