<svg xmlns="http://www.w3.org/2000/svg" fill="currentColor" viewBox="0 0 256 256"><path d="M240 56v144a16 16 0 0 1-16 16H32a16 16 0 0 1-16-16V56a16 16 0 0 1 16-16h192a16 16 0 0 1 16 16" opacity=".2"/><path d="M136 40v176a8 8 0 0 1-16 0V40a8 8 0 0 1 16 0m-40 80H35.31l18.35-18.34a8 8 0 0 0-11.32-11.32l-32 32a8 8 0 0 0 0 11.32l32 32a8 8 0 0 0 11.32-11.32L35.31 136H96a8 8 0 0 0 0-16m149.66 2.34-32-32a8 8 0 0 0-11.32 11.32L220.69 120H160a8 8 0 0 0 0 16h60.69l-18.35 18.34a8 8 0 0 0 11.32 11.32l32-32a8 8 0 0 0 0-11.32"/></svg>