<svg xmlns="http://www.w3.org/2000/svg" fill="currentColor" viewBox="0 0 256 256"><path d="M240 56v144a16 16 0 0 1-16 16H32a16 16 0 0 1-16-16V56a16 16 0 0 1 16-16h192a16 16 0 0 1 16 16" opacity=".2"/><path d="M136 40v176a8 8 0 0 1-16 0V40a8 8 0 0 1 16 0M69.66 90.34a8 8 0 0 0-11.32 11.32L76.69 120H16a8 8 0 0 0 0 16h60.69l-18.35 18.34a8 8 0 0 0 11.32 11.32l32-32a8 8 0 0 0 0-11.32ZM240 120h-60.69l18.35-18.34a8 8 0 0 0-11.32-11.32l-32 32a8 8 0 0 0 0 11.32l32 32a8 8 0 0 0 11.32-11.32L179.31 136H240a8 8 0 0 0 0-16"/></svg>