<svg xmlns="http://www.w3.org/2000/svg" fill="currentColor" viewBox="0 0 256 256"><path d="M224 56v144a8 8 0 0 1-8 8H68.53a8 8 0 0 1-6.86-3.88L16 128l45.67-76.12A8 8 0 0 1 68.53 48H216a8 8 0 0 1 8 8" opacity=".2"/><path d="M216 40H68.53a16.08 16.08 0 0 0-13.72 7.77L9.14 123.88a8 8 0 0 0 0 8.24l45.67 76.11A16.08 16.08 0 0 0 68.53 216H216a16 16 0 0 0 16-16V56a16 16 0 0 0-16-16M61.67 204.12l6.86-4.12ZM216 200H68.53l-43.2-72 43.2-72H216Zm-109.66-53.66L124.69 128l-18.35-18.34a8 8 0 0 1 11.32-11.32L136 116.69l18.34-18.35a8 8 0 0 1 11.32 11.32L147.31 128l18.35 18.34a8 8 0 0 1-11.32 11.32L136 139.31l-18.34 18.35a8 8 0 0 1-11.32-11.32"/></svg>