<svg xmlns="http://www.w3.org/2000/svg" fill="currentColor" viewBox="0 0 256 256"><path d="M240 104v40a48 48 0 0 1-48 48H64a48 48 0 0 1-48-48v-40h120v40h64v-40Z" opacity=".2"/><path d="M240 96h-32a8 8 0 0 0-8-8h-64a8 8 0 0 0-8 8H64V52a12 12 0 0 1 12-12 12.44 12.44 0 0 1 12.16 9.59 8 8 0 0 0 15.68-3.18A28.32 28.32 0 0 0 76 24a28 28 0 0 0-28 28v44H16a8 8 0 0 0-8 8v40a56.06 56.06 0 0 0 56 56v16a8 8 0 0 0 16 0v-16h96v16a8 8 0 0 0 16 0v-16a56.06 56.06 0 0 0 56-56v-40a8 8 0 0 0-8-8m-48 8v32h-48v-32Zm40 40a40 40 0 0 1-40 40H64a40 40 0 0 1-40-40v-32h104v32a8 8 0 0 0 8 8h64a8 8 0 0 0 8-8v-32h24Z"/></svg>