<svg xmlns="http://www.w3.org/2000/svg" fill="currentColor" viewBox="0 0 256 256"><path d="M216 80v96a16 16 0 0 1-16 16H32a16 16 0 0 1-16-16V80a16 16 0 0 1 16-16h168a16 16 0 0 1 16 16" opacity=".2"/><path d="M200 56H32A24 24 0 0 0 8 80v96a24 24 0 0 0 24 24h168a24 24 0 0 0 24-24V80a24 24 0 0 0-24-24m8 120a8 8 0 0 1-8 8H32a8 8 0 0 1-8-8V80a8 8 0 0 1 8-8h168a8 8 0 0 1 8 8Zm48-80v64a8 8 0 0 1-16 0V96a8 8 0 0 1 16 0m-117.19 27.79a8 8 0 0 1 .35 7.79l-16 32a8 8 0 0 1-14.32-7.16L119.06 136H100a8 8 0 0 1-7.16-11.58l16-32a8 8 0 1 1 14.32 7.16L112.94 120H132a8 8 0 0 1 6.81 3.79"/></svg>