<svg xmlns="http://www.w3.org/2000/svg" fill="currentColor" viewBox="0 0 256 256"><path d="M208 192H48a8 8 0 0 1-6.88-12C47.71 168.6 56 147.81 56 112a72 72 0 0 1 144 0c0 35.82 8.3 56.6 14.9 68a8 8 0 0 1-6.9 12" opacity=".2"/><path d="M224 71.1a8 8 0 0 1-10.78-3.42 94.13 94.13 0 0 0-33.46-36.91 8 8 0 1 1 8.54-13.54 111.46 111.46 0 0 1 39.12 43.09A8 8 0 0 1 224 71.1M35.71 72a8 8 0 0 0 7.1-4.32 94.13 94.13 0 0 1 33.46-36.91 8 8 0 1 0-8.54-13.54 111.46 111.46 0 0 0-39.12 43.09A8 8 0 0 0 35.71 72m186.1 103.94A16 16 0 0 1 208 200h-40.8a40 40 0 0 1-78.4 0H48a16 16 0 0 1-13.79-24.06C43.22 160.39 48 138.28 48 112a80 80 0 0 1 160 0c0 26.27 4.78 48.38 13.81 63.94M150.62 200h-45.24a24 24 0 0 0 45.24 0M208 184c-10.64-18.27-16-42.49-16-72a64 64 0 0 0-128 0c0 29.52-5.38 53.74-16 72Z"/></svg>