<svg xmlns="http://www.w3.org/2000/svg" fill="currentColor" viewBox="0 0 256 256"><path d="m176 176-64 48v-96Zm-8.53-102.4L112 32v96l55.47-41.6a8 8 0 0 0 0-12.8" opacity=".2"/><path d="M180.8 169.6 125.33 128l23.47-17.6a8 8 0 0 0-9.6-12.8L120 112V48l19.2 14.4a8 8 0 1 0 9.6-12.8l-32-24A8 8 0 0 0 104 32v80L52.8 73.6a8 8 0 0 0-9.6 12.8L98.67 128 43.2 169.6a8 8 0 1 0 9.6 12.8L104 144v80a8 8 0 0 0 12.8 6.4l64-48a8 8 0 0 0 0-12.8M120 208v-64l42.67 32ZM237.66 98.34a8 8 0 0 1-11.32 11.32L208 91.31l-18.34 18.35a8 8 0 0 1-11.32-11.32L196.69 80l-18.35-18.34a8 8 0 0 1 11.32-11.32L208 68.69l18.34-18.35a8 8 0 0 1 11.32 11.32L219.31 80Z"/></svg>