<svg xmlns="http://www.w3.org/2000/svg" fill="currentColor" viewBox="0 0 256 256"><path d="M216 48v32a8 8 0 0 1-8 8h-32a8 8 0 0 1-8-8V48a8 8 0 0 1 8-8h32a8 8 0 0 1 8 8M80 40H48a8 8 0 0 0-8 8v32a8 8 0 0 0 8 8h32a8 8 0 0 0 8-8V48a8 8 0 0 0-8-8m128 128h-32a8 8 0 0 0-8 8v32a8 8 0 0 0 8 8h32a8 8 0 0 0 8-8v-32a8 8 0 0 0-8-8m-128 0H48a8 8 0 0 0-8 8v32a8 8 0 0 0 8 8h32a8 8 0 0 0 8-8v-32a8 8 0 0 0-8-8" opacity=".2"/><path d="M208 96a16 16 0 0 0 16-16V48a16 16 0 0 0-16-16h-32a16 16 0 0 0-16 16v8H96v-8a16 16 0 0 0-16-16H48a16 16 0 0 0-16 16v32a16 16 0 0 0 16 16h8v64h-8a16 16 0 0 0-16 16v32a16 16 0 0 0 16 16h32a16 16 0 0 0 16-16v-8h64v8a16 16 0 0 0 16 16h32a16 16 0 0 0 16-16v-32a16 16 0 0 0-16-16h-8V96Zm-32-48h32v32h-32ZM48 48h32v15.9a.5.5 0 0 0 0 .2V80H48Zm32 160H48v-32h32v15.9a.5.5 0 0 0 0 .2zm128 0h-32v-32h32Zm-24-48h-8a16 16 0 0 0-16 16v8H96v-8a16 16 0 0 0-16-16h-8V96h8a16 16 0 0 0 16-16v-8h64v8a16 16 0 0 0 16 16h8Z"/></svg>