<svg xmlns="http://www.w3.org/2000/svg" fill="currentColor" viewBox="0 0 256 256"><path d="M195.88 195.88a96 96 0 1 1 0-135.76 96 96 0 0 1 0 135.76" opacity=".2"/><path d="M201.54 54.46A104 104 0 0 0 54.46 201.54 104 104 0 0 0 201.54 54.46m-11.31 135.77a88 88 0 1 1 0-124.46 88.11 88.11 0 0 1 0 124.46m-64.57-67.89a8 8 0 0 1 0 11.32l-32 32a8 8 0 0 1-11.32-11.32L108.69 128l-26.35-26.34a8 8 0 0 1 11.32-11.32Zm56 0a8 8 0 0 1 0 11.32l-32 32a8 8 0 0 1-11.32-11.32L164.69 128l-26.35-26.34a8 8 0 0 1 11.32-11.32Z"/></svg>