<svg xmlns="http://www.w3.org/2000/svg" fill="currentColor" viewBox="0 0 256 256"><path d="M224 48v88c0 48.6-43 88-96 88s-96-39.4-96-88V48a8 8 0 0 1 13.66-5.66L67.6 67.6a102.87 102.87 0 0 1 120.8 0l21.94-25.24A8 8 0 0 1 224 48" opacity=".2"/><path d="M96 140a12 12 0 1 1-12-12 12 12 0 0 1 12 12m76-12a12 12 0 1 0 12 12 12 12 0 0 0-12-12m60-80v88c0 52.93-46.65 96-104 96S24 188.93 24 136V48a16 16 0 0 1 27.31-11.31c.14.14.26.27.38.41L69 57a111.22 111.22 0 0 1 118.1 0l17.21-19.9c.12-.14.24-.27.38-.41A16 16 0 0 1 232 48m-16 0-21.56 24.8a8 8 0 0 1-10.81 1.2A89 89 0 0 0 168 64.75V88a8 8 0 1 1-16 0V59.05a97.4 97.4 0 0 0-16-2.72V88a8 8 0 1 1-16 0V56.33a97.4 97.4 0 0 0-16 2.72V88a8 8 0 1 1-16 0V64.75A89 89 0 0 0 72.37 74a8 8 0 0 1-10.81-1.17L40 48v88c0 41.66 35.21 76 80 79.67v-20.36l-13.66-13.66a8 8 0 0 1 11.32-11.31L128 180.68l10.34-10.34a8 8 0 0 1 11.32 11.31L136 195.31v20.36c44.79-3.69 80-38 80-79.67Z"/></svg>