<svg xmlns="http://www.w3.org/2000/svg" fill="currentColor" viewBox="0 0 256 256"><path d="M224 64v144H32V48h176a16 16 0 0 1 16 16" opacity=".2"/><path d="M232 208a8 8 0 0 1-8 8H32a8 8 0 0 1-8-8V48a8 8 0 0 1 16 0v152h184a8 8 0 0 1 8 8m-100-48a12 12 0 1 0-12-12 12 12 0 0 0 12 12m-24-56a12 12 0 1 0-12-12 12 12 0 0 0 12 12m-32 72a12 12 0 1 0-12-12 12 12 0 0 0 12 12m96-48a12 12 0 1 0-12-12 12 12 0 0 0 12 12m24-40a12 12 0 1 0-12-12 12 12 0 0 0 12 12m-20 76a12 12 0 1 0 12-12 12 12 0 0 0-12 12"/></svg>