<svg xmlns="http://www.w3.org/2000/svg" fill="currentColor" viewBox="0 0 256 256"><path d="M224 56v128a8 8 0 0 1-8 8h-65.07l-16 28a8 8 0 0 1-13.9 0l-16-28H40a8 8 0 0 1-8-8V56a8 8 0 0 1 8-8h176a8 8 0 0 1 8 8" opacity=".2"/><path d="M53.92 34.62A8 8 0 0 0 40 40a16 16 0 0 0-16 16v128a16 16 0 0 0 16 16h60.43l13.68 23.94a16 16 0 0 0 27.78 0L155.57 200h27.07l19.44 21.38a8 8 0 1 0 11.84-10.76Zm97 149.38a8 8 0 0 0-7 4l-16 28-16-28a8 8 0 0 0-7-4H40V56h11.73L168.1 184ZM232 56v130a8 8 0 0 1-16 0V56H98.52a8 8 0 1 1 0-16H216a16 16 0 0 1 16 16"/></svg>