<svg xmlns="http://www.w3.org/2000/svg" fill="currentColor" viewBox="0 0 256 256"><path d="M224 64v128a8 8 0 0 1-8 8H80l-34.85 30.11A8 8 0 0 1 32 224V64a8 8 0 0 1 8-8h176a8 8 0 0 1 8 8" opacity=".2"/><path d="M116 128a12 12 0 1 1 12 12 12 12 0 0 1-12-12m-32 12a12 12 0 1 0-12-12 12 12 0 0 0 12 12m88 0a12 12 0 1 0-12-12 12 12 0 0 0 12 12m60-76v128a16 16 0 0 1-16 16H83l-32.6 28.16-.09.07A15.9 15.9 0 0 1 40 240a16.1 16.1 0 0 1-6.8-1.52A15.85 15.85 0 0 1 24 224V64a16 16 0 0 1 16-16h176a16 16 0 0 1 16 16m-16 0H40v160l34.77-30a8 8 0 0 1 5.23-2h136Z"/></svg>