<svg xmlns="http://www.w3.org/2000/svg" fill="currentColor" viewBox="0 0 256 256"><path d="M112 80a32 32 0 1 1-32-32 32 32 0 0 1 32 32m64 32a32 32 0 1 0-32-32 32 32 0 0 0 32 32m-96 32a32 32 0 1 0 32 32 32 32 0 0 0-32-32m96 0a32 32 0 1 0 32 32 32 32 0 0 0-32-32" opacity=".2"/><path d="M80 40a40 40 0 1 0 40 40 40 40 0 0 0-40-40m0 64a24 24 0 1 1 24-24 24 24 0 0 1-24 24m96 16a40 40 0 1 0-40-40 40 40 0 0 0 40 40m0-64a24 24 0 1 1-24 24 24 24 0 0 1 24-24m-96 80a40 40 0 1 0 40 40 40 40 0 0 0-40-40m0 64a24 24 0 1 1 24-24 24 24 0 0 1-24 24m96-64a40 40 0 1 0 40 40 40 40 0 0 0-40-40m0 64a24 24 0 1 1 24-24 24 24 0 0 1-24 24"/></svg>