<svg xmlns="http://www.w3.org/2000/svg" fill="currentColor" viewBox="0 0 256 256"><path d="M128 112a36 36 0 1 1 36-36 36 36 0 0 1-36 36m60 24a36 36 0 1 0 36 36 36 36 0 0 0-36-36m-120 0a36 36 0 1 0 36 36 36 36 0 0 0-36-36" opacity=".2"/><path d="M172 76a44 44 0 1 0-44 44 44.05 44.05 0 0 0 44-44m-44 28a28 28 0 1 1 28-28 28 28 0 0 1-28 28m60 24a44 44 0 1 0 44 44 44.05 44.05 0 0 0-44-44m0 72a28 28 0 1 1 28-28 28 28 0 0 1-28 28M68 128a44 44 0 1 0 44 44 44.05 44.05 0 0 0-44-44m0 72a28 28 0 1 1 28-28 28 28 0 0 1-28 28"/></svg>