<svg xmlns="http://www.w3.org/2000/svg" fill="currentColor" viewBox="0 0 256 256"><path d="M240 128a80 80 0 0 1-80 80H72A56 56 0 1 1 85.92 97.74v.1A80 80 0 0 1 240 128" opacity=".2"/><path d="M248 128a87.34 87.34 0 0 1-17.6 52.81 8 8 0 1 1-12.8-9.62A71.34 71.34 0 0 0 232 128a72 72 0 0 0-144 0 8 8 0 0 1-16 0 88 88 0 0 1 3.29-23.88C74.2 104 73.1 104 72 104a48 48 0 0 0 0 96h24a8 8 0 0 1 0 16H72a64 64 0 1 1 9.29-127.32A88 88 0 0 1 248 128m-69.66 42.34L160 188.69V128a8 8 0 0 0-16 0v60.69l-18.34-18.35a8 8 0 0 0-11.32 11.32l32 32a8 8 0 0 0 11.32 0l32-32a8 8 0 0 0-11.32-11.32"/></svg>