<svg xmlns="http://www.w3.org/2000/svg" fill="currentColor" viewBox="0 0 256 256"><path d="M240 128a80 80 0 0 1-80 80H72A56 56 0 1 1 85.92 97.74v.1A80 80 0 0 1 240 128" opacity=".2"/><path d="M53.92 34.62a8 8 0 1 0-11.84 10.76l39.24 43.17-.06.12A65 65 0 0 0 72 88a64 64 0 0 0 0 128h88a87.3 87.3 0 0 0 31.8-5.93l10.28 11.31a8 8 0 1 0 11.84-10.76ZM160 200H72a48 48 0 0 1 0-96c1.1 0 2.2 0 3.3.12A88.4 88.4 0 0 0 72 128a8 8 0 0 0 16 0 72.3 72.3 0 0 1 5.06-26.54l87 95.7A71.7 71.7 0 0 1 160 200m88-72a87.9 87.9 0 0 1-22.35 58.61A8 8 0 0 1 213.71 176a72 72 0 0 0-96.34-106 8 8 0 0 1-9.48-12.89A88 88 0 0 1 248 128"/></svg>