<svg xmlns="http://www.w3.org/2000/svg" fill="currentColor" viewBox="0 0 256 256"><path d="M160 80a32 32 0 1 1-32-32 32 32 0 0 1 32 32" opacity=".2"/><path d="M215.12 123.64a8 8 0 1 0-14.24-7.28 79.6 79.6 0 0 1-33.08 33.5l-16.58-37.32A40 40 0 0 0 136 40.8V24a8 8 0 0 0-16 0v16.8a40 40 0 0 0-15.22 71.74L56.69 220.75a8 8 0 1 0 14.62 6.5l25.14-56.56A95.5 95.5 0 0 0 128 176a99.1 99.1 0 0 0 31.6-5.21l25.09 56.46a8 8 0 0 0 14.62-6.5l-25-56.25a95.8 95.8 0 0 0 40.81-40.86M128 56a24 24 0 1 1-24 24 24 24 0 0 1 24-24m0 104a79.5 79.5 0 0 1-25-4l16.42-36.94a39.8 39.8 0 0 0 17.2 0l16.48 37.06A83.2 83.2 0 0 1 128 160"/></svg>