<svg xmlns="http://www.w3.org/2000/svg" fill="currentColor" viewBox="0 0 256 256"><path d="M208 88v32a8 8 0 0 1-8 8h-48v96a8 8 0 0 1-8 8h-32a8 8 0 0 1-8-8v-96H56a8 8 0 0 1-8-8V88a8 8 0 0 1 8-8h48V32a8 8 0 0 1 8-8h32a8 8 0 0 1 8 8v48h48a8 8 0 0 1 8 8" opacity=".2"/><path d="M200 72h-40V32a16 16 0 0 0-16-16h-32a16 16 0 0 0-16 16v40H56a16 16 0 0 0-16 16v32a16 16 0 0 0 16 16h40v88a16 16 0 0 0 16 16h32a16 16 0 0 0 16-16v-88h40a16 16 0 0 0 16-16V88a16 16 0 0 0-16-16m0 48h-48a8 8 0 0 0-8 8v96h-32v-96a8 8 0 0 0-8-8H56V88h48a8 8 0 0 0 8-8V32h32v48a8 8 0 0 0 8 8h48Z"/></svg>