<svg xmlns="http://www.w3.org/2000/svg" fill="currentColor" viewBox="0 0 256 256"><path d="m231.87 89.42-22.7 104a8 8 0 0 1-7.88 6.61H54.71a8 8 0 0 1-7.88-6.61l-22.7-104A8 8 0 0 1 38 82.76L80 128l40.74-91.35a8 8 0 0 1 14.52 0L176 128l42-45.24a8 8 0 0 1 13.87 6.66" opacity=".2"/><path d="M230.9 73.6a15.85 15.85 0 0 0-18.9 3.79l-33.67 36.29-35.8-80.29a1 1 0 0 1 0-.1 16 16 0 0 0-29.06 0 1 1 0 0 1 0 .1l-35.8 80.29L44 77.39a16 16 0 0 0-27.75 13.42c0 .11 0 .21.07.32L39 195a16 16 0 0 0 15.72 13h146.57A16 16 0 0 0 217 195l22.68-103.87c0-.11 0-.21.07-.32a15.85 15.85 0 0 0-8.85-17.21m-29.55 118.08-.06.32H54.71l-.06-.32L32 88l.14.16 42 45.24a8 8 0 0 0 13.18-2.18L128 40l40.69 91.25a8 8 0 0 0 13.18 2.18l42-45.24.13-.19Z"/></svg>