<svg xmlns="http://www.w3.org/2000/svg" fill="currentColor" viewBox="0 0 256 256"><path d="M192 56v144a16 16 0 0 1-16 16H80a16 16 0 0 1-16-16V56a16 16 0 0 1 16-16h96a16 16 0 0 1 16 16" opacity=".2"/><path d="m205.66 221.66-24 24a8 8 0 0 1-11.32-11.32L180.69 224H80a24 24 0 0 1-24-24v-96a8 8 0 0 1 16 0v96a8 8 0 0 0 8 8h100.69l-10.35-10.34a8 8 0 0 1 11.32-11.32l24 24a8 8 0 0 1 0 11.32M80 72a8 8 0 0 0 5.66-13.66L75.31 48H176a8 8 0 0 1 8 8v96a8 8 0 0 0 16 0V56a24 24 0 0 0-24-24H75.31l10.35-10.34a8 8 0 1 0-11.32-11.32l-24 24a8 8 0 0 0 0 11.32l24 24A8 8 0 0 0 80 72"/></svg>