<svg xmlns="http://www.w3.org/2000/svg" fill="currentColor" viewBox="0 0 256 256"><path d="M128 104 88 64l40-40 40 40Zm-40 88 40 40 40-40-40-40ZM192 88l-40 40 40 40 40-40ZM64 88l-40 40 40 40 40-40Z" opacity=".2"/><path d="M122.34 109.66a8 8 0 0 0 11.32 0l40-40a8 8 0 0 0 0-11.32l-40-40a8 8 0 0 0-11.32 0l-40 40a8 8 0 0 0 0 11.32ZM128 35.31 156.69 64 128 92.69 99.31 64Zm5.66 111a8 8 0 0 0-11.32 0l-40 40a8 8 0 0 0 0 11.32l40 40a8 8 0 0 0 11.32 0l40-40a8 8 0 0 0 0-11.32ZM128 220.69 99.31 192 128 163.31 156.69 192Zm109.66-98.35-40-40a8 8 0 0 0-11.32 0l-40 40a8 8 0 0 0 0 11.32l40 40a8 8 0 0 0 11.32 0l40-40a8 8 0 0 0 0-11.32M192 156.69 163.31 128 192 99.31 220.69 128Zm-82.34-34.35-40-40a8 8 0 0 0-11.32 0l-40 40a8 8 0 0 0 0 11.32l40 40a8 8 0 0 0 11.32 0l40-40a8 8 0 0 0 0-11.32M64 156.69 35.31 128 64 99.31 92.69 128Z"/></svg>