<svg xmlns="http://www.w3.org/2000/svg" fill="currentColor" viewBox="0 0 256 256"><path d="M216 64v128a24 24 0 0 1-24 24H64a24 24 0 0 1-24-24V64a24 24 0 0 1 24-24h128a24 24 0 0 1 24 24" opacity=".2"/><path d="M192 32H64a32 32 0 0 0-32 32v128a32 32 0 0 0 32 32h128a32 32 0 0 0 32-32V64a32 32 0 0 0-32-32m16 160a16 16 0 0 1-16 16H64a16 16 0 0 1-16-16V64a16 16 0 0 1 16-16h128a16 16 0 0 1 16 16Zm-96-92a12 12 0 1 1-12-12 12 12 0 0 1 12 12m56 0a12 12 0 1 1-12-12 12 12 0 0 1 12 12m-56 56a12 12 0 1 1-12-12 12 12 0 0 1 12 12m56 0a12 12 0 1 1-12-12 12 12 0 0 1 12 12"/></svg>