<svg xmlns="http://www.w3.org/2000/svg" fill="currentColor" viewBox="0 0 256 256"><path d="m235.21 185.59-67 29.7a8.15 8.15 0 0 1-11-4.56L147 183.06a191 191 0 0 1-19 .94 191 191 0 0 1-19-.94l-10.25 27.67a8.15 8.15 0 0 1-11 4.56l-67-29.7a8 8 0 0 1-4.55-9.24L45.77 60a8.08 8.08 0 0 1 6.54-6l36.06-5.92a8.1 8.1 0 0 1 9.21 6l5 19.63a192.3 192.3 0 0 1 50.88 0l5-19.63a8.1 8.1 0 0 1 9.21-6L203.69 54a8.08 8.08 0 0 1 6.54 6l29.53 116.37a8 8 0 0 1-4.55 9.22" opacity=".2"/><path d="M104 140a12 12 0 1 1-12-12 12 12 0 0 1 12 12m60-12a12 12 0 1 0 12 12 12 12 0 0 0-12-12m74.45 64.9-67 29.71a16.17 16.17 0 0 1-21.71-9.1l-8.11-22q-6.72.45-13.63.46t-13.63-.46l-8.11 22a16.18 16.18 0 0 1-21.71 9.1l-67-29.71a15.94 15.94 0 0 1-9.06-18.51L38 58a16.08 16.08 0 0 1 13-11.87l36.06-5.92a16.21 16.21 0 0 1 18.26 11.88l3.26 12.83Q118.11 64 128 64t19.4.92l3.26-12.83a16.22 16.22 0 0 1 18.26-11.88L205 46.13A16.08 16.08 0 0 1 218 58l29.53 116.38a15.94 15.94 0 0 1-9.08 18.52M232 178.28 202.47 62h-.08l-36.06-6a.17.17 0 0 0-.17 0l-2.83 11.14c5 .94 10 2.06 14.83 3.42A8 8 0 0 1 176 86.31a8 8 0 0 1-2.16-.3A172.3 172.3 0 0 0 128 80a172.3 172.3 0 0 0-45.84 6 8 8 0 1 1-4.32-15.4c4.82-1.36 9.78-2.48 14.82-3.42L89.83 56a.2.2 0 0 0-.12 0l-36.1 5.92a.2.2 0 0 0-.09 0L24 178.33 91 208a.21.21 0 0 0 .22 0L98 189.72a173 173 0 0 1-20.14-4.32 8 8 0 0 1 4.3-15.4 172 172 0 0 0 45.84 6 172 172 0 0 0 45.84-6 8 8 0 0 1 4.32 15.41 173 173 0 0 1-20.16 4.31l6.75 18.28a.22.22 0 0 0 .21 0Z"/></svg>