<svg xmlns="http://www.w3.org/2000/svg" fill="currentColor" viewBox="0 0 256 256"><path d="M112 76a36 36 0 1 1-36-36 36 36 0 0 1 36 36m68 36a36 36 0 1 0-36-36 36 36 0 0 0 36 36M76 144a36 36 0 1 0 36 36 36 36 0 0 0-36-36m104 0a36 36 0 1 0 36 36 36 36 0 0 0-36-36" opacity=".2"/><path d="M189.66 66.34a8 8 0 0 0-11.32 0L148.69 96h-41.38L77.66 66.34a8 8 0 0 0-11.32 11.32L96 107.31v41.38l-29.66 29.65a8 8 0 0 0 11.32 11.32L107.31 160h41.38l29.65 29.66a8 8 0 0 0 11.32-11.32L160 148.69v-41.38l29.66-29.65a8 8 0 0 0 0-11.32M112 112h32v32h-32Zm26.51-50.67a44 44 0 1 1 56.16 56.16 7.9 7.9 0 0 1-2.67.51 8 8 0 0 1-2.67-15.54 28 28 0 1 0-35.74-35.74 8 8 0 1 1-15.08-5.34ZM224 180a44 44 0 0 1-85.49 14.67 8 8 0 0 1 15.08-5.34 28 28 0 1 0 35.74-35.74 8 8 0 0 1 5.34-15.08A44.07 44.07 0 0 1 224 180m-106.51 14.67a44 44 0 1 1-56.16-56.16 8 8 0 0 1 5.34 15.08 28 28 0 1 0 35.74 35.74 8 8 0 0 1 15.08 5.34M32 76a44 44 0 0 1 85.49-14.67 8 8 0 1 1-15.08 5.34 28 28 0 1 0-35.74 35.74A8 8 0 0 1 64 118a7.9 7.9 0 0 1-2.67-.46A44.07 44.07 0 0 1 32 76"/></svg>