<svg xmlns="http://www.w3.org/2000/svg" fill="currentColor" viewBox="0 0 256 256"><path d="m160 168-48 48H66.75l-30.06-30.06a16 16 0 0 1 0-22.63L96 104Z" opacity=".2"/><path d="M225 80.4 183.6 39a24 24 0 0 0-33.94 0L31 157.66a24 24 0 0 0 0 33.94l30.06 30.06a8 8 0 0 0 5.68 2.34H216a8 8 0 0 0 0-16h-84.7l93.7-93.66a24 24 0 0 0 0-33.94M108.68 208H70.05l-27.72-27.72a8 8 0 0 1 0-11.31L96 115.31 148.69 168Zm105-105L160 156.69 107.31 104 161 50.34a8 8 0 0 1 11.32 0l41.38 41.38a8 8 0 0 1 0 11.31Z"/></svg>