<svg xmlns="http://www.w3.org/2000/svg" fill="currentColor" viewBox="0 0 256 256"><path d="M80 128a24 24 0 1 1-24-24 24 24 0 0 1 24 24m72-24a24 24 0 1 0 24 24 24 24 0 0 0-24-24" opacity=".2"/><path d="M176 32c-20.61 0-38.28 18.16-48 45.85C118.28 50.16 100.61 32 80 32c-31.4 0-56 42.17-56 96s24.6 96 56 96c20.61 0 38.28-18.16 48-45.85 9.72 27.69 27.39 45.85 48 45.85 31.4 0 56-42.17 56-96s-24.6-96-56-96m-69.08 154.39C99.43 200.12 89.62 208 80 208s-19.43-7.88-26.92-21.61a104.8 104.8 0 0 1-10.24-29.23 32 32 0 1 0 0-58.32 104.8 104.8 0 0 1 10.24-29.23C60.57 55.88 70.38 48 80 48s19.43 7.88 26.92 21.61C115.35 85.07 120 105.81 120 128s-4.65 42.93-13.08 58.39M40 128a16 16 0 1 1 16 16 16 16 0 0 1-16-16m162.92 58.39C195.43 200.12 185.62 208 176 208s-19.43-7.88-26.92-21.61a104.8 104.8 0 0 1-10.24-29.23 32 32 0 1 0 0-58.32 104.8 104.8 0 0 1 10.24-29.23C156.57 55.88 166.38 48 176 48s19.43 7.88 26.92 21.61C211.35 85.07 216 105.81 216 128s-4.65 42.93-13.08 58.39M136 128a16 16 0 1 1 16 16 16 16 0 0 1-16-16"/></svg>