<svg xmlns="http://www.w3.org/2000/svg" fill="currentColor" viewBox="0 0 256 256"><path d="M216 77.09V136c0 56-88 72-88 72s-88-16-88-72V77.09a8 8 0 0 1 5.27-7.52l80-29.09a8 8 0 0 1 5.46 0l80 29.09a8 8 0 0 1 5.27 7.52" opacity=".2"/><path d="M176 104a8 8 0 0 1-8 8H88a8 8 0 0 1 0-16h80a8 8 0 0 1 8 8m-8 24H88a8 8 0 0 0 0 16h80a8 8 0 0 0 0-16m88-24v24a32 32 0 0 1-32 32h-5.19c-7.19 15.8-21.79 29.43-43.23 40.16a191.2 191.2 0 0 1-46.15 15.71 7.9 7.9 0 0 1-2.86 0 191.2 191.2 0 0 1-46.15-15.71C59 189.43 44.38 175.8 37.19 160H32a32 32 0 0 1-32-32v-24a32 32 0 0 1 32-32h.85a16 16 0 0 1 9.68-10l80-29.09a16.06 16.06 0 0 1 10.94 0l80 29.09a16 16 0 0 1 9.68 10h.85a32 32 0 0 1 32 32M32.55 144a59 59 0 0 1-.55-8V88a16 16 0 0 0-16 16v24a16 16 0 0 0 16 16ZM208 136V77.09L128 48 48 77.09V136c0 45 69.09 61.52 80 63.84 10.89-2.32 80-18.84 80-63.84m32-32a16 16 0 0 0-16-16v48a59 59 0 0 1-.55 8h.55a16 16 0 0 0 16-16Z"/></svg>