<svg xmlns="http://www.w3.org/2000/svg" fill="currentColor" viewBox="0 0 256 256"><path d="M128 32a96 96 0 1 0 96 96 96 96 0 0 0-96-96m32 144-32-48-32 48-32-48h64L96 80h64l-32 48h64Z" opacity=".2"/><path d="M128 24a104 104 0 1 0 104 104A104.11 104.11 0 0 0 128 24m0 192a88 88 0 1 1 88-88 88.1 88.1 0 0 1-88 88m71.05-91.77A8 8 0 0 0 192 120h-49l23.71-35.56A8 8 0 0 0 160 72H96a8 8 0 0 0-6.66 12.44L113.05 120H64a8 8 0 0 0-6.66 12.44l32 48a8 8 0 0 0 13.32 0l25.34-38 25.34 38a8 8 0 0 0 13.32 0l32-48a8 8 0 0 0 .39-8.21m-54-36.23L128 113.58 111 88ZM96 161.58 79 136h34.1Zm64 0L143 136h34.1Z"/></svg>