<svg xmlns="http://www.w3.org/2000/svg" fill="currentColor" viewBox="0 0 256 256"><path d="M128 32a96 96 0 1 0 96 96 96 96 0 0 0-96-96M80 164V92l48 36Zm64 0V92l48 36Z" opacity=".2"/><path d="M128 24a104 104 0 1 0 104 104A104.11 104.11 0 0 0 128 24m0 192a88 88 0 1 1 88-88 88.1 88.1 0 0 1-88 88m68.8-94.4-48-36A8 8 0 0 0 136 92v72a8 8 0 0 0 12.8 6.4l48-36a8 8 0 0 0 0-12.8M152 148v-40l26.67 20Zm-19.2-26.4-48-36A8 8 0 0 0 72 92v72a8 8 0 0 0 12.8 6.4l48-36a8 8 0 0 0 0-12.8M88 148v-40l26.67 20Z"/></svg>