<svg xmlns="http://www.w3.org/2000/svg" fill="currentColor" viewBox="0 0 256 256"><path d="M200 128a32 32 0 1 1-32-32 32 32 0 0 1 32 32M96 96h40V32H96a32 32 0 0 0 0 64M64 196a36 36 0 0 0 72 0v-36h-36a36 36 0 0 0-36 36" opacity=".2"/><path d="M192 96a40 40 0 0 0-24-72H96a40 40 0 0 0-24 72 40 40 0 0 0 1.37 65A44 44 0 1 0 144 196v-36a40 40 0 1 0 48-64m0-32a24 24 0 0 1-24 24h-24V40h24a24 24 0 0 1 24 24M72 64a24 24 0 0 1 24-24h32v48H96a24 24 0 0 1-24-24m24 88a24 24 0 0 1 0-48h32v48zm32 44a28 28 0 1 1-28-28h28Zm40-44a24 24 0 1 1 24-24 24 24 0 0 1-24 24"/></svg>