<svg xmlns="http://www.w3.org/2000/svg" fill="currentColor" viewBox="0 0 256 256"><path d="M208 88h-56V32Z" opacity=".2"/><path d="m213.66 82.34-56-56A8 8 0 0 0 152 24H56a16 16 0 0 0-16 16v176a16 16 0 0 0 16 16h144a16 16 0 0 0 16-16V88a8 8 0 0 0-2.34-5.66M160 51.31 188.69 80H160ZM200 216H56V40h88v48a8 8 0 0 0 8 8h48zm-42.34-82.34L139.31 152l18.35 18.34a8 8 0 0 1-11.32 11.32L128 163.31l-18.34 18.35a8 8 0 0 1-11.32-11.32L116.69 152l-18.35-18.34a8 8 0 0 1 11.32-11.32L128 140.69l18.34-18.35a8 8 0 0 1 11.32 11.32"/></svg>