<svg xmlns="http://www.w3.org/2000/svg" fill="currentColor" viewBox="0 0 256 256"><path d="M208 88h-56V32Z" opacity=".2"/><path d="M184 144h-16a8 8 0 0 0-8 8v56a8 8 0 0 0 16 0v-8h8a28 28 0 0 0 0-56m0 40h-8v-24h8a12 12 0 0 1 0 24m-48-32v56a8 8 0 0 1-16 0v-56a8 8 0 0 1 16 0m-40 56a8 8 0 0 1-8 8H56a8 8 0 0 1-7-12l25.16-44H56a8 8 0 0 1 0-16h32a8 8 0 0 1 7 12l-25.21 44H88a8 8 0 0 1 8 8M213.66 82.34l-56-56A8 8 0 0 0 152 24H56a16 16 0 0 0-16 16v72a8 8 0 0 0 16 0V40h88v48a8 8 0 0 0 8 8h48v16a8 8 0 0 0 16 0V88a8 8 0 0 0-2.34-5.66M160 80V51.31L188.69 80Z"/></svg>