<svg xmlns="http://www.w3.org/2000/svg" fill="currentColor" viewBox="0 0 256 256"><path d="M208 88h-56V32Z" opacity=".2"/><path d="m213.66 82.34-56-56A8 8 0 0 0 152 24H56a16 16 0 0 0-16 16v72a8 8 0 0 0 16 0V40h88v48a8 8 0 0 0 8 8h48v128a8 8 0 0 0 16 0V88a8 8 0 0 0-2.34-5.66M160 51.31 188.69 80H160ZM144 144h-16a8 8 0 0 0-8 8v56a8 8 0 0 0 8 8h16a36 36 0 0 0 0-72m0 56h-8v-40h8a20 20 0 0 1 0 40m-40-48v56a8 8 0 0 1-16 0v-30.62l-13.45 19.21a8 8 0 0 1-13.1 0L48 177.38V208a8 8 0 0 1-16 0v-56a8 8 0 0 1 14.55-4.59L68 178.05l21.45-30.64A8 8 0 0 1 104 152"/></svg>