<svg xmlns="http://www.w3.org/2000/svg" fill="currentColor" viewBox="0 0 256 256"><path d="M224 72v128a8 8 0 0 1-8 8H40a8 8 0 0 1-8-8V72a8 8 0 0 1 8-8h176a8 8 0 0 1 8 8" opacity=".2"/><path d="M216 56h-40v-8a24 24 0 0 0-24-24h-48a24 24 0 0 0-24 24v8H40a16 16 0 0 0-16 16v128a16 16 0 0 0 16 16h176a16 16 0 0 0 16-16V72a16 16 0 0 0-16-16M96 48a8 8 0 0 1 8-8h48a8 8 0 0 1 8 8v8H96Zm120 152H40V72h176zm-56-64a8 8 0 0 1-8 8h-16v16a8 8 0 0 1-16 0v-16h-16a8 8 0 0 1 0-16h16v-16a8 8 0 0 1 16 0v16h16a8 8 0 0 1 8 8"/></svg>