<svg xmlns="http://www.w3.org/2000/svg" fill="currentColor" viewBox="0 0 256 256"><path d="M128 80H32V56a8 8 0 0 1 8-8h52.69a8 8 0 0 1 5.65 2.34Z" opacity=".2"/><path d="M96 208a8 8 0 0 1-8 8H39.38A15.4 15.4 0 0 1 24 200.62V192a8 8 0 0 1 16 0v8h48a8 8 0 0 1 8 8m64-8h-32a8 8 0 0 0 0 16h32a8 8 0 0 0 0-16m64-56a8 8 0 0 0-8 8v48h-16a8 8 0 0 0 0 16h16.89A15.13 15.13 0 0 0 232 200.89V152a8 8 0 0 0-8-8m-8-72h-48a8 8 0 0 0 0 16h48v24a8 8 0 0 0 16 0V88a16 16 0 0 0-16-16M24 80V56a16 16 0 0 1 16-16h52.69A15.86 15.86 0 0 1 104 44.69l29.66 29.65A8 8 0 0 1 128 88H32a8 8 0 0 1-8-8m16-8h68.69l-16-16H40Zm-8 88a8 8 0 0 0 8-8v-32a8 8 0 0 0-16 0v32a8 8 0 0 0 8 8"/></svg>