<svg xmlns="http://www.w3.org/2000/svg" fill="currentColor" viewBox="0 0 256 256"><path d="M232 80v88.89a7.11 7.11 0 0 1-7.11 7.11H200v-64a8 8 0 0 0-8-8h-72L90.13 81.6a8 8 0 0 0-4.8-1.6H64V56a8 8 0 0 1 8-8h45.33a8 8 0 0 1 4.8 1.6L152 72h72a8 8 0 0 1 8 8" opacity=".2"/><path d="M224 64h-69.33l-27.74-20.8a16.12 16.12 0 0 0-9.6-3.2H72a16 16 0 0 0-16 16v16H40a16 16 0 0 0-16 16v112a16 16 0 0 0 16 16h152.89A15.13 15.13 0 0 0 208 200.89V184h16.89A15.13 15.13 0 0 0 240 168.89V80a16 16 0 0 0-16-16m-32 136H40V88h45.33l29.87 22.4a8 8 0 0 0 4.8 1.6h72Zm32-32h-16v-56a16 16 0 0 0-16-16h-69.33L94.93 75.2a16.12 16.12 0 0 0-9.6-3.2H72V56h45.33l29.87 22.4A8 8 0 0 0 152 80h72Z"/></svg>