<svg xmlns="http://www.w3.org/2000/svg" fill="currentColor" viewBox="0 0 256 256"><path d="m112.19 137.74 15.62 52.52A8 8 0 0 1 120 200H72.14A91.91 91.91 0 0 1 32 124c0-50 40.65-91.26 90.69-92A92 92 0 0 1 216 124v4h-96a8 8 0 0 0-7.81 9.74" opacity=".2"/><path d="M96 164a12 12 0 1 1-12-12 12 12 0 0 1 12 12m136 12v32a16 16 0 0 1-16 16h-36a16.1 16.1 0 0 1-15.35-11.47L153.84 176h-21.93l3.56 12a5 5 0 0 1 .15.54A16 16 0 0 1 120 208H72.14a8 8 0 0 1-4.52-1.4A100 100 0 0 1 24 124c0-54.36 44.24-99.2 98.58-100A100 100 0 0 1 224 124v4a8 8 0 0 1-8 8h-57.29l7.09 24H216a16 16 0 0 1 16 16m-112-56h87.91a84 84 0 0 0-85.11-80C77.16 40.64 40 78.31 40 124a84 84 0 0 0 34.67 68H120l-15.45-52a5 5 0 0 1-.15-.54A16 16 0 0 1 120 120m29.11 40L142 136h-22l7.14 24ZM216 176h-45.48l9.48 32h36Z"/></svg>