<svg xmlns="http://www.w3.org/2000/svg" fill="currentColor" viewBox="0 0 256 256"><path d="M208 40v176a8 8 0 0 1-8 8H56a8 8 0 0 1-8-8V107.31a8 8 0 0 1 2.34-5.65l67.32-67.32a8 8 0 0 1 5.65-2.34H200a8 8 0 0 1 8 8" opacity=".2"/><path d="M200 24h-76.69A15.86 15.86 0 0 0 112 28.69L101.66 39 91.31 28.69a16 16 0 0 0-22.62 0l-24 24a16 16 0 0 0 0 22.62L55 85.66 44.69 96A15.86 15.86 0 0 0 40 107.31V216a16 16 0 0 0 16 16h144a16 16 0 0 0 16-16V40a16 16 0 0 0-16-16M56 64l24-24 10.34 10.34-24 24Zm144 152H56V107.31l16-16L123.31 40H200ZM128 64a8 8 0 0 1 8-8h40a8 8 0 0 1 0 16h-40a8 8 0 0 1-8-8m52.8 62.4L141.33 156l39.47 29.6a8 8 0 1 1-9.6 12.8L128 166l-43.2 32.4a8 8 0 0 1-9.6-12.8l39.47-29.6-39.47-29.6a8 8 0 0 1 9.6-12.8L128 146l43.2-32.4a8 8 0 0 1 9.6 12.8"/></svg>