<svg xmlns="http://www.w3.org/2000/svg" fill="currentColor" viewBox="0 0 256 256"><path d="M208 64v56a80 80 0 0 0-80 80 80 80 0 0 0-80-80V64a79.7 79.7 0 0 1 36.05 8.59C95.62 40.19 128 24 128 24s32.39 16.19 44 48.58A79.6 79.6 0 0 1 208 64" opacity=".2"/><path d="M53.92 34.62a8 8 0 1 0-11.84 10.76l9.73 10.71Q49.91 56 48 56a8 8 0 0 0-8 8v80a88 88 0 0 0 149.21 63.22l12.87 14.16a8 8 0 1 0 11.84-10.76ZM120 215.56A72.1 72.1 0 0 1 56 144v-15.56A72.1 72.1 0 0 1 120 200ZM56 112.37V72.44a71.3 71.3 0 0 1 13.18 2.75L136.29 149a88 88 0 0 0-8.29 14.37 88.16 88.16 0 0 0-72-51m80 103.19V200a72.1 72.1 0 0 1 11.36-38.81l31.08 34.19A71.85 71.85 0 0 1 136 215.56M216 64v80a88 88 0 0 1-3.15 23.4 8 8 0 0 1-7.71 5.88A7.8 7.8 0 0 1 203 173a8 8 0 0 1-5.59-9.83A72.6 72.6 0 0 0 200 144v-15.57a71.1 71.1 0 0 0-24.56 7.33 8 8 0 1 1-7.24-14.26 86.6 86.6 0 0 1 31.8-9.14V72.45a72.33 72.33 0 0 0-50.35 29.36 8 8 0 1 1-13-9.39 88.2 88.2 0 0 1 25.16-23.3C152.62 49.8 135.45 37.74 128 33.2a99.8 99.8 0 0 0-23.4 19.94 8 8 0 0 1-12.21-10.33 112.3 112.3 0 0 1 32-26 8 8 0 0 1 7.16 0c1.32.66 30.27 15.43 44.59 45.15A87.9 87.9 0 0 1 208 56a8 8 0 0 1 8 8"/></svg>