<svg xmlns="http://www.w3.org/2000/svg" fill="currentColor" viewBox="0 0 256 256"><path d="M208 64v56a80 80 0 0 0-80 80 80 80 0 0 0-80-80V64a79.7 79.7 0 0 1 36.05 8.59C95.62 40.19 128 24 128 24s32.39 16.19 44 48.58A79.6 79.6 0 0 1 208 64" opacity=".2"/><path d="M208 56a87.5 87.5 0 0 0-31.85 6c-14.32-29.7-43.25-44.46-44.57-45.13a8 8 0 0 0-7.16 0c-1.33.67-30.25 15.43-44.57 45.13A87.5 87.5 0 0 0 48 56a8 8 0 0 0-8 8v80a88 88 0 0 0 176 0V64a8 8 0 0 0-8-8m-88 159.56A72.1 72.1 0 0 1 56 144v-15.56A72.1 72.1 0 0 1 120 200Zm0-66.1a88 88 0 0 0-64-37.09V72.44A72.1 72.1 0 0 1 120 144ZM94.15 69.11c9.22-19.22 26.43-31.35 33.85-35.91 7.44 4.54 24.6 16.6 33.84 35.91A88.5 88.5 0 0 0 128 107.36a88.5 88.5 0 0 0-33.85-38.25M200 144a72.1 72.1 0 0 1-64 71.56V200a72.1 72.1 0 0 1 64-71.56Zm0-31.63a88 88 0 0 0-64 37.09V144a72.1 72.1 0 0 1 64-71.56Z"/></svg>