<svg xmlns="http://www.w3.org/2000/svg" fill="currentColor" viewBox="0 0 256 256"><path d="M152 128a24 24 0 1 1-24-24 24 24 0 0 1 24 24" opacity=".2"/><path d="M200 152a31.84 31.84 0 0 0-19.53 6.68l-23.11-18A31.65 31.65 0 0 0 160 128c0-.74 0-1.48-.08-2.21l13.23-4.41A32 32 0 1 0 168 104c0 .74 0 1.48.08 2.21l-13.23 4.41A32 32 0 0 0 128 96a32.6 32.6 0 0 0-5.27.44L115.89 81A32 32 0 1 0 96 88a32.6 32.6 0 0 0 5.27-.44l6.84 15.4a31.92 31.92 0 0 0-8.57 39.64l-25.71 22.84a32.06 32.06 0 1 0 10.63 12l25.71-22.84a31.91 31.91 0 0 0 37.36-1.24l23.11 18A31.65 31.65 0 0 0 168 184a32 32 0 1 0 32-32m0-64a16 16 0 1 1-16 16 16 16 0 0 1 16-16M80 56a16 16 0 1 1 16 16 16 16 0 0 1-16-16M56 208a16 16 0 1 1 16-16 16 16 0 0 1-16 16m56-80a16 16 0 1 1 16 16 16 16 0 0 1-16-16m88 72a16 16 0 1 1 16-16 16 16 0 0 1-16 16"/></svg>