<svg xmlns="http://www.w3.org/2000/svg" fill="currentColor" viewBox="0 0 256 256"><path d="M155.2 100.8c-23-23-55.57-27.63-72.8-10.4a34.2 34.2 0 0 0-7.61 11.66 16.23 16.23 0 0 1-14.72 10C48 112.44 37 116.61 28.8 124.8 7.6 146 13.33 186.12 41.6 214.4s68.39 34 89.6 12.8c8.19-8.2 12.36-19.2 12.8-31.27a16.23 16.23 0 0 1 10-14.72 34.2 34.2 0 0 0 11.66-7.61c17.17-17.23 12.51-49.82-10.46-72.8M112 168a24 24 0 1 1 24-24 24 24 0 0 1-24 24" opacity=".2"/><path d="m249.66 46.34-40-40a8 8 0 0 0-11.31 11.32l2.34 2.34-60.17 60.16c-22.79-11.86-48.31-10.87-63.77 4.58a42.3 42.3 0 0 0-9.39 14.37 8.24 8.24 0 0 1-7.55 4.89c-14.59.49-27.26 5.72-36.65 15.11C11.08 131.22 6 148.6 8.74 168.07 11.4 186.7 21.07 205.15 36 220s33.34 24.56 52 27.22a71 71 0 0 0 10.1.78c15.32 0 28.83-5.23 38.76-15.16 9.39-9.39 14.62-22.06 15.11-36.65a8.24 8.24 0 0 1 4.92-7.55 42.1 42.1 0 0 0 14.37-9.39c15.45-15.46 16.44-41 4.58-63.77L236 55.31l2.34 2.34a8 8 0 1 0 11.32-11.31M160 167.93a26.1 26.1 0 0 1-8.95 5.83 24.24 24.24 0 0 0-15 21.89c-.36 10.46-4 19.41-10.43 25.88-8.44 8.43-21 11.95-35.36 9.89-15.26-2.17-30.53-10.23-42.99-22.69S26.75 181 24.58 165.81c-2-14.37 1.46-26.92 9.89-35.36C40.94 124 49.89 120.37 60.35 120a24.22 24.22 0 0 0 21.89-15 26.1 26.1 0 0 1 5.83-9c5.49-5.49 13-8.13 21.38-8.13a49.4 49.4 0 0 1 19.13 4.19l-20.08 20.13a32 32 0 1 0 35.31 35.31l20.08-20.08c6.52 15.29 5.58 30.99-3.89 40.51m-10.4-61.48a73 73 0 0 1 5.93 6.75l-15.42 15.42a32.2 32.2 0 0 0-12.68-12.68l15.42-15.43a73 73 0 0 1 6.7 5.94ZM112 128a16 16 0 0 1 16 16 16 16 0 1 1-16-16m48.85-32.85a87 87 0 0 0-6.68-6L176 67.31 188.69 80l-21.83 21.82a87 87 0 0 0-6-6.68ZM200 68.68 187.32 56 212 31.31 224.69 44ZM93.66 194.33a8 8 0 0 1-11.31 11.32l-32-32a8 8 0 0 1 11.32-11.31Z"/></svg>