<svg xmlns="http://www.w3.org/2000/svg" fill="currentColor" viewBox="0 0 256 256"><path d="M216 152v48a8 8 0 0 1-8 8H48a8 8 0 0 1-8-8v-48a8 8 0 0 1 8-8h160a8 8 0 0 1 8 8m-8-104H48a8 8 0 0 0-8 8v48a8 8 0 0 0 8 8h160a8 8 0 0 0 8-8V56a8 8 0 0 0-8-8" opacity=".2"/><path d="M208 136H48a16 16 0 0 0-16 16v48a16 16 0 0 0 16 16h160a16 16 0 0 0 16-16v-48a16 16 0 0 0-16-16m0 64H48v-48h160zm0-160H48a16 16 0 0 0-16 16v48a16 16 0 0 0 16 16h160a16 16 0 0 0 16-16V56a16 16 0 0 0-16-16m0 64H48V56h160zm-16-24a12 12 0 1 1-12-12 12 12 0 0 1 12 12m0 96a12 12 0 1 1-12-12 12 12 0 0 1 12 12"/></svg>