<svg xmlns="http://www.w3.org/2000/svg" fill="currentColor" viewBox="0 0 256 256"><path d="M192 184v32a8 8 0 0 1-8 8H72a8 8 0 0 1-8-8v-32Z" opacity=".2"/><path d="M200 75.64V40a16 16 0 0 0-16-16H72a16 16 0 0 0-16 16v36a16.07 16.07 0 0 0 6.4 12.8l52.27 39.2-52.27 39.2A16.07 16.07 0 0 0 56 180v36a16 16 0 0 0 16 16h112a16 16 0 0 0 16-16v-35.64a16.08 16.08 0 0 0-6.35-12.76L141.27 128l52.38-39.59A16.09 16.09 0 0 0 200 75.64M178.23 176H77.33L128 138ZM72 216v-24h112v24ZM184 75.64 128 118 72 76V40h112Z"/></svg>