<svg xmlns="http://www.w3.org/2000/svg" fill="currentColor" viewBox="0 0 256 256"><path d="M200 216H56a8 8 0 0 1-5.66-13.66L77.87 176h100.26l27.51 26.34A8 8 0 0 1 200 216" opacity=".2"/><path d="M211.18 196.56 139.57 128l71.61-68.56a2 2 0 0 1 .13-.13A16 16 0 0 0 200 32H56a16 16 0 0 0-11.31 27.31 2 2 0 0 1 .13.13L116.43 128l-71.61 68.56a2 2 0 0 1-.13.13A16 16 0 0 0 56 224h144a16 16 0 0 0 11.32-27.31 2 2 0 0 1-.14-.13M158.21 168H97.79L128 139.08ZM200 48l-72 68.92L56 48ZM56 208l25.06-24h93.84l25.1 24Z"/></svg>