<svg xmlns="http://www.w3.org/2000/svg" fill="currentColor" viewBox="0 0 256 256"><path d="M168 96a72 72 0 0 1-72 72 73 73 0 0 1-7.6-.4 73 73 0 0 1-.4-7.6 72 72 0 0 1 72-72 73 73 0 0 1 7.6.4 73 73 0 0 1 .4 7.6" opacity=".2"/><path d="M174.63 81.37a80 80 0 1 0-93.26 93.26 80 80 0 1 0 93.26-93.26M32 96a64 64 0 0 1 126-16 80.08 80.08 0 0 0-77.95 78A64.11 64.11 0 0 1 32 96m128 0a64.07 64.07 0 0 1-64 64 64.07 64.07 0 0 1 64-64m0 128a64.11 64.11 0 0 1-62-48 80.08 80.08 0 0 0 78-78 64 64 0 0 1-16 126"/></svg>