<svg xmlns="http://www.w3.org/2000/svg" fill="currentColor" viewBox="0 0 256 256"><path d="M104.64 147.28a60 60 0 0 1-36-46.56A60.06 60.06 0 0 1 128 108a59.94 59.94 0 0 0-23.36 39.28m0 0A60 60 0 0 0 128 204a60 60 0 0 0 23.36-56.72 60.17 60.17 0 0 1-46.72 0m82.72-46.56A60.06 60.06 0 0 0 128 108a59.94 59.94 0 0 1 23.36 39.28 60 60 0 0 0 36-46.56" opacity=".2"/><path d="M195.88 96c.07-1.31.12-2.63.12-4a68 68 0 0 0-136 0c0 1.33 0 2.65.12 4A68 68 0 1 0 128 213.65 68 68 0 1 0 195.88 96M128 193.47a51.9 51.9 0 0 1-16-35.38 67.55 67.55 0 0 0 31.9 0 51.9 51.9 0 0 1-15.9 35.38m0-49.47a52 52 0 0 1-14.08-1.95A52.06 52.06 0 0 1 128 118.53a52.06 52.06 0 0 1 14.08 23.52A52 52 0 0 1 128 144m-28.77-8.71A52.2 52.2 0 0 1 77.92 106a51.88 51.88 0 0 1 36.79 3.28 68.2 68.2 0 0 0-15.48 26.01m42.06-26.06a51.88 51.88 0 0 1 36.79-3.23 52.2 52.2 0 0 1-21.31 29.34 68.2 68.2 0 0 0-15.48-26.11M128 40a52.06 52.06 0 0 1 52 49.91 67.72 67.72 0 0 0-52 8.44 67.72 67.72 0 0 0-51.95-8.44A52.06 52.06 0 0 1 128 40M40 156a52 52 0 0 1 23.23-43.29A68.36 68.36 0 0 0 96.12 152c-.07 1.31-.12 2.63-.12 4a67.74 67.74 0 0 0 18.71 46.77A52 52 0 0 1 40 156m124 52a51.65 51.65 0 0 1-22.71-5.23A67.74 67.74 0 0 0 160 156c0-1.33-.05-2.65-.12-4a68.36 68.36 0 0 0 32.89-39.33A52 52 0 0 1 164 208"/></svg>