<svg xmlns="http://www.w3.org/2000/svg" fill="currentColor" viewBox="0 0 256 256"><path d="M187.64 160h-63.28L156 73Z" opacity=".2"/><path d="M215.52 213.26 164.51 73l9.09-25H184a8 8 0 0 0 0-16H88a8 8 0 0 0 0 16h4.58l-60.1 165.26a8 8 0 0 0 4.79 10.26A8.1 8.1 0 0 0 40 224a8 8 0 0 0 7.52-5.27L57.24 192h47l-7.74 21.26a8 8 0 0 0 4.79 10.26 8.1 8.1 0 0 0 2.71.48 8 8 0 0 0 7.52-5.27L130 168h52l18.45 50.73A8 8 0 0 0 208 224a8.1 8.1 0 0 0 2.73-.48 8 8 0 0 0 4.79-10.26m-88-85.26h-47l11.63-32h47Zm29.09-80-11.67 32H98l11.6-32ZM63.06 176l11.64-32h47L110 176Zm72.72-24L156 96.41 176.21 152Z"/></svg>