<svg xmlns="http://www.w3.org/2000/svg" fill="currentColor" viewBox="0 0 256 256"><path d="M208 80v96a24 24 0 0 1-24 24H72a24 24 0 0 1-24-24V80a24 24 0 0 1 24-24h112a24 24 0 0 1 24 24" opacity=".2"/><path d="M100 124a12 12 0 1 1 12-12 12 12 0 0 1-12 12m56-24a12 12 0 1 0 12 12 12 12 0 0 0-12-12m-4.27 45.23a45 45 0 0 1-47.46 0 8 8 0 0 0-8.54 13.54 61 61 0 0 0 64.54 0 8 8 0 0 0-8.54-13.54M216 80v96a32.06 32.06 0 0 1-24 31v17a16 16 0 0 1-16 16H80a16 16 0 0 1-16-16v-17a32.06 32.06 0 0 1-24-31V80a32 32 0 0 1 32-32h16V32a16 16 0 0 1 16-16h48a16 16 0 0 1 16 16v16h16a32 32 0 0 1 32 32M104 48h48V32h-48Zm72 176v-16H80v16Zm24-144a16 16 0 0 0-16-16H72a16 16 0 0 0-16 16v96a16 16 0 0 0 16 16h112a16 16 0 0 0 16-16Z"/></svg>