<svg xmlns="http://www.w3.org/2000/svg" fill="currentColor" viewBox="0 0 256 256"><path d="m205.6 159.41 8.07 32.59L184 174.54 154.33 192l8.07-32.59-26.4-21.8 34.65-2.67L184 104l13.35 30.94 34.65 2.67Z" opacity=".2"/><path d="M32 64a8 8 0 0 1 8-8h176a8 8 0 0 1 0 16H40a8 8 0 0 1-8-8m8 72h56a8 8 0 0 0 0-16H40a8 8 0 0 0 0 16m72 48H40a8 8 0 0 0 0 16h72a8 8 0 0 0 0-16m125.09-40.22-22.52 18.59 6.86 27.71a8 8 0 0 1-11.82 8.81L184 183.82l-25.61 15.07a8 8 0 0 1-11.82-8.81l6.85-27.71-22.51-18.59a8 8 0 0 1 4.47-14.14l29.84-2.31 11.43-26.5a8 8 0 0 1 14.7 0l11.43 26.5 29.84 2.31a8 8 0 0 1 4.47 14.14m-25.47.28-14.89-1.15a8 8 0 0 1-6.73-4.8l-6-13.92-6 13.92a8 8 0 0 1-6.73 4.8l-14.89 1.15 11.11 9.18a8 8 0 0 1 2.68 8.09l-3.5 14.12 13.27-7.81a8 8 0 0 1 8.12 0l13.27 7.81-3.5-14.12a8 8 0 0 1 2.68-8.09Z"/></svg>