<svg xmlns="http://www.w3.org/2000/svg" fill="currentColor" viewBox="0 0 256 256"><path d="M176 112 74.34 213.66a8 8 0 0 1-11.31 0L42.34 193a8 8 0 0 1 0-11.31L144 80Z" opacity=".2"/><path d="M248 152a8 8 0 0 1-8 8h-16v16a8 8 0 0 1-16 0v-16h-16a8 8 0 0 1 0-16h16v-16a8 8 0 0 1 16 0v16h16a8 8 0 0 1 8 8M56 72h16v16a8 8 0 0 0 16 0V72h16a8 8 0 0 0 0-16H88V40a8 8 0 0 0-16 0v16H56a8 8 0 0 0 0 16m128 120h-8v-8a8 8 0 0 0-16 0v8h-8a8 8 0 0 0 0 16h8v8a8 8 0 0 0 16 0v-8h8a8 8 0 0 0 0-16m35.31-112L80 219.31a16 16 0 0 1-22.62 0l-20.7-20.68a16 16 0 0 1 0-22.63L176 36.69a16 16 0 0 1 22.63 0l20.68 20.68a16 16 0 0 1 0 22.63m-54.63 32L144 91.31l-96 96L68.68 208ZM208 68.69 187.31 48l-32 32L176 100.69Z"/></svg>