<svg xmlns="http://www.w3.org/2000/svg" fill="currentColor" viewBox="0 0 256 256"><path d="M208 104c0 72-80 128-80 128s-80-56-80-128a80 80 0 0 1 160 0" opacity=".2"/><path d="M128 16a88.1 88.1 0 0 0-88 88c0 31.4 14.51 64.68 42 96.25a254.2 254.2 0 0 0 41.45 38.3 8 8 0 0 0 9.18 0 254.2 254.2 0 0 0 41.37-38.3c27.45-31.57 42-64.85 42-96.25a88.1 88.1 0 0 0-88-88m0 206c-16.53-13-72-60.75-72-118a72 72 0 0 1 144 0c0 57.23-55.47 105-72 118m40-118a8 8 0 0 1-8 8h-24v24a8 8 0 0 1-16 0v-24H96a8 8 0 0 1 0-16h24V72a8 8 0 0 1 16 0v24h24a8 8 0 0 1 8 8"/></svg>