<svg xmlns="http://www.w3.org/2000/svg" fill="currentColor" viewBox="0 0 256 256"><path d="M128 24a80 80 0 0 0-80 80c0 72 80 128 80 128s80-56 80-128a80 80 0 0 0-80-80m0 112a32 32 0 1 1 32-32 32 32 0 0 1-32 32" opacity=".2"/><path d="M200 224h-49.46A267 267 0 0 0 174 200.25c27.45-31.57 42-64.85 42-96.25a88 88 0 0 0-176 0c0 31.4 14.51 64.68 42 96.25A267 267 0 0 0 105.46 224H56a8 8 0 0 0 0 16h144a8 8 0 0 0 0-16M56 104a72 72 0 0 1 144 0c0 57.23-55.47 105-72 118-16.53-13-72-60.77-72-118m112 0a40 40 0 1 0-40 40 40 40 0 0 0 40-40m-64 0a24 24 0 1 1 24 24 24 24 0 0 1-24-24"/></svg>