<svg xmlns="http://www.w3.org/2000/svg" fill="currentColor" viewBox="0 0 256 256"><path d="M152 80v96a8 8 0 0 1-8 8H40a8 8 0 0 1-8-8V80a8 8 0 0 1 8-8h104a8 8 0 0 1 8 8" opacity=".2"/><path d="M96 96H80a8 8 0 0 0-8 8v48a8 8 0 0 0 16 0v-8h8a24 24 0 0 0 0-48m0 32h-8v-16h8a8 8 0 0 1 0 16m40-104a104.33 104.33 0 0 0-82 40H40a16 16 0 0 0-16 16v96a16 16 0 0 0 16 16h14a104 104 0 1 0 82-168m87.63 96H160V80a16 16 0 0 0-16-16V40.37A88.13 88.13 0 0 1 223.63 120M128 40.37V64H75.63A88.36 88.36 0 0 1 128 40.37M40 80h104v47.9a.5.5 0 0 0 0 .2V176H40Zm88 112v23.63A88.36 88.36 0 0 1 75.63 192Zm16 23.63V192a16 16 0 0 0 16-16v-40h63.63A88.13 88.13 0 0 1 144 215.63"/></svg>