<svg xmlns="http://www.w3.org/2000/svg" fill="currentColor" viewBox="0 0 256 256"><path d="M210.69 158.18A88 88 0 1 1 97.82 45.31 96.08 96.08 0 0 0 192 160a97 97 0 0 0 18.69-1.82" opacity=".2"/><path d="M240 96a8 8 0 0 1-8 8h-16v16a8 8 0 0 1-16 0v-16h-16a8 8 0 0 1 0-16h16V72a8 8 0 0 1 16 0v16h16a8 8 0 0 1 8 8m-96-40h8v8a8 8 0 0 0 16 0v-8h8a8 8 0 0 0 0-16h-8v-8a8 8 0 0 0-16 0v8h-8a8 8 0 0 0 0 16m72.77 97a8 8 0 0 1 1.43 8A96 96 0 1 1 95.07 37.8a8 8 0 0 1 10.6 9.06 88.07 88.07 0 0 0 103.47 103.47 8 8 0 0 1 7.63 2.67m-19.39 14.88c-1.79.09-3.59.14-5.38.14A104.11 104.11 0 0 1 88 64c0-1.79 0-3.59.14-5.38a80 80 0 1 0 109.24 109.24Z"/></svg>