<svg xmlns="http://www.w3.org/2000/svg" fill="currentColor" viewBox="0 0 256 256"><path d="M216 48v160a8 8 0 0 1-8 8H48a8 8 0 0 1-8-8V48a8 8 0 0 1 8-8h160a8 8 0 0 1 8 8" opacity=".2"/><path d="M128 72c-14.23 0-26 6.44-34 18.61-6.47 9.86-10 23.14-10 37.39s3.56 27.53 10 37.39c8 12.17 19.74 18.61 34 18.61s26-6.44 34-18.61c6.47-9.86 10-23.14 10-37.39s-3.56-27.53-10-37.39C154 78.44 142.23 72 128 72m0 96c-22.1 0-28-25.14-28-40s5.9-40 28-40 28 25.14 28 40-5.9 40-28 40m80-136H48a16 16 0 0 0-16 16v160a16 16 0 0 0 16 16h160a16 16 0 0 0 16-16V48a16 16 0 0 0-16-16m0 176H48V48h160z"/></svg>