<svg xmlns="http://www.w3.org/2000/svg" fill="currentColor" viewBox="0 0 256 256"><path d="M224 128a96 96 0 1 1-96-96 96 96 0 0 1 96 96" opacity=".2"/><path d="M128 24a104 104 0 1 0 104 104A104.11 104.11 0 0 0 128 24m0 192a88 88 0 1 1 88-88 88.1 88.1 0 0 1-88 88m0-144c-14.23 0-26 6.44-34 18.61-6.47 9.86-10 23.14-10 37.39s3.56 27.53 10 37.39c8 12.18 19.74 18.61 34 18.61s26-6.43 34-18.61c6.47-9.86 10-23.14 10-37.39s-3.56-27.53-10-37.39C154 78.44 142.23 72 128 72m0 96c-22.1 0-28-25.14-28-40s5.9-40 28-40 28 25.14 28 40-5.9 40-28 40"/></svg>