<svg xmlns="http://www.w3.org/2000/svg" fill="currentColor" viewBox="0 0 256 256"><path d="M224 91.55v72.9a8 8 0 0 1-2.34 5.66l-51.55 51.55a8 8 0 0 1-5.66 2.34h-72.9a8 8 0 0 1-5.66-2.34l-51.55-51.55a8 8 0 0 1-2.34-5.66v-72.9a8 8 0 0 1 2.34-5.66l51.55-51.55A8 8 0 0 1 91.55 32h72.9a8 8 0 0 1 5.66 2.34l51.55 51.55a8 8 0 0 1 2.34 5.66" opacity=".2"/><path d="m227.31 80.24-51.55-51.55A15.86 15.86 0 0 0 164.45 24h-72.9a15.86 15.86 0 0 0-11.31 4.69L28.69 80.24A15.86 15.86 0 0 0 24 91.55v72.9a15.86 15.86 0 0 0 4.69 11.31l51.55 51.55A15.86 15.86 0 0 0 91.55 232h72.9a15.86 15.86 0 0 0 11.31-4.69l51.55-51.55a15.86 15.86 0 0 0 4.69-11.31v-72.9a15.86 15.86 0 0 0-4.69-11.31M216 164.45 164.45 216h-72.9L40 164.45v-72.9L91.55 40h72.9L216 91.55Z"/></svg>