<svg xmlns="http://www.w3.org/2000/svg" fill="currentColor" viewBox="0 0 256 256"><path d="m96 174.19 56-32.33v36.95l-44.5 25.69a48 48 0 0 1-66.4-64.08 48 48 0 0 0 10.4 8.08Zm108.5-66.69L160 81.81l-32 18.48 56 32.33V184a48 48 0 0 1-1.81 13 48 48 0 0 0 22.31-89.5M104 77.19l44.5-25.69a47.8 47.8 0 0 1 12.19-5A48 48 0 0 0 72 72v51.38l32 18.48Z" opacity=".2"/><path d="M224.32 114.24a56 56 0 0 0-60.07-76.57 56 56 0 0 0-96.32 13.77 56 56 0 0 0-36.25 90.32A56 56 0 0 0 69 217a56.4 56.4 0 0 0 14.59 2 56 56 0 0 0 8.17-.61 56 56 0 0 0 96.31-13.78 56 56 0 0 0 36.25-90.32Zm-41.47-59.81a40 40 0 0 1 28.56 48 51 51 0 0 0-2.91-1.81L164 74.88a8 8 0 0 0-8 0l-44 25.41V81.81l40.5-23.38a39.76 39.76 0 0 1 30.35-4M144 137.24l-16 9.24-16-9.24v-18.48l16-9.24 16 9.24ZM80 72a40 40 0 0 1 67.53-29c-1 .51-2 1-3 1.62L100 70.27a8 8 0 0 0-4 6.92V128l-16-9.24ZM40.86 86.93a39.75 39.75 0 0 1 23.26-18.36A56 56 0 0 0 64 72v51.38a8 8 0 0 0 4 6.93l44 25.4L96 165l-40.5-23.43a40 40 0 0 1-14.64-54.64m32.29 114.64a40 40 0 0 1-28.56-48c.95.63 1.91 1.24 2.91 1.81L92 181.12a8 8 0 0 0 8 0l44-25.41v18.48l-40.5 23.38a39.76 39.76 0 0 1-30.35 4M176 184a40 40 0 0 1-67.52 29.05c1-.51 2-1.05 3-1.63L156 185.73a8 8 0 0 0 4-6.92V128l16 9.24Zm39.14-14.93a39.75 39.75 0 0 1-23.26 18.36c.07-1.14.12-2.28.12-3.43v-51.38a8 8 0 0 0-4-6.93l-44-25.4 16-9.24 40.5 23.38a40 40 0 0 1 14.64 54.64"/></svg>