<svg xmlns="http://www.w3.org/2000/svg" fill="currentColor" viewBox="0 0 256 256"><path d="M180.75 104.75 204 128l-82.06 81.94a48 48 0 0 1-67.88-67.88l99.31-100.69a32 32 0 0 1 45.26 45.26Z" opacity=".2"/><path d="M209.66 122.34a8 8 0 0 1 0 11.32l-82.05 82a56 56 0 0 1-79.2-79.21l99.26-100.72a40 40 0 1 1 56.61 56.55L105 193a24 24 0 1 1-34-34l83.3-84.62a8 8 0 1 1 11.4 11.22l-83.31 84.71a8 8 0 1 0 11.27 11.36L192.93 81A24 24 0 1 0 159 47L59.76 147.68a40 40 0 1 0 56.53 56.62l82.06-82a8 8 0 0 1 11.31.04"/></svg>