<svg xmlns="http://www.w3.org/2000/svg" fill="currentColor" viewBox="0 0 256 256"><path d="M256 72v112a16 16 0 0 1-16 16H16a16 16 0 0 1-16-16V72a16 16 0 0 1 16-16h224a16 16 0 0 1 16 16" opacity=".2"/><path d="M48 56v144a8 8 0 0 1-16 0V56a8 8 0 0 1 16 0m92 54.5-20 6.5V96a8 8 0 0 0-16 0v21l-20-6.5a8 8 0 0 0-5 15.22l20 6.49-12.34 17a8 8 0 1 0 12.94 9.4l12.34-17 12.34 17a8 8 0 1 0 12.94-9.4l-12.34-17 20-6.49A8 8 0 0 0 140 110.5m106 5.14a8 8 0 0 0-10-5.14l-20 6.5V96a8 8 0 0 0-16 0v21l-20-6.49a8 8 0 0 0-4.95 15.22l20 6.49-12.34 17a8 8 0 1 0 12.94 9.4l12.34-17 12.34 17a8 8 0 1 0 12.94-9.4l-12.34-17 20-6.49a8 8 0 0 0 5.07-10.09"/></svg>