<svg xmlns="http://www.w3.org/2000/svg" fill="currentColor" viewBox="0 0 256 256"><path d="M221.66 90.34 192 120l-56-56 29.66-29.66a8 8 0 0 1 11.31 0L221.66 79a8 8 0 0 1 0 11.34" opacity=".2"/><path d="m227.32 73.37-44.69-44.68a16 16 0 0 0-22.63 0L36.69 152A15.86 15.86 0 0 0 32 163.31V208a16 16 0 0 0 16 16h44.69a15.86 15.86 0 0 0 11.31-4.69l83.67-83.66 3.48 13.9-36.8 36.79a8 8 0 0 0 11.31 11.32l40-40a8 8 0 0 0 2.11-7.6l-6.9-27.61L227.32 96a16 16 0 0 0 0-22.63M48 208v-28.69L76.69 208Zm48-3.31L51.31 160 136 75.31 180.69 120Zm96-96L147.32 64l24-24L216 84.69Z"/></svg>