<svg xmlns="http://www.w3.org/2000/svg" fill="currentColor" viewBox="0 0 256 256"><path d="M221.66 90.34 192 120l-56-56 29.66-29.66a8 8 0 0 1 11.31 0L221.66 79a8 8 0 0 1 0 11.34" opacity=".2"/><path d="m227.31 73.37-44.68-44.69a16 16 0 0 0-22.63 0L36.69 152A15.86 15.86 0 0 0 32 163.31V208a16 16 0 0 0 16 16h44.69a15.86 15.86 0 0 0 11.31-4.69L227.31 96a16 16 0 0 0 0-22.63M51.31 160 136 75.31 152.69 92 68 176.68ZM48 179.31 76.69 208H48Zm48 25.38L79.31 188 164 103.31 180.69 120Zm96-96L147.31 64l24-24L216 84.68Z"/></svg>