<svg xmlns="http://www.w3.org/2000/svg" fill="currentColor" viewBox="0 0 256 256"><path d="m132.14 108.12 57.45 57.46C147.85 178.63 119.12 134.49 80 136l38.94-38.95a96 96 0 0 1 13.2 11.07M176 48a24 24 0 1 0 24 24 24 24 0 0 0-24-24" opacity=".2"/><path d="M176 104a32 32 0 1 0-32-32 32 32 0 0 0 32 32m0-48a16 16 0 1 1-16 16 16 16 0 0 1 16-16m46.16 129.24a8 8 0 0 1-1 11.26c-17.36 14.39-32.86 19.5-47 19.5-18.58 0-34.82-8.82-49.93-17-25.35-13.76-47.24-25.65-79.07.74a8 8 0 1 1-10.22-12.31c40.17-33.29 70.32-16.93 96.93-2.49 25.35 13.77 47.24 25.65 79.07-.74a8 8 0 0 1 11.22 1.04M34.89 147.42a8 8 0 1 0 10.22 12.31c31.83-26.38 53.72-14.5 79.07-.74 15.11 8.2 31.35 17 49.93 17 14.14 0 29.64-5.11 47-19.5a8 8 0 1 0-10.22-12.31 75.8 75.8 0 0 1-19.28 12.06l-53.84-53.82A103.34 103.34 0 0 0 64.24 72H40a8 8 0 0 0 0 16h24.24a87.66 87.66 0 0 1 41.88 10.56l-29.63 29.61c-12.67 1.18-26.42 6.67-41.6 19.25m91.57-33.67 46.13 46.12c-14-.43-26.88-7.39-40.77-14.93-10.75-5.84-22.09-12-34.42-15.05l22.26-22.26a87 87 0 0 1 6.8 6.12"/></svg>