<svg xmlns="http://www.w3.org/2000/svg" fill="currentColor" viewBox="0 0 256 256"><path d="M232 176a32 32 0 1 1-32-32 32 32 0 0 1 32 32M56 144a32 32 0 1 0 32 32 32 32 0 0 0-32-32" opacity=".2"/><path d="M164 80a28 28 0 1 0-28-28 28 28 0 0 0 28 28m0-40a12 12 0 1 1-12 12 12 12 0 0 1 12-12m36 96a40 40 0 1 0 40 40 40 40 0 0 0-40-40m0 64a24 24 0 1 1 24-24 24 24 0 0 1-24 24M56 136a40 40 0 1 0 40 40 40 40 0 0 0-40-40m0 64a24 24 0 1 1 24-24 24 24 0 0 1-24 24m136-80h-40a8 8 0 0 1-5.66-2.34L120 91.31 99.31 112l34.35 34.34A8 8 0 0 1 136 152v48a8 8 0 0 1-16 0v-44.69l-37.66-37.65a8 8 0 0 1 0-11.32l32-32a8 8 0 0 1 11.32 0L155.31 104H192a8 8 0 0 1 0 16"/></svg>