<svg xmlns="http://www.w3.org/2000/svg" fill="currentColor" viewBox="0 0 256 256"><path d="M223.94 174.08A48.33 48.33 0 0 1 176 216 136 136 0 0 1 40 80a48.33 48.33 0 0 1 41.92-47.94 8 8 0 0 1 8.3 4.8l21.13 47.2a8 8 0 0 1-.66 7.53L89.32 117a7.93 7.93 0 0 0-.54 7.81c8.27 16.93 25.77 34.22 42.75 42.41a7.92 7.92 0 0 0 7.83-.59l25-21.3a8 8 0 0 1 7.59-.69l47.16 21.13a8 8 0 0 1 4.83 8.31" opacity=".2"/><path d="m222.37 158.46-47.11-21.11-.13-.06a16 16 0 0 0-15.17 1.4 8 8 0 0 0-.75.56L134.87 160c-15.42-7.49-31.34-23.29-38.83-38.51l20.78-24.71c.2-.25.39-.5.57-.77a16 16 0 0 0 1.32-15.06v-.12L97.54 33.64a16 16 0 0 0-16.62-9.52A56.26 56.26 0 0 0 32 80c0 79.4 64.6 144 144 144a56.26 56.26 0 0 0 55.88-48.92 16 16 0 0 0-9.51-16.62M176 208A128.14 128.14 0 0 1 48 80a40.2 40.2 0 0 1 34.87-40 .6.6 0 0 0 0 .12l21 47-20.67 24.74a6 6 0 0 0-.57.77 16 16 0 0 0-1 15.7c9.06 18.53 27.73 37.06 46.46 46.11a16 16 0 0 0 15.75-1.14 8 8 0 0 0 .74-.56L168.89 152l47 21.05h.11A40.21 40.21 0 0 1 176 208"/></svg>