<svg xmlns="http://www.w3.org/2000/svg" fill="currentColor" viewBox="0 0 256 256"><path d="m218 91.76-30.87 50.64A32 32 0 1 0 154 196.78l-19.13 31.38a8 8 0 0 1-13.7 0L84.3 167.71a32 32 0 1 0-30.48-50L38 91.76a159.77 159.77 0 0 1 180 0" opacity=".2"/><path d="M239.54 63a15.9 15.9 0 0 0-7.25-9.9 201.49 201.49 0 0 0-208.58 0 16 16 0 0 0-5.37 22l96 157.27a16 16 0 0 0 27.36 0l52.3-85.84 43.61-71.45A15.82 15.82 0 0 0 239.54 63M63.59 118.5a24 24 0 1 1 24.47 40.09Zm87.92 66.95A24 24 0 0 1 176 145.37Zm32.93-53.93a40 40 0 0 0-41.38 67.77L128 224l-31.5-51.57a40 40 0 1 0-41.35-67.76L48.8 94.26a152 152 0 0 1 158.39 0Zm31.1-50.93a168.12 168.12 0 0 0-175.08 0L32 66.77a185.6 185.6 0 0 1 192 0Z"/></svg>