<svg xmlns="http://www.w3.org/2000/svg" fill="currentColor" viewBox="0 0 256 256"><path d="M138.54 149.46C106.62 96.25 149.18 43.05 239.63 48.37c5.37 90.45-47.88 133.02-101.09 101.09M16.26 88.26c-3.8 64.61 34.21 95 72.21 72.21 22.8-38-7.6-76.01-72.21-72.21" opacity=".2"/><path d="M247.63 47.89a8 8 0 0 0-7.52-7.52c-51.76-3-93.32 12.74-111.18 42.22-11.8 19.48-11.78 43.16-.16 65.74a71.4 71.4 0 0 0-14.17 26.95L98.33 159c7.82-16.33 7.52-33.36-1-47.49C84.09 89.73 53.62 78 15.79 80.27a8 8 0 0 0-7.52 7.52c-2.23 37.83 9.46 68.3 31.25 81.5A45.8 45.8 0 0 0 63.44 176 54.6 54.6 0 0 0 87 170.33l25 25V224a8 8 0 0 0 16 0v-29.49a55.6 55.6 0 0 1 12.27-35 73.9 73.9 0 0 0 33.31 8.4 60.9 60.9 0 0 0 31.83-8.86c29.48-17.84 45.26-59.4 42.22-111.16M86.06 146.74l-24.41-24.4a8 8 0 0 0-11.31 11.31l24.41 24.41c-9.61 3.18-18.93 2.39-26.94-2.46C32.47 146.31 23.79 124.32 24 96c28.31-.25 50.31 8.47 59.6 23.81 4.85 8.01 5.64 17.33 2.46 26.93m111.06-1.36c-13.4 8.11-29.15 8.73-45.15 2l53.69-53.7a8 8 0 0 0-11.31-11.32L140.65 136c-6.76-16-6.15-31.76 2-45.15 13.94-23 47-35.8 89.33-34.83.96 42.32-11.84 75.42-34.86 89.36"/></svg>