<svg xmlns="http://www.w3.org/2000/svg" fill="currentColor" viewBox="0 0 256 256"><path d="m88 96 16 120H70.34a8 8 0 0 1-7.79-6.17L32 80Zm80 0-16 120h33.66a8 8 0 0 0 7.79-6.17L224 80Z" opacity=".2"/><path d="M229.52 74.21a8 8 0 0 0-7.13-2A44 44 0 0 0 168 41.67a44 44 0 0 0-80 0 44 44 0 0 0-54.4 30.51 8 8 0 0 0-9.4 9.65l30.56 129.84A16 16 0 0 0 70.34 224h115.32a16 16 0 0 0 15.58-12.33l30.55-129.84a8 8 0 0 0-2.27-7.62M76 56a27.7 27.7 0 0 1 13.11 3.26 8 8 0 0 0 11.56-5.34 28 28 0 0 1 54.66 0 8 8 0 0 0 11.56 5.34A28 28 0 0 1 207 76.54l-38.56 11-34.49-13.8a16 16 0 0 0-11.88 0l-34.5 13.82L49 76.54A28 28 0 0 1 76 56m83.25 45.11L145 208h-34L96.75 101.11 128 88.62ZM42.91 91.44l37.85 10.81L94.86 208H70.34ZM185.66 208h-24.52l14.1-105.75 37.85-10.81Z"/></svg>