<svg xmlns="http://www.w3.org/2000/svg" fill="currentColor" viewBox="0 0 256 256"><path d="M224 56v152l-32-16-32 16-32-16-32 16-32-16-32 16V56a8 8 0 0 1 8-8h176a8 8 0 0 1 8 8" opacity=".2"/><path d="M72 104a8 8 0 0 1 8-8h96a8 8 0 0 1 0 16H80a8 8 0 0 1-8-8m8 40h96a8 8 0 0 0 0-16H80a8 8 0 0 0 0 16m152-88v152a8 8 0 0 1-11.58 7.15L192 200.94l-28.42 14.21a8 8 0 0 1-7.16 0L128 200.94l-28.42 14.21a8 8 0 0 1-7.16 0L64 200.94l-28.42 14.21A8 8 0 0 1 24 208V56a16 16 0 0 1 16-16h176a16 16 0 0 1 16 16m-16 0H40v139.06l20.42-10.22a8 8 0 0 1 7.16 0L96 199.06l28.42-14.22a8 8 0 0 1 7.16 0L160 199.06l28.42-14.22a8 8 0 0 1 7.16 0L216 195.06Z"/></svg>