<svg xmlns="http://www.w3.org/2000/svg" fill="currentColor" viewBox="0 0 256 256"><path d="M224 64v64a64 64 0 0 1-64 64H32v-64a64 64 0 0 1 64-64Z" opacity=".2"/><path d="M24 128a72.08 72.08 0 0 1 72-72h108.69l-10.35-10.34a8 8 0 0 1 11.32-11.32l24 24a8 8 0 0 1 0 11.32l-24 24a8 8 0 0 1-11.32-11.32L204.69 72H96a56.06 56.06 0 0 0-56 56 8 8 0 0 1-16 0m200-8a8 8 0 0 0-8 8 56.06 56.06 0 0 1-56 56H51.31l10.35-10.34a8 8 0 0 0-11.32-11.32l-24 24a8 8 0 0 0 0 11.32l24 24a8 8 0 0 0 11.32-11.32L51.31 200H160a72.08 72.08 0 0 0 72-72 8 8 0 0 0-8-8"/></svg>