<svg xmlns="http://www.w3.org/2000/svg" fill="currentColor" viewBox="0 0 256 256"><path d="M216 176v24a8 8 0 0 1-8 8H48a8 8 0 0 1-8-8v-24a8 8 0 0 1 8-8h160a8 8 0 0 1 8 8m-8-80H48a8 8 0 0 0-8 8v24a8 8 0 0 0 8 8h160a8 8 0 0 0 8-8v-24a8 8 0 0 0-8-8" opacity=".2"/><path d="M208 160H48a16 16 0 0 0-16 16v24a16 16 0 0 0 16 16h160a16 16 0 0 0 16-16v-24a16 16 0 0 0-16-16m0 40H48v-24h160zm0-112H48a16 16 0 0 0-16 16v24a16 16 0 0 0 16 16h160a16 16 0 0 0 16-16v-24a16 16 0 0 0-16-16m0 40H48v-24h160zM96 40a8 8 0 0 1 8-8h16V16a8 8 0 0 1 16 0v16h16a8 8 0 0 1 0 16h-16v16a8 8 0 0 1-16 0V48h-16a8 8 0 0 1-8-8"/></svg>