<svg xmlns="http://www.w3.org/2000/svg" fill="currentColor" viewBox="0 0 256 256"><path d="M176 80v96H80V80Z" opacity=".2"/><path d="M224 40v40a8 8 0 0 1-16 0V48h-32a8 8 0 0 1 0-16h40a8 8 0 0 1 8 8M80 208H48v-32a8 8 0 0 0-16 0v40a8 8 0 0 0 8 8h40a8 8 0 0 0 0-16m136-40a8 8 0 0 0-8 8v32h-32a8 8 0 0 0 0 16h40a8 8 0 0 0 8-8v-40a8 8 0 0 0-8-8M40 88a8 8 0 0 0 8-8V48h32a8 8 0 0 0 0-16H40a8 8 0 0 0-8 8v40a8 8 0 0 0 8 8m40-16h96a8 8 0 0 1 8 8v96a8 8 0 0 1-8 8H80a8 8 0 0 1-8-8V80a8 8 0 0 1 8-8m8 96h80V88H88Z"/></svg>