<svg xmlns="http://www.w3.org/2000/svg" fill="currentColor" viewBox="0 0 256 256"><path d="M168 96v112a8 8 0 0 1-8 8H48a8 8 0 0 1-8-8V96a8 8 0 0 1 8-8h112a8 8 0 0 1 8 8" opacity=".2"/><path d="M64 216a8 8 0 0 1-8 8h-8a16 16 0 0 1-16-16v-8a8 8 0 0 1 16 0v8h8a8 8 0 0 1 8 8m48-8H96a8 8 0 0 0 0 16h16a8 8 0 0 0 0-16m-72-40a8 8 0 0 0 8-8v-16a8 8 0 0 0-16 0v16a8 8 0 0 0 8 8m128 24a8 8 0 0 0-8 8v8h-8a8 8 0 0 0 0 16h8a16 16 0 0 0 16-16v-8a8 8 0 0 0-8-8m0-80a8 8 0 0 0 8-8v-8a16 16 0 0 0-16-16h-8a8 8 0 0 0 0 16h8v8a8 8 0 0 0 8 8M56 80h-8a16 16 0 0 0-16 16v8a8 8 0 0 0 16 0v-8h8a8 8 0 0 0 0-16m152-48H96a16 16 0 0 0-16 16v40a4 4 0 0 0 0 .55A8 8 0 0 0 88 96h24a8 8 0 0 0 0-16H96V48h112v112h-32v-16a8 8 0 0 0-16 0v24a8 8 0 0 0 8 8h40a16 16 0 0 0 16-16V48a16 16 0 0 0-16-16"/></svg>