<svg xmlns="http://www.w3.org/2000/svg" fill="currentColor" viewBox="0 0 256 256"><path d="M240 86v84a8 8 0 0 1-5.8 7.69L128 208V48l106.2 30.34A8 8 0 0 1 240 86" opacity=".2"/><path d="M236.4 70.65 130.2 40.31a8 8 0 0 0-3.33-.23L21.74 55.1A16.08 16.08 0 0 0 8 70.94v114.12a16.08 16.08 0 0 0 13.74 15.84l105.13 15a8.5 8.5 0 0 0 1.13.1 8 8 0 0 0 2.2-.31l106.2-30.34A16.07 16.07 0 0 0 248 170V86a16.07 16.07 0 0 0-11.6-15.35M96 120H80V62.94l40-5.72v141.56l-40-5.72V136h16a8 8 0 0 0 0-16M24 70.94l40-5.72V120H48a8 8 0 0 0 0 16h16v54.78l-40-5.72Zm112 126.45V58.61L232 86v84Z"/></svg>