<svg xmlns="http://www.w3.org/2000/svg" fill="currentColor" viewBox="0 0 256 256"><path d="M208 56v152a8 8 0 0 1-8 8H56a8 8 0 0 1-8-8V56a8 8 0 0 1 8-8h24v56a8 8 0 0 0 13.12 6.15L128 80l34.88 30.13A8 8 0 0 0 176 104V48h24a8 8 0 0 1 8 8" opacity=".2"/><path d="M200 40h-20.69l-13.65-13.66A8 8 0 0 0 160 24H96a8 8 0 0 0-5.66 2.34L76.69 40H56a16 16 0 0 0-16 16v152a16 16 0 0 0 16 16h144a16 16 0 0 0 16-16V56a16 16 0 0 0-16-16m-38.76 4.56 6.76 6.75V104l-29.43-25.44ZM88 51.31l6.76-6.75 22.67 34L88 104ZM56 56h16v48a15.85 15.85 0 0 0 9.21 14.49A16.1 16.1 0 0 0 88 120a15.9 15.9 0 0 0 10.2-3.73.5.5 0 0 0 .11-.1L120 97.48V208H56Zm144 152h-64V97.48l21.65 18.7a.5.5 0 0 0 .11.1A15.9 15.9 0 0 0 168 120a16.1 16.1 0 0 0 6.83-1.54A15.85 15.85 0 0 0 184 104V56h16Z"/></svg>