<svg xmlns="http://www.w3.org/2000/svg" fill="currentColor" viewBox="0 0 256 256"><path d="M240 128H96L56 48h144Z" opacity=".2"/><path d="m247.16 124.42-40-80A8 8 0 0 0 200 40H56a8 8 0 0 0-7.16 4.42l-40 80A8.1 8.1 0 0 0 8 128v56a16 16 0 0 0 16 16h208a16 16 0 0 0 16-16v-56a8.1 8.1 0 0 0-.84-3.58M99.06 56l12 24H80.94l-12-24Zm48 0 12 24h-30.12l-12-24Zm-46.12 64-12-24h30.12l12 24Zm48 0-12-24h30.12l12 24Zm48 0-12-24h30.12l12 24Zm10.12-40h-30.12l-12-24h30.12ZM24 129.89l32-64 32 64V184H24ZM104 184v-48h128v48Z"/></svg>