<svg xmlns="http://www.w3.org/2000/svg" fill="currentColor" viewBox="0 0 256 256"><path d="M80 88v80H32a8 8 0 0 1-8-8V96a8 8 0 0 1 8-8Z" opacity=".2"/><path d="M155.51 24.81a8 8 0 0 0-8.42.88L77.25 80H32a16 16 0 0 0-16 16v64a16 16 0 0 0 16 16h45.25l69.84 54.31A8 8 0 0 0 160 224V32a8 8 0 0 0-4.49-7.19M32 96h40v64H32Zm112 111.64-56-43.57V91.94l56-43.58Zm101.66-61.3a8 8 0 0 1-11.32 11.32L216 139.31l-18.34 18.35a8 8 0 0 1-11.32-11.32L204.69 128l-18.35-18.34a8 8 0 0 1 11.32-11.32L216 116.69l18.34-18.35a8 8 0 0 1 11.32 11.32L227.31 128Z"/></svg>