<svg xmlns="http://www.w3.org/2000/svg" fill="currentColor" viewBox="0 0 256 256"><path d="m224 80-96 56-96-56 96-56Z" opacity=".2"/><path d="M240 200a8 8 0 0 1-8 8h-48a8 8 0 0 1 0-16h48a8 8 0 0 1 8 8m-20-78.91-92 53.65-92-53.65a8 8 0 0 0-8 13.82l96 56a8 8 0 0 0 8.06 0l96-56a8 8 0 1 0-8.06-13.82M24 80a8 8 0 0 1 4-6.91l96-56a8 8 0 0 1 8.06 0l96 56a8 8 0 0 1 0 13.82l-96 56a8 8 0 0 1-8.06 0l-96-56A8 8 0 0 1 24 80m23.88 0L128 126.74 208.12 80 128 33.26ZM140 215.76l-12 7-92-53.67a8 8 0 0 0-8 13.82l96 56a8 8 0 0 0 8.06 0l16-9.33a8 8 0 1 0-8.06-13.82"/></svg>