<svg xmlns="http://www.w3.org/2000/svg" fill="currentColor" viewBox="0 0 256 256"><path d="M232 64v128a8 8 0 0 1-8 8H32a8 8 0 0 1-8-8V64a8 8 0 0 1 8-8h192a8 8 0 0 1 8 8" opacity=".2"/><path d="M224 48H32a16 16 0 0 0-16 16v128a16 16 0 0 0 16 16h192a16 16 0 0 0 16-16V64a16 16 0 0 0-16-16m0 144H32V64h192zM48 136a8 8 0 0 1 8-8h16a8 8 0 0 1 0 16H56a8 8 0 0 1-8-8m160 0a8 8 0 0 1-8 8h-96a8 8 0 0 1 0-16h96a8 8 0 0 1 8 8m-48 32a8 8 0 0 1-8 8H56a8 8 0 0 1 0-16h96a8 8 0 0 1 8 8m48 0a8 8 0 0 1-8 8h-16a8 8 0 0 1 0-16h16a8 8 0 0 1 8 8"/></svg>