<svg xmlns="http://www.w3.org/2000/svg" fill="currentColor" viewBox="0 0 256 256"><path d="m216 120-22.39 82.1a8 8 0 0 1-7.72 5.9H70.11a8 8 0 0 1-7.72-5.9L40 120l88 16Z" opacity=".2"/><path d="m223.72 117.9-22.39-82.11A16 16 0 0 0 185.89 24H70.11a16 16 0 0 0-15.44 11.79L32.28 117.9a8.1 8.1 0 0 0 0 4.2l22.39 82.11A16 16 0 0 0 70.11 216H80l-14.4 19.2a8 8 0 1 0 12.8 9.6L100 216h56l21.6 28.8a8 8 0 1 0 12.8-9.6L176 216h9.89a16 16 0 0 0 15.44-11.79l22.39-82.11a8.1 8.1 0 0 0 0-4.2M70.11 40h115.78L206 113.69l-78 14.18-78-14.18Zm-19 90.14L120 142.68V200H70.11ZM185.89 200H136v-57.32l68.94-12.54ZM88 88a8 8 0 0 1 8-8h64a8 8 0 0 1 0 16H96a8 8 0 0 1-8-8"/></svg>