<svg xmlns="http://www.w3.org/2000/svg" fill="currentColor" viewBox="0 0 256 256"><path d="M104 32v32a8 8 0 0 1-8 8H64a8 8 0 0 1-8-8V32a8 8 0 0 1 8-8h32a8 8 0 0 1 8 8m104 64h-32a8 8 0 0 0-8 8v32a8 8 0 0 0 8 8h32a8 8 0 0 0 8-8v-32a8 8 0 0 0-8-8m0 88h-32a8 8 0 0 0-8 8v32a8 8 0 0 0 8 8h32a8 8 0 0 0 8-8v-32a8 8 0 0 0-8-8" opacity=".2"/><path d="M176 152h32a16 16 0 0 0 16-16v-32a16 16 0 0 0-16-16h-32a16 16 0 0 0-16 16v8H88V80h8a16 16 0 0 0 16-16V32a16 16 0 0 0-16-16H64a16 16 0 0 0-16 16v32a16 16 0 0 0 16 16h8v112a24 24 0 0 0 24 24h64v8a16 16 0 0 0 16 16h32a16 16 0 0 0 16-16v-32a16 16 0 0 0-16-16h-32a16 16 0 0 0-16 16v8H96a8 8 0 0 1-8-8v-64h72v8a16 16 0 0 0 16 16M64 32h32v32H64Zm112 160h32v32h-32Zm0-88h32v32h-32Z"/></svg>