<svg xmlns="http://www.w3.org/2000/svg" fill="currentColor" viewBox="0 0 256 256"><path d="M224 128a95.76 95.76 0 0 1-31.8 71.37A72 72 0 0 0 128 160a40 40 0 1 0-40-40 40 40 0 0 0 40 40 72 72 0 0 0-64.2 39.37A96 96 0 1 1 224 128" opacity=".2"/><path d="M221.35 104.11a8 8 0 0 0-6.57 9.21A89 89 0 0 1 216 128a87.62 87.62 0 0 1-22.24 58.41 79.66 79.66 0 0 0-36.06-28.75 48 48 0 1 0-59.4 0 79.66 79.66 0 0 0-36.06 28.75A88 88 0 0 1 128 40a89 89 0 0 1 14.68 1.22 8 8 0 0 0 2.64-15.78 103.92 103.92 0 1 0 85.24 85.24 8 8 0 0 0-9.21-6.57M96 120a32 32 0 1 1 32 32 32 32 0 0 1-32-32m-21.92 77.5a64 64 0 0 1 107.84 0 87.83 87.83 0 0 1-107.84 0M237.66 45.66l-32 32a8 8 0 0 1-11.32 0l-16-16a8 8 0 0 1 11.32-11.32L200 60.69l26.34-26.35a8 8 0 0 1 11.32 11.32"/></svg>