<svg xmlns="http://www.w3.org/2000/svg" fill="currentColor" viewBox="0 0 256 256"><path d="M136 108a52 52 0 1 1-52-52 52 52 0 0 1 52 52" opacity=".2"/><path d="M117.25 157.92a60 60 0 1 0-66.5 0 95.83 95.83 0 0 0-47.22 37.71 8 8 0 1 0 13.4 8.74 80 80 0 0 1 134.14 0 8 8 0 0 0 13.4-8.74 95.83 95.83 0 0 0-47.22-37.71M40 108a44 44 0 1 1 44 44 44.05 44.05 0 0 1-44-44m210.14 98.7a8 8 0 0 1-11.07-2.33A79.83 79.83 0 0 0 172 168a8 8 0 0 1 0-16 44 44 0 1 0-16.34-84.87 8 8 0 1 1-5.94-14.85 60 60 0 0 1 55.53 105.64 95.83 95.83 0 0 1 47.22 37.71 8 8 0 0 1-2.33 11.07"/></svg>