<svg xmlns="http://www.w3.org/2000/svg" fill="currentColor" viewBox="0 0 256 256"><path d="M120 104a40 40 0 1 1-40-40 40 40 0 0 1 40 40" opacity=".2"/><path d="M152 80a8 8 0 0 1 8-8h88a8 8 0 0 1 0 16h-88a8 8 0 0 1-8-8m96 40h-88a8 8 0 0 0 0 16h88a8 8 0 0 0 0-16m0 48h-64a8 8 0 0 0 0 16h64a8 8 0 0 0 0-16m-96.25 22a8 8 0 0 1-5.76 9.74 7.6 7.6 0 0 1-2 .26 8 8 0 0 1-7.75-6c-6.16-23.94-30.34-42-56.25-42s-50.09 18.05-56.25 42a8 8 0 0 1-15.5-4c5.59-21.71 21.84-39.29 42.46-48a48 48 0 1 1 58.58 0c20.63 8.71 36.88 26.29 42.47 48M80 136a32 32 0 1 0-32-32 32 32 0 0 0 32 32"/></svg>