<svg xmlns="http://www.w3.org/2000/svg" fill="currentColor" viewBox="0 0 256 256"><path d="M248 128a72 72 0 0 1-72 72H80a72 72 0 0 1-72-72 72 72 0 0 1 72-72h96a72 72 0 0 1 72 72" opacity=".2"/><path d="m123.49 98.81-24 64a8 8 0 0 1-15 0l-24-64a8 8 0 1 1 15-5.62l16.51 44 16.51-44a8 8 0 1 1 15 5.62ZM256 128a80.09 80.09 0 0 1-80 80H80a80 80 0 0 1 0-160h96a80.09 80.09 0 0 1 80 80m-16 0a64.07 64.07 0 0 0-64-64H80a64 64 0 0 0 0 128h96a64.07 64.07 0 0 0 64-64m-59.16 10.35L191 156a8 8 0 0 1-13.9 7.94l-11.44-20c-.53 0-1.07.05-1.61.05H152v16a8 8 0 0 1-16 0V96a8 8 0 0 1 8-8h20a28 28 0 0 1 16.84 50.35M152 128h12a12 12 0 0 0 0-24h-12Z"/></svg>