<svg xmlns="http://www.w3.org/2000/svg" fill="currentColor" viewBox="0 0 256 256"><path d="M128 104a40 40 0 1 1 40-40 40 40 0 0 1-40 40m64 24a40 40 0 1 0 40 40 40 40 0 0 0-40-40m-128 0a40 40 0 1 0 40 40 40 40 0 0 0-40-40" opacity=".2"/><path d="M178.16 176h-66.84a48 48 0 1 1-85.72-36.81 8 8 0 0 1 12.8 9.61A31.7 31.7 0 0 0 32 168a32 32 0 0 0 64 0 8 8 0 0 1 8-8h74.16a16 16 0 1 1 0 16M64 184a16 16 0 0 0 14.08-23.61l35.77-58.14a8 8 0 0 0-2.62-11 32 32 0 1 1 46.1-40.06 8 8 0 1 0 14.67-6.4 48 48 0 1 0-75.62 55.33L64.44 152H64a16 16 0 0 0 0 32m128-64a48.2 48.2 0 0 0-18 3.49L142.08 71.6A16 16 0 1 0 128 80h.44l35.78 58.15a8 8 0 0 0 11 2.61A32 32 0 1 1 192 200a8 8 0 0 0 0 16 48 48 0 0 0 0-96"/></svg>