<svg xmlns="http://www.w3.org/2000/svg" viewBox="0 0 24 24"><title>Apache PDFBox</title><path d="M22.335 1.88c.016.798.11 1.587.275 2.357.163.754.398 1.502.803 2.173q.223.37.507.695a.48.48 0 0 1 .04.452 877 877 0 0 0-6.825 1.99A841 841 0 0 0 10.31 11.6a.26.26 0 0 1 .033-.174.27.27 0 0 1 .213-.132l11.41-4.388a14.7 14.7 0 0 1-.344-2.5 14.7 14.7 0 0 1 .085-2.478.33.33 0 0 1 .367-.262.32.32 0 0 1 .259.217zm-1.463-1q-.015 0-.03.004L5.564 1.94c-.436.03-.823.284-1.033.667-.292.53-.197 1.187.246 1.585.12.108.262.189.377.301a1 1 0 0 1 .215.313 4 4 0 0 1 .718 4.12 3.8 3.8 0 0 1-.89 1.334l-3.1-.676 1.963-4.87a.24.24 0 0 0-.117-.357.23.23 0 0 0-.296.13L1.313 9.405l-.495-.182a.3.3 0 0 0-.242.077.3.3 0 0 0-.091.171L0 17.444a.36.36 0 0 0 .546-.017 27 27 0 0 0 .978-6.876l5.724.642a.65.65 0 0 0 .322.057.66.66 0 0 0 .322-.115 407 407 0 0 1 5.266-2.387A416 416 0 0 1 18.42 6.45a.28.28 0 0 1 .204.115.28.28 0 0 1 .04.254 4.3 4.3 0 0 0-.841 1.045l.015.042q.02.054.052.101a.284.284 0 0 0 .419.036 4.02 4.02 0 0 1 2.729-1.335.4.4 0 0 0 .186-.313.4.4 0 0 0-.066-.244 1.13 1.13 0 0 1-.851-.306l.821-3.284a.68.68 0 0 0-.523-.244 133 133 0 0 1-13.428.51.213.213 0 0 1-.233-.28.19.19 0 0 1 .177-.127l13.524-1.095a1.2 1.2 0 0 0 .242-.134c.061-.043.125-.1.124-.182a.134.134 0 0 0-.133-.13zm-.992 2.355a.2.2 0 0 1 .134.17l-.545 1.486a1.97 1.97 0 0 1-.848.615L7.66 7.971l-.883-3.397 13.1-1.34Zm3.934 9.212L8.738 23.122l-8.565-3.23a11.7 11.7 0 0 0 2.872-1.147 11.88 11.88 0 0 0 5.393-6.456.49.49 0 0 1 .557-.23.48.48 0 0 1 .35.431l-.15 7.906 14.08-8.154a.42.42 0 0 1 .317-.003.42.42 0 0 1 .224.204zm-.055-4.115.005 3.291a.29.29 0 0 1-.26.2.29.29 0 0 1-.29-.2l.054-3.343a.243.243 0 0 1 .245-.211.25.25 0 0 1 .245.262z"/></svg>