<svg xmlns="http://www.w3.org/2000/svg" viewBox="0 0 24 24"><title>Coreboot</title><path d="M7.74 2.414s.783.635 2.233 1.785c.101.084.128.124.108.158-.03.052-.169-.01-.169-.01-1.12-.426-2.385-.668-3.24-.612-.285.018-.376.064-.416.145-.019.038-.022.14.074.267.374.495 1.276 1.465 2.777 2.386 1.541.946 4.264 2.287 6.671 3.36 1.079.478 1.855 1.119 1.609 1.858-.277.823-1.343.936-2.194.595-.693-.277-1.339-1.144-2.389-2.308-1.82-2.016-2.683-2.82-5.703-2.206-1.513.308-2.942 1.547-4.086 2.855-.761.961-1.128 1.761-1.237 2.726 0 0-.21-.382 0-1.36.36-1.71-.426-2.444-.426-2.444-3.983 5.649 1.683 10.756 6.05 5.865 0 0-1.43 3.173-1.31 4.162-.61.2-.88.76.032 1.437.996.739 3.445.675 5.377-.155 3.604-1.55 5.852-4.437 6.966-6.271.26-.429.536-.637.726-.706.289-.104 2.278.02 3.209-.513a.976.97 0 0 0 .511.08c.674-.05 1.087-.858 1.087-.858s-.852-1.625-2.892-2.837c-1.922-1.142-2.482-.745-4.207-2.12-2.694-2.148-5.955-4.59-9.157-5.28m1.816 6.77c1.399-.064 2.491.387 2.671 1.258.285 1.39-2.684 4.89-2.489 4.946q.028 0 .123-.06c.975-1.276 2.821-3.234 3.512-3.159 1.241.136 1.67 1.78 1.67 1.78l-4.136 3.731a8.05 8 0 0 0 2.723.244c-1.848 1.316-3.85 1.683-5.09 1.138 1.96-1.42 5.565-4.973 5.565-4.973s-.6-1.511-1.682-.586c-1.046.895-2.013 2.013-2.395 2.37-.238.22-.638.637-.876.457-.29-.214.569-2.145 1.226-3.745.895-2.182-.135-2.864-1.341-2.803-1.081.054-2.557.709-3.614 1.356-.3.183-.503.296-.58.226-.066-.06 0-.178.2-.344 1.405-1.19 3.112-1.77 4.51-1.835"/></svg>