<svg xmlns="http://www.w3.org/2000/svg" viewBox="0 0 24 24"><title>niri</title><path d="M16.239 21.913c0 1.043-.522 2.087-4.174 2.087s-4.174-1.044-4.174-2.087c0-1.566 1.044-2.609 4.174-2.609s4.174 1.043 4.174 2.609M7.89 0c2.087 0 10.435 6.26 10.435 11.478 0 3.521-1.65 5.062-3.095 5.736-1.094.511-1.397-.17-.789-1.218.41-.705.753-1.557.753-2.431 0-1.565-.521-2.609-1.565-3.652-1.043-1.044-2.384-1.565-3.13-1.565-1.044 0-1.565 3.067-1.565 4.695 0 1.298.387 2.466.776 3.313.367.799.06 1.347-.764 1.045-.899-.331-1.978-.984-2.621-2.271-1.044-2.087-.522-5.09-.522-7.826C5.804 3.13 5.804 0 7.891 0z"/></svg>