<svg xmlns="http://www.w3.org/2000/svg" viewBox="0 0 24 24"><title>Transmission</title><path d="M1.696 9.46v12.794c0 .945.884 1.709 1.715 1.709H20.57c.878 0 1.715-.61 1.715-1.709V9.467a73 73 0 0 1-6.863.77v5.147h3.432l-6.863 6.863-6.863-6.863H8.56v-5.086a47.5 47.5 0 0 1-6.843-.831h-.02zM15.42.037v8.417c2.246-.147 4.531-.167 6.863-.542C23.223 7.764 24 7.1 24 6.089v-3.8c0-1.012-.784-1.662-1.716-1.83C19.945.03 17.667.164 15.421.037zM8.56.05c-2.321.141-4.6.027-6.844.41C.777.619 0 1.277 0 2.289v3.8C0 7.1.784 7.73 1.716 7.912c2.218.442 4.504.476 6.843.603z"/></svg>