<svg xmlns="http://www.w3.org/2000/svg" fill="currentColor" viewBox="0 0 256 256"><path d="M232 128A104 104 0 0 0 54.46 54.46 104 104 0 0 0 128 232h.09A104 104 0 0 0 232 128M49.18 88.92l51.21 9.35-53.74 63.26a88.4 88.4 0 0 1 2.53-72.61m160.17 5.54a88.4 88.4 0 0 1-2.53 72.62l-51.21-9.35Zm-8.08-15.2L167.55 119l-27.92-78.22a87.38 87.38 0 0 1 50.6 25 88.7 88.7 0 0 1 11.04 13.48m-78.84-39.07 17.51 49L58.3 74.32a89 89 0 0 1 7.47-8.55 87.37 87.37 0 0 1 56.66-25.58m-67.7 136.55L88.45 137l27.92 78.18a88 88 0 0 1-61.64-38.48Zm78.84 39.06-17.51-49 23.08 4.2 58.52 10.69a87.5 87.5 0 0 1-64.13 34.12Z"/></svg>