<svg xmlns="http://www.w3.org/2000/svg" fill="currentColor" viewBox="0 0 256 256"><path d="M96 136H64v24a8 8 0 0 1-13.66 5.66l-32-32a8 8 0 0 1 0-11.32l32-32A8 8 0 0 1 64 96v24h32a8 8 0 0 1 0 16m0-72h24v32a8 8 0 0 0 16 0V64h24a8 8 0 0 0 5.66-13.66l-32-32a8 8 0 0 0-11.32 0l-32 32A8 8 0 0 0 96 64m141.66 58.34-32-32A8 8 0 0 0 192 96v24h-32a8 8 0 0 0 0 16h32v24a8 8 0 0 0 13.66 5.66l32-32a8 8 0 0 0 0-11.32M160 192h-24v-32a8 8 0 0 0-16 0v32H96a8 8 0 0 0-5.66 13.66l32 32a8 8 0 0 0 11.32 0l32-32A8 8 0 0 0 160 192"/></svg>