<svg xmlns="http://www.w3.org/2000/svg" fill="currentColor" viewBox="0 0 256 256"><path d="M255.15 97.72A16 16 0 0 0 242 86.94a136.5 136.5 0 0 1-51.65-18l10.31-10.3a25 25 0 0 0-35.32-35.32l-13.2 13.21c-2.33-2.8-3.81-4.84-4.41-5.69a16 16 0 0 0-24.41-2.15L84.68 67.36a16 16 0 0 0 2.14 24.4c.86.6 2.9 2.08 5.7 4.41l-85.21 85.2a25 25 0 0 0 35.32 35.32l82.3-82.31a136.6 136.6 0 0 1 18 51.65 16 16 0 0 0 10.77 13.12 16.2 16.2 0 0 0 5.15.85 15.88 15.88 0 0 0 11.26-4.69l81.18-81.19a15.86 15.86 0 0 0 3.86-16.4m-78.46-63.09a9 9 0 1 1 12.68 12.68l-12.55 12.55a153 153 0 0 1-13.72-11.65ZM31.31 205.37a9 9 0 1 1-12.68-12.68l85.58-85.58a150 150 0 0 1 11.65 13.72Z"/></svg>