<svg xmlns="http://www.w3.org/2000/svg" fill="currentColor" viewBox="0 0 256 256"><path d="M200 64v128a16 16 0 0 1-16 16h-16a16 16 0 0 1-16-16v-56h-48v56a16 16 0 0 1-16 16H72a16 16 0 0 1-16-16V64a16 16 0 0 1 16-16h16a16 16 0 0 1 16 16v56h48V64a16 16 0 0 1 16-16h16a16 16 0 0 1 16 16M36 72h-4a16 16 0 0 0-16 16v32H8.27A8.18 8.18 0 0 0 0 127.47 8 8 0 0 0 8 136h8v32a16 16 0 0 0 16 16h4a4 4 0 0 0 4-4V76a4 4 0 0 0-4-4m220 55.47a8.18 8.18 0 0 0-8.25-7.47H240V88a16 16 0 0 0-16-16h-4a4 4 0 0 0-4 4v104a4 4 0 0 0 4 4h4a16 16 0 0 0 16-16v-32h8a8 8 0 0 0 8-8.53"/></svg>