<svg xmlns="http://www.w3.org/2000/svg" fill="currentColor" viewBox="0 0 256 256"><path d="M168 168c0 4.75-1.11 9.16-3.05 12.11A7.77 7.77 0 0 1 158 184c-9.72 0-10-14.36-10-16 0-4.74 1.11-9.16 3.05-12.11A7.77 7.77 0 0 1 158 152c9.72 0 10 14.36 10 16m56-120v160a16 16 0 0 1-16 16H48a16 16 0 0 1-16-16V48a16 16 0 0 1 16-16h160a16 16 0 0 1 16 16m-83.16 27.58a8 8 0 0 0 10.74 3.58l4.42-2.22V112a8 8 0 0 0 16 0V64a8 8 0 0 0-11.58-7.16l-16 8a8 8 0 0 0-3.58 10.74M112 144a8 8 0 0 0-11.58-7.16l-16 8a8 8 0 0 0 7.16 14.32l4.42-2.22V192a8 8 0 0 0 16 0Zm16-56c0-18.84-10.69-32-26-32S76 69.16 76 88s10.69 32 26 32 26-13.16 26-32m56 80c0-18.84-10.69-32-26-32s-26 13.16-26 32 10.69 32 26 32 26-13.16 26-32m-82-96a7.77 7.77 0 0 0-7 3.89c-1.94 3-3 7.37-3 12.11 0 1.64.28 16 10 16a7.77 7.77 0 0 0 7-3.89c1.94-3 3-7.36 3-12.11 0-1.64-.28-16-10-16"/></svg>