<svg xmlns="http://www.w3.org/2000/svg" fill="currentColor" viewBox="0 0 256 256"><path d="M208 32h-24v-8a8 8 0 0 0-16 0v8H88v-8a8 8 0 0 0-16 0v8H48a16 16 0 0 0-16 16v160a16 16 0 0 0 16 16h160a16 16 0 0 0 16-16V48a16 16 0 0 0-16-16M84 184a12 12 0 1 1 12-12 12 12 0 0 1-12 12m44 0a12 12 0 1 1 12-12 12 12 0 0 1-12 12m0-40a12 12 0 1 1 12-12 12 12 0 0 1-12 12m44 40a12 12 0 1 1 12-12 12 12 0 0 1-12 12m0-40a12 12 0 1 1 12-12 12 12 0 0 1-12 12m36-64H48V48h24v8a8 8 0 0 0 16 0v-8h80v8a8 8 0 0 0 16 0v-8h24Z"/></svg>