<svg xmlns="http://www.w3.org/2000/svg" fill="currentColor" viewBox="0 0 256 256"><path d="m241 69.66-19.34-19.32a8 8 0 0 0-11.32 11.32L229.66 81a8 8 0 0 1 2.34 5.63V168a8 8 0 0 1-16 0v-40a24 24 0 0 0-24-24h-16V56a24 24 0 0 0-24-24H72a24 24 0 0 0-24 24v152H32a8 8 0 0 0 0 16h160a8 8 0 0 0 0-16h-16v-88h16a8 8 0 0 1 8 8v40a24 24 0 0 0 48 0V86.63a23.85 23.85 0 0 0-7-16.97M135.43 131l-16 40a8 8 0 0 1-14.86-6l11.61-29H96a8 8 0 0 1-7.43-11l16-40a8 8 0 1 1 14.86 6l-11.61 29H128a8 8 0 0 1 7.43 11"/></svg>