<svg xmlns="http://www.w3.org/2000/svg" fill="currentColor" viewBox="0 0 256 256"><path d="M128 24a104 104 0 1 0 104 104A104.11 104.11 0 0 0 128 24m54.59 45a8 8 0 0 1 11.29.7 88 88 0 0 1 17.6 30.47 8 8 0 0 1-15.18 5.08 71.9 71.9 0 0 0-14.4-25 8 8 0 0 1 .69-11.25M73.41 187.05a8 8 0 0 1-11.29-.7 88 88 0 0 1-17.6-30.47 8 8 0 1 1 15.18-5.08 71.9 71.9 0 0 0 14.4 24.95 8 8 0 0 1-.69 11.3m.69-106.8a71.9 71.9 0 0 0-14.4 25 8 8 0 1 1-15.18-5.08 88 88 0 0 1 17.6-30.47 8 8 0 1 1 12 10.6Zm71.49 134a87.8 87.8 0 0 1-35.18 0 8 8 0 0 1 3.18-15.68 72.1 72.1 0 0 0 28.82 0 8 8 0 0 1 3.18 15.68m6.25-163a8 8 0 0 1-7.84 6.36 8 8 0 0 1-1.6-.16 72.1 72.1 0 0 0-28.82 0 8 8 0 1 1-3.18-15.68 87.9 87.9 0 0 1 35.18 0 8 8 0 0 1 6.26 9.43Zm59.64 104.68a88 88 0 0 1-17.6 30.47 8 8 0 1 1-12-10.6 71.9 71.9 0 0 0 14.4-24.95 8 8 0 0 1 15.18 5.08Z"/></svg>