<svg xmlns="http://www.w3.org/2000/svg" fill="currentColor" viewBox="0 0 256 256"><path d="M71.22 190.47a108.9 108.9 0 0 1-33.84 9.16 4 4 0 0 1-3.89-2c-8.67-15.28-11.52-34.29-8-55.15 4.49-26.92 19.09-53.87 41.12-75.9s49-36.63 75.9-41.12c22.79-3.79 43.37 0 59.29 10.6a4 4 0 0 1-1.25 7.23 121 121 0 0 0-21.82 7.46c-21.77 9.9-49.6 31.06-58.52 75.7-6.11 30.28-22.58 51.82-48.99 64.02M222.51 58.38a4 4 0 0 0-3.88-2 108.5 108.5 0 0 0-33.85 9.16c-26.41 12.2-42.88 33.74-48.94 64-8.93 44.64-36.75 65.8-58.52 75.7a121 121 0 0 1-21.82 7.46 4 4 0 0 0-1.23 7.3c11.87 7.92 26.32 12 42.35 12a103.7 103.7 0 0 0 16.92-1.44c26.91-4.49 53.87-19.09 75.9-41.12s36.63-49 41.12-75.9c3.44-20.86.62-39.88-8.05-55.16"/></svg>