<svg xmlns="http://www.w3.org/2000/svg" fill="currentColor" viewBox="0 0 256 256"><path d="M232 120h-8.34A96.14 96.14 0 0 0 136 32.34V24a8 8 0 0 0-16 0v8.34A96.14 96.14 0 0 0 32.34 120H24a8 8 0 0 0 0 16h8.34A96.14 96.14 0 0 0 120 223.66V232a8 8 0 0 0 16 0v-8.34A96.14 96.14 0 0 0 223.66 136H232a8 8 0 0 0 0-16m-32 16h7.6a80.15 80.15 0 0 1-71.6 71.6V200a8 8 0 0 0-16 0v7.6A80.15 80.15 0 0 1 48.4 136H56a8 8 0 0 0 0-16h-7.6A80.15 80.15 0 0 1 120 48.4V56a8 8 0 0 0 16 0v-7.6a80.15 80.15 0 0 1 71.6 71.6H200a8 8 0 0 0 0 16m-32-8a40 40 0 1 1-40-40 40 40 0 0 1 40 40"/></svg>