<svg xmlns="http://www.w3.org/2000/svg" fill="currentColor" viewBox="0 0 256 256"><path d="M128 83.22a54 54 0 0 0-8-10.06V40h-16a8 8 0 0 1 0-16h16V8a8 8 0 0 1 16 0v16h16a8 8 0 0 1 0 16h-16v33.16a54 54 0 0 0-8 10.06M180 56c-17.74 0-33.21 6.48-44 17.16V176a8 8 0 0 1-16 0V73.16C109.21 62.48 93.74 56 76 56a60.07 60.07 0 0 0-60 60c0 29.86 14.54 48.85 26.73 59.52A90.5 90.5 0 0 0 64 189.34V208a16 16 0 0 0 16 16h96a16 16 0 0 0 16-16v-18.66a90.5 90.5 0 0 0 21.27-13.82C225.46 164.85 240 145.86 240 116a60.07 60.07 0 0 0-60-60"/></svg>