<svg xmlns="http://www.w3.org/2000/svg" fill="currentColor" viewBox="0 0 256 256"><path d="M232 48v40a8 8 0 0 1-16 0V56h-32a8 8 0 0 1 0-16h40a8 8 0 0 1 8 8M72 200H40v-32a8 8 0 0 0-16 0v40a8 8 0 0 0 8 8h40a8 8 0 0 0 0-16m152-40a8 8 0 0 0-8 8v32h-32a8 8 0 0 0 0 16h40a8 8 0 0 0 8-8v-40a8 8 0 0 0-8-8M32 96a8 8 0 0 0 8-8V56h32a8 8 0 0 0 0-16H32a8 8 0 0 0-8 8v40a8 8 0 0 0 8 8m145.92-12.69L132 57.05a8 8 0 0 0-7.94 0L78.08 83.31a4 4 0 0 0 0 7L128 118.79l49.92-28.53a4 4 0 0 0 0-6.95M64 107.53V160a8 8 0 0 0 4 7l46 26.27a4 4 0 0 0 6-3.47v-57.16l-50-28.58a4 4 0 0 0-6 3.47M192 160v-52.47a4 4 0 0 0-6-3.47l-50 28.58v57.11a4 4 0 0 0 6 3.47L188 167a8 8 0 0 0 4-7"/></svg>