<svg xmlns="http://www.w3.org/2000/svg" fill="currentColor" viewBox="0 0 256 256"><path d="M200 204.5V232a8 8 0 0 1-16 0v-27.5a63.67 63.67 0 0 0-35.38-57.25l-48.4-24.19A79.58 79.58 0 0 1 56 51.5V24a8 8 0 0 1 16 0v27.5a63.67 63.67 0 0 0 35.38 57.25l48.4 24.19A79.58 79.58 0 0 1 200 204.5M163.18 192H83.91a8 8 0 0 1-8-8.53 8.18 8.18 0 0 1 8.27-7.47h65.52a4 4 0 0 0 2.75-6.9 48.2 48.2 0 0 0-11-7.53L94.8 138.23a4 4 0 0 0-4.08.3A79.51 79.51 0 0 0 56 204.5v27.23a8.17 8.17 0 0 0 7.47 8.27 8 8 0 0 0 8.53-8v-16h92a4 4 0 0 0 4-4v-7.5a49 49 0 0 0-.9-9.32 4 4 0 0 0-3.92-3.18m28.29-176a8.17 8.17 0 0 0-7.47 8.27V40H92a4 4 0 0 0-4 4v7.5a49 49 0 0 0 .9 9.32A4 4 0 0 0 92.82 64h79a8.18 8.18 0 0 1 8.25 7.47 8 8 0 0 1-8 8.53H106.3a4 4 0 0 0-2.75 6.9 48.2 48.2 0 0 0 11 7.53l46.67 23.34a4 4 0 0 0 4.08-.3A79.51 79.51 0 0 0 200 51.5V24a8 8 0 0 0-8.53-8"/></svg>