<svg xmlns="http://www.w3.org/2000/svg" fill="currentColor" viewBox="0 0 256 256"><path d="M208 32H48a16 16 0 0 0-16 16v160a16 16 0 0 0 16 16h160a16 16 0 0 0 16-16V48a16 16 0 0 0-16-16M76 192a12 12 0 1 1 12-12 12 12 0 0 1-12 12m0-52a12 12 0 1 1 12-12 12 12 0 0 1-12 12m0-52a12 12 0 1 1 12-12 12 12 0 0 1-12 12m52 104a12 12 0 1 1 12-12 12 12 0 0 1-12 12m0-52a12 12 0 1 1 12-12 12 12 0 0 1-12 12m0-52a12 12 0 1 1 12-12 12 12 0 0 1-12 12m52 104a12 12 0 1 1 12-12 12 12 0 0 1-12 12m0-52a12 12 0 1 1 12-12 12 12 0 0 1-12 12m0-52a12 12 0 1 1 12-12 12 12 0 0 1-12 12"/></svg>