<svg xmlns="http://www.w3.org/2000/svg" fill="currentColor" viewBox="0 0 256 256"><path d="M230.94 164a8 8 0 1 1-13.89 8l-19-33.2A123.2 123.2 0 0 1 162 155.46l5.87 35.22a8 8 0 0 1-6.58 9.21 8.4 8.4 0 0 1-1.29.11 8 8 0 0 1-7.88-6.69l-5.77-34.58a133 133 0 0 1-36.68 0l-5.77 34.58A8 8 0 0 1 96 200a8.4 8.4 0 0 1-1.32-.11 8 8 0 0 1-6.58-9.21l5.9-35.22a123.2 123.2 0 0 1-36.06-16.69L39 172a8 8 0 1 1-13.94-8l20-35a153 153 0 0 1-19.3-20 8 8 0 0 1 0-10.06C44.56 75.72 77.55 48 128 48s83.44 27.72 102.22 51a8 8 0 0 1 0 10.06 153 153 0 0 1-19.3 20Z"/></svg>