<svg xmlns="http://www.w3.org/2000/svg" fill="currentColor" viewBox="0 0 256 256"><path d="M136 120v96a8 8 0 0 1-16 0v-96a8 8 0 0 1 16 0m64 72a8 8 0 0 0-8 8v16a8 8 0 0 0 16 0v-16a8 8 0 0 0-8-8m24-48h-16V40a8 8 0 0 0-16 0v104h-16a8 8 0 0 0-8 8v16a8 8 0 0 0 8 8h48a8 8 0 0 0 8-8v-16a8 8 0 0 0-8-8M56 160a8 8 0 0 0-8 8v48a8 8 0 0 0 16 0v-48a8 8 0 0 0-8-8m24-48H64V40a8 8 0 0 0-16 0v72H32a8 8 0 0 0-8 8v16a8 8 0 0 0 8 8h48a8 8 0 0 0 8-8v-16a8 8 0 0 0-8-8m72-48h-16V40a8 8 0 0 0-16 0v24h-16a8 8 0 0 0-8 8v16a8 8 0 0 0 8 8h48a8 8 0 0 0 8-8V72a8 8 0 0 0-8-8"/></svg>