<svg xmlns="http://www.w3.org/2000/svg" fill="currentColor" viewBox="0 0 256 256"><path d="M136.83 220.43a8 8 0 0 1-11.09 2.23A183.15 183.15 0 0 0 24 192a8 8 0 0 1 0-16 199.1 199.1 0 0 1 110.6 33.34 8 8 0 0 1 2.23 11.09M24 144a8 8 0 0 0 0 16 214.8 214.8 0 0 1 151.17 61.71 8 8 0 1 0 11.2-11.42A230.7 230.7 0 0 0 24 144m208 16a216.5 216.5 0 0 0-48.59 5.49q8.24 6.25 16 13.16A201.5 201.5 0 0 1 232 176a8 8 0 0 1 0 16c-6 0-11.93.29-17.85.86q8.32 8.67 15.94 18.14a8 8 0 1 1-12.48 10A247 247 0 0 0 24 128a8 8 0 0 1 0-16 265.4 265.4 0 0 1 48 4.38V80a8 8 0 0 1 3.2-6.4l64-48a8 8 0 0 1 9.6 0l64 48A8 8 0 0 1 216 80v32.5c5.31-.32 10.64-.5 16-.5a8 8 0 0 1 0 16 246.3 246.3 0 0 0-84.26 14.69q9.44 5 18.46 10.78A232.2 232.2 0 0 1 232 144a8 8 0 0 1 0 16m-103.93-26.73A261.5 261.5 0 0 1 168 119.81V96h-48v34c2.71 1 5.4 2.13 8.07 3.27"/></svg>