<svg xmlns="http://www.w3.org/2000/svg" fill="currentColor" viewBox="0 0 256 256"><path d="m211.84 134.81-59.79 60.47a15.75 15.75 0 0 1-11.2 4.68H75.32l-29.66 29.7a8 8 0 0 1-11.32-11.32l22.59-22.58L124.7 128H209a4 4 0 0 1 2.84 6.81m4.86-104.24a64 64 0 0 0-85.9 4.14l-9.6 9.48A4 4 0 0 0 120 47v63l55-55a8 8 0 0 1 11.31 11.31L140.71 112h88.38a4 4 0 0 0 3.56-2.16 64.08 64.08 0 0 0-15.95-79.27M62.83 167.23 104 126.06v-55.3a4 4 0 0 0-6.81-2.84L60.69 104A15.9 15.9 0 0 0 56 115.31v49.09a4 4 0 0 0 6.83 2.83"/></svg>