<svg xmlns="http://www.w3.org/2000/svg" fill="currentColor" viewBox="0 0 256 256"><path d="M224 152.53a8.17 8.17 0 0 1-8.25 7.47H204v47.73a8.17 8.17 0 0 1-7.47 8.25 8 8 0 0 1-8.53-8V160h-11.73a8.17 8.17 0 0 1-8.25-7.47 8 8 0 0 1 8-8.53h40a8 8 0 0 1 7.98 8.53M92 172.85C91.54 188.08 78.64 200 63.4 200H56v7.73a8.17 8.17 0 0 1-7.47 8.27 8 8 0 0 1-8.53-8v-56a8 8 0 0 1 8-8h16a28 28 0 0 1 28 28.85m-16-2A12.25 12.25 0 0 0 63.65 160H56v24h8a12 12 0 0 0 12-13.16Zm84 2c-.46 15.23-13.36 27.15-28.6 27.15H124v7.73a8.17 8.17 0 0 1-7.47 8.25 8 8 0 0 1-8.53-8V152a8 8 0 0 1 8-8h16a28 28 0 0 1 28 28.85m-16-2A12.25 12.25 0 0 0 131.65 160H124v24h8a12 12 0 0 0 12-13.16ZM40 116V40a16 16 0 0 1 16-16h96a8 8 0 0 1 5.66 2.34l56 56A8 8 0 0 1 216 88v28a4 4 0 0 1-4 4H44a4 4 0 0 1-4-4m112-28h44l-44-44Z"/></svg>