<svg xmlns="http://www.w3.org/2000/svg" fill="currentColor" viewBox="0 0 256 256"><path d="M44 120h168a4 4 0 0 0 4-4V88a8 8 0 0 0-2.34-5.66l-56-56A8 8 0 0 0 152 24H56a16 16 0 0 0-16 16v76a4 4 0 0 0 4 4m108-76 44 44h-44Zm72 108.53a8.18 8.18 0 0 1-8.25 7.47H192v16h15.73a8.17 8.17 0 0 1 8.25 7.47 8 8 0 0 1-8 8.53H192v15.73a8.17 8.17 0 0 1-7.47 8.25 8 8 0 0 1-8.53-8V152a8 8 0 0 1 8-8h32a8 8 0 0 1 8 8.53M64 144H48a8 8 0 0 0-8 8v55.73a8.17 8.17 0 0 0 7.47 8.27 8 8 0 0 0 8.53-8v-8h7.4c15.24 0 28.14-11.92 28.59-27.15A28 28 0 0 0 64 144m-.35 40H56v-24h8a12 12 0 0 1 12 13.16A12.25 12.25 0 0 1 63.65 184M128 144h-16a8 8 0 0 0-8 8v56a8 8 0 0 0 8 8h15.32c19.66 0 36.21-15.48 36.67-35.13A36 36 0 0 0 128 144m-.49 56H120v-40h8a20 20 0 0 1 20 20.77c-.42 10.82-9.66 19.23-20.49 19.23"/></svg>