<svg xmlns="http://www.w3.org/2000/svg" fill="currentColor" viewBox="0 0 256 256"><path d="m213.66 82.34-56-56A8 8 0 0 0 152 24H56a16 16 0 0 0-16 16v76a4 4 0 0 0 4 4h168a4 4 0 0 0 4-4V88a8 8 0 0 0-2.34-5.66M152 88V44l44 44ZM48 180c0 11 7.18 20 16 20a14.18 14.18 0 0 0 10.06-4.5 8.21 8.21 0 0 1 10.9-.91 8 8 0 0 1 .82 11.81A30.06 30.06 0 0 1 64 216c-17.64 0-32-16.15-32-36s14.36-36 32-36a30 30 0 0 1 21.39 9.19 8.26 8.26 0 0 1 .73 11.09 8 8 0 0 1-11.9.38A14.17 14.17 0 0 0 64 160c-8.82 0-16 9-16 20m103.81 16.31a20.82 20.82 0 0 1-9.19 15.23C137.43 215 131 216 125.13 216a61 61 0 0 1-15.13-2 8 8 0 1 1 4.3-15.41c4.38 1.2 14.95 2.7 19.55-.36.88-.59 1.83-1.52 2.14-3.93.35-2.67-.71-4.1-12.78-7.59-9.35-2.7-25-7.23-23-23.11a20.56 20.56 0 0 1 9-14.95c11.84-8 30.71-3.31 32.83-2.76a8 8 0 0 1-4.07 15.48c-4.49-1.17-15.23-2.56-19.83.56a4.54 4.54 0 0 0-2 3.67c-.12.9-.14 1.09 1.11 1.9 2.31 1.49 6.45 2.68 10.45 3.84 9.79 2.83 26.35 7.66 24.11 24.97M215.42 155l-19.89 55.68a8 8 0 0 1-15.06 0L160.58 155a8.21 8.21 0 0 1 4.5-10.45 8 8 0 0 1 10.45 4.76l12.47 34.9 12.47-34.9a8 8 0 0 1 10.45-4.76 8.23 8.23 0 0 1 4.5 10.45"/></svg>