<svg xmlns="http://www.w3.org/2000/svg" fill="currentColor" viewBox="0 0 256 256"><path d="m213.66 82.34-56-56A8 8 0 0 0 152 24H56a16 16 0 0 0-16 16v76a4 4 0 0 0 4 4h168a4 4 0 0 0 4-4V88a8 8 0 0 0-2.34-5.66M152 88V44l44 44Zm-4.19 108.31a20.82 20.82 0 0 1-9.19 15.23C133.43 215 127 216 121.13 216a60.6 60.6 0 0 1-15.19-2 8 8 0 0 1 4.31-15.41c4.38 1.21 15 2.71 19.55-.35.88-.6 1.83-1.52 2.14-3.93.34-2.67-.72-4.1-12.78-7.59-9.35-2.7-25-7.23-23-23.12a20.58 20.58 0 0 1 9-14.94c11.85-8 30.72-3.31 32.84-2.76a8 8 0 0 1-4.07 15.48c-4.49-1.17-15.23-2.56-19.83.56a4.57 4.57 0 0 0-2 3.67c-.11.9-.13 1.08 1.12 1.9 2.31 1.49 6.45 2.68 10.45 3.84 9.82 2.82 26.33 7.65 24.14 24.96M80 152v37.4c0 14.23-11.18 26.27-25.41 26.59A26 26 0 0 1 28 190.37a8.17 8.17 0 0 1 7.31-8.37 8 8 0 0 1 8.69 8.22 8.89 8.89 0 0 0 4 8c7.85 4.82 16-.76 16-8.2v-37.75a8.17 8.17 0 0 1 7.47-8.27 8 8 0 0 1 8.53 8m134.51 4.65L197.83 180l16.68 23.35a8 8 0 0 1-13 9.3L188 193.76l-13.49 18.89a8 8 0 1 1-13-9.3L178.17 180l-16.68-23.35a8 8 0 0 1 13-9.3L188 166.24l13.49-18.89a8 8 0 0 1 13 9.3Z"/></svg>