<svg xmlns="http://www.w3.org/2000/svg" fill="currentColor" viewBox="0 0 256 256"><path d="M184 144h-16a8 8 0 0 0-8 8v55.73a8.17 8.17 0 0 0 7.47 8.25 8 8 0 0 0 8.53-8v-8h7.4c15.24 0 28.14-11.92 28.59-27.15A28 28 0 0 0 184 144m-.35 40H176v-24h8a12 12 0 0 1 12 13.16A12.25 12.25 0 0 1 183.65 184M136 152v55.73a8.17 8.17 0 0 1-7.47 8.25 8 8 0 0 1-8.53-8v-55.71a8.17 8.17 0 0 1 7.47-8.25A8 8 0 0 1 136 152m-40 56.53a8.17 8.17 0 0 1-8.27 7.47h-31.5a8.27 8.27 0 0 1-6-2.5 8 8 0 0 1-1.18-9.5l25.16-44H56.27a8.17 8.17 0 0 1-8.27-7.47 8 8 0 0 1 8-8.53h31.77a8.27 8.27 0 0 1 6 2.5A8 8 0 0 1 95 156l-25.21 44H88a8 8 0 0 1 8 8.53M213.66 82.34l-56-56A8 8 0 0 0 152 24H56a16 16 0 0 0-16 16v76a4 4 0 0 0 4 4h168a4 4 0 0 0 4-4V88a8 8 0 0 0-2.34-5.66M152 88V44l44 44Z"/></svg>