<svg xmlns="http://www.w3.org/2000/svg" fill="currentColor" viewBox="0 0 256 256"><path d="M44 120h168a4 4 0 0 0 4-4V88a8 8 0 0 0-2.34-5.66l-56-56A8 8 0 0 0 152 24H56a16 16 0 0 0-16 16v76a4 4 0 0 0 4 4m108-76 44 44h-44Zm76 164.53a8.18 8.18 0 0 1-8.25 7.47H192a8 8 0 0 1-8-8v-55.73a8.18 8.18 0 0 1 7.47-8.25 8 8 0 0 1 8.53 8v48h20a8 8 0 0 1 8 8.51M91.82 196.31a20.82 20.82 0 0 1-9.19 15.23C77.44 215 71 216 65.14 216A60.7 60.7 0 0 1 50 214a8 8 0 0 1 4.3-15.41c4.38 1.2 14.95 2.7 19.55-.36.89-.59 1.83-1.52 2.14-3.93.35-2.67-.71-4.1-12.78-7.59-9.35-2.7-25-7.23-23-23.11a20.55 20.55 0 0 1 9-14.95c11.84-8 30.72-3.31 32.83-2.76a8 8 0 0 1-4.08 15.48c-4.49-1.17-15.22-2.56-19.82.56a4.54 4.54 0 0 0-2 3.67c-.12.9-.14 1.08 1.12 1.9 2.31 1.49 6.44 2.68 10.45 3.84 9.79 2.83 26.35 7.66 24.11 24.97m71 3.23A39.05 39.05 0 0 0 168 180c0-19.85-14.35-36-32-36s-32 16.15-32 36 14.35 36 32 36a29.2 29.2 0 0 0 15.9-4.78l2.44 2.44a8 8 0 0 0 11.71-.43 8.18 8.18 0 0 0-.61-11.09ZM136 200c-8.82 0-16-9-16-20s7.18-20 16-20 16 9 16 20a24.4 24.4 0 0 1-1.18 7.51l-.93-.93a8.22 8.22 0 0 0-11.37-.41 8 8 0 0 0-.18 11.49l1.68 1.67a13 13 0 0 1-4.02.67"/></svg>