<svg xmlns="http://www.w3.org/2000/svg" fill="currentColor" viewBox="0 0 256 256"><path d="M128 24a104 104 0 1 0 104 104A104.12 104.12 0 0 0 128 24m78.36 64h-35.65a135.3 135.3 0 0 0-22.3-45.6A88.29 88.29 0 0 1 206.37 88Zm9.64 40a87.6 87.6 0 0 1-3.33 24h-38.51a157.4 157.4 0 0 0 0-48h38.51a87.6 87.6 0 0 1 3.33 24m-88-85a115.3 115.3 0 0 1 26 45h-52a115.1 115.1 0 0 1 26-45m-26 125h52a115.1 115.1 0 0 1-26 45 115.3 115.3 0 0 1-26-45m-3.9-16a140.8 140.8 0 0 1 0-48h59.88a140.8 140.8 0 0 1 0 48Zm50.35 61.6a135.3 135.3 0 0 0 22.3-45.6h35.66a88.29 88.29 0 0 1-58 45.6Z"/></svg>