<svg xmlns="http://www.w3.org/2000/svg" fill="currentColor" viewBox="0 0 256 256"><path d="M128 24a104 104 0 1 0 104 104A104.11 104.11 0 0 0 128 24m88 104a87.6 87.6 0 0 1-6.4 32.94l-44.7-27.49a15.9 15.9 0 0 0-6.24-2.23l-22.82-3.08a16.11 16.11 0 0 0-16 7.86h-8.72l-3.8-7.86a15.91 15.91 0 0 0-11-8.67l-8-1.73L96.14 104h16.71a16.06 16.06 0 0 0 7.73-2l12.25-6.76a16.6 16.6 0 0 0 3-2.14l26.91-24.34A15.93 15.93 0 0 0 166 49.1l-.36-.65A88.11 88.11 0 0 1 216 128m-176 0a87.5 87.5 0 0 1 8.54-37.8l11.34 30.27a16 16 0 0 0 11.62 10l21.43 4.61 3.81 7.92a16.09 16.09 0 0 0 14.4 9h1.48l-7.23 16.23a16 16 0 0 0 2.86 17.37l.14.14 19.61 20.2-1.94 10A88.11 88.11 0 0 1 40 128"/></svg>