<svg xmlns="http://www.w3.org/2000/svg" fill="currentColor" viewBox="0 0 256 256"><path d="M216 64v80a87.7 87.7 0 0 1-5.45 30.49 4 4 0 0 1-6.7 1.27l-41.33-45.46a4 4 0 0 1 1-6.16A87.4 87.4 0 0 1 200 112.37V72.45a72.33 72.33 0 0 0-50.35 29.36 8 8 0 0 1-11.93 1.19 8.17 8.17 0 0 1-.89-10.75 88.1 88.1 0 0 1 25-23.11C152.62 49.8 135.45 37.74 128 33.2a99.8 99.8 0 0 0-23.4 19.94 8 8 0 0 1-12 .27 8.18 8.18 0 0 1-.06-10.8 112.4 112.4 0 0 1 31.86-25.76 8 8 0 0 1 7.16 0c1.32.66 30.27 15.43 44.59 45.15a87.9 87.9 0 0 1 31.74-6 8 8 0 0 1 8.11 8m-2.08 146.62a8 8 0 1 1-11.84 10.76l-12.9-14.19A87.77 87.77 0 0 1 128.52 232C79.83 232.28 40 191.51 40 142.83V64a8 8 0 0 1 8.09-8c1.25 0 2.48 0 3.72.09l-9.73-10.71a8 8 0 1 1 11.84-10.76Zm-77.6-61.57L69.18 75.19A71.3 71.3 0 0 0 56 72.44v39.94a88.17 88.17 0 0 1 72 51 88 88 0 0 1 8.32-14.33"/></svg>