<svg xmlns="http://www.w3.org/2000/svg" fill="currentColor" viewBox="0 0 256 256"><path d="m249.66 46.34-40-40a8 8 0 0 0-11.32 11.32l2.35 2.34-60.17 60.16c-22.79-11.86-48.31-10.87-63.77 4.58a42.3 42.3 0 0 0-9.39 14.37 8.24 8.24 0 0 1-7.55 4.89c-14.59.49-27.26 5.72-36.65 15.11C11.08 131.22 6 148.6 8.74 168.07 11.4 186.7 21.07 205.15 36 220s33.34 24.56 52 27.22a71 71 0 0 0 10.1.78c15.32 0 28.83-5.23 38.76-15.16 9.39-9.39 14.62-22.06 15.11-36.65a8.24 8.24 0 0 1 4.92-7.55 42.2 42.2 0 0 0 14.37-9.39c15.45-15.46 16.44-41 4.58-63.77L236 55.31l2.34 2.35a8 8 0 0 0 11.32-11.32m-156 159.31a8 8 0 0 1-11.31 0l-32-32a8 8 0 0 1 11.32-11.31l32 32a8 8 0 0 1-.01 11.31m42.14-45.86a28 28 0 1 1 0-39.59 28 28 0 0 1 0 39.59m31.06-58a87 87 0 0 0-6-6.68 85 85 0 0 0-6.69-6L176 67.31 188.69 80ZM200 68.68 187.32 56 212 31.31 224.69 44Z"/></svg>