<svg xmlns="http://www.w3.org/2000/svg" fill="currentColor" viewBox="0 0 256 256"><path d="M219.31 98.46a88 88 0 1 1-152.23 88.31l-40.93-70.89a16 16 0 0 1 27.69-16L72.4 132a8 8 0 0 0 13.86-8L47 56a16 16 0 0 1 27.69-16L114 108a8 8 0 1 0 13.85-8l-30-52a16 16 0 0 1 27.71-16L166 102.12A48.25 48.25 0 0 0 152 136a47.6 47.6 0 0 0 9.6 28.8 8 8 0 1 0 12.79-9.61 32 32 0 0 1 6.61-44.93 8 8 0 0 0 2.17-10.43L171.71 80a16 16 0 0 1 27.71-16zm-29.37-57A43.74 43.74 0 0 1 216.74 62l.33.57a8 8 0 0 0 13.86-8l-.33-.57a59.64 59.64 0 0 0-36.54-28 8 8 0 0 0-4.12 15.46M79.58 225.72A103.6 103.6 0 0 1 53.93 196a8 8 0 0 0-13.86 8 119.6 119.6 0 0 0 29.6 34.28 8 8 0 0 0 9.91-12.56"/></svg>