<svg xmlns="http://www.w3.org/2000/svg" fill="currentColor" viewBox="0 0 256 256"><path d="M188.87 65a18 18 0 0 0-31.25 18l-24.26-42a18 18 0 0 0-31.22 18L96.4 49a18 18 0 0 0-31.22 18l3.34 5.77A26 26 0 0 0 39.74 111l3 5.2A26 26 0 0 0 23.5 155l35.27 61a80.14 80.14 0 0 0 149.52-39.57 71.92 71.92 0 0 0 1.71-74.85Zm1.2 127.56A64.12 64.12 0 0 1 72.65 208l-35.27-61a10 10 0 0 1 17.34-10L75 172a8 8 0 0 0 13.87-8l-35.25-61A10 10 0 0 1 71 93l31.81 55a8 8 0 0 0 13.87-8l-26-45a10 10 0 0 1 17.35-10l36.5 63a8 8 0 0 0 13.87-8l-12.6-21.75a10 10 0 0 1 17.64-9.25l20.22 35a63.52 63.52 0 0 1 6.41 48.57ZM160.22 24V8a8 8 0 0 1 16 0v16a8 8 0 0 1-16 0m33.22 6 8-13.1a8 8 0 0 1 13.68 8.33l-8 13.11a8 8 0 0 1-6.84 3.83A8 8 0 0 1 193.44 30m45 33.66-15.05 4.85a8.2 8.2 0 0 1-2.46.39 8 8 0 0 1-2.46-15.62l15.06-4.85a8 8 0 1 1 4.91 15.23"/></svg>