<svg xmlns="http://www.w3.org/2000/svg" fill="currentColor" viewBox="0 0 256 256"><path d="M230.33 141.06a24.43 24.43 0 0 0-21.24-4.23l-41.84 9.62A28 28 0 0 0 140 112H89.94a31.82 31.82 0 0 0-22.63 9.37L44.69 144H16a16 16 0 0 0-16 16v40a16 16 0 0 0 16 16h104a8 8 0 0 0 1.94-.24l64-16a7.4 7.4 0 0 0 1.2-.4L226 182.82l.44-.2a24.6 24.6 0 0 0 3.93-41.56Zm-10.9 27.15-38 16.18L119 200H56v-44.69l22.63-22.62A15.86 15.86 0 0 1 89.94 128H140a12 12 0 0 1 0 24h-28a8 8 0 0 0 0 16h32a8.3 8.3 0 0 0 1.79-.2l67-15.41.31-.08a8.6 8.6 0 0 1 6.3 15.9ZM154.34 61.66a8 8 0 0 1 0-11.32l32-32a8 8 0 0 1 11.32 0l32 32a8 8 0 0 1-11.32 11.32L200 43.31V104a8 8 0 0 1-16 0V43.31l-18.34 18.35a8 8 0 0 1-11.32 0"/></svg>