<svg xmlns="http://www.w3.org/2000/svg" fill="currentColor" viewBox="0 0 256 256"><path d="M120 72a8 8 0 1 1 8 8 8 8 0 0 1-8-8m24 64a8 8 0 1 0 8-8 8 8 0 0 0-8 8m48.5 35.47a88.32 88.32 0 0 0 31.5-69.58q0-1.1-.09-2.19a4 4 0 0 0-4-3.75h-24.16l-23.13 27.75a24 24 0 1 1-12.28-10.25l25.51-30.62A8 8 0 0 1 192 80h23.14a4 4 0 0 0 3.77-5.35C207.27 42 176.86 18 140.74 16.08h-.59a4 4 0 0 0-4.15 4v29.25a24 24 0 1 1-16 0v-27a4 4 0 0 0-4.89-3.91A88.16 88.16 0 0 0 48 102l-22.45 43.14-.22.45a16 16 0 0 0 7.51 20.7l.25.12L56 176.9v31a16 16 0 0 0 16 16h40v8a8 8 0 0 0 8 8h71.77a8.4 8.4 0 0 0 4.06-1 8 8 0 0 0 4.11-8Z"/></svg>