<svg xmlns="http://www.w3.org/2000/svg" fill="currentColor" viewBox="0 0 256 256"><path d="M207 50.25A87.46 87.46 0 0 0 144.6 24h-.33A87.48 87.48 0 0 0 82 49.81L20.61 112a16 16 0 0 0 .06 22.56l28.66 28.66a15.92 15.92 0 0 0 11.32 4.69h.09a16 16 0 0 0 11.36-4.82l60.9-62.4a16.08 16.08 0 0 1 22.41-.21 15.6 15.6 0 0 1 4.73 11.19 16.9 16.9 0 0 1-4.85 12L93 183.88a16 16 0 0 0-.17 22.79l28.66 28.66a16.06 16.06 0 0 0 22.52.12l61.8-60.45c34.45-34.5 34.98-90.44 1.19-124.75M60.65 151.89 32 123.24l29.42-29.81 28.48 28.48ZM132.79 224l-28.68-28.65 30.13-29.13 28.49 28.48Z"/></svg>