<svg xmlns="http://www.w3.org/2000/svg" fill="currentColor" viewBox="0 0 256 256"><path d="M217 34.8a15.94 15.94 0 0 0-14.82-1.71c-14.03 5.46-42.36 14.62-74.18 14.62s-60.16-9.16-74.21-14.62A16 16 0 0 0 32 48v55.77c0 35.84 9.65 69.65 27.18 95.18 18.16 26.46 42.6 41 68.82 41s50.66-14.57 68.82-41c17.53-25.51 27.18-59.32 27.18-95.16V48a16 16 0 0 0-7-13.2M78 133.33a8 8 0 1 1-12-10.67C71.75 116.28 82.18 112 92 112s20.25 4.28 26 10.66a8 8 0 1 1-12 10.67c-2.68-3-8.85-5.33-14-5.33s-11.36 2.34-14 5.33m90.49 47.86a52.9 52.9 0 0 1-80.9 0 8 8 0 1 1 12.13-10.39 36.89 36.89 0 0 0 56.56 0 8 8 0 0 1 12.17 10.39ZM189.34 134a8 8 0 0 1-11.3-.63c-2.68-3-8.85-5.33-14-5.33s-11.36 2.34-14 5.33A8 8 0 1 1 138 122.66c5.71-6.38 16.14-10.66 26-10.66s20.25 4.28 26 10.66a8 8 0 0 1-.66 11.34"/></svg>