<svg xmlns="http://www.w3.org/2000/svg" fill="currentColor" viewBox="0 0 256 256"><path d="M216 120a41 41 0 0 0-6.6.55l-5.82-15.14A55.6 55.6 0 0 1 216 104a8 8 0 0 0 0-16h-19.12l-13.41-34.87A8 8 0 0 0 176 48h-32a8 8 0 0 0 0 16h26.51l9.23 24H152c-18.5 0-33.5 4.31-43.37 12.46a16 16 0 0 1-16.76 2.07c-10.58-4.81-73.29-30.12-73.8-30.26a8 8 0 0 0-5 15.19s55.5 21.94 66.53 32.94A55.67 55.67 0 0 1 95.43 152H79.2a40 40 0 1 0 0 16h52.12a31.91 31.91 0 0 0 30.74-23.1 56 56 0 0 1 26.59-33.72l5.82 15.13A40 40 0 1 0 216 120M40 168h22.62a24 24 0 1 1 0-16H40a8 8 0 0 0 0 16m176 16a24 24 0 0 1-15.58-42.23l8.11 21.1a8 8 0 1 0 14.94-5.74L215.35 136h.65a24 24 0 0 1 0 48"/></svg>