<svg xmlns="http://www.w3.org/2000/svg" fill="currentColor" viewBox="0 0 256 256"><path d="M200 24H56a16 16 0 0 0-16 16v176a16 16 0 0 0 16 16h144a16 16 0 0 0 16-16V40a16 16 0 0 0-16-16M80 164a12 12 0 1 1 12-12 12 12 0 0 1-12 12m0-40a12 12 0 1 1 12-12 12 12 0 0 1-12 12m0-40a12 12 0 1 1 12-12 12 12 0 0 1-12 12m48 120a12 12 0 1 1 12-12 12 12 0 0 1-12 12m0-40a12 12 0 1 1 12-12 12 12 0 0 1-12 12m0-40a12 12 0 1 1 12-12 12 12 0 0 1-12 12m0-40a12 12 0 1 1 12-12 12 12 0 0 1-12 12m48 80a12 12 0 1 1 12-12 12 12 0 0 1-12 12m0-40a12 12 0 1 1 12-12 12 12 0 0 1-12 12m0-40a12 12 0 1 1 12-12 12 12 0 0 1-12 12"/></svg>