<svg xmlns="http://www.w3.org/2000/svg" fill="currentColor" viewBox="0 0 256 256"><path d="M224.32 114.24a56 56 0 0 0-60.07-76.57 56 56 0 0 0-96.32 13.77 56 56 0 0 0-36.25 90.32A56 56 0 0 0 69 217a56.4 56.4 0 0 0 14.59 2 56 56 0 0 0 8.17-.61 56 56 0 0 0 96.31-13.78 56 56 0 0 0 36.25-90.32Zm-80.32 23-16 9.24-16-9.24v-18.48l16-9.24 16 9.24Zm38.85-82.81a40 40 0 0 1 28.56 48 51 51 0 0 0-2.91-1.81L164 74.88a8 8 0 0 0-8 0l-44 25.41V81.81l40.5-23.38a39.76 39.76 0 0 1 30.35-4m-142 32.5a39.75 39.75 0 0 1 23.27-18.36A56 56 0 0 0 64 72v51.38a8 8 0 0 0 4 6.93l44 25.4L96 165l-40.5-23.43a40 40 0 0 1-14.64-54.64ZM136 224a39.8 39.8 0 0 1-27.52-10.95c1-.51 2-1.05 3-1.63L156 185.73a8 8 0 0 0 4-6.92V128l16 9.24V184a40 40 0 0 1-40 40"/></svg>