<svg xmlns="http://www.w3.org/2000/svg" fill="currentColor" viewBox="0 0 256 256"><path d="M223.88 183.08A56.26 56.26 0 0 1 168 232C88.6 232 24 167.4 24 88a56.26 56.26 0 0 1 48.92-55.88 16 16 0 0 1 16.62 9.52l21.12 47.15v.12a16 16 0 0 1-1.27 15.09c-.18.27-.37.52-.57.77L88 129.45c7.49 15.22 23.41 31 38.83 38.51l24.34-20.71a8 8 0 0 1 .75-.56 16 16 0 0 1 15.18-1.4l.12.06 47.1 21.11a16 16 0 0 1 9.56 16.62M200 112a8 8 0 0 0 8-8V48a8 8 0 0 0-16 0v56a8 8 0 0 0 8 8m-40 0a8 8 0 0 0 8-8V48a8 8 0 0 0-16 0v56a8 8 0 0 0 8 8"/></svg>