<svg xmlns="http://www.w3.org/2000/svg" fill="currentColor" viewBox="0 0 256 256"><path d="M152 224a8 8 0 0 1-8 8h-32a8 8 0 0 1 0-16h32a8 8 0 0 1 8 8m71.62-68.17-12.36 55.63a16 16 0 0 1-25.51 9.11L158.51 200h-61l-27.26 20.57a16 16 0 0 1-25.51-9.11l-12.36-55.63a16.09 16.09 0 0 1 3.32-13.71l28.56-34.26a123 123 0 0 1 8.57-36.67c12.9-32.34 36-52.63 45.37-59.85a16 16 0 0 1 19.6 0c9.34 7.22 32.47 27.51 45.37 59.85a123 123 0 0 1 8.57 36.67l28.56 34.26a16.09 16.09 0 0 1 3.32 13.71m-139.23 34q-16.11-29.33-19.56-57.67L48 152.36 60.36 208l.18-.13ZM140 100a12 12 0 1 0-12 12 12 12 0 0 0 12-12m68 52.36-16.83-20.2q-3.42 28.28-19.56 57.69l23.85 18 .18.13Z"/></svg>