<svg xmlns="http://www.w3.org/2000/svg" fill="currentColor" viewBox="0 0 256 256"><path d="M220.8 169.6a8 8 0 0 0-4.8-1.6h-8V64a32 32 0 0 0-32-32H40A32 32 0 0 0 8 64c0 13.61 10.05 21.54 11.2 22.4A7.9 7.9 0 0 0 24 88a8 8 0 0 0 4.87-14.33C28.83 73.62 24 69.74 24 64a16 16 0 0 1 32 0v128a32 32 0 0 0 32 32h112a32 32 0 0 0 32-32c0-13.61-10-21.54-11.2-22.4M104 96h64a8 8 0 0 1 0 16h-64a8 8 0 0 1 0-16m-8 40a8 8 0 0 1 8-8h64a8 8 0 0 1 0 16h-64a8 8 0 0 1-8-8m104 72h-92.29a31.8 31.8 0 0 0 4.29-16 27 27 0 0 0-1.21-8h102a12.58 12.58 0 0 1 3.23 8A16 16 0 0 1 200 208"/></svg>