<svg xmlns="http://www.w3.org/2000/svg" fill="currentColor" viewBox="0 0 256 256"><path d="M237.66 178.34a8 8 0 0 1 0 11.32l-24 24A8 8 0 0 1 200 208v-16a72.15 72.15 0 0 1-57.65-30.14l-41.72-58.4A56.1 56.1 0 0 0 55.06 80H32a8 8 0 0 1 0-16h23.06a72.12 72.12 0 0 1 58.59 30.15l41.72 58.4A56.08 56.08 0 0 0 200 176v-16a8 8 0 0 1 13.66-5.66ZM143 107a8 8 0 0 0 11.16-1.86l1.2-1.67A56.08 56.08 0 0 1 200 80v16a8 8 0 0 0 13.66 5.66l24-24a8 8 0 0 0 0-11.32l-24-24A8 8 0 0 0 200 48v16a72.15 72.15 0 0 0-57.65 30.14l-1.2 1.67A8 8 0 0 0 143 107m-30 42a8 8 0 0 0-11.16 1.86l-1.2 1.67A56.1 56.1 0 0 1 55.06 176H32a8 8 0 0 0 0 16h23.06a72.12 72.12 0 0 0 58.59-30.15l1.2-1.67A8 8 0 0 0 113 149"/></svg>