<svg xmlns="http://www.w3.org/2000/svg" fill="currentColor" viewBox="0 0 256 256"><path d="M222.53 144.83A96.09 96.09 0 0 0 111.17 33.47 55.4 55.4 0 0 0 80 24a56.06 56.06 0 0 0-56 56 55.4 55.4 0 0 0 9.47 31.17 96.09 96.09 0 0 0 111.36 111.36A55.4 55.4 0 0 0 176 232a56.06 56.06 0 0 0 56-56 55.4 55.4 0 0 0-9.47-31.17M128 184c-22.06 0-40-14.36-40-32a8 8 0 0 1 16 0c0 8.67 11 16 24 16s24-7.33 24-16c0-9.48-8.61-13-26.88-18.26-15.75-4.54-35.34-10.19-35.34-29.74 0-18.24 16.43-32 38.22-32 15.72 0 29.18 7.3 35.12 19a8 8 0 1 1-14.27 7.22C145.64 91.94 137.65 88 128 88c-12.67 0-22.22 6.88-22.22 16 0 7 9 10.1 23.77 14.36C145.78 123 168 129.45 168 152c0 17.64-17.94 32-40 32"/></svg>