<svg xmlns="http://www.w3.org/2000/svg" fill="currentColor" viewBox="0 0 256 256"><path d="M128 24a104 104 0 1 0 104 104A104.11 104.11 0 0 0 128 24m36 72a12 12 0 1 1-12 12 12 12 0 0 1 12-12m-72 0a12 12 0 1 1-12 12 12 12 0 0 1 12-12m84 80c-10 0-15.05-6.74-18.4-11.2-3-4-3.92-4.8-5.6-4.8s-2.57.76-5.6 4.8c-3.35 4.46-8.4 11.2-18.4 11.2s-15-6.74-18.4-11.2c-3-4-3.92-4.8-5.6-4.8s-2.57.76-5.6 4.8C95.05 169.26 90 176 80 176a8 8 0 0 1 0-16c1.68 0 2.57-.76 5.6-4.8C89 150.74 94 144 104 144s15 6.74 18.4 11.2c3 4 3.92 4.8 5.6 4.8s2.57-.76 5.6-4.8C137 150.74 142 144 152 144s15.05 6.74 18.4 11.2c3 4 3.92 4.8 5.6 4.8a8 8 0 0 1 0 16"/></svg>