<svg xmlns="http://www.w3.org/2000/svg" fill="currentColor" viewBox="0 0 256 256"><path d="M128 24a104 104 0 1 0 104 104A104.11 104.11 0 0 0 128 24m33.94 58.75 17-17a8 8 0 0 1 11.32 11.32l-17 17a8 8 0 0 1-11.31-11.31ZM48 136a8 8 0 0 1 0-16h24a8 8 0 0 1 0 16Zm46.06 37.25-17 17a8 8 0 0 1-11.32-11.32l17-17a8 8 0 0 1 11.31 11.31Zm0-79.19a8 8 0 0 1-11.31 0l-17-17a8 8 0 0 1 11.34-11.29l17 17a8 8 0 0 1-.03 11.29M136 208a8 8 0 0 1-16 0v-24a8 8 0 0 1 16 0Zm0-136a8 8 0 0 1-16 0V48a8 8 0 0 1 16 0Zm54.23 118.23a8 8 0 0 1-11.32 0l-17-17a8 8 0 0 1 11.31-11.31l17 17a8 8 0 0 1 .01 11.31M208 136h-24a8 8 0 0 1 0-16h24a8 8 0 0 1 0 16"/></svg>