<svg xmlns="http://www.w3.org/2000/svg" fill="currentColor" viewBox="0 0 256 256"><path d="M108 188a32 32 0 1 1-32-32 32 32 0 0 1 32 32m-54.34-70.34L68 103.31l14.34 14.35a8 8 0 0 0 11.32-11.32L79.31 92l14.35-14.34a8 8 0 0 0-11.32-11.32L68 80.69 53.66 66.34a8 8 0 0 0-11.32 11.32L56.69 92l-14.35 14.34a8 8 0 0 0 11.32 11.32M215.31 188l14.35-14.34a8 8 0 0 0-11.32-11.32L204 176.69l-14.34-14.35a8 8 0 0 0-11.32 11.32L192.69 188l-14.35 14.34a8 8 0 0 0 11.32 11.32L204 199.31l14.34 14.35a8 8 0 0 0 11.32-11.32ZM165.66 50.34 163.31 48H184a8 8 0 0 0 0-16h-40a8 8 0 0 0-8 8v40a8 8 0 0 0 16 0V59.31l2.34 2.35c17.93 17.93 17.9 35.4 14.71 46.9-4.64 16.77-19.36 31.77-35 35.68A8 8 0 0 0 136 160a8 8 0 0 0 1.95-.24c21.21-5.3 40.35-24.6 46.53-46.93 6.1-22.05-.58-44.24-18.82-62.49"/></svg>