<svg xmlns="http://www.w3.org/2000/svg" fill="currentColor" viewBox="0 0 256 256"><path d="M152 146.08V40a32 32 0 0 0-64 0v106.08a56 56 0 1 0 64 0M136 56h-32V40a16 16 0 0 1 32 0Zm41.3 24.77a8 8 0 0 1 2.33-11.07c15-9.79 26.87-4.75 35.51-1.06 7.86 3.36 12.62 5.36 20.49.25a8 8 0 0 1 8.74 13.41C237.88 86.53 232 88 226.69 88c-7 0-12.92-2.54-17.83-4.63C201 80 196.24 78 188.37 83.11a8 8 0 0 1-11.07-2.34m69.4 22.46a8 8 0 0 1-2.33 11.07c-6.49 4.23-12.37 5.7-17.68 5.7-7 0-12.92-2.54-17.83-4.63-7.87-3.36-12.62-5.38-20.49-.25a8 8 0 0 1-8.74-13.41c15-9.79 26.87-4.75 35.51-1.06 7.87 3.36 12.62 5.39 20.49.25a8 8 0 0 1 11.07 2.33"/></svg>