<svg xmlns="http://www.w3.org/2000/svg" fill="currentColor" viewBox="0 0 256 256"><path d="M160 129.89 175.06 160h-30.12l6.36-12.7ZM224 48v160a16 16 0 0 1-16 16H48a16 16 0 0 1-16-16V48a16 16 0 0 1 16-16h160a16 16 0 0 1 16 16m-16.84 140.42-40-80a8 8 0 0 0-14.32 0l-13.18 26.38a62.3 62.3 0 0 1-23.61-10A79.6 79.6 0 0 0 135.6 80H152a8 8 0 0 0 0-16h-40v-8a8 8 0 0 0-16 0v8H56a8 8 0 0 0 0 16h63.48a63.73 63.73 0 0 1-15.3 34.05 66 66 0 0 1-9-13.61 8 8 0 0 0-14.32 7.12 81.8 81.8 0 0 0 11.4 17.15A63.6 63.6 0 0 1 56 136a8 8 0 0 0 0 16 79.56 79.56 0 0 0 48.11-16.13 78.3 78.3 0 0 0 28.18 13.66l-19.45 38.89a8 8 0 0 0 14.32 7.16l9.78-19.58h46.12l9.78 19.58a8 8 0 1 0 14.32-7.16"/></svg>