<svg xmlns="http://www.w3.org/2000/svg" fill="currentColor" viewBox="0 0 256 256"><path d="M229.66 98.34a8 8 0 0 1-11.32 11.32L200 91.31l-18.34 18.35a8 8 0 0 1-11.32-11.32L188.69 80l-18.35-18.34a8 8 0 0 1 11.32-11.32L200 68.69l18.34-18.35a8 8 0 0 1 11.32 11.32L211.31 80ZM206.85 131a33 33 0 0 1-4.15-3.14 4 4 0 0 0-5.37 0 32 32 0 0 1-45.18-45.18 4 4 0 0 0 0-5.34A32 32 0 0 1 149 38.91a4 4 0 0 0-3.11-6.08Q137 32 128 32A186.67 186.67 0 0 0 14.28 70.1a15.93 15.93 0 0 0-6.17 10.81 15.65 15.65 0 0 0 3.54 11.89l104 125.43A15.93 15.93 0 0 0 128 224a15.93 15.93 0 0 0 12.31-5.77l67.45-81.31a4 4 0 0 0-.91-5.92"/></svg>