<svg xmlns="http://www.w3.org/2000/svg" width="24" height="24" fill="currentColor" viewBox="0 0 24 24"><path d="M19.876 2.008a1 1 0 1 1 .248 1.984L13 4.883V7h4.2a1 1 0 0 1 .688.274l.087.093c2.79 3.417 2.717 9.963-.226 13.295A1 1 0 0 1 17 21H6.894a1 1 0 0 1-.763-.353c-2.86-3.373-2.86-9.92 0-13.294A1 1 0 0 1 6.894 7H11V5.133l-6.876.86a1 1 0 0 1-1.095-.754l-.021-.115a1 1 0 0 1 .868-1.116l7.996-1 .011-.001.008-.001zM11 9H7.383l-.051.072c-.718 1.042-1.149 2.41-1.292 3.844L6.032 13H11zm5.698 0H13v4h4.979l-.005-.072c-.123-1.436-.533-2.811-1.232-3.864z"/></svg>