<svg xmlns="http://www.w3.org/2000/svg" width="24" height="24" fill="currentColor" viewBox="0 0 24 24"><path d="M14.897 1a4 4 0 0 1 2.664 1.016l.165.156 4.1 4.1a4 4 0 0 1 1.168 2.605l.006.227v5.794a4 4 0 0 1-1.016 2.664l-.156.165-4.1 4.1a4 4 0 0 1-2.603 1.168l-.227.006H9.103a4 4 0 0 1-2.664-1.017l-.165-.156-4.1-4.1a4 4 0 0 1-1.168-2.604L1 14.897V9.103a4 4 0 0 1 1.016-2.664l.156-.165 4.1-4.1a4 4 0 0 1 2.605-1.168L9.104 1zM12.01 15l-.127.007a1 1 0 0 0 0 1.986L12 17l.127-.007a1 1 0 0 0 0-1.986zM12 7a1 1 0 0 0-.993.883L11 8v4l.007.117a1 1 0 0 0 1.986 0L13 12V8l-.007-.117A1 1 0 0 0 12 7"/></svg>