<svg xmlns="http://www.w3.org/2000/svg" width="24" height="24" fill="currentColor" viewBox="0 0 24 24"><path d="M18.333 2c1.96 0 3.56 1.537 3.662 3.472l.005.195v12.666c0 1.96-1.537 3.56-3.472 3.662l-.195.005H5.667a3.667 3.667 0 0 1-3.662-3.472L2 18.333V5.667c0-1.96 1.537-3.56 3.472-3.662L5.667 2zM9 5a1 1 0 0 0-1 1v6l.007.117A1 1 0 0 0 10 12V6l-.007-.117A1 1 0 0 0 9 5m3 0a1 1 0 0 0-1 1v4l.007.117A1 1 0 0 0 13 10V6l-.007-.117A1 1 0 0 0 12 5M6 5a1 1 0 0 0-1 1v2l.007.117A1 1 0 0 0 7 8V6l-.007-.117A1 1 0 0 0 6 5"/></svg>