<svg xmlns="http://www.w3.org/2000/svg" width="24" height="24" fill="currentColor" viewBox="0 0 24 24"><path d="M12.879 3.879a3 3 0 0 0 0 4.242l.09.085.094.083.096.08.158.115a3 3 0 0 0 1.59.515L15 8.998v6.003h-.092a3 3 0 0 0-2.03 5.12.514.514 0 0 1-.363.878L6 21a3 3 0 0 1-3-3V6a3 3 0 0 1 3-3h6.514a.515.515 0 0 1 .365.879"/><path d="M18 13a1 1 0 0 1 1 1v4.584l1.293-1.291a1 1 0 0 1 1.32-.083l.094.083a1 1 0 0 1 0 1.414l-3 3a1 1 0 0 1-.112.097l-.11.071-.114.054-.105.035-.149.03L18 22l-.075-.003-.126-.017-.111-.03-.111-.044-.098-.052-.096-.067-.09-.08-3-3a1 1 0 0 1 1.414-1.414L17 18.586V14a1 1 0 0 1 1-1m-.148-10.989.058-.007L18 2l.075.003.126.017.111.03.111.044.098.052.104.074.082.073 3 3a1 1 0 1 1-1.414 1.414L19 5.415V10a1 1 0 0 1-2 0V5.415l-1.293 1.292a1 1 0 0 1-1.32.083l-.094-.083a1 1 0 0 1 0-1.414l3-3q.053-.054.112-.097l.11-.071.114-.054.105-.035z"/></svg>