<svg xmlns="http://www.w3.org/2000/svg" width="24" height="24" fill="currentColor" viewBox="0 0 24 24"><path d="M3 14a1 1 0 0 0 1 1h11.001v-.092a3 3 0 0 1 5.12-2.03.515.515 0 0 0 .879-.363V6a3 3 0 0 0-3-3H6a3 3 0 0 0-3 3z"/><path d="M3 18a1 1 0 0 0 1 1h14.584l-1.291 1.293a1 1 0 0 0-.083 1.32l.083.094a1 1 0 0 0 1.414 0l3-3q.054-.053.097-.112l.071-.11.054-.114.035-.105.03-.149L22 18l-.003-.075-.017-.126-.03-.111-.044-.111-.052-.098-.067-.096-.08-.09-3-3a1 1 0 0 0-1.414 1.414L18.586 17H4a1 1 0 0 0-1 1"/></svg>