<svg xmlns="http://www.w3.org/2000/svg" width="24" height="24" fill="currentColor" viewBox="0 0 24 24"><path d="M14 21a1 1 0 0 0 1-1V8.999h-.092a3 3 0 0 1-2.03-5.12.515.515 0 0 0-.363-.879H6a3 3 0 0 0-3 3v12a3 3 0 0 0 3 3z"/><path d="M18 21a1 1 0 0 0 1-1V5.416l1.293 1.291a1 1 0 0 0 1.32.083l.094-.083a1 1 0 0 0 0-1.414l-3-3a1 1 0 0 0-.112-.097l-.11-.071-.114-.054-.105-.035-.149-.03L18 2l-.075.003-.126.017-.111.03-.111.044-.098.052-.096.067-.09.08-3 3a1 1 0 1 0 1.414 1.414L17 5.414V20a1 1 0 0 0 1 1"/></svg>