<svg xmlns="http://www.w3.org/2000/svg" width="24" height="24" fill="currentColor" viewBox="0 0 24 24"><path d="M21.5 5.134a1 1 0 0 1 .493.748L22 6v13a1 1 0 0 1-1.5.866A8 8 0 0 0 13 19.6V4.426a10 10 0 0 1 8.5.708M11 4.427l.001 15.174a8 8 0 0 0-7.234.117l-.327.18-.103.044-.049.016-.11.026-.061.01L3 20h-.042l-.11-.012-.077-.014-.108-.032-.126-.056-.095-.056-.089-.067-.06-.056-.073-.082-.064-.089-.022-.036-.032-.06-.044-.103-.016-.049-.026-.11-.01-.061-.004-.049L2 6a1 1 0 0 1 .5-.866 10 10 0 0 1 8.5-.707"/></svg>