<svg xmlns="http://www.w3.org/2000/svg" width="24" height="24" fill="currentColor" viewBox="0 0 24 24"><path d="M19 3.005H5a2 2 0 0 0-2 2v5a1 1 0 0 0 1 1h16a1 1 0 0 0 1-1v-5a2 2 0 0 0-2-2M4 13.995a1 1 0 0 1 .993.883l.007.127a1 1 0 0 1-1.993.117L3 14.995a1 1 0 0 1 1-1m0 5a1 1 0 0 1 .993.883l.007.127a1 1 0 0 1-1.993.117L3 19.995a1 1 0 0 1 1-1m5 0a1 1 0 0 1 .993.883l.007.127a1 1 0 0 1-1.993.117L8 19.995a1 1 0 0 1 1-1m6 0a1 1 0 0 1 .993.883l.007.127a1 1 0 0 1-1.993.117L14 19.995a1 1 0 0 1 1-1m5 0a1 1 0 0 1 .993.883l.007.127a1 1 0 0 1-1.993.117L19 19.995a1 1 0 0 1 1-1m0-5a1 1 0 0 1 .993.883l.007.127a1 1 0 0 1-1.993.117L19 14.995a1 1 0 0 1 1-1"/></svg>