<svg xmlns="http://www.w3.org/2000/svg" width="24" height="24" fill="currentColor" viewBox="0 0 24 24"><path d="M10.002 3.003h-5a2 2 0 0 0-2 2v14a2 2 0 0 0 2 2h5a1 1 0 0 0 1-1v-16a1 1 0 0 0-1-1m5 16a1 1 0 0 1 .117 1.993l-.127.007a1 1 0 0 1-.117-1.993zm5.001 0a1 1 0 0 1 .117 1.993l-.128.007a1 1 0 0 1-.117-1.993zm0-5.001a1 1 0 0 1 .117 1.993l-.128.007a1 1 0 0 1-.117-1.993zm0-6a1 1 0 0 1 .117 1.993l-.128.007a1 1 0 0 1-.117-1.993zm0-5a1 1 0 0 1 .117 1.993l-.128.007a1 1 0 0 1-.117-1.993zm-5.001 0a1 1 0 0 1 .117 1.993l-.127.007a1 1 0 0 1-.117-1.993z"/></svg>