<svg xmlns="http://www.w3.org/2000/svg" width="24" height="24" fill="currentColor" viewBox="0 0 24 24"><path d="m12.4 2 .253.005a6.34 6.34 0 0 1 5.235 3.166l.089.163.178.039a6.33 6.33 0 0 1 4.254 3.406l.105.228a6.334 6.334 0 0 1-5.74 8.865l-.144-.002-.037.052a5.26 5.26 0 0 1-5.458 1.926l-.186-.051-3.435 2.06a1 1 0 0 1-1.508-.743L6 21v-2.435l-.055-.026a3.67 3.67 0 0 1-1.554-1.498l-.102-.199a3.67 3.67 0 0 1-.312-2.14l.038-.21-.116-.092a5.8 5.8 0 0 1-1.887-6.025l.071-.238a5.8 5.8 0 0 1 5.42-4.004h.157l.15-.165a6.33 6.33 0 0 1 4.33-1.963zM14 13H9a1 1 0 0 0 0 2h5a1 1 0 0 0 0-2m3-4H7a1 1 0 1 0 0 2h10a1 1 0 0 0 0-2"/></svg>