<svg xmlns="http://www.w3.org/2000/svg" width="24" height="24" fill="currentColor" viewBox="0 0 24 24"><path d="M12 4a4 4 0 0 1 3.995 3.8L16 8a1 1 0 0 1 .428.096l3.033-1.938a1 1 0 1 1 1.078 1.684l-3.015 1.931A7.2 7.2 0 0 1 18 12h3a1 1 0 0 1 0 2h-3v1a6 6 0 0 1-.195 1.525l2.708 1.616a1 1 0 1 1-1.026 1.718l-2.514-1.501A6 6 0 0 1 13 20.918V15a1 1 0 0 0-2 0v5.917a6 6 0 0 1-3.973-2.56L4.513 19.86a1 1 0 1 1-1.026-1.718l2.708-1.616A6 6 0 0 1 6 15v-1H3a1 1 0 0 1 0-2h3.001v-.055a7 7 0 0 1 .474-2.173l-3.014-1.93a1 1 0 1 1 1.078-1.684l3.032 1.939.024-.012.068-.027.019-.005.016-.006.032-.008.04-.013.034-.007.034-.004.045-.008.015-.001.015-.002L8 8a4 4 0 0 1 4-4m0 2a2 2 0 0 0-2 2h4a2 2 0 0 0-2-2"/></svg>