<svg xmlns="http://www.w3.org/2000/svg" width="24" height="24" fill="currentColor" viewBox="0 0 24 24"><path d="m3.06 5.66.035-.085.07-.125.033-.048.063-.075.064-.065.098-.079.106-.065.067-.033.048-.02.139-.041 18.053-3.01A1 1 0 0 1 23 3v2a1 1 0 0 1-2 0v-.82L7.198 6.48l1.25.626A1 1 0 0 1 9 8l-.001 3H11V7a1 1 0 0 1 1-1h4a6 6 0 0 1 6 6v5a1 1 0 0 1-1 1h-1.17a3.001 3.001 0 0 1-5.66 0H7.83A3.001 3.001 0 0 1 2 17v-5a1 1 0 0 1 1-1V6.01a1 1 0 0 1 .06-.35M5 16a1 1 0 1 0 0 2 1 1 0 0 0 0-2m12 0a1 1 0 1 0 .992 1.124l.008-.132-.007-.109A1 1 0 0 0 17 16m-.652-7.985L17.243 11h2.63l-.042-.155a4 4 0 0 0-3.223-2.8z"/></svg>