<svg xmlns="http://www.w3.org/2000/svg" width="24" height="24" fill="currentColor" viewBox="0 0 24 24"><path d="M20 18a1 1 0 0 1 .117 1.993L20 20H4a1 1 0 0 1-.117-1.993L4 18zM15.22 5.375a1 1 0 0 1 1.393-.165l.094.083 4 4a1 1 0 0 1 .284.576L21 10v5a1 1 0 0 1-.883.993L20 16H3.978l-.11-.009-.11-.02-.107-.034-.105-.046-.1-.059-.094-.07-.06-.055-.072-.082-.064-.089-.054-.096-.016-.035-.04-.103-.027-.106-.015-.108-.004-.11.009-.11.019-.105q.015-.06.035-.112l.046-.105.059-.1 4-6a1 1 0 0 1 1.165-.39l.114.05 3.277 1.638z"/></svg>