<svg xmlns="http://www.w3.org/2000/svg" width="24" height="24" fill="currentColor" viewBox="0 0 24 24"><path d="M12 2c5.523 0 10 4.477 10 10s-4.477 10-10 10S2 17.523 2 12 6.477 2 12 2m1 5h-2l-.15.005a2 2 0 0 0-1.844 1.838L9 9v2l.005.15q.029.355.17.667l.075.152.018.03-.018.032c-.133.24-.218.509-.243.795L9 13v2l.005.15a2 2 0 0 0 1.838 1.844L11 17h2l.15-.005a2 2 0 0 0 1.844-1.838L15 15v-2l-.005-.15a2 2 0 0 0-.17-.667l-.075-.152-.019-.032.02-.03a2 2 0 0 0 .242-.795L15 11V9l-.005-.15a2 2 0 0 0-1.838-1.844zm0 6v2h-2v-2zm0-4v2h-2V9z"/></svg>