<svg xmlns="http://www.w3.org/2000/svg" width="24" height="24" fill="currentColor" viewBox="0 0 24 24"><path d="M12.073 1.868c5.494.04 9.926 4.505 9.926 10 0 5.494-4.432 9.959-9.926 10-5.494.04-9.992-4.36-10.073-9.853v-.295c.081-5.493 4.579-9.893 10.073-9.852M9.707 8.293a1 1 0 0 0-1.414 0l-.083.094a1 1 0 0 0 .083 1.32L10.585 12l-2.292 2.293a1 1 0 0 0 1.414 1.414l3-3a1 1 0 0 0 0-1.414zm4 0a1 1 0 0 0-1.414 0l-.083.094a1 1 0 0 0 .083 1.32L14.585 12l-2.292 2.293a1 1 0 0 0 1.414 1.414l3-3a1 1 0 0 0 0-1.414z"/></svg>