<svg xmlns="http://www.w3.org/2000/svg" width="24" height="24" fill="currentColor" viewBox="0 0 24 24"><path d="M7 12a1 1 0 0 1-1 1H3a1 1 0 0 1 0-2h3a1 1 0 0 1 1 1m6-9v3a1 1 0 0 1-2 0V3a1 1 0 0 1 2 0M6.307 4.893l2.2 2.2a1 1 0 0 1-1.414 1.414l-2.2-2.2a1 1 0 0 1 1.414-1.414m12.8 0a1 1 0 0 1 0 1.414l-2.2 2.2a1 1 0 0 1-1.414-1.414l2.2-2.2a1 1 0 0 1 1.414 0m-10.6 10.6a1 1 0 0 1 0 1.414l-2.2 2.2a1 1 0 1 1-1.414-1.414l2.2-2.2a1 1 0 0 1 1.414 0m3.42-4.49.049-.003.098.003.097.012.097.022 9.048 3.014c.845.282.928 1.445.131 1.843l-3.702 1.851-1.85 3.702c-.399.797-1.562.714-1.844-.13l-3.003-9.011-.033-.135-.012-.097v-.148l.012-.097.022-.097.03-.094.04-.09.05-.084.086-.117.067-.07.037-.034.076-.06.081-.052.087-.043.103-.04.135-.033z"/></svg>