<svg xmlns="http://www.w3.org/2000/svg" width="24" height="24" fill="currentColor" viewBox="0 0 24 24"><path d="M17.997 4.17A3 3 0 0 1 20 7v12a3 3 0 0 1-3 3H7a3 3 0 0 1-3-3V7a3 3 0 0 1 2.003-2.83A4 4 0 0 0 10 8h4a4 4 0 0 0 3.98-3.597zm-3.176 11.259a1 1 0 0 0-1.392-.25 2.5 2.5 0 0 1-2.858 0 1 1 0 0 0-1.142 1.642 4.5 4.5 0 0 0 5.142 0 1 1 0 0 0 .25-1.392M10.01 12H10a1 1 0 0 0-.117 1.993l.127.007a1 1 0 0 0 0-2m4 0H14a1 1 0 0 0-.117 1.993l.127.007a1 1 0 0 0 0-2M14 2a2 2 0 1 1 0 4h-4a2 2 0 1 1 0-4z"/></svg>