<svg xmlns="http://www.w3.org/2000/svg" width="24" height="24" fill="currentColor" viewBox="0 0 24 24"><path d="M9 20a2 2 0 0 1-2 2H3a1 1 0 0 1 0-2h4v-2.997l-.343.001a1 1 0 0 1-.117-.007l-.105-.001c-2.94-.11-5.317-2.399-5.43-5.263L1 11.517C1 8.77 3.08 6.507 5.784 6.1l.114-.016.07-.181c.663-1.62 2.056-2.906 3.829-3.518l.244-.08c2.194-.667 4.614-.224 6.36 1.176 1.385 1.108 2.187 2.686 2.25 4.34l.004.212.091.003c2.3.107 4.143 1.961 4.25 4.27l.004.211c0 2.478-1.997 4.487-4.465 4.487H17V20h4a1 1 0 0 1 0 2h-4a2 2 0 0 1-2-2v-2.997h-2V21a1 1 0 0 1-2 0v-3.997H9z"/></svg>