<svg xmlns="http://www.w3.org/2000/svg" width="24" height="24" fill="currentColor" viewBox="0 0 24 24"><path d="M3 5a1 1 0 0 1 1-1 1 1 0 0 1 1.993-.117L6 4a1 1 0 0 1 .117 1.993L6 6a1 1 0 1 1-2 0 1 1 0 0 1-1-1m7.53-1.243a1 1 0 1 1 1.94.486l-.5 2a1 1 0 1 1-1.94-.486zM17 5a1 1 0 0 1 1-1 1 1 0 0 1 1.993-.117L20 4a1 1 0 0 1 .117 1.993L20 6a1 1 0 0 1-2 0 1 1 0 0 1-1-1M8.19 9.293l6.517 6.518a1 1 0 0 1-.29 1.617l-9.573 4.387a2 2 0 0 1-2.661-2.652l4.39-9.58a1 1 0 0 1 1.616-.29m7.517-1a1 1 0 0 1 0 1.414l-1 1a1 1 0 0 1-1.414-1.414l1-1a1 1 0 0 1 1.414 0m4.05 3.237a1 1 0 0 1 .486 1.94l-2 .5a1 1 0 0 1-.486-1.94zM17 19a1 1 0 0 1 1-1 1 1 0 0 1 1.993-.117L20 18a1 1 0 0 1 .117 1.993L20 20a1 1 0 0 1-2 0 1 1 0 0 1-1-1"/></svg>