<svg xmlns="http://www.w3.org/2000/svg" width="24" height="24" fill="currentColor" viewBox="0 0 24 24"><path d="M3 15.731C4.968 17.238 8.234 18 12 18c3.76 0 7.025-.76 9-2.252V18c0 2.425-3.895 3.936-8.693 3.998L12 22c-4.938 0-9-1.523-9-4z"/><path d="M3 9.731C4.968 11.238 8.234 12 12 12c3.76 0 7.025-.76 9-2.252V12c0 2.477-4.062 4-9 4-4.798 0-8.77-1.438-8.979-3.795l-.016-.101L3 12z"/><path d="M12 2c1.041 0 2.044.068 2.977.198l.469.071q.84.14 1.586.348l.44.131.075.024a11 11 0 0 1 .805.3l.199.086q.535.242.967.53.165.11.313.225a3.8 3.8 0 0 1 .669.668l.091.128q.07.105.129.211l.07.139q.163.35.2.73L21 6c0 2.477-4.062 4-9 4-4.798 0-8.77-1.438-8.979-3.795A1 1 0 0 1 3 6l.005-.104.016-.1c.205-2.306 4.01-3.733 8.667-3.794z"/></svg>