<svg xmlns="http://www.w3.org/2000/svg" width="24" height="24" fill="currentColor" viewBox="0 0 24 24"><path d="M19 16a3 3 0 1 1-2.829 4H15a1 1 0 0 1 0-2h1.17A3 3 0 0 1 19 16m2.53-13.848a1 1 0 0 1 .318 1.378l-.286.445-.173.264a73 73 0 0 1-1.26 1.839 70 70 0 0 1-4.376 5.58c-2.795 3.195-5.544 5.638-8.171 7.04C5.989 19.546 4.459 20 3 20a1 1 0 0 1 0-2c1.097 0 2.317-.361 3.64-1.068 2.373-1.265 4.958-3.562 7.607-6.59a68 68 0 0 0 4.25-5.42A69 69 0 0 0 19.5 3.466l.455-.69q.133-.204.196-.306a1 1 0 0 1 1.378-.318M12 18a1 1 0 0 1 0 2h-2a1 1 0 0 1 0-2z"/></svg>