<svg xmlns="http://www.w3.org/2000/svg" width="24" height="24" fill="currentColor" viewBox="0 0 24 24"><path d="M19.5 6a3.5 3.5 0 0 1 0 7h-1.086l-8.12 8.121a3 3 0 0 1-1.924.872L8.172 22H4.5a3.5 3.5 0 0 1 0-7h2.084l8.123-8.121a3 3 0 0 1 1.923-.872L16.828 6z"/><path d="M19.5 8h-2.672a1 1 0 0 0-.707.293l-8.414 8.414A1 1 0 0 1 7 17H4.5a1.5 1.5 0 0 0 0 3h3.672a1 1 0 0 0 .707-.293l8.414-8.414A1 1 0 0 1 18 11h1.5a1.5 1.5 0 0 0 0-3M5.852 2.011l.058-.007L6 2l.075.003.126.017.111.03.111.044.098.052.104.074.082.073 3 3a1 1 0 1 1-1.414 1.414L7 5.415V10a1 1 0 0 1-2 0V5.415L3.707 6.707a1 1 0 0 1-1.32.083l-.094-.083a1 1 0 0 1 0-1.414l3-3q.053-.054.112-.097l.11-.071.114-.054.105-.035z"/></svg>