<svg xmlns="http://www.w3.org/2000/svg" width="24" height="24" fill="currentColor" viewBox="0 0 24 24"><path d="M12 0a5 5 0 0 1 3.584 8.488l-.012.012a5 5 0 0 1 1.33 2.517l.018.101.251-.048q.15-.025.3-.041l.304-.024L18 11a5 5 0 1 1-4.89 6.046l-.032-.164-.24.048a5 5 0 0 1-.556.062L12 17q-.427 0-.84-.07l-.239-.048-.004.025a5 5 0 0 1-3.331 3.834l-.22.068a5 5 0 1 1-.461-9.728l.173.036.019-.102c.19-.95.653-1.824 1.331-2.516l-.05-.052a5.02 5.02 0 0 1-1.355-2.978l-.018-.244L7 5a5 5 0 0 1 5-5m6 15a1 1 0 0 0-1 1v.01a1 1 0 0 0 2 0V16a1 1 0 0 0-1-1M6 15a1 1 0 0 0-1 1v.01a1 1 0 0 0 2 0V16a1 1 0 0 0-1-1m6-4.995c-1.1 0-1.99.891-1.99 1.99v.02a1.99 1.99 0 0 0 3.98 0v-.02a1.99 1.99 0 0 0-1.99-1.99M12 4a1 1 0 0 0-1 1v.01a1 1 0 0 0 2 0V5a1 1 0 0 0-1-1"/></svg>