<svg xmlns="http://www.w3.org/2000/svg" width="24" height="24" fill="currentColor" viewBox="0 0 24 24"><path d="m12 2 .117.007a1 1 0 0 1 .876.876L13 3v4l.005.15a2 2 0 0 0 1.838 1.844L15 9h4l.117.007a1 1 0 0 1 .876.876L20 10v9a3 3 0 0 1-2.824 2.995L17 22H7a3 3 0 0 1-2.995-2.824L4 19V5a3 3 0 0 1 2.824-2.995L7 2zm2.5 9a2.5 2.5 0 0 0-2.292 1.5H12a3.5 3.5 0 0 0-3.399 2.666 2.5 2.5 0 0 0-1.596 2.17L7 17.5a2.5 2.5 0 1 0 3.676-2.206A1.5 1.5 0 0 1 12 14.5h.208A2.5 2.5 0 1 0 14.5 11m-5 6a.5.5 0 1 1 0 1 .5.5 0 0 1 0-1m5-4a.5.5 0 1 1 0 1 .5.5 0 0 1 0-1"/><path d="M19 7h-4l-.001-4.001z"/></svg>