<svg xmlns="http://www.w3.org/2000/svg" width="24" height="24" fill="currentColor" viewBox="0 0 24 24"><path d="m12 2 .117.007a1 1 0 0 1 .876.876L13 3v4l.005.15a2 2 0 0 0 1.838 1.844L15 9h4l.117.007a1 1 0 0 1 .876.876L20 10v9a3 3 0 0 1-2.824 2.995L17 22H7a3 3 0 0 1-2.995-2.824L4 19V5a3 3 0 0 1 2.824-2.995L7 2zm0 8a5 5 0 0 0-4.995 4.783L7 15a5 5 0 1 0 5-5m0 2a3 3 0 1 1 0 6 3 3 0 0 1 0-6m0 .496a1 1 0 0 0-1 1V15a1 1 0 0 0 .293.707l1 1a1 1 0 0 0 1.414 0l.083-.094a1 1 0 0 0-.083-1.32L13 14.585v-1.089a1 1 0 0 0-1-1"/><path d="M19 7h-4l-.001-4.001z"/></svg>