<svg xmlns="http://www.w3.org/2000/svg" width="24" height="24" fill="currentColor" viewBox="0 0 24 24"><path d="m12 2 .117.007a1 1 0 0 1 .876.876L13 3v4l.005.15a2 2 0 0 0 1.838 1.844L15 9h4l.117.007a1 1 0 0 1 .876.876L20 10v9a3 3 0 0 1-2.824 2.995L17 22H7a3 3 0 0 1-2.995-2.824L4 19V5a3 3 0 0 1 2.824-2.995L7 2zm-1.553 11.106a1 1 0 0 0-1.341.447l-1 2a1 1 0 0 0 0 .894l1 2a1 1 0 0 0 1.341.447l.102-.058a1 1 0 0 0 .345-1.283L10.118 16l.776-1.553a1 1 0 0 0-.447-1.341m4.447.447a1 1 0 0 0-1.341-.447l-.102.058a1 1 0 0 0-.345 1.283L13.88 16l-.775 1.553a1 1 0 0 0 1.788.894l1-2a1 1 0 0 0 0-.894z"/><path d="M19 7h-4l-.001-4.001z"/></svg>