<svg xmlns="http://www.w3.org/2000/svg" width="24" height="24" fill="currentColor" viewBox="0 0 24 24"><path d="m12 2 .117.007a1 1 0 0 1 .876.876L13 3v4l.005.15a2 2 0 0 0 1.838 1.844L15 9h4l.117.007a1 1 0 0 1 .876.876L20 10v9a3 3 0 0 1-2.824 2.995L17 22H7a3 3 0 0 1-2.995-2.824L4 19V5a3 3 0 0 1 2.824-2.995L7 2zm-2 8a1 1 0 0 0-.117 1.993L10 12c.342 0 .662.362 1.166 1.445l-1.998 3a1 1 0 0 0 1.664 1.11l1.29-1.934C12.947 17.359 13.63 18 15 18a1 1 0 0 0 .117-1.993L15 16c-.39 0-.75-.47-1.387-1.938l-.415-.976C12.213 10.812 11.542 10 10 10m4.999-7.001L19 7h-4z"/></svg>