<svg xmlns="http://www.w3.org/2000/svg" width="24" height="24" fill="currentColor" viewBox="0 0 24 24"><path d="m12 2 .117.007a1 1 0 0 1 .876.876L13 3v4l.005.15a2 2 0 0 0 1.838 1.844L15 9h4l.117.007a1 1 0 0 1 .876.876L20 10v9a3 3 0 0 1-2.824 2.995L17 22H7a3 3 0 0 1-2.995-2.824L4 19V5a3 3 0 0 1 2.824-2.995L7 2zm-1.768 9.818a1 1 0 0 0-1.414 0 4.5 4.5 0 0 0 0 6.364 1 1 0 0 0 1.414-1.414 2.5 2.5 0 0 1 0-3.536 1 1 0 0 0 0-1.414m4.95 0a1 1 0 0 0-1.414 1.414 2.5 2.5 0 0 1 0 3.536 1 1 0 0 0 1.414 1.414 4.5 4.5 0 0 0 0-6.364M12 14a1 1 0 0 0-1 1l.007.127A1 1 0 0 0 13 15.01l-.007-.127A1 1 0 0 0 12 14"/><path d="M19 7h-4l-.001-4.001z"/></svg>