<svg xmlns="http://www.w3.org/2000/svg" width="24" height="24" fill="currentColor" viewBox="0 0 24 24"><path d="m16.675 6.44.118.005a1 1 0 0 1 .232.052l.032.015.273.103c1.936.771 3.69 2.27 5.253 4.476l.245.355a1 1 0 0 1 0 1.12c-1.702 2.519-3.636 4.176-5.792 4.947a1 1 0 0 1-1.093-.288A7.97 7.97 0 0 1 14.06 13H12v3a1 1 0 0 1-2 0v-3H8v1a1 1 0 0 1-2 0v-1H4.834l-.335.324a39 39 0 0 0-1.751 1.846 1 1 0 0 1-1.496-1.328q.593-.667 1.214-1.308l.522-.528-.523-.529a42 42 0 0 1-.613-.648l-.6-.661A1 1 0 1 1 2.748 8.84a40 40 0 0 0 2.069 2.161L6 11v-1a1 1 0 1 1 2 0v1h2V8a1 1 0 0 1 2 0v3h2.062a7.97 7.97 0 0 1 1.656-3.953l.196-.24.075-.081.105-.088.068-.048.097-.052.069-.03.138-.042.091-.017q.059-.007.118-.009M18 10a1 1 0 0 0-.993.883L17 11.01a1 1 0 0 0 1.993.117L19 11a1 1 0 0 0-1-1"/></svg>