<svg xmlns="http://www.w3.org/2000/svg" width="24" height="24" fill="currentColor" viewBox="0 0 24 24"><path d="M12 1a4 4 0 0 1 4 4l-.002.055.03-.018a3.97 3.97 0 0 1 2.79-.455l.237.056a3.97 3.97 0 0 1 2.412 1.865 4.01 4.01 0 0 1-1.455 5.461l-.068.036.071.039a4.01 4.01 0 0 1 1.555 5.27l-.101.186a3.97 3.97 0 0 1-5.441 1.468l-.03-.02L16 19a4 4 0 0 1-3.8 3.995L12 23a4 4 0 0 1-4-4l.001-.056-.029.019a3.97 3.97 0 0 1-2.79.456l-.236-.056a3.97 3.97 0 0 1-2.413-1.865 4.01 4.01 0 0 1 1.453-5.46l.07-.038-.071-.038a4.01 4.01 0 0 1-1.555-5.27l.1-.187a3.97 3.97 0 0 1 5.444-1.468L8 5.055V5a4 4 0 0 1 3.8-3.995zm0 8a3 3 0 1 0 0 6 3 3 0 0 0 0-6"/></svg>