<svg xmlns="http://www.w3.org/2000/svg" width="24" height="24" fill="currentColor" viewBox="0 0 24 24"><path d="M18 3a3 3 0 0 1 3 3v12a3 3 0 0 1-3 3H6a3 3 0 0 1-3-3V6a3 3 0 0 1 3-3zm-4 4a1 1 0 0 0-1 1v1h-2V8a1 1 0 0 0-.883-.993L10 7a1 1 0 0 0-1 1v1H8a1 1 0 0 0-.993.883L7 10a1 1 0 0 0 1 1h1v2H8a1 1 0 0 0-.993.883L7 14a1 1 0 0 0 1 1h1v1a1 1 0 0 0 .883.993L10 17a1 1 0 0 0 1-1v-1h2v1a1 1 0 0 0 .883.993L14 17a1 1 0 0 0 1-1v-1h1a1 1 0 0 0 .993-.883L17 14a1 1 0 0 0-1-1h-1v-2h1a1 1 0 0 0 .993-.883L17 10a1 1 0 0 0-1-1h-1V8a1 1 0 0 0-.883-.993zm-1 4v2h-2v-2z"/></svg>