<svg xmlns="http://www.w3.org/2000/svg" width="24" height="24" fill="currentColor" viewBox="0 0 24 24"><path d="M10.425 1.414a3.33 3.33 0 0 1 3.216 0l6.775 3.995q.1.06.18.133l.008.007.107.076a3.22 3.22 0 0 1 1.284 2.39l.005.203v7.284c0 1.175-.643 2.256-1.623 2.793l-6.804 4.302c-.98.538-2.166.538-3.2-.032l-6.695-4.237A3.23 3.23 0 0 1 2 15.502V8.217a3.21 3.21 0 0 1 1.65-2.808zM13 7h-2l-.15.005A2 2 0 0 0 9 9a1 1 0 0 0 1.974.23l.02-.113L11 9h2v2h-2l-.133.007c-1.111.12-1.154 1.73-.128 1.965l.128.021L11 13h2v2h-2l-.007-.117A1 1 0 0 0 9 15a2 2 0 0 0 1.85 1.995L11 17h2l.15-.005a2 2 0 0 0 1.844-1.838L15 15v-2l-.005-.15a2 2 0 0 0-.17-.667l-.075-.152-.019-.032.02-.03a2 2 0 0 0 .242-.795L15 11V9l-.005-.15a2 2 0 0 0-1.838-1.844z"/></svg>