<svg xmlns="http://www.w3.org/2000/svg" width="24" height="24" fill="currentColor" viewBox="0 0 24 24"><path d="m13.666 1.429 6.75 3.98.096.063.093.078.106.074a3.22 3.22 0 0 1 1.284 2.39l.005.204v7.284c0 1.175-.643 2.256-1.623 2.793l-6.804 4.302c-.98.538-2.166.538-3.2-.032l-6.695-4.237A3.23 3.23 0 0 1 2 15.502V8.217c0-1.106.57-2.128 1.476-2.705l6.95-4.098c1-.552 2.214-.552 3.24.015M14 7h-4a1 1 0 0 0-1 1l.007.117A1 1 0 0 0 10 9h2.382l-3.276 6.553A1 1 0 0 0 10 17h4a1 1 0 0 0 1-1l-.007-.117A1 1 0 0 0 14 15h-2.382l3.276-6.553A1 1 0 0 0 14 7"/></svg>