<svg xmlns="http://www.w3.org/2000/svg" width="24" height="24" fill="currentColor" viewBox="0 0 24 24"><path d="m13.666 1.429 6.75 3.98.096.063.093.078.106.074a3.22 3.22 0 0 1 1.284 2.39l.005.204v7.284c0 1.175-.643 2.256-1.623 2.793l-6.804 4.302c-.98.538-2.166.538-3.2-.032l-6.695-4.237A3.23 3.23 0 0 1 2 15.502V8.217c0-1.106.57-2.128 1.476-2.705l6.95-4.098c1-.552 2.214-.552 3.24.015m.864 5.723a1 1 0 0 0-1.378.318L11 10.912V8a1 1 0 0 0-.883-.993L10 7a1 1 0 0 0-1 1v8a1 1 0 0 0 2 0v-2.914l2.152 3.444a1 1 0 0 0 1.276.374l.102-.056.095-.068a1 1 0 0 0 .223-1.31L12.678 12l2.17-3.47a1 1 0 0 0-.318-1.378"/></svg>