<svg xmlns="http://www.w3.org/2000/svg" width="24" height="24" fill="currentColor" viewBox="0 0 24 24"><path d="m13.666 1.429 6.75 3.98.096.063.093.078.106.074a3.22 3.22 0 0 1 1.284 2.39l.005.204v7.284c0 1.175-.643 2.256-1.623 2.793l-6.804 4.302c-.98.538-2.166.538-3.2-.032l-6.695-4.237A3.23 3.23 0 0 1 2 15.502V8.217c0-1.106.57-2.128 1.476-2.705l6.95-4.098c1-.552 2.214-.552 3.24.015m.342 6.447-.52 4.153-.56-1.4c-.319-.799-1.41-.837-1.803-.114l-.053.114-.561 1.4-.519-4.153a1 1 0 0 0-1-.876l-.116.008a1 1 0 0 0-.868 1.116l1 8c.128 1.025 1.537 1.207 1.92.247L12 13.693l1.072 2.678c.383.96 1.792.778 1.92-.247l1-8a1 1 0 0 0-1.984-.248"/></svg>