<svg xmlns="http://www.w3.org/2000/svg" width="24" height="24" fill="currentColor" viewBox="0 0 24 24"><path d="m13.666 1.429 6.75 3.98.096.063.093.078.106.074a3.22 3.22 0 0 1 1.284 2.39l.005.204v7.284c0 1.175-.643 2.256-1.623 2.793l-6.804 4.302c-.98.538-2.166.538-3.2-.032l-6.695-4.237A3.23 3.23 0 0 1 2 15.502V8.217c0-1.106.57-2.128 1.476-2.705l6.95-4.098c1-.552 2.214-.552 3.24.015m.781 5.677a1 1 0 0 0-1.341.447L12 9.763l-1.106-2.21a1 1 0 0 0-1.234-.494l-.107.047a1 1 0 0 0-.447 1.341L10.88 12l-1.775 3.553a1 1 0 0 0 .345 1.283l.102.058a1 1 0 0 0 1.341-.447L12 14.237l1.106 2.21a1 1 0 0 0 1.234.494l.107-.047a1 1 0 0 0 .447-1.341L13.118 12l1.776-3.553a1 1 0 0 0-.345-1.283z"/></svg>