<svg xmlns="http://www.w3.org/2000/svg" width="24" height="24" fill="currentColor" viewBox="0 0 24 24"><path d="M20 5a3 3 0 0 1 3 3v8a3 3 0 0 1-3 3H4a3 3 0 0 1-3-3V8a3 3 0 0 1 3-3zM6 13a1 1 0 0 0-1 1v.01a1 1 0 0 0 2 0V14a1 1 0 0 0-1-1m12 0a1 1 0 0 0-1 1v.01a1 1 0 0 0 2 0V14a1 1 0 0 0-1-1m-7.998 0a1 1 0 0 0-.004 2l4 .01a1 1 0 0 0 .005-2zM6 9a1 1 0 0 0-1 1v.01a1 1 0 0 0 2 0V10a1 1 0 0 0-1-1m4 0a1 1 0 0 0-1 1v.01a1 1 0 0 0 2 0V10a1 1 0 0 0-1-1m4 0a1 1 0 0 0-1 1v.01a1 1 0 0 0 2 0V10a1 1 0 0 0-1-1m4 0a1 1 0 0 0-1 1v.01a1 1 0 0 0 2 0V10a1 1 0 0 0-1-1"/></svg>