<svg xmlns="http://www.w3.org/2000/svg" width="24" height="24" fill="currentColor" viewBox="0 0 24 24"><path d="M16.956 2.057c.355.124.829.375 1.303.796a3.77 3.77 0 0 1 1.246 2.204c.173.989-.047 1.894-.519 2.683l-.123.194q-.097.147-.196.272.066.234.117.471.26-.178.545-.307c.851-.389 1.727-.442 2.527-.306q.226.04.346.076a1 1 0 0 1 .689.712l.029.13q.015.08.03.18a4.45 4.45 0 0 1-.324 2.496 3.94 3.94 0 0 1-1.71 1.85l-.242.12a4.23 4.23 0 0 1-2.234.349A9 9 0 0 1 17.997 15c.37.016.748.093 1.128.24.732.28 1.299.758 1.711 1.367a3.95 3.95 0 0 1 .654 1.613 1 1 0 0 1-.356.917 3.8 3.8 0 0 1-.716.443c-.933.455-1.978.588-3.043.179l-.032-.015-.205-.086a3.6 3.6 0 0 1-1.33-1.069l-.143-.197a4 4 0 0 1-.26-.433 6 6 0 0 1-.927.511q.18.262.337.56a7.4 7.4 0 0 1 .66 1.747 1 1 0 0 1-1.95.444l-.028-.11a6 6 0 0 0-.449-1.143C12.706 19.323 12.338 19 12 19s-.706.323-1.048.969a5.6 5.6 0 0 0-.367.874l-.082.269-.028.11a1 1 0 0 1-1.95-.444 7.3 7.3 0 0 1 .66-1.747q.158-.298.337-.561a6.4 6.4 0 0 1-.93-.508 4 4 0 0 1-.256.43c-.366.541-.855.98-1.473 1.267l-.238.1c-.994.382-1.97.292-2.855-.091l-.188-.087a3.8 3.8 0 0 1-.716-.443 1 1 0 0 1-.356-.917 3.95 3.95 0 0 1 .654-1.613 3.6 3.6 0 0 1 1.71-1.368c.38-.146.758-.223 1.13-.24a9 9 0 0 1-.445-1.023 4.23 4.23 0 0 1-2.233-.348 4 4 0 0 1-.916-.587l-.207-.191a4 4 0 0 1-.724-.977l-.105-.216a4.45 4.45 0 0 1-.265-2.806 1 1 0 0 1 .69-.712q.119-.036.345-.076c.801-.135 1.678-.082 2.53.308q.283.129.545.304.048-.235.112-.47a5 5 0 0 1-.194-.272c-.556-.832-.83-1.806-.642-2.877l.05-.242a3.75 3.75 0 0 1 1.027-1.803l.169-.159a4 4 0 0 1 1.303-.796 1 1 0 0 1 .975.178c.2.168.462.446.719.83.556.833.83 1.807.642 2.878a3.77 3.77 0 0 1-1.246 2.204c-.303.27-.607.47-.879.61A7.5 7.5 0 0 0 7 10.728C7 14.23 9.285 17 12 17s5-2.77 5-6.276a7.6 7.6 0 0 0-.253-1.967 4.3 4.3 0 0 1-.881-.61 3.77 3.77 0 0 1-1.246-2.204c-.188-1.07.086-2.045.642-2.877.257-.385.52-.663.72-.831a1 1 0 0 1 .974-.178M12.6 7a2 2 0 0 1 2 2v1a2 2 0 0 1-2 2h-1v1h2a1 1 0 0 1 0 2h-2a2 2 0 0 1-2-2v-1a2 2 0 0 1 2-2h1V9h-2a1 1 0 0 1 0-2z"/></svg>