<svg xmlns="http://www.w3.org/2000/svg" width="24" height="24" fill="currentColor" viewBox="0 0 24 24"><path d="m3.055 14.328-.018-.168-.004-.043a11 11 0 0 1-.047-1.12C3.004 6.707 7.276 3 15.986 3H20a1 1 0 0 1 1 1l-.002 2.057C20.5 14.758 16.258 19 9 19H6.369a16 16 0 0 0-.375 2.11 1 1 0 1 1-1.988-.22q.174-1.568.58-2.947l-.118-.146-.208-.28-.157-.229-.182-.293-.098-.171-.065-.122a6 6 0 0 1-.397-.941l-.072-.237-.085-.327-.057-.268-.043-.242zm8.539-4.242c-2.845 1.265-4.854 3.13-6.108 5.583q.098.2.218.4l.185.281.07.097q.12.164.258.329l.197.224h.649c1.037-2.271 2.777-3.946 5.343-5.086a1 1 0 0 0-.812-1.828"/></svg>