<svg xmlns="http://www.w3.org/2000/svg" width="24" height="24" fill="currentColor" viewBox="0 0 24 24"><path d="M21 6a1 1 0 0 1-1 1H10a1 1 0 1 1 0-2h10a1 1 0 0 1 1 1m0 6a1 1 0 0 1-1 1H10a1 1 0 0 1 0-2h10a1 1 0 0 1 1 1m0 6a1 1 0 0 1-1 1H10a1 1 0 0 1 0-2h10a1 1 0 0 1 1 1M7 5.995v.02c0 1.099-.895 1.99-2 1.99s-2-.891-2-1.99v-.02c0-1.099.895-1.99 2-1.99s2 .891 2 1.99m0 6v.02c0 1.099-.895 1.99-2 1.99s-2-.891-2-1.99v-.02c0-1.099.895-1.99 2-1.99s2 .891 2 1.99m0 6v.02c0 1.099-.895 1.99-2 1.99s-2-.891-2-1.99v-.02c0-1.099.895-1.99 2-1.99s2 .891 2 1.99"/></svg>