<svg xmlns="http://www.w3.org/2000/svg" width="24" height="24" fill="currentColor" viewBox="0 0 24 24"><path d="M22 5a1 1 0 0 1-1 1h-8a1 1 0 0 1 0-2h8a1 1 0 0 1 1 1m-3 4a1 1 0 0 1-1 1h-5a1 1 0 0 1 0-2h5a1 1 0 0 1 1 1m3 6a1 1 0 0 1-1 1h-8a1 1 0 0 1 0-2h8a1 1 0 0 1 1 1m-3 4a1 1 0 0 1-1 1h-5a1 1 0 0 1 0-2h5a1 1 0 0 1 1 1M8 3a2 2 0 0 1 2 2v4a2 2 0 0 1-2 2H4a2 2 0 0 1-2-2l.001-4.051.004-.051A1.996 1.996 0 0 1 4 3zm0 10a2 2 0 0 1 2 2v4a2 2 0 0 1-2 2H4a2 2 0 0 1-2-2l.001-4.051.004-.051A1.996 1.996 0 0 1 4 13z"/></svg>