<svg xmlns="http://www.w3.org/2000/svg" width="24" height="24" fill="currentColor" viewBox="0 0 24 24"><path d="M8 3a1 1 0 1 1 0 2H6a1 1 0 0 0-1 1v2a1 1 0 1 1-2 0V6a3 3 0 0 1 3-3zM4 15a1 1 0 0 1 1 1v2a1 1 0 0 0 1 1h2a1 1 0 0 1 0 2H6a3 3 0 0 1-3-3v-2a1 1 0 0 1 1-1M18 3a3 3 0 0 1 3 3v2a1 1 0 0 1-2 0V6a1 1 0 0 0-1-1h-2a1 1 0 0 1 0-2zm2 12a1 1 0 0 1 1 1v2a3 3 0 0 1-3 3h-2a1 1 0 0 1 0-2h2a1 1 0 0 0 1-1v-2a1 1 0 0 1 1-1m-4.81-7.786a5 5 0 0 1 1.185 6.27l-.056.09-3.484 4.976a1 1 0 0 1-.077.103l-.017.019-.057.056-.012.013-.019.017a1 1 0 0 1-.096.073l-.053.03-.038.024-.011.005a1 1 0 0 1-.223.083l-.045.008-.066.012a1 1 0 0 1-.242 0l-.061-.011-.05-.01a1 1 0 0 1-.234-.087l-.047-.028-.044-.026-.011-.008-.032-.025-.053-.04-.01-.01-.009-.007-.034-.035-.035-.034-.007-.01-.01-.009-.037-.05-.024-.03-3.5-5-.056-.089a5 5 0 0 1 7.566-6.27M12 10a1 1 0 0 0-1 1v.01a1 1 0 0 0 2 0V11a1 1 0 0 0-1-1"/></svg>