<svg xmlns="http://www.w3.org/2000/svg" width="24" height="24" fill="currentColor" viewBox="0 0 24 24"><path d="M12 3a1 1 0 0 1 1 1v5a2 2 0 0 0 1 1.732V7.257C14 6.015 14.995 5 16.233 5c.372 0 .738.094 1.122.307l.18.117c1.695 1.23 2.76 3.035 3.773 6.34q.674 2.204.692 5.06c.016 2.195-1.657 4.024-3.843 4.168L17.92 21C15.75 21 14 19.213 14 17.02v-4.146a4 4 0 0 1-1.893-1.112L12 11.644l-.107.118a4 4 0 0 1-1.892 1.112L10 17.02C10 19.213 8.25 21 6.081 21l-.268-.01c-2.155-.142-3.827-1.971-3.811-4.165q.018-2.858.692-5.06C3.705 8.458 4.77 6.653 6.516 5.39l.188-.117A2.2 2.2 0 0 1 7.768 5C9.005 5 10 6.015 10 7.257l.001 3.475A2 2 0 0 0 11 9V4a1 1 0 0 1 1-1"/></svg>