<svg xmlns="http://www.w3.org/2000/svg" width="24" height="24" fill="currentColor" viewBox="0 0 24 24"><path d="m20.901 14.995-.044-.006a.4.4 0 0 1-.102-.02l-.045-.012-.048-.017-.045-.016-.043-.02-.045-.022-.04-.024-.044-.026-.043-.032-.036-.027a1 1 0 0 1-.073-.066L17.586 12H11a2 2 0 0 1-2-2V4a2 2 0 0 1 2-2h9a2 2 0 0 1 2 2v10a1 1 0 0 1-.076.383l-.02.043-.022.045-.024.04-.026.044-.032.043-.027.036a1 1 0 0 1-.578.347l-.052.008-.044.006a1 1 0 0 1-.198 0"/><path d="M7 8.999V10a4 4 0 0 0 4 4h4v3a2 2 0 0 1-2 2H6.414l-2.707 2.707C3.077 22.337 2 21.891 2 21V11a2 2 0 0 1 2-2z"/></svg>