<svg xmlns="http://www.w3.org/2000/svg" width="24" height="24" fill="currentColor" viewBox="0 0 24 24"><path d="m12.555 2.168 6 4A1 1 0 0 1 19 7v12a3 3 0 0 1-3 3H8a3 3 0 0 1-3-3V7a1 1 0 0 1 .445-.832l6-4a1 1 0 0 1 1.11 0m-.108 12.938a1 1 0 0 0-.894 0l-2 1a1 1 0 0 0-.447 1.341l.058.102a1 1 0 0 0 1.283.345L12 17.118l1.553.776a1 1 0 0 0 .894-1.788zm0-4a1 1 0 0 0-.894 0l-2 1a1 1 0 0 0-.447 1.341l.058.102a1 1 0 0 0 1.283.345L12 13.118l1.553.776a1 1 0 0 0 .894-1.788zm0-4a1 1 0 0 0-.894 0l-2 1a1 1 0 0 0-.447 1.341l.058.102a1 1 0 0 0 1.283.345L12 9.118l1.553.776a1 1 0 0 0 .894-1.788z"/></svg>