<svg xmlns="http://www.w3.org/2000/svg" width="24" height="24" fill="currentColor" viewBox="0 0 24 24"><path d="m11.063 2.995.086.009h.07c2.237.098 3.87 1.686 4.214 4.046l.01.075.133.04a3.5 3.5 0 0 1 1.718 1.22l.125.179a3.5 3.5 0 0 1 .567 2.243l-.006.049.032.025a4 4 0 0 1 1.476 2.8l.01.191.15.125a4 4 0 0 1 1.29 3.693l-.042.208c-.4 1.728-1.89 2.986-3.72 3.092H7a4 4 0 0 1-2.638-7.008l.14-.118.011-.19a4 4 0 0 1 1.476-2.798l.032-.025-.006-.048a3.5 3.5 0 0 1 .452-2.058l.114-.186c.603-.912 1.598-1.49 2.755-1.564H9.5c.743 0 1.26-1.242.606-2.553l.006.015-.01-.017a1 1 0 0 1-.095-.323L10 4c0-.654.539-1.031 1.063-1.005m3.758 12.434a1 1 0 0 0-1.392-.25 2.5 2.5 0 0 1-2.858 0 1 1 0 0 0-1.142 1.642 4.5 4.5 0 0 0 5.142 0 1 1 0 0 0 .25-1.392M10.01 11H10a1 1 0 0 0 0 2h.01a1 1 0 0 0 0-2m4 0H14a1 1 0 0 0 0 2h.01a1 1 0 0 0 0-2"/></svg>