<svg xmlns="http://www.w3.org/2000/svg" width="24" height="24" fill="currentColor" viewBox="0 0 24 24"><path d="M17 2a3 3 0 0 1 3 3v16a1 1 0 0 1-1.555.832l-2.318-1.545-1.42 1.42a1 1 0 0 1-1.32.083l-.094-.083L12 20.415l-1.293 1.292a1 1 0 0 1-1.32.083l-.094-.083-1.421-1.42-2.317 1.545-.019.012-.054.03-.028.017-.054.023-.05.023-.049.015-.06.019-.052.009-.057.011-.084.006-.026.003H5l-.049-.003h-.039l-.013-.003h-.016l-.041-.008-.038-.005-.015-.005-.018-.002-.034-.011-.04-.01-.019-.007-.015-.004-.029-.013-.04-.015-.021-.011-.013-.005-.028-.016-.036-.018-.014-.01-.018-.01-.038-.027-.022-.014-.01-.009-.02-.014-.045-.041-.012-.008-.024-.024-.035-.039-.02-.02-.007-.011-.011-.012-.032-.045-.02-.025-.012-.019-.03-.054-.017-.028-.023-.054-.023-.05a1 1 0 0 1-.034-.108l-.01-.057-.01-.053L4 21V5a3 3 0 0 1 3-3zm-4 4a3 3 0 0 0-3 3v2H9a1 1 0 0 0 0 2h1a1 1 0 0 1-.883.993L9 14c-1.287 0-1.332 1.864-.133 1.993L9 16h6a1 1 0 0 0 1-1l-.007-.117A1 1 0 0 0 15 14h-3.171l.048-.148A3 3 0 0 0 12 13h1a1 1 0 0 0 0-2h-1V9a1 1 0 0 1 2 0 1 1 0 0 0 2 0 3 3 0 0 0-3-3"/></svg>