<svg xmlns="http://www.w3.org/2000/svg" width="24" height="24" fill="currentColor" viewBox="0 0 24 24"><path d="M17 2a3 3 0 0 1 3 3v16a1 1 0 0 1-1.555.832l-2.318-1.545-1.42 1.42a1 1 0 0 1-1.32.083l-.094-.083L12 20.415l-1.293 1.292a1 1 0 0 1-1.32.083l-.094-.083-1.421-1.42-2.317 1.545a1 1 0 0 1-1.55-.72L4 21V5a3 3 0 0 1 3-3zm-3.875 4c-2.046 0-3.668 1.746-4.043 4H9a1 1 0 0 0 0 2h.082c.376 2.254 1.997 4 4.043 4 1.106 0 2.053-.465 2.707-1.445a1 1 0 1 0-1.664-1.11c-.267.401-.58.555-1.043.555-.882 0-1.7-.814-2.002-1.999L13 12a1 1 0 0 0 0-2h-1.877c.301-1.186 1.12-2 2.002-2 .462 0 .776.154 1.043.555a1 1 0 0 0 1.664-1.11C15.178 6.465 14.232 6 13.125 6"/></svg>