<svg xmlns="http://www.w3.org/2000/svg" width="24" height="24" fill="currentColor" viewBox="0 0 24 24"><path d="M21 8a1 1 0 0 1 0 2v11a1 1 0 0 1-2 0V10h-1.675q-.163 0-.325.007V21a1 1 0 0 1-2 0V10.355a7.8 7.8 0 0 0-2 .959V21a1 1 0 0 1-2 0v-7.748a7.8 7.8 0 0 0-1.051 2.064l-.735 2.205a7 7 0 0 1-.213.553L9 21a1 1 0 0 1-2 0l.001-.364A6.54 6.54 0 0 1 3 22a1 1 0 0 1 0-2 4.55 4.55 0 0 0 4.316-3.111l.735-2.205A9.775 9.775 0 0 1 17.325 8zM10.78 4.375l2 2.5A1 1 0 0 1 12.6 8.3l-4 3a1 1 0 0 1-.868.164l-1.8-.5a1 1 0 0 1-.727-.864l-.2-2a1 1 0 0 1 .395-.9l4-3a1 1 0 0 1 1.38.175M20 2a1 1 0 0 1 1 1v3a1 1 0 0 1-1 1h-5a1 1 0 0 1-1-1V3a1 1 0 0 1 1-1z"/></svg>