<svg xmlns="http://www.w3.org/2000/svg" width="24" height="24" fill="currentColor" viewBox="0 0 24 24"><path d="M21 14a1 1 0 0 1 1 1 7 7 0 0 1-7 7 1 1 0 0 1 0-2 5 5 0 0 0 5-5 1 1 0 0 1 1-1m-4-.5a1 1 0 0 1 1 1 3.5 3.5 0 0 1-3.5 3.5 1 1 0 0 1-.117-1.993L14.5 16a1.5 1.5 0 0 0 1.493-1.356L16 14.5a1 1 0 0 1 1-1M3.171 11.413l4 4.001q.212.212.445.384l-.909.91a1 1 0 0 1-1.414 0l-3-3a1 1 0 0 1 0-1.415zM8.414 3 14 8.586a2 2 0 0 1 0 2.828l-.586.585.793.794a1 1 0 0 1-1.414 1.414L12 13.413l-.586.587a2 2 0 0 1-2.828 0L3 8.414a2 2 0 0 1-.18-2.618l.127-.152L3 5.586 5.586 3a2 2 0 0 1 2.828 0m5.293-.707 3 3a1 1 0 0 1 0 1.414l-.908.91a4 4 0 0 0-.384-.445l-4.001-4 .879-.88a1 1 0 0 1 1.414 0"/></svg>