<svg xmlns="http://www.w3.org/2000/svg" width="24" height="24" fill="currentColor" viewBox="0 0 24 24"><path d="M20.01 19a1 1 0 0 1 .117 1.993L20 21a1 1 0 0 1-.117-1.993zm-16 0a1 1 0 0 1 0 2 1 1 0 0 1-.127-1.993m4 0a1 1 0 0 1 0 2 1 1 0 0 1-.127-1.993m4 0a1 1 0 0 1 .117 1.993l-.127.007a1 1 0 0 1-.117-1.993zm4 0a1 1 0 0 1 .117 1.993l-.127.007a1 1 0 0 1-.117-1.993zm4-16a1 1 0 0 1 .117 1.993l-.127.007a1 1 0 0 1-.117-1.993zm-16 0a1 1 0 1 1 0 2 1 1 0 0 1-.127-1.993m4 0a1 1 0 1 1 0 2 1 1 0 0 1-.127-1.993m4 0a1 1 0 0 1 .117 1.993l-.127.007a1 1 0 0 1-.117-1.993zm3.99 0a1 1 0 0 1 1 1 1 1 0 1 1-2 .01c0-.562.448-1.01 1-1.01m3 4a2 2 0 0 1 2 2v6a2 2 0 0 1-2 2h-14a2 2 0 0 1-2-2v-6a2 2 0 0 1 2-2z"/></svg>