<svg xmlns="http://www.w3.org/2000/svg" width="24" height="24" fill="currentColor" viewBox="0 0 24 24"><path d="m16.852 5.011.058-.007L17 5l.075.003.126.017.111.03.111.044.098.052.104.074.082.073 3 3a1 1 0 1 1-1.414 1.414L18 8.415V18a1 1 0 0 1-2 0V8.415l-1.293 1.292a1 1 0 0 1-1.32.083l-.094-.083a1 1 0 0 1 0-1.414l3-3q.053-.054.112-.097l.11-.071.114-.054.105-.035zM9.5 4A1.5 1.5 0 0 1 11 5.5v4A1.5 1.5 0 0 1 9.5 11h-4A1.5 1.5 0 0 1 4 9.5v-4A1.5 1.5 0 0 1 5.5 4zm0 9a1.5 1.5 0 0 1 1.5 1.5v4A1.5 1.5 0 0 1 9.5 20h-4A1.5 1.5 0 0 1 4 18.5v-4A1.5 1.5 0 0 1 5.5 13z"/></svg>