<svg xmlns="http://www.w3.org/2000/svg" width="24" height="24" fill="currentColor" viewBox="0 0 24 24"><path d="M7 5a1 1 0 0 1 1 1v9.584l1.293-1.291a1 1 0 0 1 1.32-.083l.094.083a1 1 0 0 1 0 1.414l-3 3a1 1 0 0 1-.112.097l-.11.071-.114.054-.105.035-.149.03L7 19l-.075-.003-.126-.017-.111-.03-.111-.044-.098-.052-.096-.067-.09-.08-3-3a1 1 0 0 1 1.414-1.414L6 15.586V6a1 1 0 0 1 1-1m12-2a2 2 0 0 1 2 2v4a2 2 0 0 1-2 2h-4a2 2 0 0 1-2-2V5a2 2 0 0 1 2-2zm-1.136 10.496 3.5 6A1 1 0 0 1 20.5 21h-7a1 1 0 0 1-.864-1.504l3.5-6a1 1 0 0 1 1.728 0"/></svg>