<svg xmlns="http://www.w3.org/2000/svg" width="24" height="24" fill="currentColor" viewBox="0 0 24 24"><path d="M17.964 2.733c.156.563.312 1 .484 1.353.342.71.758 1.125 1.47 1.467.353.17.79.326 1.352.484.98.276.97 1.668-.013 1.93a8.3 8.3 0 0 0-1.34.481c-.71.342-1.127.757-1.463 1.453a8 8 0 0 0-.486 1.352c-.258.988-1.658 1-1.932.015-.156-.565-.312-1.002-.484-1.354-.342-.71-.758-1.124-1.458-1.46a8 8 0 0 0-1.374-.495.4.4 0 0 1-.06-.02l-.044-.017-.045-.02-.049-.025-.035-.02a.4.4 0 0 1-.049-.03l-.032-.023-.043-.034-.033-.028-.036-.035-.034-.035-.028-.033-.035-.043-.022-.032a.4.4 0 0 1-.032-.049l-.02-.035-.025-.05-.02-.044-.017-.043a.4.4 0 0 1-.02-.06l-.01-.034a.5.5 0 0 1-.02-.098l-.006-.065L12 7.051v-.05a.4.4 0 0 1 .003-.085.5.5 0 0 1 .013-.093.5.5 0 0 1 .024-.103.4.4 0 0 1 .02-.06l.017-.044.02-.045.025-.049.02-.035a.4.4 0 0 1 .03-.049l.023-.032.034-.043.028-.033.035-.036.035-.034q.015-.015.033-.028l.043-.035.032-.022a.4.4 0 0 1 .049-.032l.035-.02.05-.025.044-.02.043-.017a.4.4 0 0 1 .06-.02l.027-.008a8.3 8.3 0 0 0 1.339-.48c.71-.342 1.127-.757 1.47-1.466.17-.354.327-.792.483-1.355.272-.976 1.657-.976 1.928 0"/><path d="M10.965 6.737q.219.801.503 1.574c.856 2.28 1.945 3.363 4.23 4.22q.708.265 1.571.506c.976.272.974 1.656-.002 1.927q-.798.221-1.568.504c-2.288.858-3.376 1.94-4.229 4.216a19 19 0 0 0-.505 1.579c-.268.983-1.662.983-1.93 0a19 19 0 0 0-.503-1.574c-.856-2.281-1.944-3.363-4.226-4.219a20 20 0 0 0-1.594-.513.4.4 0 0 1-.054-.018l-.044-.017-.043-.02a.3.3 0 0 1-.048-.024l-.036-.02a.4.4 0 0 1-.048-.03l-.032-.024-.044-.034-.033-.029-.037-.034-.034-.037-.03-.033-.033-.044-.023-.032a.4.4 0 0 1-.03-.048l-.021-.036a.3.3 0 0 1-.024-.048l-.02-.043-.017-.044a.4.4 0 0 1-.018-.054.2.2 0 0 1-.01-.039.4.4 0 0 1-.014-.059l-.007-.04-.007-.056-.003-.044L2 14v-.05q0-.023.004-.044.001-.03.007-.057l.007-.04a.4.4 0 0 1 .017-.076l.007-.021a.4.4 0 0 1 .018-.054l.017-.044.02-.043a.3.3 0 0 1 .024-.048l.02-.036a.4.4 0 0 1 .03-.048l.024-.032.034-.044.029-.033.034-.037.037-.034.033-.03.044-.033.032-.023a.4.4 0 0 1 .048-.03l.036-.021a.3.3 0 0 1 .048-.024l.043-.02.044-.017a.4.4 0 0 1 .054-.018l.021-.007a20 20 0 0 0 1.568-.504c2.287-.858 3.375-1.94 4.229-4.216a19 19 0 0 0 .505-1.579c.268-.983 1.662-.983 1.93 0"/></svg>