<svg xmlns="http://www.w3.org/2000/svg" width="24" height="24" fill="currentColor" viewBox="0 0 24 24"><path d="M12 2q-.327 0-.642.005l-.616.017-.299.013-.579.034-.553.046c-4.785.464-6.732 2.411-7.196 7.196l-.046.553-.034.579q-.008.147-.013.299l-.017.616-.004.318L2 12q0 .327.005.642l.017.616.013.299.034.579.046.553c.464 4.785 2.411 6.732 7.196 7.196l.553.046.579.034q.147.008.299.013l.616.017L12 22l.642-.005.616-.017.299-.013.579-.034.553-.046c4.785-.464 6.732-2.411 7.196-7.196l.046-.553.034-.579q.008-.147.013-.299l.017-.616L22 12l-.005-.642-.017-.616-.013-.299-.034-.579-.046-.553c-.464-4.785-2.411-6.732-7.196-7.196l-.553-.046-.579-.034-.299-.013-.616-.017-.318-.004zm.613 5.21.094.083 4 4a1 1 0 0 1 .097.112l.071.11.054.114.035.105.03.148L17 12l-.003.075-.017.126-.03.111-.044.111-.052.098-.074.104-.073.082-4 4a1 1 0 0 1-1.497-1.32l.083-.094L13.585 13H8a1 1 0 0 1-.117-1.993L8 11h5.585l-2.292-2.293a1 1 0 0 1-.083-1.32l.083-.094a1 1 0 0 1 1.32-.083"/></svg>