<svg xmlns="http://www.w3.org/2000/svg" width="24" height="24" fill="currentColor" viewBox="0 0 24 24"><path d="M12 2q-.327 0-.642.005l-.616.017-.299.013-.579.034-.553.046c-4.785.464-6.732 2.411-7.196 7.196l-.046.553-.034.579q-.008.147-.013.299l-.017.616-.004.318L2 12q0 .327.005.642l.017.616.013.299.034.579.046.553c.464 4.785 2.411 6.732 7.196 7.196l.553.046.579.034q.147.008.299.013l.616.017L12 22l.642-.005.616-.017.299-.013.579-.034.553-.046c4.785-.464 6.732-2.411 7.196-7.196l.046-.553.034-.579q.008-.147.013-.299l.017-.616L22 12l-.005-.642-.017-.616-.013-.299-.034-.579-.046-.553c-.464-4.785-2.411-6.732-7.196-7.196l-.553-.046-.579-.034-.299-.013-.616-.017-.318-.004zm0 5a1 1 0 0 1 .993.883L13 8v5.585l2.293-2.292a1 1 0 0 1 1.32-.083l.094.083a1 1 0 0 1 .083 1.32l-.083.094-4 4a1 1 0 0 1-.112.097l-.11.071-.114.054-.105.035-.149.03L12 17l-.075-.003-.126-.017-.111-.03-.111-.044-.098-.052-.092-.064-.094-.083-4-4a1 1 0 0 1 1.32-1.497l.094.083L11 13.585V8a1 1 0 0 1 1-1"/></svg>