<svg xmlns="http://www.w3.org/2000/svg" width="24" height="24" fill="currentColor" viewBox="0 0 24 24"><path d="M18.333 2c1.96 0 3.56 1.537 3.662 3.472l.005.195v12.666c0 1.96-1.537 3.56-3.472 3.662l-.195.005H5.667a3.667 3.667 0 0 1-3.662-3.472L2 18.333V5.667c0-1.96 1.537-3.56 3.472-3.662L5.667 2zM14 7h-4a1 1 0 0 0-.993.883L9 8v4a1 1 0 0 0 .883.993L10 13h3v2h-2l-.007-.117A1 1 0 0 0 9 15a2 2 0 0 0 1.85 1.995L11 17h2a2 2 0 0 0 1.995-1.85L15 15v-2a2 2 0 0 0-1.85-1.995L13 11h-2V9h3a1 1 0 0 0 .993-.883L15 8a1 1 0 0 0-.883-.993z"/></svg>