<svg xmlns="http://www.w3.org/2000/svg" width="24" height="24" fill="currentColor" viewBox="0 0 24 24"><path d="m12 2 .642.005.616.017.299.013.579.034.553.046c4.687.455 6.65 2.333 7.166 6.906l.03.29.046.553.041.727.006.15.017.617L22 12l-.005.642-.017.616-.013.299-.034.579-.046.553c-.455 4.687-2.333 6.65-6.906 7.166l-.29.03-.553.046-.727.041-.15.006-.617.017L12 22l-.642-.005-.616-.017-.299-.013-.579-.034-.553-.046c-4.687-.455-6.65-2.333-7.166-6.906l-.03-.29-.046-.553-.041-.727-.006-.15-.017-.617-.004-.318v-.648l.004-.318.017-.616.013-.299.034-.579.046-.553c.455-4.687 2.333-6.65 6.906-7.166l.29-.03.553-.046.727-.041.15-.006.617-.017Q11.673 2 12 2m0 5a3 3 0 0 0-3 3v4a3 3 0 0 0 6 0v-4a3 3 0 0 0-3-3m0 2a1 1 0 0 1 1 1v4a1 1 0 0 1-2 0v-4a1 1 0 0 1 1-1"/></svg>