<svg xmlns="http://www.w3.org/2000/svg" width="24" height="24" fill="currentColor" viewBox="0 0 24 24"><path d="m12 2 .642.005.616.017.299.013.579.034.553.046c4.687.455 6.65 2.333 7.166 6.906l.03.29.046.553.041.727.006.15.017.617L22 12l-.005.642-.017.616-.013.299-.034.579-.046.553c-.455 4.687-2.333 6.65-6.906 7.166l-.29.03-.553.046-.727.041-.15.006-.617.017L12 22l-.642-.005-.616-.017-.299-.013-.579-.034-.553-.046c-4.687-.455-6.65-2.333-7.166-6.906l-.03-.29-.046-.553-.041-.727-.006-.15-.017-.617-.004-.318v-.648l.004-.318.017-.616.013-.299.034-.579.046-.553c.455-4.687 2.333-6.65 6.906-7.166l.29-.03.553-.046.727-.041.15-.006.617-.017Q11.673 2 12 2m1 5h-2l-.15.005A2 2 0 0 0 9 9a1 1 0 0 0 1.974.23l.02-.113L11 9h2v2h-2l-.133.007c-1.111.12-1.154 1.73-.128 1.965l.128.021L11 13h2v2h-2l-.007-.117A1 1 0 0 0 9 15a2 2 0 0 0 1.85 1.995L11 17h2l.15-.005a2 2 0 0 0 1.844-1.838L15 15v-2l-.005-.15a2 2 0 0 0-.17-.667l-.075-.152-.019-.032.02-.03a2 2 0 0 0 .242-.795L15 11V9l-.005-.15a2 2 0 0 0-1.838-1.844z"/></svg>