<svg xmlns="http://www.w3.org/2000/svg" width="24" height="24" fill="currentColor" viewBox="0 0 24 24"><path d="M19 2a3 3 0 0 1 3 3v14a3 3 0 0 1-3 3H5a3 3 0 0 1-3-3V5a3 3 0 0 1 3-3zm-2.293 6.293a1 1 0 0 0-1.414 0l-3 3-.083.094a1 1 0 0 0 .083 1.32l3 3 .094.083a1 1 0 0 0 1.32-.083l.083-.094a1 1 0 0 0-.083-1.32L14.415 12l2.292-2.293.083-.094a1 1 0 0 0-.083-1.32m-5 0a1 1 0 0 0-1.414 0l-3 3-.083.094a1 1 0 0 0 .083 1.32l3 3 .094.083a1 1 0 0 0 1.32-.083l.083-.094a1 1 0 0 0-.083-1.32L9.415 12l2.292-2.293.083-.094a1 1 0 0 0-.083-1.32"/></svg>