<svg xmlns="http://www.w3.org/2000/svg" width="24" height="24" fill="currentColor" viewBox="0 0 24 24"><path d="m12 2 .324.001.318.004.616.017.299.013.579.034.553.046c4.785.464 6.732 2.411 7.196 7.196l.046.553.034.579q.008.147.013.299l.017.616L22 12l-.005.642-.017.616-.013.299-.034.579-.046.553c-.464 4.785-2.411 6.732-7.196 7.196l-.553.046-.579.034q-.147.008-.299.013l-.616.017L12 22l-.642-.005-.616-.017-.299-.013-.579-.034-.553-.046c-4.785-.464-6.732-2.411-7.196-7.196l-.046-.553-.034-.579-.013-.299-.017-.616Q2 12.327 2 12l.001-.324.004-.318.017-.616.013-.299.034-.579.046-.553c.464-4.785 2.411-6.732 7.196-7.196l.553-.046.579-.034q.147-.008.299-.013l.616-.017Q11.673 2 12 2m3 9H9l-.117.007A1 1 0 0 0 9 13h6l.117-.007A1 1 0 0 0 15 11"/></svg>