<svg xmlns="http://www.w3.org/2000/svg" width="24" height="24" fill="currentColor" viewBox="0 0 24 24"><path d="M4 12a1 1 0 0 1 0 2H3a1 1 0 0 1 0-2zm17 0a1 1 0 0 1 0 2h-1a1 1 0 0 1 0-2zM6.307 5.893l.7.7a1 1 0 0 1-1.414 1.414l-.7-.7a1 1 0 0 1 1.414-1.414m12.8 0a1 1 0 0 1 0 1.414l-.7.7a1 1 0 0 1-1.414-1.414l.7-.7a1 1 0 0 1 1.414 0M12 3a1 1 0 0 1 1 1v1a1 1 0 0 1-2 0V4a1 1 0 0 1 1-1M3 16h18a1 1 0 0 1 0 2H3a1 1 0 0 1 0-2m9-8a5 5 0 0 1 4.583 7.002H7.417A5 5 0 0 1 12 8m0 11a1 1 0 0 1 0 2H7a1 1 0 0 1 0-2zm5 0a1 1 0 0 1 0 2h-1a1 1 0 0 1 0-2z"/></svg>