<svg xmlns="http://www.w3.org/2000/svg" width="24" height="24" fill="currentColor" viewBox="0 0 24 24"><path d="M4 16a1 1 0 0 1 0 2H3a1 1 0 0 1 0-2zm17 0a1 1 0 0 1 0 2h-1a1 1 0 0 1 0-2zM6.307 9.893l.7.7a1 1 0 0 1-1.414 1.414l-.7-.7a1 1 0 0 1 1.414-1.414m12.8 0a1 1 0 0 1 0 1.414l-.7.7a1 1 0 0 1-1.414-1.414l.7-.7a1 1 0 0 1 1.414 0M12 2a1 1 0 0 1 1 1v3.584l1.293-1.291a1 1 0 0 1 1.32-.083l.094.083a1 1 0 0 1 0 1.414l-3 3a.98.98 0 0 1-.767.293l-.124-.017-.127-.032-.104-.04-.115-.063a1 1 0 0 1-.151-.114L8.293 6.707a1 1 0 0 1 1.414-1.414L11 6.585V3a1 1 0 0 1 1-1M3 20h18a1 1 0 0 1 0 2H3a1 1 0 0 1 0-2m9-8a5 5 0 0 1 4.583 7.002H7.417A5 5 0 0 1 12 12"/></svg>