<svg xmlns="http://www.w3.org/2000/svg" width="24" height="24" fill="currentColor" viewBox="0 0 24 24"><path d="M8.178 2.766a1 1 0 1 1 .764 1.848 8 8 0 0 0-2.595 1.733 1 1 0 1 1-1.414-1.414 10 10 0 0 1 3.245-2.167m-5.411 5.41a1 1 0 1 1 1.846.768A8 8 0 0 0 4 12.002a1 1 0 0 1-2-.004 10 10 0 0 1 .767-3.822m.541 6.34a1 1 0 0 1 1.306.542 8 8 0 0 0 1.733 2.595 1 1 0 1 1-1.414 1.414 10 10 0 0 1-2.167-3.245 1 1 0 0 1 .542-1.306m4.329 5.41a1 1 0 0 1 1.307-.54 8 8 0 0 0 3.058.614 1 1 0 0 1-.004 2 10 10 0 0 1-3.822-.767 1 1 0 0 1-.54-1.307m10.017-2.273a1 1 0 1 1 1.414 1.414 10 10 0 0 1-3.245 2.167 1 1 0 1 1-.764-1.848 8 8 0 0 0 2.595-1.733M21.002 11A1 1 0 0 1 22 12.002a10 10 0 0 1-.767 3.822 1 1 0 1 1-1.846-.768A8 8 0 0 0 20 11.998 1 1 0 0 1 21.002 11m-3.349-6.067a1 1 0 0 1 1.414 0 10 10 0 0 1 2.167 3.245 1 1 0 1 1-1.848.764 8 8 0 0 0-1.733-2.595 1 1 0 0 1 0-1.414M12.002 2a10 10 0 0 1 3.822.767 1 1 0 1 1-.768 1.846A8 8 0 0 0 11.998 4a1 1 0 0 1 .004-2M12 9a3 3 0 1 1-3 3l.005-.176A3 3 0 0 1 12 9"/></svg>