<svg xmlns="http://www.w3.org/2000/svg" width="24" height="24" fill="currentColor" viewBox="0 0 24 24"><path d="m18.94 2.002.1-.001.096.008.095.018.094.027.092.037.086.045.08.052.076.06.076.074.06.072.03.04.051.084.043.088.034.091.025.094.02.15L20 21a1 1 0 0 1-1 1h-1a1 1 0 0 1-1-1v-3a1 1 0 0 1 1-1v-1h-4a1 1 0 0 1-1-.994c-.033-5.323.97-8.482 5.005-12.434l.317-.307.072-.06.04-.03.084-.051.088-.043.091-.034.094-.025zM11 3a1 1 0 0 1 1 1v3a4 4 0 0 1-3 3.874V21a1 1 0 0 1-2 0V10.874A4 4 0 0 1 4 7V4a1 1 0 1 1 2 0v3a2 2 0 0 0 1 1.732V4a1 1 0 1 1 2 0l.001 4.732A2 2 0 0 0 10 7V4a1 1 0 0 1 1-1"/></svg>