<svg xmlns="http://www.w3.org/2000/svg" width="24" height="24" fill="currentColor" viewBox="0 0 24 24"><path d="M20.555 4.168a1 1 0 0 1 .277 1.387l-2.621 3.932 1.236.619a1 1 0 0 1-.894 1.788l-1.46-.73-3.876 5.815A3 3 0 1 1 8 19l.005-.176q.008-.135.027-.267l-2.587-1.725a1 1 0 0 1 1.11-1.664l2.424 1.615a2.99 2.99 0 0 1 2.464-.75l7.725-11.588a1 1 0 0 1 1.387-.277M9.988 3.769l.14.082 3.307 2.104a2.3 2.3 0 0 1 .7 3.185l-3.094 4.81a2.3 2.3 0 0 1-3.17.698l-3.306-2.104a2.3 2.3 0 0 1-.7-3.185l3.094-4.81a2.3 2.3 0 0 1 3.029-.78"/></svg>