<svg xmlns="http://www.w3.org/2000/svg" width="24" height="24" fill="currentColor" viewBox="0 0 24 24"><path d="M12 3c3.067 0 5.6 2.29 5.957 5.246C21.024 9.149 23 10.722 23 12.724c0 2.3-2.653 4.053-6.427 4.833l1.26 1.888a1 1 0 1 1-1.665 1.11l-1.78-2.67c-.77.076-1.57.115-2.388.115-.966 0-1.905-.055-2.801-.16l-1.305 2.607a1 1 0 0 1-1.788-.894l1.028-2.06C3.516 16.686 1 14.964 1 12.725c0-1.999 1.981-3.58 5.044-4.483C6.404 5.287 8.934 3 12 3m.01 10-.127.007A1 1 0 0 0 12 15l.127-.007A1 1 0 0 0 12.01 13m-5-1-.127.007A1 1 0 0 0 7 14l.127-.007A1 1 0 0 0 7.01 12m10 0-.127.007A1 1 0 0 0 17 14l.127-.007A1 1 0 0 0 17.01 12M12 5C9.89 5 8.165 6.618 8.011 8.667a1 1 0 0 1 .057.4c.104.087.348.251.768.419.806.322 1.94.514 3.164.514s2.358-.192 3.164-.514c.445-.178.693-.352.789-.435L15.95 9q0-.113.029-.229l.014-.046C15.868 6.649 14.129 5 12 5"/></svg>