<svg xmlns="http://www.w3.org/2000/svg" width="24" height="24" fill="currentColor" viewBox="0 0 24 24"><path d="M21.165 16a10 10 0 0 1-8.434 5.973 1 1 0 0 0 .617-.444 18 18 0 0 0 2.28-5.528zM8.372 16a18 18 0 0 0 2.28 5.53 1 1 0 0 0 .616.443A10 10 0 0 1 2.835 16zm5.198 0A16 16 0 0 1 12 19.884 16 16 0 0 1 10.43 16m-2.396-6a18 18 0 0 0 0 4H2.202a10 10 0 0 1-.002-4zm5.918 0a16 16 0 0 1 0 4h-3.904a16 16 0 0 1 0-4zm7.848 0a10.05 10.05 0 0 1-.002 4h-5.832c.149-1.329.149-2.67 0-4zM11.267 2.027a1 1 0 0 0-.615.444A18 18 0 0 0 8.372 8h-5.54a10.01 10.01 0 0 1 8.334-5.967zM12 4.116a16 16 0 0 1 1.57 3.885h-3.14c.34-1.317.85-2.6 1.53-3.817zm.733-2.09A10.01 10.01 0 0 1 21.168 8h-5.54a18 18 0 0 0-2.28-5.53 1 1 0 0 0-.517-.414z"/></svg>