<svg xmlns="http://www.w3.org/2000/svg" width="24" height="24" fill="currentColor" viewBox="0 0 24 24"><path d="M6 11c-.483 0-1.021.725-1 1.983.013.783.29 1.3 1.035 2.07l.107.107.101-.134c.466-.643.714-1.266.752-1.864L7 13l-.003-.563c-.017-1.284-.13-1.422-.807-1.436zm12-9c1.673 0 3 1.327 3 3v1h-6V5c0-1.673 1.327-3 3-3m2.707 15.707-2 2-.08.071-.043.034-.084.054-.103.052-.084.032-.08.023-.143.023-.071.004H15.5c-1.616 0-2.954-.83-4.004-2.393l-.026-.04-.273.431-.365.557c-1.356 2.034-2.942 1.691-4.7-.41l-.064-.076-.176.147q-.897.727-2.045 1.438l-.332.203a1 1 0 1 1-1.03-1.714 19 19 0 0 0 2.17-1.498l.078-.065-.147-.15c-.998-1.033-1.498-1.904-1.576-3.157L3 13.017C2.962 10.744 4.257 9 6 9c2.052 0 3 .948 3 4 0 1.218-.47 2.392-1.392 3.532l-.11.13.28.36c.784.985.994.992 1.343.492l.047-.069q.97-1.456 1.437-2.392a1 1 0 0 1 1.814.053C13.277 17.108 14.297 18 15.5 18l.085-.001-.292-.292A1 1 0 0 1 15 17V8h6v9a1 1 0 0 1-.293.707"/></svg>