<svg xmlns="http://www.w3.org/2000/svg" width="24" height="24" fill="currentColor" viewBox="0 0 24 24"><path d="M14 3.072a8 8 0 0 1 2.32 11.834l5.387 5.387a1 1 0 0 1-1.414 1.414l-5.388-5.387A8 8 0 0 1 2 10l.005-.285A8 8 0 0 1 14 3.072m-5.293 4.22a1 1 0 0 0-1.414 0l-2 2a1 1 0 0 0 0 1.415l2 2a1 1 0 0 0 1.414 0l.083-.094a1 1 0 0 0-.083-1.32L7.415 10l1.292-1.293a1 1 0 0 0 0-1.414m4 0a1 1 0 0 0-1.414 0l-.083.095a1 1 0 0 0 .083 1.32L12.585 10l-1.292 1.293a1 1 0 0 0 1.414 1.414l2-2a1 1 0 0 0 0-1.414z"/></svg>