<svg xmlns="http://www.w3.org/2000/svg" width="24" height="24" fill="none" stroke="currentColor" stroke-linecap="round" stroke-linejoin="round" stroke-width="2" viewBox="0 0 24 24"><path d="m10.852 14.772-.383.923m.383-6.467-.383-.923m2.679 6.467.382.924m.001-7.391-.383.923m1.624 1.624.923-.383m-.923 2.679.923.383M17.598 6.5A3 3 0 1 0 12 5a3 3 0 0 0-5.63-1.446 3 3 0 0 0-.368 1.571 4 4 0 0 0-2.525 5.771"/><path d="M17.998 5.125a4 4 0 0 1 2.525 5.771"/><path d="M19.505 10.294a4 4 0 0 1-1.5 7.706"/><path d="M4.032 17.483A4 4 0 0 0 11.464 20c.18-.311.892-.311 1.072 0a4 4 0 0 0 7.432-2.516"/><path d="M4.5 10.291A4 4 0 0 0 6 18m.002-12.875a3 3 0 0 0 .4 1.375m2.826 4.352-.923-.383m.923 2.679-.923.383"/><circle cx="12" cy="12" r="3"/></svg>