<svg xmlns="http://www.w3.org/2000/svg" width="24" height="24" fill="none" stroke="currentColor" stroke-linecap="round" stroke-linejoin="round" stroke-width="2" viewBox="0 0 24 24"><path d="M10 19.655A6 6 0 0 1 6 14v-3a4 4 0 0 1 4-4h4a4 4 0 0 1 4 3.97"/><path d="M14 15.003a1 1 0 0 1 1.517-.859l4.997 2.997a1 1 0 0 1 0 1.718l-4.997 2.997a1 1 0 0 1-1.517-.86zm.12-11.123L16 2m5 3a4 4 0 0 1-3.55 3.97M3 21a4 4 0 0 1 3.81-4M3 5a4 4 0 0 0 3.55 3.97M6 13H2M8 2l1.88 1.88M9 7.13V6a3 3 0 1 1 6 0v1.13"/></svg>