<svg xmlns="http://www.w3.org/2000/svg" width="24" height="24" fill="none" stroke="currentColor" stroke-linecap="round" stroke-linejoin="round" stroke-width="2" viewBox="0 0 24 24"><path d="m10.852 19.772-.383.924m2.679-6.468.383-.923m-.383 6.467a3 3 0 1 0-2.296-5.544l-.383-.923"/><path d="m13.53 20.696-.382-.924a3 3 0 1 1-2.296-5.544m3.92 1.624.923-.383m-.923 2.679.923.383"/><path d="M4.2 15.1a7 7 0 1 1 9.93-9.858A7 7 0 0 1 15.71 8h1.79a4.5 4.5 0 0 1 2.5 8.2m-10.772-.348-.923-.383m.923 2.679-.923.383"/></svg>