<svg xmlns="http://www.w3.org/2000/svg" width="24" height="24" fill="none" stroke="currentColor" stroke-linecap="round" stroke-linejoin="round" stroke-width="2" viewBox="0 0 24 24"><path d="M12.035 17.012a3 3 0 0 0-3-3l-.311-.002a.72.72 0 0 1-.505-1.229l1.195-1.195A2 2 0 0 1 10.828 11H12a2 2 0 0 0 0-4H9.243a3 3 0 0 0-2.122.879l-2.707 2.707A4.83 4.83 0 0 0 3 14a8 8 0 0 0 8 8h2a8 8 0 0 0 8-8V7a2 2 0 1 0-4 0v2a2 2 0 1 0 4 0"/><path d="M13.888 9.662A2 2 0 0 0 17 8V5a2 2 0 1 0-4 0M9 5a2 2 0 1 0-4 0v5m4-3V4a2 2 0 1 1 4 0v3.268"/></svg>