<svg xmlns="http://www.w3.org/2000/svg" width="24" height="24" fill="none" stroke="currentColor" stroke-linecap="round" stroke-linejoin="round" stroke-width="2" viewBox="0 0 24 24"><path d="M11 7 6 2m12.992 10H2.041m19.104 6.38A3.34 3.34 0 0 1 20 16.5a3.3 3.3 0 0 1-1.145 1.88c-.575.46-.855 1.02-.855 1.595A2 2 0 0 0 20 22a2 2 0 0 0 2-2.025c0-.58-.285-1.13-.855-1.595M8.5 4.5l2.148-2.148a1.205 1.205 0 0 1 1.704 0l7.296 7.296a1.205 1.205 0 0 1 0 1.704l-7.592 7.592a3.615 3.615 0 0 1-5.112 0l-3.888-3.888a3.615 3.615 0 0 1 0-5.112L5.67 7.33"/></svg>