<svg xmlns="http://www.w3.org/2000/svg" width="24" height="24" fill="none" stroke="currentColor" stroke-linecap="round" stroke-linejoin="round" stroke-width="2" viewBox="0 0 24 24"><path d="m13.5 6.5-3.148-3.148a1.205 1.205 0 0 0-1.704 0L6.352 5.648a1.205 1.205 0 0 0 0 1.704L9.5 10.5m7-3L19 5m-1.5 5.5 3.148 3.148a1.205 1.205 0 0 1 0 1.704l-2.296 2.296a1.205 1.205 0 0 1-1.704 0L13.5 14.5M9 21a6 6 0 0 0-6-6"/><path d="M9.352 10.648a1.205 1.205 0 0 0 0 1.704l2.296 2.296a1.205 1.205 0 0 0 1.704 0l4.296-4.296a1.205 1.205 0 0 0 0-1.704l-2.296-2.296a1.205 1.205 0 0 0-1.704 0z"/></svg>