<svg xmlns="http://www.w3.org/2000/svg" width="24" height="24" fill="none" stroke="currentColor" stroke-linecap="round" stroke-linejoin="round" stroke-width="2" viewBox="0 0 24 24"><path d="M13.77 3.043a34 34 0 0 0-3.54 0m3.541 17.913a33 33 0 0 1-3.541.001m9.95-3.217c-.51 1.15-1.29 1.93-2.439 2.44M20.18 6.259c-.51-1.148-1.291-1.929-2.44-2.438m3.217 6.409a33 33 0 0 1 0 3.54M3.043 10.23a34 34 0 0 0 .001 3.541m3.216 6.408c-1.15-.508-1.93-1.29-2.44-2.438M6.26 3.82c-1.149.51-1.93 1.291-2.44 2.44"/></svg>