<svg xmlns="http://www.w3.org/2000/svg" width="24" height="24" fill="none" stroke="currentColor" stroke-linecap="round" stroke-linejoin="round" stroke-width="2" viewBox="0 0 24 24"><path d="m2 22 10-10m4-4-1.17 1.17M3.47 12.53 5 11l1.53 1.53a3.5 3.5 0 0 1 0 4.94L5 19l-1.53-1.53a3.5 3.5 0 0 1 0-4.94M8 8l-.53.53a3.5 3.5 0 0 0 0 4.94L9 15l1.53-1.53c.55-.55.88-1.25.98-1.97m-.6-6.24c.15-.26.34-.51.56-.73L13 3l1.53 1.53a3.5 3.5 0 0 1 .28 4.62M20 2h2v2a4 4 0 0 1-4 4h-2V6a4 4 0 0 1 4-4"/><path d="M11.47 17.47 13 19l-1.53 1.53a3.5 3.5 0 0 1-4.94 0L5 19l1.53-1.53a3.5 3.5 0 0 1 4.94 0M16 16l-.53.53a3.5 3.5 0 0 1-4.94 0L9 15l1.53-1.53a3.5 3.5 0 0 1 1.97-.98m6.24.6c.26-.15.51-.34.73-.56L21 11l-1.53-1.53a3.5 3.5 0 0 0-4.62-.28M2 2l20 20"/></svg>