<svg xmlns="http://www.w3.org/2000/svg" width="24" height="24" fill="none" stroke="currentColor" stroke-linecap="round" stroke-linejoin="round" stroke-width="2" viewBox="0 0 24 24"><path d="m2 10 2.456-3.684a.7.7 0 0 1 1.106-.013l2.39 3.413a.7.7 0 0 0 1.096-.001l2.402-3.432a.7.7 0 0 1 1.098 0l2.402 3.432a.7.7 0 0 0 1.098 0l2.389-3.413a.7.7 0 0 1 1.106.013L22 10M2 18.002l2.456-3.684a.7.7 0 0 1 1.106-.013l2.39 3.413a.7.7 0 0 0 1.097 0l2.402-3.432a.7.7 0 0 1 1.098 0l2.402 3.432a.7.7 0 0 0 1.098 0l2.389-3.413a.7.7 0 0 1 1.106.013L22 18.002"/></svg>