<svg width="46" height="65" viewBox="0 0 46 65" fill="none" xmlns="http://www.w3.org/2000/svg">
<path d="M45.332 47.2924H12.1723C14.171 51.174 18.1973 53.8247 22.8392 53.8247C22.8746 53.8247 22.911 53.8247 22.9464 53.8237C26.1792 53.7956 29.1076 52.4805 31.25 50.3631L39.1021 58.27C34.9536 62.3665 29.2706 64.892 23 64.892C18.5308 64.892 14.3597 63.6082 10.8298 61.3883V41.7317C10.8298 39.7698 11.2941 37.917 12.1176 36.2791H33.5607C32.8187 34.8009 31.784 33.4977 30.5337 32.446C28.475 30.7152 25.8329 29.6646 22.9464 29.6398V18.5714H23C27.3041 18.5714 31.3315 19.7613 34.7756 21.8333H34.7767C38.8748 24.2983 42.1463 28.0083 44.0774 32.446V32.4471C44.6104 33.6726 45.0414 34.9531 45.3588 36.2791C45.778 38.0272 46 39.853 46 41.7317C46 43.6493 45.7684 45.5119 45.332 47.2924Z" fill="url(#paint0_linear_257_30)"/>
<path d="M22.9464 18.5714V29.6398C22.911 29.6387 22.8746 29.6387 22.8392 29.6387C19.9119 29.6387 17.228 30.6936 15.1446 32.446C13.8944 33.4977 12.8596 34.8009 12.1176 36.2791C11.2941 37.917 10.8298 39.7698 10.8298 41.7317V65H0V41.7317C0 39.853 0.221965 38.0272 0.64121 36.2791C0.958595 34.9531 1.38965 33.6726 1.92256 32.4471V32.446C3.7915 28.1519 6.91608 24.538 10.8298 22.0752C10.847 22.0644 10.8642 22.0536 10.8813 22.0438C14.3854 19.8509 18.519 18.5811 22.9464 18.5714Z" fill="#BAFF68"/>
<path d="M22.9464 0V11.0684C22.911 11.0673 22.8746 11.0673 22.8392 11.0673C16.5804 11.0673 11.4399 15.8883 10.8813 22.0438C10.8642 22.0536 10.847 22.0644 10.8298 22.0752C6.91608 24.538 3.7915 28.1519 1.92256 32.446V32.4471C1.38965 33.6726 0.958595 34.9531 0.64121 36.2791C0.221965 38.0272 0 39.853 0 41.7317V23.1603C0 14.869 4.32658 7.59593 10.8298 3.50374C14.3458 1.29244 18.4976 0.0107947 22.9464 0Z" fill="url(#paint1_linear_257_30)"/>
<defs>
<linearGradient id="paint0_linear_257_30" x1="0" y1="32.5" x2="46" y2="32.5" gradientUnits="userSpaceOnUse">
<stop stop-color="#7FAF45"/>
<stop offset="0.633796" stop-color="#BAFF68"/>
</linearGradient>
<linearGradient id="paint1_linear_257_30" x1="11.4732" y1="0" x2="11.4732" y2="41.7317" gradientUnits="userSpaceOnUse">
<stop offset="0.305037" stop-color="#BAFF68"/>
<stop offset="1" stop-color="#7FAF45"/>
</linearGradient>
</defs>
</svg>
