<svg width="133" height="132" viewBox="0 0 133 132" fill="none" xmlns="http://www.w3.org/2000/svg">
    <path fill-rule="evenodd" clip-rule="evenodd"
        d="M62.9796 0.05076C77.3262 -0.471942 90.6752 3.04226 103.026 10.5934C115.865 19.2924 124.688 31.0485 129.497 45.8619C134.347 62.5983 133.184 78.8294 126.008 94.5553C117.098 112.059 103.218 123.613 84.3683 129.217C63.1254 134.639 43.557 130.847 25.6632 117.84C9.86684 105.16 1.32157 88.6758 0.0271492 68.3883C-0.329662 55.2315 2.8306 42.8686 9.50794 31.2994C22.1635 12.0644 39.9874 1.6481 62.9796 0.05076Z"
        fill="#0A0A0A" />
    <path fill-rule="evenodd" clip-rule="evenodd"
        d="M84.3687 20.9843C87.6671 20.8754 90.1193 22.2406 91.7258 25.08C92.4868 27.3366 92.2846 29.5108 91.119 31.6028C89.6916 33.9405 87.8461 35.8872 85.5822 37.443C81.937 39.67 78.0941 41.4903 74.0536 42.9039C67.9566 45.1385 61.8384 47.3127 55.6988 49.4267C51.5953 50.8333 48.0812 53.1339 45.1561 56.3287C42.6358 59.5315 41.5739 63.1722 41.9706 67.2506C42.1329 68.1099 42.2341 68.9695 42.274 69.8293C42.1148 69.9836 41.9378 70.0089 41.743 69.9052C38.5655 67.3223 36.5177 64.0104 35.5995 59.9693C35.0775 56.376 35.6843 52.9883 37.4198 49.8059C39.7783 45.9811 42.888 42.9219 46.7489 40.6285C49.3523 39.17 52.0322 37.8554 54.7886 36.6845C62.2754 34.0787 69.6072 31.0954 76.784 27.7346C78.9919 26.5886 80.6352 24.8948 81.7141 22.6529C82.4543 21.8417 83.3393 21.2856 84.3687 20.9843Z"
        fill="#A8DC51" />
    <path fill-rule="evenodd" clip-rule="evenodd"
        d="M90.7393 41.3112C93.5636 41.4281 95.4092 42.844 96.2761 45.5586C96.703 47.7 96.2984 49.672 95.0626 51.4746C92.5923 54.9486 89.3814 57.5021 85.4301 59.135C78.1505 61.8651 70.8693 64.5955 63.5864 67.3264C62.0271 68.005 60.5102 68.7634 59.0356 69.6018C56.8183 71.2859 56.4896 73.2833 58.0496 75.5937C58.8893 76.5853 59.8248 77.4701 60.8559 78.2483C63.0674 79.7461 65.3175 81.1872 67.6062 82.5716C68.3717 83.9334 67.9924 84.8183 66.4685 85.2262C59.9773 85.0272 54.4912 82.5747 50.0099 77.8691C45.3937 71.8155 45.9751 66.2787 51.7543 61.2587C53.6579 59.7753 55.7311 58.5618 57.9737 57.6181C63.7807 55.2946 69.6462 53.1204 75.5701 51.0953C78.3031 50.0576 80.9829 48.8946 83.6098 47.6064C85.5442 46.1779 87.1623 44.4586 88.4639 42.4489C89.1534 41.9018 89.9119 41.5226 90.7393 41.3112Z"
        fill="#A8DC51" />
    <path fill-rule="evenodd" clip-rule="evenodd"
        d="M67.682 72.1047C73.6051 72.274 78.6363 74.4482 82.7754 78.6275C86.7567 83.8066 86.7062 88.9642 82.6237 94.1002C79.8774 97.0037 76.6666 99.2539 72.9912 100.85C69.9824 102.121 66.8979 103.183 63.738 104.036C60.6257 105.006 57.6423 106.27 54.7881 107.828C53.631 108.732 52.5185 109.693 51.4509 110.711C48.0552 112.793 45.3499 112.111 43.3353 108.663C42.6983 107.32 42.6478 105.954 43.1836 104.567C44.0167 102.671 45.2554 101.078 46.9001 99.7886C50.026 97.4162 53.4644 95.5959 57.2152 94.3277C60.5447 93.2346 63.8819 92.1728 67.2269 91.1422C70.104 90.2484 72.607 88.7568 74.7357 86.6672C76.2403 84.697 76.2403 82.725 74.7357 80.7512C74.0482 80.0129 73.3149 79.3303 72.5361 78.7034C70.5367 77.4251 68.4635 76.2622 66.3167 75.2144C65.2156 74.3772 65.1649 73.5176 66.165 72.6357C66.6732 72.4102 67.179 72.2332 67.682 72.1047Z"
        fill="#A8DC51" />
</svg>