<svg xmlns="http://www.w3.org/2000/svg" fill="currentColor" viewBox="0 0 256 256"><path d="M208 36H48a12 12 0 0 0-12 12v160a12 12 0 0 0 12 12h160a12 12 0 0 0 12-12V48a12 12 0 0 0-12-12m-20 64h24v56h-24Zm24-52v44h-24V44h20a4 4 0 0 1 4 4M44 208V48a4 4 0 0 1 4-4h132v168H48a4 4 0 0 1-4-4m164 4h-20v-48h24v44a4 4 0 0 1-4 4m-60.12-45a36.24 36.24 0 0 0-20.44-23.67 28 28 0 1 0-30.88 0A36.28 36.28 0 0 0 76.13 167a4 4 0 0 0 2.87 4.87 4 4 0 0 0 1 .13 4 4 0 0 0 3.87-3C87 157 99.05 148 112 148s25.05 9 28.12 21a4 4 0 0 0 7.76-2M92 120a20 20 0 1 1 20 20 20 20 0 0 1-20-20"/></svg>