<svg xmlns="http://www.w3.org/2000/svg" fill="currentColor" viewBox="0 0 256 256"><path d="M154.7 142.75a36 36 0 1 0-37.4 0 63.6 63.6 0 0 0-32.5 22.85 4 4 0 0 0 6.4 4.8 56 56 0 0 1 89.6 0 4 4 0 0 0 6.4-4.8 63.65 63.65 0 0 0-32.5-22.85M108 112a28 28 0 1 1 28 28 28 28 0 0 1-28-28m100-84H64a12 12 0 0 0-12 12v28H32a4 4 0 0 0 0 8h20v48H32a4 4 0 0 0 0 8h20v48H32a4 4 0 0 0 0 8h20v28a12 12 0 0 0 12 12h144a12 12 0 0 0 12-12V40a12 12 0 0 0-12-12m4 188a4 4 0 0 1-4 4H64a4 4 0 0 1-4-4V40a4 4 0 0 1 4-4h144a4 4 0 0 1 4 4Z"/></svg>