<svg xmlns="http://www.w3.org/2000/svg" fill="currentColor" viewBox="0 0 256 256"><path d="M93.17 66.83a4 4 0 0 1 5.66-5.66L124 86.34V24a4 4 0 0 1 8 0v62.34l25.17-25.17a4 4 0 1 1 5.66 5.66l-32 32a4 4 0 0 1-5.66 0Zm37.66 90.34a4 4 0 0 0-5.66 0l-32 32a4 4 0 0 0 5.66 5.66L124 169.66V232a4 4 0 0 0 8 0v-62.34l25.17 25.17a4 4 0 0 0 5.66-5.66ZM232 124h-62.34l25.17-25.17a4 4 0 1 0-5.66-5.66l-32 32a4 4 0 0 0 0 5.66l32 32a4 4 0 0 0 5.66-5.66L169.66 132H232a4 4 0 0 0 0-8m-133.17 1.17-32-32a4 4 0 0 0-5.66 5.66L86.34 124H24a4 4 0 0 0 0 8h62.34l-25.17 25.17a4 4 0 0 0 5.66 5.66l32-32a4 4 0 0 0 0-5.66"/></svg>