<svg xmlns="http://www.w3.org/2000/svg" fill="currentColor" viewBox="0 0 256 256"><path d="M228 48v40a4 4 0 0 1-8 0V52h-36a4 4 0 0 1 0-8h40a4 4 0 0 1 4 4M72 204H36v-36a4 4 0 0 0-8 0v40a4 4 0 0 0 4 4h40a4 4 0 0 0 0-8m152-40a4 4 0 0 0-4 4v36h-36a4 4 0 0 0 0 8h40a4 4 0 0 0 4-4v-40a4 4 0 0 0-4-4M32 92a4 4 0 0 0 4-4V52h36a4 4 0 0 0 0-8H32a4 4 0 0 0-4 4v40a4 4 0 0 0 4 4m48-8a4 4 0 0 0-4 4v80a4 4 0 0 0 8 0V88a4 4 0 0 0-4-4m100 4a4 4 0 0 0-8 0v80a4 4 0 0 0 8 0Zm-36-4a4 4 0 0 0-4 4v80a4 4 0 0 0 8 0V88a4 4 0 0 0-4-4m-32 0a4 4 0 0 0-4 4v80a4 4 0 0 0 8 0V88a4 4 0 0 0-4-4"/></svg>