<svg xmlns="http://www.w3.org/2000/svg" fill="currentColor" viewBox="0 0 256 256"><path d="M128 28a100 100 0 1 0 100 100A100.11 100.11 0 0 0 128 28m88.14 73.64A195 195 0 0 0 165 91a195 195 0 0 0-10.68-51.1 92.33 92.33 0 0 1 61.82 61.74M145 37.58a187.5 187.5 0 0 1 11.3 45.68 196.4 196.4 0 0 0-66.63-38.88A91.3 91.3 0 0 1 128 36a92.4 92.4 0 0 1 17 1.58M79.86 49.63a188.1 188.1 0 0 1 72.45 40.82A196.2 196.2 0 0 0 36 127.39a92 92 0 0 1 43.86-77.76M36.44 137a188.17 188.17 0 0 1 121-38.48 188.17 188.17 0 0 1-38.48 121A92.17 92.17 0 0 1 36.44 137m92.17 83a196.2 196.2 0 0 0 36.94-116.3 188.1 188.1 0 0 1 40.82 72.45A92 92 0 0 1 128.61 220m83-53.66a196.4 196.4 0 0 0-38.87-66.64 187.5 187.5 0 0 1 45.68 11.3 92.4 92.4 0 0 1 1.58 17 91.3 91.3 0 0 1-8.38 38.33Z"/></svg>