<svg xmlns="http://www.w3.org/2000/svg" fill="currentColor" viewBox="0 0 256 256"><path d="M164 224a4 4 0 0 1-4 4H96a4 4 0 0 1 0-8h64a4 4 0 0 1 4 4m-20-84h-24.53l27.86-41.78A4 4 0 0 0 144 92h-32a4 4 0 0 0 0 8h24.53l-27.86 41.78A4 4 0 0 0 112 148h32a4 4 0 0 0 0-8m74.38 50a11.84 11.84 0 0 1-10.38 6H48a12 12 0 0 1-10.35-18C43.42 168 52 140.13 52 104a76 76 0 1 1 152 0c0 36.13 8.59 64 14.36 73.95a11.92 11.92 0 0 1 .02 12.05m-6.95-8C204 169.17 196 139.31 196 104a68 68 0 1 0-136 0c0 35.32-8 65.17-15.44 78a4 4 0 0 0 0 4 3.91 3.91 0 0 0 3.44 2h160a3.91 3.91 0 0 0 3.44-2 4 4 0 0 0-.01-4"/></svg>