<svg xmlns="http://www.w3.org/2000/svg" fill="currentColor" viewBox="0 0 256 256"><path d="M208 116a43.7 43.7 0 0 0-18.62 4.15L159 68h33a12 12 0 0 1 12 12 4 4 0 0 0 8 0 20 20 0 0 0-20-20h-40a4 4 0 0 0-3.46 6l15.16 26H97L79.46 62A4 4 0 0 0 76 60H48a4 4 0 0 0 0 8h25.7l16.19 27.76-19.32 26.49A44.21 44.21 0 1 0 77 127l17.29-23.7 34.25 58.7a4 4 0 0 0 3.46 2 4.1 4.1 0 0 0 2-.54 4 4 0 0 0 1.44-5.48l-33.83-58h66.74l14.11 24.19A44 44 0 1 0 208 116M84 160a36 36 0 1 1-18.16-31.25l-21.07 28.89a4 4 0 0 0 6.46 4.72l21.07-28.9A35.92 35.92 0 0 1 84 160m124 36a36 36 0 0 1-21.47-64.88l18 30.9a4 4 0 0 0 3.46 2 4.1 4.1 0 0 0 2-.54 4 4 0 0 0 1.44-5.48l-18-30.89A36 36 0 1 1 208 196"/></svg>