<svg xmlns="http://www.w3.org/2000/svg" fill="currentColor" viewBox="0 0 256 256"><path d="M192 116h-36V56a12 12 0 0 0-12-12H32a4 4 0 0 0-3.73 5.43c9.29 24.23 11.46 77.22-.11 117.46A3.8 3.8 0 0 0 28 168v32a12 12 0 0 0 12 12h26.11a12.1 12.1 0 0 0 5.37-1.27l12.62-6.31a4.1 4.1 0 0 1 1.79-.42h16.22a4.1 4.1 0 0 1 1.79.42l12.62 6.31a12.1 12.1 0 0 0 5.37 1.27h28.22a12.1 12.1 0 0 0 5.37-1.27l12.62-6.31a4.1 4.1 0 0 1 1.79-.42h16.22a4.1 4.1 0 0 1 1.79.42l12.62 6.31a12.1 12.1 0 0 0 5.37 1.27H232a12 12 0 0 0 12-12v-32a52.06 52.06 0 0 0-52-52M37.6 52H144a4 4 0 0 1 4 4v28h-36a4 4 0 0 0 0 8h36v24h-36a4 4 0 0 0 0 8h80a44.06 44.06 0 0 1 43.81 40H37.2c8.04-32.19 9.8-81.35.4-112M236 200a4 4 0 0 1-4 4h-26.11a4.1 4.1 0 0 1-1.79-.42l-12.62-6.31a12.1 12.1 0 0 0-5.37-1.27h-16.22a12.1 12.1 0 0 0-5.37 1.27l-12.62 6.31a4.1 4.1 0 0 1-1.79.42h-28.22a4.1 4.1 0 0 1-1.79-.42l-12.62-6.31a12.1 12.1 0 0 0-5.37-1.27H85.89a12.1 12.1 0 0 0-5.37 1.27l-12.62 6.31a4.1 4.1 0 0 1-1.79.42H40a4 4 0 0 1-4-4v-28h200Z"/></svg>