<svg xmlns="http://www.w3.org/2000/svg" fill="currentColor" viewBox="0 0 256 256"><path d="M184 36H72a28 28 0 0 0-28 28v144a12 12 0 0 0 12 12h24a12 12 0 0 0 12-12v-20h72v20a12 12 0 0 0 12 12h24a12 12 0 0 0 12-12V64a28 28 0 0 0-28-28M52 180v-64h152v64Zm152-72H52V76h152ZM84 208a4 4 0 0 1-4 4H56a4 4 0 0 1-4-4v-20h32Zm116 4h-24a4 4 0 0 1-4-4v-20h32v20a4 4 0 0 1-4 4m4-144H52v-4a20 20 0 0 1 20-20h112a20 20 0 0 1 20 20Zm-104 80a8 8 0 1 1-8-8 8 8 0 0 1 8 8m72 0a8 8 0 1 1-8-8 8 8 0 0 1 8 8m72-68v24a4 4 0 0 1-8 0V80a4 4 0 0 1 8 0M20 80v24a4 4 0 0 1-8 0V80a4 4 0 0 1 8 0"/></svg>