<svg xmlns="http://www.w3.org/2000/svg" fill="currentColor" viewBox="0 0 256 256"><path d="M176 60H80a4 4 0 0 0-4 4v48a4 4 0 0 0 4 4h96a4 4 0 0 0 4-4V64a4 4 0 0 0-4-4m-4 48H84V68h88Zm28-80H56a12 12 0 0 0-12 12v176a12 12 0 0 0 12 12h144a12 12 0 0 0 12-12V40a12 12 0 0 0-12-12m4 188a4 4 0 0 1-4 4H56a4 4 0 0 1-4-4V40a4 4 0 0 1 4-4h144a4 4 0 0 1 4 4ZM96 148a8 8 0 1 1-8-8 8 8 0 0 1 8 8m40 0a8 8 0 1 1-8-8 8 8 0 0 1 8 8m40 0a8 8 0 1 1-8-8 8 8 0 0 1 8 8m-80 40a8 8 0 1 1-8-8 8 8 0 0 1 8 8m40 0a8 8 0 1 1-8-8 8 8 0 0 1 8 8m40 0a8 8 0 1 1-8-8 8 8 0 0 1 8 8"/></svg>