<svg xmlns="http://www.w3.org/2000/svg" fill="currentColor" viewBox="0 0 256 256"><path d="M208 36h-28V24a4 4 0 0 0-8 0v12H84V24a4 4 0 0 0-8 0v12H48a12 12 0 0 0-12 12v160a12 12 0 0 0 12 12h160a12 12 0 0 0 12-12V48a12 12 0 0 0-12-12m4 172a4 4 0 0 1-4 4H48a4 4 0 0 1-4-4V48a4 4 0 0 1 4-4h28v12a4 4 0 0 0 8 0V44h88v12a4 4 0 0 0 8 0V44h28a4 4 0 0 1 4 4ZM152 92a28 28 0 0 0-24 13.59A28 28 0 0 0 76 120c0 14.51 8.56 29 25.44 43.07a143.5 143.5 0 0 0 24.77 16.51 4 4 0 0 0 3.58 0 143.5 143.5 0 0 0 24.77-16.51C171.44 149 180 134.51 180 120a28 28 0 0 0-28-28m-24 79.47c-8.46-4.64-44-25.67-44-51.47a20 20 0 0 1 40 0 4 4 0 0 0 8 0 20 20 0 0 1 40 0c0 25.8-35.54 46.83-44 51.47"/></svg>