<svg xmlns="http://www.w3.org/2000/svg" fill="currentColor" viewBox="0 0 256 256"><path d="M51 37.31a4 4 0 0 0-6 5.38L60.78 60H48a20 20 0 0 0-20 20v112a20 20 0 0 0 20 20h151l6.08 6.69a4 4 0 1 0 5.92-5.38Zm97.58 119.23A31.7 31.7 0 0 1 128 164a32 32 0 0 1-22.48-54.78ZM48 204a12 12 0 0 1-12-12V80a12 12 0 0 1 12-12h20l32.09 35.3a40 40 0 0 0 53.79 59.16L191.69 204ZM228 80v106a4 4 0 0 1-8 0V80a12 12 0 0 0-12-12h-32a4 4 0 0 1-3.32-1.78L157.85 44H98.13l-.82 1.23a4 4 0 1 1-6.65-4.44l2-3A4 4 0 0 1 96 36h64a4 4 0 0 1 3.33 1.78L178.13 60H208a20 20 0 0 1 20 20"/></svg>