<svg xmlns="http://www.w3.org/2000/svg" fill="currentColor" viewBox="0 0 256 256"><path d="M216 44H40a12 12 0 0 0-12 12v144a12 12 0 0 0 12 12h13.39a4 4 0 0 0 3.61-2.29 52 52 0 0 1 94 0 4 4 0 0 0 3.61 2.29H216a12 12 0 0 0 12-12V56a12 12 0 0 0-12-12m4 156a4 4 0 0 1-4 4h-58.92a60.38 60.38 0 0 0-34.68-29.07 36 36 0 1 0-36.8 0A60.38 60.38 0 0 0 50.92 204H40a4 4 0 0 1-4-4V56a4 4 0 0 1 4-4h176a4 4 0 0 1 4 4Zm-116-28a28 28 0 1 1 28-28 28 28 0 0 1-28 28m92-92v96a4 4 0 0 1-4 4h-16a4 4 0 0 1 0-8h12V84H68v12a4 4 0 0 1-8 0V80a4 4 0 0 1 4-4h128a4 4 0 0 1 4 4"/></svg>