<svg xmlns="http://www.w3.org/2000/svg" fill="currentColor" viewBox="0 0 256 256"><path d="M228 208a4 4 0 0 1-4 4H32a4 4 0 0 1-4-4V48a4 4 0 0 1 8 0v14.34l60 60 29.17-29.17a4 4 0 0 1 5.66 0L196 158.34V128a4 4 0 0 1 8 0v40a4 4 0 0 1-.08.78 3 3 0 0 1-.1.34 3 3 0 0 1-.13.41 3 3 0 0 1-.2.39c-.05.1-.1.2-.16.3a4.2 4.2 0 0 1-1.11 1.11l-.31.16a4 4 0 0 1-.38.2 3 3 0 0 1-.41.13 3 3 0 0 1-.34.1 4 4 0 0 1-.78.08h-40a4 4 0 0 1 0-8h30.34L128 101.66l-29.17 29.17a4 4 0 0 1-5.66 0L36 73.66V204h188a4 4 0 0 1 4 4"/></svg>