<svg xmlns="http://www.w3.org/2000/svg" fill="currentColor" viewBox="0 0 256 256"><path d="M236 112a52.06 52.06 0 0 0-52-52 53 53 0 0 0-7.77.59 52 52 0 0 0-96.46 0A53 53 0 0 0 72 60a52 52 0 0 0-20 100v48a12 12 0 0 0 12 12h128a12 12 0 0 0 12-12v-48a52.07 52.07 0 0 0 32-48m-40 96a4 4 0 0 1-4 4H64a4 4 0 0 1-4-4v-45.41A52 52 0 0 0 72 164h112a52 52 0 0 0 12-1.41Zm-12-52h-18.88l6.76-27a4 4 0 0 0-7.76-1.94l-7.24 29H132V128a4 4 0 0 0-8 0v28H99.12l-7.24-29a4 4 0 1 0-7.76 2l6.76 27H72a44 44 0 0 1 0-88 45 45 0 0 1 5.34.33A51.7 51.7 0 0 0 76 80a4 4 0 0 0 8 0 44 44 0 0 1 88 0 4 4 0 0 0 8 0 51.7 51.7 0 0 0-1.34-11.67A45 45 0 0 1 184 68a44 44 0 0 1 0 88"/></svg>