<svg xmlns="http://www.w3.org/2000/svg" fill="currentColor" viewBox="0 0 256 256"><path d="M155.87 36.06a4 4 0 0 1-3.87 3 4.3 4.3 0 0 1-1-.13 92 92 0 0 0-46 0 4 4 0 0 1-2-7.74 100.1 100.1 0 0 1 50 0 4 4 0 0 1 2.87 4.87M56.65 57.94a100.2 100.2 0 0 0-25 43.29 4 4 0 0 0 7.71 2.14 92.06 92.06 0 0 1 23-39.82 4 4 0 1 0-5.7-5.61Zm-17.29 94.68a4 4 0 0 0-7.71 2.14 100.1 100.1 0 0 0 25 43.31 4 4 0 1 0 5.71-5.61 91.9 91.9 0 0 1-23-39.84M151 217.09a92 92 0 0 1-46 0 4 4 0 0 0-2 7.75 100 100 0 0 0 50 0 4 4 0 1 0-2-7.74Zm70.58-67.25a4 4 0 0 0-4.92 2.79 92.1 92.1 0 0 1-23 39.82 4 4 0 1 0 5.7 5.61 100.2 100.2 0 0 0 25-43.29 4 4 0 0 0-2.78-4.93m-4.94-46.46a4 4 0 0 0 7.71-2.14 100.1 100.1 0 0 0-25-43.31 4 4 0 1 0-5.71 5.61 91.9 91.9 0 0 1 23 39.84"/></svg>