<svg xmlns="http://www.w3.org/2000/svg" fill="currentColor" viewBox="0 0 256 256"><path d="M211.56 121.82a4 4 0 1 0-7.12-3.64 84.05 84.05 0 0 1-38.58 37.16l-19.68-44.29A36 36 0 0 0 132 44.23V24a4 4 0 0 0-8 0v20.23a36 36 0 0 0-14.18 66.82L60.35 222.37a4 4 0 0 0 2 5.28A3.9 3.9 0 0 0 64 228a4 4 0 0 0 3.66-2.38l26.66-60A91.4 91.4 0 0 0 128 172a95.2 95.2 0 0 0 33.75-6.22l26.59 59.84A4 4 0 0 0 192 228a3.9 3.9 0 0 0 1.62-.35 4 4 0 0 0 2-5.28l-26.54-59.73a92 92 0 0 0 42.48-40.82M100 80a28 28 0 1 1 28 28 28 28 0 0 1-28-28m28 84a83.4 83.4 0 0 1-30.43-5.68l19.56-44a36 36 0 0 0 21.74 0l19.63 44.15A87.4 87.4 0 0 1 128 164"/></svg>