<svg xmlns="http://www.w3.org/2000/svg" fill="currentColor" viewBox="0 0 256 256"><path d="M216 124a4 4 0 0 0-3.39 1.88A175 175 0 0 1 193 151.81l-18.62-98A12 12 0 0 0 155 46.69l-24.5 20.44a4 4 0 0 1-4.94.05L100.9 46.64a12 12 0 0 0-19.29 7.15L63 151.81a175 175 0 0 1-19.6-25.93A4 4 0 0 0 40 124a36 36 0 0 0 0 72h176a36 36 0 0 0 0-72M89.48 55.28a4 4 0 0 1 6.37-2.44l24.65 20.54a12 12 0 0 0 15.06-.06l24.53-20.43a3.92 3.92 0 0 1 3.89-.63 4 4 0 0 1 2.55 3L181.11 132H74.89ZM40 188a28 28 0 0 1-2.15-55.92C58.3 164 80.59 180 97.9 188Zm88 0c-.27 0-11.78-.21-27.77-7.84a118.2 118.2 0 0 1-30.43-21.4L73.37 140h109.26l3.56 18.76a118.2 118.2 0 0 1-30.43 21.4c-15.99 7.63-27.5 7.84-27.76 7.84m88 0h-57.9c17.31-8 39.6-24 60.05-55.92A28 28 0 0 1 216 188"/></svg>