<svg xmlns="http://www.w3.org/2000/svg" fill="currentColor" viewBox="0 0 256 256"><path d="M180 60c-15.15 0-29.15 5.06-39.43 14.25a49.3 49.3 0 0 0-8.57 10V36h20a4 4 0 0 0 0-8h-20V8a4 4 0 0 0-8 0v20h-20a4 4 0 0 0 0 8h20v48.26a49.3 49.3 0 0 0-8.57-10C105.15 65.06 91.15 60 76 60a56.06 56.06 0 0 0-56 56c0 28.36 13.79 46.38 25.37 56.51A85.6 85.6 0 0 0 68 186.74V208a12 12 0 0 0 12 12h96a12 12 0 0 0 12-12v-21.26a85.6 85.6 0 0 0 22.63-14.23C222.21 162.38 236 144.36 236 116a56.06 56.06 0 0 0-56-56m25.59 106.29a75.5 75.5 0 0 1-22.85 13.92A4 4 0 0 0 180 184v24a4 4 0 0 1-4 4H80a4 4 0 0 1-4-4v-24a4 4 0 0 0-2.73-3.79 75.4 75.4 0 0 1-22.86-13.92C35.54 153.17 28 136.25 28 116a48.05 48.05 0 0 1 48-48c27.81 0 48 18.5 48 44v64a4 4 0 0 0 8 0v-64c0-25.5 20.19-44 48-44a48.05 48.05 0 0 1 48 48c0 20.25-7.54 37.17-22.41 50.29"/></svg>