<svg xmlns="http://www.w3.org/2000/svg" fill="currentColor" viewBox="0 0 256 256"><path d="M125.17 106.83a4 4 0 0 0 5.66 0l40-40a4 4 0 0 0 0-5.66l-40-40a4 4 0 0 0-5.66 0l-40 40a4 4 0 0 0 0 5.66ZM128 29.66 162.34 64 128 98.34 93.66 64Zm2.83 119.51a4 4 0 0 0-5.66 0l-40 40a4 4 0 0 0 0 5.66l40 40a4 4 0 0 0 5.66 0l40-40a4 4 0 0 0 0-5.66ZM128 226.34 93.66 192 128 157.66 162.34 192Zm106.83-101.17-40-40a4 4 0 0 0-5.66 0l-40 40a4 4 0 0 0 0 5.66l40 40a4 4 0 0 0 5.66 0l40-40a4 4 0 0 0 0-5.66M192 162.34 157.66 128 192 93.66 226.34 128Zm-85.17-37.17-40-40a4 4 0 0 0-5.66 0l-40 40a4 4 0 0 0 0 5.66l40 40a4 4 0 0 0 5.66 0l40-40a4 4 0 0 0 0-5.66M64 162.34 29.66 128 64 93.66 98.34 128Z"/></svg>