<svg xmlns="http://www.w3.org/2000/svg" fill="currentColor" viewBox="0 0 256 256"><path d="M196 204.5V232a4 4 0 0 1-8 0v-27.5a67.62 67.62 0 0 0-37.59-60.82L102 119.48a75.6 75.6 0 0 1-42-68V24a4 4 0 0 1 8 0v27.5a67.62 67.62 0 0 0 37.59 60.82l48.4 24.2A75.6 75.6 0 0 1 196 204.5m-36-.5H68a67.7 67.7 0 0 1 4.59-24h75.51a4 4 0 0 0 0-8H76.3a67.9 67.9 0 0 1 19.45-22.31 4 4 0 0 0-4.75-6.45 76.26 76.26 0 0 0-31 61.26V232a4 4 0 0 0 8 0v-20h92a4 4 0 0 0 0-8m32-184a4 4 0 0 0-4 4v20H96a4 4 0 0 0 0 8h92a67.7 67.7 0 0 1-4.59 24h-75.52a4 4 0 1 0 0 8h71.81a67.9 67.9 0 0 1-19.45 22.31 4 4 0 0 0 4.74 6.45A76.26 76.26 0 0 0 196 51.5V24a4 4 0 0 0-4-4"/></svg>