<svg xmlns="http://www.w3.org/2000/svg" fill="currentColor" viewBox="0 0 256 256"><path d="M128 28a100 100 0 1 0 100 100A100.11 100.11 0 0 0 128 28m91.92 96.43C216 124.15 212 124 208 124a164.4 164.4 0 0 0-46.55 6.74A163.5 163.5 0 0 0 146.61 97c-.49-.82-1-1.64-1.5-2.46a164 164 0 0 0 43.39-35.79 91.8 91.8 0 0 1 31.42 65.68m-37.67-70.68a156.2 156.2 0 0 1-41.46 34.08 165 165 0 0 0-46.3-45.51 91.86 91.86 0 0 1 87.76 11.43m-96.47-7.47a157 157 0 0 1 47.9 45.34A155.7 155.7 0 0 1 64 108a157.5 157.5 0 0 1-25.33-2 92.35 92.35 0 0 1 47.11-59.72M36 128a92 92 0 0 1 1.1-14.2A165.6 165.6 0 0 0 64 116a163.6 163.6 0 0 0 74.05-17.62c.55.9 1.11 1.79 1.64 2.7a155 155 0 0 1 14.14 32.11 162.7 162.7 0 0 0-27.59 12.61A164.94 164.94 0 0 0 70 199.36 91.84 91.84 0 0 1 36 128m40.44 76.16a157.1 157.1 0 0 1 53.8-51.43A154 154 0 0 1 156 140.91a156.3 156.3 0 0 1 4.9 38.78 157 157 0 0 1-4.11 35.69 91.94 91.94 0 0 1-80.37-11.22Zm89.3 7.74a165 165 0 0 0 3.18-32.21 164.3 164.3 0 0 0-5.28-41.26A156.4 156.4 0 0 1 208 132c4 0 7.94.15 11.88.45a92.17 92.17 0 0 1-54.14 79.45"/></svg>