<svg xmlns="http://www.w3.org/2000/svg" fill="currentColor" viewBox="0 0 256 256"><path d="M51 37.31a4 4 0 0 0-6 5.38L58.23 57.2A83.4 83.4 0 0 0 44 104c0 31.79 11.28 42.68 21.24 52.28C73.16 163.91 80 170.51 80 188a48.05 48.05 0 0 0 48 48c13.71 0 25.52-5.87 35.08-17.45a4 4 0 0 0-6.16-5.1C148.83 223.24 139.37 228 128 228a40 40 0 0 1-40-40c0-20.89-8.75-29.33-17.21-37.48C61.55 141.61 52 132.4 52 104a75.36 75.36 0 0 1 11.8-40.67l23 25.27A43.7 43.7 0 0 0 84 104a4 4 0 0 0 8 0 36.2 36.2 0 0 1 1-8.53L141.65 149a37 37 0 0 0-1.65 11 20 20 0 0 0 28.24 18.21L205 218.69a4 4 0 1 0 5.92-5.38ZM160 172a12 12 0 0 1-12-12 30 30 0 0 1 .24-3.79l14.13 15.55a12.4 12.4 0 0 1-2.37.24M83.55 37.36a4 4 0 0 1 1.37-5.49A84 84 0 0 1 212 104a4 4 0 0 1-8 0A76 76 0 0 0 89 38.74a4 4 0 0 1-5.45-1.38m76.89 80.81A29.85 29.85 0 0 0 164 104a36 36 0 0 0-47.68-34.06 4 4 0 1 1-2.59-7.57A44 44 0 0 1 172 104a38 38 0 0 1-4.46 17.84A4 4 0 0 1 164 124a3.9 3.9 0 0 1-1.83-.45 4 4 0 0 1-1.73-5.38"/></svg>