<svg xmlns="http://www.w3.org/2000/svg" fill="currentColor" viewBox="0 0 256 256"><path d="M240 108h-14.34l-36.49-36.49a11.93 11.93 0 0 0-8.48-3.51H136V36h28a4 4 0 0 0 0-8h-64a4 4 0 0 0 0 8h28v32H64a12 12 0 0 0-12 12v56H20v-28a4 4 0 0 0-8 0v64a4 4 0 0 0 8 0v-28h32v24.69a11.93 11.93 0 0 0 3.51 8.48l39.32 39.32a11.93 11.93 0 0 0 8.48 3.51h77.38a11.93 11.93 0 0 0 8.48-3.51L225.66 180H240a12 12 0 0 0 12-12v-48a12 12 0 0 0-12-12m4 60a4 4 0 0 1-4 4h-16a4 4 0 0 0-2.83 1.17l-37.66 37.66a4 4 0 0 1-2.82 1.17h-77.38a4 4 0 0 1-2.82-1.17l-39.32-39.32a4 4 0 0 1-1.17-2.82V80a4 4 0 0 1 4-4h116.69a4 4 0 0 1 2.82 1.17l37.66 37.66A4 4 0 0 0 224 116h16a4 4 0 0 1 4 4Z"/></svg>