<svg xmlns="http://www.w3.org/2000/svg" fill="currentColor" viewBox="0 0 256 256"><path d="M232 156a4 4 0 0 0 0-8 228.1 228.1 0 0 0-66.42 9.84 257 257 0 0 0-27.66-15.67A250.1 250.1 0 0 1 232 124a4 4 0 0 0 0-8q-10.06 0-20 .76V80a4 4 0 0 0-1.6-3.2l-64-48a4 4 0 0 0-4.8 0l-64 48A4 4 0 0 0 76 80v41.2a261.7 261.7 0 0 0-52-5.2 4 4 0 0 0 0 8 251 251 0 0 1 196.73 94.5 4 4 0 0 0 6.24-5 263 263 0 0 0-21.44-23.64A190 190 0 0 1 232 188a4 4 0 0 0 0-8 198 198 0 0 0-33.84 2.92 261 261 0 0 0-24-19.25A220.5 220.5 0 0 1 232 156m-68-31a260 260 0 0 0-35.93 12.65c-1.36-.58-2.71-1.18-4.07-1.74V100h40ZM84 82l60-45 60 45v35.49a259 259 0 0 0-32 5.45V96a4 4 0 0 0-4-4h-48a4 4 0 0 0-4 4v36.71A259 259 0 0 0 84 123Zm49.5 136.21a4 4 0 0 1-5.55 1.12A187.1 187.1 0 0 0 24 188a4 4 0 0 1 0-8 195.1 195.1 0 0 1 108.38 32.67 4 4 0 0 1 1.12 5.54m50.07-5.07a4 4 0 0 1-5.6 5.72A218.76 218.76 0 0 0 24 156a4 4 0 0 1 0-8 226.7 226.7 0 0 1 159.57 65.14"/></svg>