<svg xmlns="http://www.w3.org/2000/svg" fill="currentColor" viewBox="0 0 256 256"><path d="m210.83 85.17-56-56A4 4 0 0 0 152 28H56a12 12 0 0 0-12 12v72a4 4 0 0 0 8 0V40a4 4 0 0 1 4-4h92v52a4 4 0 0 0 4 4h52v124a4 4 0 0 1-4 4h-8a4 4 0 0 0 0 8h8a12 12 0 0 0 12-12V88a4 4 0 0 0-1.17-2.83M156 41.65 198.34 84H156Zm-2.06 106.85a4 4 0 0 0-4.06.11L124 164.78V160a12 12 0 0 0-12-12H48a12 12 0 0 0-12 12v48a12 12 0 0 0 12 12h64a12 12 0 0 0 12-12v-4.78l25.88 16.17a4 4 0 0 0 2.12.61 4.06 4.06 0 0 0 1.94-.5A4 4 0 0 0 156 216v-64a4 4 0 0 0-2.06-3.5M116 208a4 4 0 0 1-4 4H48a4 4 0 0 1-4-4v-48a4 4 0 0 1 4-4h64a4 4 0 0 1 4 4Zm32 .78-24-15v-19.56l24-15Z"/></svg>