<svg xmlns="http://www.w3.org/2000/svg" fill="currentColor" viewBox="0 0 256 256"><path d="M48 116a4 4 0 0 0 4-4V40a4 4 0 0 1 4-4h92v52a4 4 0 0 0 4 4h52v20a4 4 0 0 0 8 0V88a4 4 0 0 0-1.17-2.83l-56-56A4 4 0 0 0 152 28H56a12 12 0 0 0-12 12v72a4 4 0 0 0 4 4m108-74.35L198.35 84H156ZM224 208a4 4 0 0 1-4 4h-28a4 4 0 0 1-4-4v-56a4 4 0 0 1 8 0v52h24a4 4 0 0 1 4 4M87.85 195.8a17 17 0 0 1-7.43 12.41C76 211.12 70.38 212 65.2 212a58 58 0 0 1-14.2-1.89 4 4 0 0 1 2.15-7.7c4.22 1.17 16.56 3.29 22.83-.88a8.94 8.94 0 0 0 3.91-6.75c.83-6.45-4.38-8.69-15.64-11.94-9.68-2.8-21.72-6.28-20.14-18.77a16.66 16.66 0 0 1 7.22-12.13c4.56-3.07 11-4.36 19.1-3.82a61 61 0 0 1 10.47 1.61 4 4 0 0 1-2 7.74c-4.3-1.13-16.81-3.12-23.06 1.11a8.53 8.53 0 0 0-3.75 6.49c-.66 5.17 3.89 7 14.42 10.08 9.76 2.85 23.14 6.69 21.34 20.65M136 148c-15.44 0-28 14.35-28 32s12.56 32 28 32a25.56 25.56 0 0 0 16.31-6l4.86 4.85a4 4 0 0 0 5.65-5.66l-5.06-5.06A34.8 34.8 0 0 0 164 180c0-17.65-12.56-32-28-32m0 56c-11 0-20-10.77-20-24s9-24 20-24 20 10.77 20 24a27.16 27.16 0 0 1-4 14.36l-5.19-5.19a4 4 0 1 0-5.65 5.66l5.47 5.47A17.5 17.5 0 0 1 136 204"/></svg>