<svg xmlns="http://www.w3.org/2000/svg" fill="currentColor" viewBox="0 0 256 256"><path d="m210.83 85.17-56-56A4 4 0 0 0 152 28H56a12 12 0 0 0-12 12v72a4 4 0 0 0 8 0V40a4 4 0 0 1 4-4h92v52a4 4 0 0 0 4 4h52v132a4 4 0 0 0 8 0V88a4 4 0 0 0-1.17-2.83M156 41.65 198.34 84H156ZM144 148h-16a4 4 0 0 0-4 4v56a4 4 0 0 0 4 4h16a32 32 0 0 0 0-64m0 56h-12v-48h12a24 24 0 0 1 0 48m-44-52v56a4 4 0 0 1-8 0v-43.31l-20.72 29.6a4 4 0 0 1-6.56 0L44 164.69V208a4 4 0 0 1-8 0v-56a4 4 0 0 1 7.28-2.29L68 185l24.72-35.31A4 4 0 0 1 100 152"/></svg>