<svg xmlns="http://www.w3.org/2000/svg" fill="currentColor" viewBox="0 0 256 256"><path d="M68 128a130.7 130.7 0 0 1-13.73 58.7 4 4 0 0 1-3.58 2.22 3.9 3.9 0 0 1-1.78-.42 4 4 0 0 1-1.8-5.36A122.7 122.7 0 0 0 60 128a67.74 67.74 0 0 1 25.5-53.08 4 4 0 0 1 5 6.25A59.74 59.74 0 0 0 68 128m60-4a4 4 0 0 0-4 4 188.1 188.1 0 0 1-23.48 91 4 4 0 0 0 7 3.88A196.2 196.2 0 0 0 132 128a4 4 0 0 0-4-4m0-32a36 36 0 0 0-36 36 4 4 0 0 0 8 0 28 28 0 0 1 56 0 218 218 0 0 1-20.9 93.7 4 4 0 1 0 7.24 3.41A226 226 0 0 0 164 128a36 36 0 0 0-36-36m0-64A100.11 100.11 0 0 0 28 128a91.7 91.7 0 0 1-5.24 30.67 4 4 0 1 0 7.54 2.66A99.7 99.7 0 0 0 36 128a92 92 0 0 1 184 0 286.4 286.4 0 0 1-5.37 55.23 4 4 0 0 0 3.15 4.69 4 4 0 0 0 .78.08 4 4 0 0 0 3.92-3.23A294.3 294.3 0 0 0 228 128 100.11 100.11 0 0 0 128 28M93.6 156.09a4 4 0 0 0-4.71 3.12 155 155 0 0 1-17.66 46.64 4 4 0 0 0 6.93 4 163.1 163.1 0 0 0 18.57-49 4 4 0 0 0-3.13-4.76M128 60a69 69 0 0 0-8.5.53 4 4 0 0 0 1 7.93A63 63 0 0 1 128 68a60.07 60.07 0 0 1 60 60 256 256 0 0 1-1.95 31.5 4 4 0 0 0 3.47 4.47h.5a4 4 0 0 0 4-3.51A264 264 0 0 0 196 128a68.08 68.08 0 0 0-68-68m56.93 128.12a4 4 0 0 0-4.87 2.88c-1.49 5.78-3.21 11.58-5.1 17.23a4 4 0 1 0 7.58 2.54c2-5.83 3.73-11.81 5.27-17.77a4 4 0 0 0-2.87-4.87Z"/></svg>