<svg xmlns="http://www.w3.org/2000/svg" fill="currentColor" viewBox="0 0 256 256"><path d="M225.66 52.44a4 4 0 0 0-4.28.61c-30 26-56 13.08-83.61-.56-28.7-14.2-58.38-28.88-92.39.56a4 4 0 0 0-1.38 3V224a4 4 0 0 0 8 0v-46.13c29.41-24.39 55.08-11.69 82.23 1.74 28.7 14.19 58.38 28.88 92.39-.56a4 4 0 0 0 1.38-3v-120a4 4 0 0 0-2.34-3.61M220 64.32v49.88c-16.91 14-32.58 15.79-48 12.2V74.67c15.24 3.23 31.09 1.7 48-10.35m-56 8.23v51.54c-8.7-3-17.39-7.25-26.23-11.62-9.76-4.84-19.64-9.72-29.77-12.91V48c8.7 3 17.39 7.25 26.23 11.62 9.77 4.87 19.64 9.75 29.77 12.93m-64-26.82v51.71c-15.24-3.23-31.09-1.69-48 10.37V57.93c16.91-14.03 32.58-15.78 48-12.2M52 167.78V117.9c16.91-14 32.58-15.79 48-12.2v51.72A64.5 64.5 0 0 0 86.64 156C75.52 156 64 159.2 52 167.78m56-8.23V108c8.71 3 17.39 7.25 26.23 11.62 9.76 4.83 19.64 9.71 29.77 12.89v51.54c-8.71-3-17.39-7.25-26.23-11.62-9.77-4.82-19.64-9.7-29.77-12.88m64 26.82v-51.72a64.5 64.5 0 0 0 13.36 1.47c11.12 0 22.61-3.27 34.64-11.85v49.9c-16.91 14.02-32.58 15.83-48 12.2"/></svg>