<svg xmlns="http://www.w3.org/2000/svg" fill="currentColor" viewBox="0 0 256 256"><path d="M207.5 199.3a28 28 0 1 0-31 0 36.24 36.24 0 0 0-20.37 23.7 4 4 0 0 0 2.84 4.89 3.7 3.7 0 0 0 1 .14 4 4 0 0 0 3.87-3c3.29-12.38 14.85-21 28.13-21s24.84 8.65 28.13 21a4 4 0 1 0 7.73-2.05 36.22 36.22 0 0 0-20.33-23.68M172 176a20 20 0 1 1 20 20 20 20 0 0 1-20-20m44-100h-86.34l-28.49-28.49A12 12 0 0 0 92.69 44H40a12 12 0 0 0-12 12v144.61A11.4 11.4 0 0 0 39.38 212h81.18a4 4 0 0 0 0-8H39.38a3.39 3.39 0 0 1-3.38-3.39V84h180a4 4 0 0 1 4 4v32a4 4 0 0 0 8 0V88a12 12 0 0 0-12-12M40 52h52.69a4 4 0 0 1 2.82 1.17L118.34 76H36V56a4 4 0 0 1 4-4"/></svg>