<svg xmlns="http://www.w3.org/2000/svg" fill="currentColor" viewBox="0 0 256 256"><path d="M76 88V40a4 4 0 0 1 8 0v48a4 4 0 0 1-8 0m136-48v184a4 4 0 0 1-8 0v-52h-52a4 4 0 0 1-4-4 264.3 264.3 0 0 1 7.11-55.94c9.47-39.22 27.21-65.41 51.31-75.74A4 4 0 0 1 212 40m-8 6.46c-41.75 23.87-47.19 99.29-47.9 117.54H204Zm-88-7.12a4 4 0 0 0-7.9 1.32l8 47.66a36 36 0 0 1-72 0l8-47.66a4 4 0 0 0-7.9-1.32l-8 48a5 5 0 0 0-.2.66 44.06 44.06 0 0 0 40 43.81V224a4 4 0 0 0 8 0v-92.19A44.06 44.06 0 0 0 124 88a5 5 0 0 0 0-.66Z"/></svg>