<svg xmlns="http://www.w3.org/2000/svg" fill="currentColor" viewBox="0 0 256 256"><path d="M128 28a100 100 0 0 0 0 200 4 4 0 0 0 2.49-7.11c-.3-.24-23.57-19.41-33.78-56.88H128a4 4 0 0 0 0-8H94.82a140.4 140.4 0 0 1 0-56h66.36A138 138 0 0 1 164 128a4 4 0 0 0 8 0 149 149 0 0 0-2.59-28h46.23a91.6 91.6 0 0 1 4.36 28 4 4 0 0 0 8 0A100.11 100.11 0 0 0 128 28m-10.46 8.6A129.4 129.4 0 0 0 88.35 92h-45a92.25 92.25 0 0 1 74.19-55.4m0 182.8a92.25 92.25 0 0 1-74.2-55.4h45a129.4 129.4 0 0 0 29.2 55.4M86.59 156H40.36a92.1 92.1 0 0 1 0-56h46.23a152.7 152.7 0 0 0 0 56m10.14-64C105 61.8 121.67 43.48 128 37.39c6.33 6.09 23 24.41 31.27 54.61Zm70.92 0a129.4 129.4 0 0 0-29.19-55.4 92.25 92.25 0 0 1 74.2 55.4Zm51.18 78.83L197.66 192l21.17 21.17a4 4 0 0 1-5.66 5.66L192 197.66l-21.17 21.17a4 4 0 0 1-5.66-5.66L186.34 192l-21.17-21.17a4 4 0 0 1 5.66-5.66L192 186.34l21.17-21.17a4 4 0 0 1 5.66 5.66"/></svg>