<svg xmlns="http://www.w3.org/2000/svg" fill="currentColor" viewBox="0 0 256 256"><path d="M244 128a4 4 0 0 1-4 4h-28.1a83.1 83.1 0 0 1-7.24 30.38 4 4 0 0 1-3.65 2.37 3.9 3.9 0 0 1-1.63-.36 4 4 0 0 1-2-5.28A76.06 76.06 0 0 0 103.62 56a4 4 0 1 1-2.56-7.57A83.6 83.6 0 0 1 124 44.1V16a4 4 0 0 1 8 0v28.1a84.11 84.11 0 0 1 79.9 79.9H240a4 4 0 0 1 4 4m-33 85.31a4 4 0 1 1-5.92 5.38l-23.56-25.91A83.8 83.8 0 0 1 132 211.9V240a4 4 0 0 1-8 0v-28.1A84.11 84.11 0 0 1 44.1 132H16a4 4 0 0 1 0-8h28.1a84.24 84.24 0 0 1 24.5-55.39L45 42.69a4 4 0 0 1 6-5.38L184.77 184.5Zm-34.87-26.47L74 74.53a76 76 0 0 0 102.1 112.31Z"/></svg>