<svg xmlns="http://www.w3.org/2000/svg" fill="currentColor" viewBox="0 0 256 256"><path d="M200 156a27.87 27.87 0 0 0-19.4 7.84l-28.28-22A27.8 27.8 0 0 0 156 128a28 28 0 0 0-.45-5l19.45-6.45a28.07 28.07 0 1 0-2.53-7.58L153 115.45A28 28 0 0 0 128 100a27.7 27.7 0 0 0-7.6 1.06l-9.5-21.37A28 28 0 1 0 96 84a27.7 27.7 0 0 0 7.6-1.06l9.5 21.37a27.95 27.95 0 0 0-8.46 39.1L74 170.61a28 28 0 1 0 5.32 6l30.6-27.2a27.92 27.92 0 0 0 37.44-1.23l28.28 22A28 28 0 1 0 200 156m0-72a20 20 0 1 1-20 20 20 20 0 0 1 20-20M76 56a20 20 0 1 1 20 20 20 20 0 0 1-20-20M56 212a20 20 0 1 1 20-20 20 20 0 0 1-20 20m72-64a20 20 0 1 1 20-20 20 20 0 0 1-20 20m72 56a20 20 0 1 1 20-20 20 20 0 0 1-20 20"/></svg>