<svg xmlns="http://www.w3.org/2000/svg" fill="currentColor" viewBox="0 0 256 256"><path d="M227.9 144.24a20.45 20.45 0 0 0-17.84-3.53L160.75 152a23.76 23.76 0 0 0 3.25-12 24 24 0 0 0-24-24H89.94a27.8 27.8 0 0 0-19.8 8.2L46.34 148H16a12 12 0 0 0-12 12v40a12 12 0 0 0 12 12h104a4 4 0 0 0 1-.12l64-16a5 5 0 0 0 .6-.2l38.82-16.54.22-.1a20.6 20.6 0 0 0 3.29-34.8ZM12 200v-40a4 4 0 0 1 4-4h28v48H16a4 4 0 0 1-4-4m209.13-28.17-38.41 16.37-63.21 15.8H52v-50.34l23.8-23.8A19.86 19.86 0 0 1 89.94 124H140a16 16 0 0 1 0 32h-28a4 4 0 0 0 0 8h32a4 4 0 0 0 .9-.1l67-15.41h.16a12.6 12.6 0 0 1 9 23.38Zm-64-113a4 4 0 0 1 0-5.66l32-32a4 4 0 0 1 5.66 0l32 32a4 4 0 0 1-5.66 5.66L196 33.66V104a4 4 0 0 1-8 0V33.66l-25.17 25.17a4 4 0 0 1-5.66 0Z"/></svg>