<svg xmlns="http://www.w3.org/2000/svg" fill="currentColor" viewBox="0 0 256 256"><path d="M216.71 102 199.4 72a24 24 0 0 0-43.57 4.52L134.74 40a24 24 0 0 0-43.69 4.9A24 24 0 0 0 51.61 72l5.31 9.19a24 24 0 0 0-25.71 35.47l40 69.32a83.4 83.4 0 0 0 51 39.14 84.5 84.5 0 0 0 21.88 2.9 84 84 0 0 0 72.6-126Zm.67 61.67A76 76 0 0 1 78.16 182l-40-69.32a16 16 0 0 1 27.71-16L85.09 130a4 4 0 0 0 6.91-4L58.54 68a16 16 0 1 1 27.71-16l31.17 54a4 4 0 1 0 6.93-4L100.1 60a16 16 0 0 1 27.72-16l35 60.63a44 44 0 0 0-7.28 57.61 4 4 0 1 0 6.62-4.49 36 36 0 0 1 8.22-49 4 4 0 0 0 1.07-5.2L164.76 92a16 16 0 1 1 27.71-16l17.31 30a75.52 75.52 0 0 1 7.6 57.65ZM188.12 32.74A4 4 0 0 1 193 29.9 55.65 55.65 0 0 1 227.11 56l.33.58A4 4 0 0 1 226 62a4 4 0 0 1-5.47-1.46l-.33-.57A47.62 47.62 0 0 0 191 37.63a4 4 0 0 1-2.88-4.89M77.75 234.48a4 4 0 0 1-3.14 1.52 4 4 0 0 1-2.47-.86A115.6 115.6 0 0 1 43.53 202a4 4 0 1 1 6.92-4 107.7 107.7 0 0 0 26.64 30.86 4 4 0 0 1 .66 5.62"/></svg>