<svg xmlns="http://www.w3.org/2000/svg" fill="currentColor" viewBox="0 0 256 256"><path d="M228 198.65V240a4 4 0 0 1-8 0v-41.35a78.83 78.83 0 0 0-32-63.18v66.84a4 4 0 0 1-7.35 2.19L170 188.19l-.12-.19a16 16 0 0 0-27.77 15.91l22.2 33.9a4 4 0 1 1-6.69 4.38l-22.26-34a1.2 1.2 0 0 1-.12-.19 24 24 0 0 1 41.51-24.1l3.27 5V64a4 4 0 0 0-4-4H160a4 4 0 0 1 0-8h16a12 12 0 0 1 12 12v61.78a86.84 86.84 0 0 1 40 72.87M80 52H64a12 12 0 0 0-12 12v136a4 4 0 0 0 8 0V64a4 4 0 0 1 4-4h16a4 4 0 0 0 0-8m74.83 49.17a4 4 0 0 0-5.66 0L124 126.34V16a4 4 0 0 0-8 0v110.34l-25.17-25.17a4 4 0 0 0-5.66 5.66l32 32a4 4 0 0 0 5.66 0l32-32a4 4 0 0 0 0-5.66"/></svg>