<svg xmlns="http://www.w3.org/2000/svg" fill="currentColor" viewBox="0 0 256 256"><path d="M196 75.64V40a12 12 0 0 0-12-12H72a12 12 0 0 0-12 12v36a12 12 0 0 0 4.8 9.6l56.53 42.4-56.53 42.4A12 12 0 0 0 60 180v36a12 12 0 0 0 12 12h112a12 12 0 0 0 12-12v-35.64a12.05 12.05 0 0 0-4.76-9.57L134.63 128l56.61-42.79a12.05 12.05 0 0 0 4.76-9.57M184 220H72a4 4 0 0 1-4-4v-28h120v28a4 4 0 0 1-4 4m4-40H68a4 4 0 0 1 1.6-3.2L128 133l58.42 44.16A4 4 0 0 1 188 180m0-104.36a4 4 0 0 1-1.59 3.19L128 123 69.6 79.2A4 4 0 0 1 68 76V40a4 4 0 0 1 4-4h112a4 4 0 0 1 4 4Z"/></svg>