<svg xmlns="http://www.w3.org/2000/svg" fill="currentColor" viewBox="0 0 256 256"><path d="M171.17 84.83a76 76 0 1 0-86.34 86.34 76 76 0 1 0 86.34-86.34M28 96a68 68 0 0 1 134.93-11.93c-1 0-2-.07-2.93-.07a76.08 76.08 0 0 0-76 76c0 1 0 2 .07 2.93A68.1 68.1 0 0 1 28 96m136 0a67.6 67.6 0 0 1-7.45 30.89l-27.44-27.44A67.6 67.6 0 0 1 160 92c1.3 0 2.6 0 3.88.12.12 1.28.12 2.58.12 3.88m-72 64a67.6 67.6 0 0 1 7.45-30.89l27.44 27.44A67.6 67.6 0 0 1 96 164c-1.3 0-2.6-.05-3.88-.12-.07-1.28-.12-2.58-.12-3.88m42-7.64L103.64 122A68.7 68.7 0 0 1 122 103.64L152.36 134A68.7 68.7 0 0 1 134 152.36M160 228a68.1 68.1 0 0 1-66.93-56.07c1 0 2 .07 2.93.07a76.08 76.08 0 0 0 76-76c0-1 0-2-.07-2.93A68 68 0 0 1 160 228"/></svg>