<svg xmlns="http://www.w3.org/2000/svg" fill="currentColor" viewBox="0 0 256 256"><path d="M213.74 42.26a76 76 0 0 0-125.23 79.58l-57 57a11.93 11.93 0 0 0-3.51 8.47V216a12 12 0 0 0 12 12h32a4 4 0 0 0 4-4v-20h20a4 4 0 0 0 4-4v-20h20a4 4 0 0 0 2.83-1.17l11.33-11.34A75.7 75.7 0 0 0 160 172h.1a76 76 0 0 0 53.64-129.74m14.22 56c-1.15 36.22-31.6 65.72-67.87 65.77H160a67.5 67.5 0 0 1-25.21-4.83 4 4 0 0 0-4.45.83l-12 12H96a4 4 0 0 0-4 4v20H72a4 4 0 0 0-4 4v20H40a4 4 0 0 1-4-4v-28.72a4.06 4.06 0 0 1 1.17-2.83L96 125.66a4 4 0 0 0 .83-4.45A67.5 67.5 0 0 1 92 95.91c0-36.27 29.55-66.72 65.77-67.91A68 68 0 0 1 228 98.23ZM188 76a8 8 0 1 1-8-8 8 8 0 0 1 8 8"/></svg>