<svg xmlns="http://www.w3.org/2000/svg" fill="currentColor" viewBox="0 0 256 256"><path d="M226.49 211.12a4 4 0 0 1-5.61-.62C219.54 208.82 188 168.48 188 88a60 60 0 0 0-120 0c0 80.48-31.53 120.82-32.88 122.5a4 4 0 0 1-6.25-5C29.18 205.11 60 165.45 60 88a68 68 0 0 1 136 0c0 40.48 8.47 70.27 15.57 88.14 7.69 19.35 15.48 29.27 15.56 29.36a4 4 0 0 1-.64 5.62M100 92a8 8 0 1 0 8 8 8 8 0 0 0-8-8m64 8a8 8 0 1 0-8 8 8 8 0 0 0 8-8m-66.21 32.42a4 4 0 1 0-3.58 7.16l32 16a4 4 0 0 0 3.58 0l32-16a4 4 0 0 0-3.58-7.16L128 147.53ZM128 180a50.05 50.05 0 0 0-43.49 26.05 4 4 0 1 0 7 3.89 41.34 41.34 0 0 1 73 0A4 4 0 0 0 168 212a3.94 3.94 0 0 0 1.94-.51 4 4 0 0 0 1.55-5.44A50.07 50.07 0 0 0 128 180"/></svg>