<svg xmlns="http://www.w3.org/2000/svg" fill="currentColor" viewBox="0 0 256 256"><path d="M220 128a4 4 0 0 1-4 4h-88a4 4 0 0 1 0-8h88a4 4 0 0 1 4 4m-92-60h88a4 4 0 0 0 0-8h-88a4 4 0 0 0 0 8m88 120h-88a4 4 0 0 0 0 8h88a4 4 0 0 0 0-8M85.17 45.17 56 74.34 42.83 61.17a4 4 0 0 0-5.66 5.66l16 16a4 4 0 0 0 5.66 0l32-32a4 4 0 0 0-5.66-5.66m0 64L56 138.34l-13.17-13.17a4 4 0 1 0-5.66 5.66l16 16a4 4 0 0 0 5.66 0l32-32a4 4 0 0 0-5.66-5.66m0 64L56 202.34l-13.17-13.17a4 4 0 0 0-5.66 5.66l16 16a4 4 0 0 0 5.66 0l32-32a4 4 0 0 0-5.66-5.66"/></svg>