<svg xmlns="http://www.w3.org/2000/svg" fill="currentColor" viewBox="0 0 256 256"><path d="M208 136a8 8 0 1 1-8-8 8 8 0 0 1 8 8m36 0c0 17.83-4.38 34.66-12.32 47.38C223.36 196.67 212.11 204 200 204H56c-12.11 0-23.36-7.33-31.68-20.62C16.38 170.66 12 153.83 12 136s4.38-34.66 12.32-47.38C32.64 75.33 43.89 68 56 68h38.34l38.83-38.83A4 4 0 0 1 136 28h32a4 4 0 0 1 0 8h-30.34l-32 32H200c12.11 0 23.36 7.33 31.68 20.62C239.62 101.34 244 118.17 244 136m-64.87 60a52.2 52.2 0 0 1-10.81-12.62 77 77 0 0 1-8.47-19.38H80a4 4 0 0 1 0-8h77.91a104.5 104.5 0 0 1-1.91-20c0-17.83 4.38-34.66 12.32-47.38A52.2 52.2 0 0 1 179.13 76H56c-15.64 0-29 16.72-33.94 40H104a4 4 0 0 1 0 8H20.72a100 100 0 0 0-.72 12c0 33.08 16.15 60 36 60ZM236 136c0-33.08-16.15-60-36-60s-36 26.92-36 60 16.15 60 36 60 36-26.92 36-60"/></svg>