<svg xmlns="http://www.w3.org/2000/svg" fill="currentColor" viewBox="0 0 256 256"><path d="M178.83 109.17a4 4 0 0 1 0 5.66l-32 32a4 4 0 0 1-5.66 0L112 117.66l-29.17 29.17a4 4 0 0 1-5.66-5.66l32-32a4 4 0 0 1 5.66 0L144 138.34l29.17-29.17a4 4 0 0 1 5.66 0M228 128a100 100 0 0 1-148.5 87.47l-35.69 11.9a12 12 0 0 1-15.18-15.18l11.9-35.69A100 100 0 1 1 228 128m-8 0a92 92 0 1 0-171.65 46.07 4 4 0 0 1 .33 3.27l-12.46 37.38a4 4 0 0 0 5.06 5.06l37.38-12.46a4 4 0 0 1 1.27-.21 4.05 4.05 0 0 1 2 .54A92 92 0 0 0 220 128"/></svg>