<svg xmlns="http://www.w3.org/2000/svg" fill="currentColor" viewBox="0 0 256 256"><path d="M108 104a4 4 0 0 1-4 4H92v44a4 4 0 0 1-8 0v-44H72a4 4 0 0 1 0-8h32a4 4 0 0 1 4 4m120-11.26V152a36 36 0 0 1-35.44 36 60 60 0 0 1-113.13 0H40a12 12 0 0 1-12-12V80a12 12 0 0 1 12-12h62.07a36 36 0 0 1 66.48-27.36 28 28 0 0 1 35 43.36h15.69a8.75 8.75 0 0 1 8.76 8.74m-56.77-44.13A36 36 0 0 1 158.64 84H184a20 20 0 1 0-12.77-35.39M110.71 68H136a12 12 0 0 1 12 12v1.29A28 28 0 1 0 110.71 68M40 180h96a4 4 0 0 0 4-4V80a4 4 0 0 0-4-4H40a4 4 0 0 0-4 4v96a4 4 0 0 0 4 4m148-12V96a4 4 0 0 0-4-4h-36v84a12 12 0 0 1-12 12H88a52 52 0 0 0 100-20m32-75.26a.74.74 0 0 0-.74-.74h-24a11.8 11.8 0 0 1 .7 4v72a60 60 0 0 1-1.18 11.86A28 28 0 0 0 220 152Z"/></svg>