<svg xmlns="http://www.w3.org/2000/svg" fill="currentColor" viewBox="0 0 256 256"><path d="M144 20h-32a60.07 60.07 0 0 0-60 60v96a60.07 60.07 0 0 0 60 60h32a60.07 60.07 0 0 0 60-60V80a60.07 60.07 0 0 0-60-60m52 60v28h-42.34l40.75-40.75A51.6 51.6 0 0 1 196 80m-4.51-21.15L142.34 108H132V81.66l43.22-43.22a52.5 52.5 0 0 1 16.27 20.41m-23.19-24.8L132 70.34V28h12a51.6 51.6 0 0 1 24.3 6.05M112 28h12v80H60V80a52.06 52.06 0 0 1 52-52m32 200h-32a52.06 52.06 0 0 1-52-52v-60h136v60a52.06 52.06 0 0 1-52 52"/></svg>