<svg xmlns="http://www.w3.org/2000/svg" fill="currentColor" viewBox="0 0 256 256"><path d="M76 48a12 12 0 1 1-12-12 12 12 0 0 1 12 12m52-12a12 12 0 1 0 12 12 12 12 0 0 0-12-12m64 24a12 12 0 1 0-12-12 12 12 0 0 0 12 12M64 92a12 12 0 1 0 12 12 12 12 0 0 0-12-12m64 0a12 12 0 1 0 12 12 12 12 0 0 0-12-12m64 0a12 12 0 1 0 12 12 12 12 0 0 0-12-12M64 148a12 12 0 1 0 12 12 12 12 0 0 0-12-12m64 0a12 12 0 1 0 12 12 12 12 0 0 0-12-12m0 56a12 12 0 1 0 12 12 12 12 0 0 0-12-12m64-56a12 12 0 1 0 12 12 12 12 0 0 0-12-12"/></svg>