<svg xmlns="http://www.w3.org/2000/svg" fill="currentColor" viewBox="0 0 256 256"><path d="M198.71 57.29A100 100 0 1 0 57.29 198.71 100 100 0 1 0 198.71 57.29m-94 74.71h46.58l17.28 37.45A28 28 0 0 0 128 177.6a28 28 0 0 0-40.57-8.15Zm3.7-8L128 81.55 147.59 124ZM132 192a20 20 0 0 1 40 0v16.83a91.3 91.3 0 0 1-40 11.07Zm-48 0a20 20 0 0 1 40 0v27.9a91.3 91.3 0 0 1-40-11.07Zm109.05 1.05A92.4 92.4 0 0 1 180 203.9V176a4.1 4.1 0 0 0-.37-1.68l-48-104a4 4 0 0 0-7.26 0l-48 104A4.1 4.1 0 0 0 76 176v27.9a92.4 92.4 0 0 1-13-10.85 92 92 0 1 1 130.1 0Z"/></svg>