<svg xmlns="http://www.w3.org/2000/svg" fill="currentColor" viewBox="0 0 256 256"><path d="M164 76a24 24 0 1 0-24-24 24 24 0 0 0 24 24m0-40a16 16 0 1 1-16 16 16 16 0 0 1 16-16m53.13 80.16-136-40a4 4 0 0 0-2.26 7.68l46.06 13.54-38.16 57.25-47.54-13.78a21.18 21.18 0 1 0-11.9 40.66l157.44 45.63a21.5 21.5 0 0 0 6 .86 21.2 21.2 0 0 0 12.76-4.29 21 21 0 0 0 8.46-16.9 21.3 21.3 0 0 0-15.33-20.33l-56.15-16.27 22.8-34a4 4 0 0 0 .44-3.6 4 4 0 0 0-2.65-2.47l-40.56-11.74L133 99.75l81.9 24.09a4 4 0 0 0 1.1.16 4 4 0 0 0 1.13-7.84M204 206.81a13 13 0 0 1-5.26 10.5 13.25 13.25 0 0 1-11.74 2.15L29.55 173.82A13.26 13.26 0 0 1 20 161.18a13 13 0 0 1 5.26-10.5A13.23 13.23 0 0 1 37 148.54l157.44 45.63a13.25 13.25 0 0 1 9.56 12.64m-50.37-70.49-21.17 31.55L94.83 157l21-31.59Z"/></svg>