<svg xmlns="http://www.w3.org/2000/svg" fill="currentColor" viewBox="0 0 256 256"><path d="M128 84a28 28 0 1 0-28-28 28 28 0 0 0 28 28m0-48a20 20 0 1 1-20 20 20 20 0 0 1 20-20M52 96a12 12 0 1 1 12 12 12 12 0 0 1-12-12m167.12 12.1a4 4 0 0 1-5.62.62c-1.2-.94-26.41-20.11-65.7 1.3v.84a210.6 210.6 0 0 1-3.43 33.54l34.23 28.53a4 4 0 0 1 1.23 4.33l-16 48A4 4 0 0 1 160 228a3.9 3.9 0 0 1-1.26-.21 4 4 0 0 1-2.53-5.06l15.13-45.41-29-24.13a138 138 0 0 1-6.53 19.81c-13.26 31.58-37 52.71-70.66 62.8a3.8 3.8 0 0 1-1.15.2 4 4 0 0 1-1.15-7.83c69.32-20.8 75.54-86.09 76.74-113.21l-1.34.9C109.24 135.58 86.78 140 72.42 140c-11.24 0-17.51-2.73-18.08-3a4 4 0 1 1 3.32-7.28c.25.11 28.44 11.87 76.09-20.52 25.89-17.6 47.41-18.6 60.91-16.34 14.86 2.48 23.48 9.29 23.84 9.58a4 4 0 0 1 .62 5.66"/></svg>