<svg xmlns="http://www.w3.org/2000/svg" fill="currentColor" viewBox="0 0 256 256"><path d="M220.78 162.13 173.56 141a12 12 0 0 0-11.38 1 3.4 3.4 0 0 0-.38.28L137 163.42a3.93 3.93 0 0 1-3.7.21c-16.24-7.84-33.05-24.52-40.89-40.57a3.9 3.9 0 0 1 .18-3.69l21.2-25.21c.1-.12.19-.25.28-.38a12 12 0 0 0 1-11.36L93.9 35.28a12 12 0 0 0-12.48-7.19A52.25 52.25 0 0 0 36 80c0 77.2 62.8 140 140 140a52.25 52.25 0 0 0 51.91-45.42 12 12 0 0 0-7.13-12.45m-.78 11.45A44.23 44.23 0 0 1 176 212c-72.78 0-132-59.22-132-132a44.23 44.23 0 0 1 38.42-44 4 4 0 0 1 .48 0 4 4 0 0 1 3.67 2.49l21.11 47.14a4 4 0 0 1-.23 3.6l-21.19 25.2c-.1.13-.2.25-.29.39a12 12 0 0 0-.78 11.75c8.69 17.79 26.61 35.58 44.6 44.27a12 12 0 0 0 11.79-.87l.37-.28 24.83-21.12a3.93 3.93 0 0 1 3.57-.27l47.21 21.16a4 4 0 0 1 2.44 4.12"/></svg>