<svg xmlns="http://www.w3.org/2000/svg" fill="currentColor" viewBox="0 0 256 256"><path d="M188 116a8 8 0 1 1-8-8 8 8 0 0 1 8 8m-36-48h-40a4 4 0 0 0 0 8h40a4 4 0 0 0 0-8m92 44v32a20 20 0 0 1-20 20h-5.18l-17.16 48a12 12 0 0 1-11.3 8h-12.72a12 12 0 0 1-11.3-8l-2.87-8h-62.94l-2.87 8a12 12 0 0 1-11.3 8H73.64a12 12 0 0 1-11.3-8l-12.82-35.9a83.73 83.73 0 0 1-21.4-51.76A20 20 0 0 0 12 144a4 4 0 0 1-8 0 28 28 0 0 1 24.09-27.72A84.1 84.1 0 0 1 112 36h104a4 4 0 0 1 0 8h-36.2a84 84 0 0 1 41.31 42.63c.76 1.76 1.47 3.55 2.11 5.37h.78a20 20 0 0 1 20 20m-8 0a12 12 0 0 0-12-12h-3.66a4 4 0 0 1-3.82-2.8 75 75 0 0 0-2.75-7.39A76 76 0 0 0 144 44h-32a76 76 0 0 0-56 127.34 4 4 0 0 1 .82 1.36l13.09 36.65a4 4 0 0 0 3.73 2.65h12.72a4 4 0 0 0 3.77-2.65l3.87-10.7a4 4 0 0 1 3.71-2.65h68.58a4 4 0 0 1 3.76 2.65l3.82 10.7a4 4 0 0 0 3.77 2.65h12.72a4 4 0 0 0 3.77-2.65l18.1-50.7A4 4 0 0 1 216 156h8a12 12 0 0 0 12-12Z"/></svg>