<svg xmlns="http://www.w3.org/2000/svg" fill="currentColor" viewBox="0 0 256 256"><path d="m217.46 57.85-.09-.08-44.93-42.31a12 12 0 0 0-16.91 0l-47.38 47-4.35-4.39a21 21 0 0 0-29.68 29.71l4.25 4.31-22.86 22.74a12 12 0 0 0 0 17l12.69 12.65a12 12 0 0 0 17 0l22.77-22.45 14.91 15.12a4 4 0 0 1 0 5.66L58.14 208.2a21 21 0 1 0 29.67 29.65l88.68-89.37a12 12 0 0 0 0-16.95L138 92.62l15.77-15.45a4 4 0 0 1 5.68 0l37.4 35.35a12 12 0 0 0 16.93 0l3.72-3.71a36 36 0 0 0 0-50.92Zm-137.95 81a4 4 0 0 1-5.65 0l-12.69-12.71a4 4 0 0 1 0-5.65L84 97.78l18.32 18.58Zm91.31 4L82.14 232.2a13 13 0 1 1-18.33-18.36l64.69-65.37a12 12 0 0 0 0-16.94L79.8 82.14a13 13 0 0 1 18.33-18.36l72.7 73.39a4 4 0 0 1-.01 5.67Zm41-39.73-3.72 3.72a4 4 0 0 1-5.65 0l-.09-.08L165 71.42a12 12 0 0 0-16.85.06l-15.82 15.46-18.55-18.73 47.39-47a4 4 0 0 1 5.66 0l.09.08 44.92 42.3a28 28 0 0 1 0 39.56Z"/></svg>