<svg xmlns="http://www.w3.org/2000/svg" fill="currentColor" viewBox="0 0 256 256"><path d="M108 164a8 8 0 1 1-8-8 8 8 0 0 1 8 8m48-8a8 8 0 1 0 8 8 8 8 0 0 0-8-8m56 32a48 48 0 0 1-84 31.75 48 48 0 1 1-67.51-68 67.6 67.6 0 0 1 7-22.78C48.85 92.61 36.63 41.7 49.06 21.15a17.92 17.92 0 0 1 16-9.15c12.17 0 23.19 11.41 32.76 33.92 6.71 15.78 11.55 34.08 14.63 47.87a68.44 68.44 0 0 1 31.1 0c3.08-13.8 7.92-32.09 14.63-47.87C167.75 23.41 178.77 12 190.94 12a17.92 17.92 0 0 1 16 9.15c12.43 20.55.21 71.46-18.4 107.86a67.6 67.6 0 0 1 7 22.78A47.8 47.8 0 0 1 212 188m-60.77-91.9a67.9 67.9 0 0 1 22.63 13.69 69 69 0 0 1 9.78 11.11c17.88-37.07 25.59-80.5 16.45-95.61a9.91 9.91 0 0 0-9.15-5.29c-14.4 0-29.16 28.37-39.71 76.1m-78.87 24.8a69 69 0 0 1 9.78-11.11 67.9 67.9 0 0 1 22.63-13.69C94.22 48.37 79.46 20 65.06 20a9.91 9.91 0 0 0-9.15 5.29c-9.14 15.11-1.43 58.54 16.45 95.61M204 188a39.86 39.86 0 0 0-14.82-31.08 4 4 0 0 1-1.46-2.72 60 60 0 0 0-119.44 0 4 4 0 0 1-1.46 2.72 40 40 0 1 0 55.64 57l-13-10.82a4 4 0 1 1 5.12-6.16L128 208.1l13.44-11.18a4 4 0 0 1 5.12 6.16l-13 10.82A40 40 0 0 0 204 188"/></svg>