<svg xmlns="http://www.w3.org/2000/svg" fill="currentColor" viewBox="0 0 256 256"><path d="M200 116a44.16 44.16 0 0 0-42 30.88 27.2 27.2 0 0 0-6-.66c-15.44 0-28 13-28 28.89S136.56 204 152 204h48a44 44 0 0 0 0-88m0 80h-48c-11 0-20-9.37-20-20.89s9-20.89 20-20.89a19.1 19.1 0 0 1 7.29 1.43 4 4 0 0 0 5.44-2.9A36 36 0 1 1 200 196M20 160v16a4 4 0 0 1-8 0v-16a100 100 0 0 1 169.71-71.69 4 4 0 0 1-5.57 5.69A92 92 0 0 0 20 160m92-60a60.07 60.07 0 0 0-60 60v16a4 4 0 0 1-8 0v-16a68 68 0 0 1 108.24-54.82 4 4 0 1 1-4.74 6.44A59.57 59.57 0 0 0 112 100m11.31 29.79a4 4 0 0 1-4.81 3A28 28 0 0 0 84 160v16a4 4 0 0 1-8 0v-16a36 36 0 0 1 36-36 36.6 36.6 0 0 1 8.35 1 4 4 0 0 1 2.96 4.79"/></svg>