<svg xmlns="http://www.w3.org/2000/svg" fill="currentColor" viewBox="0 0 256 256"><path d="m235.71 134.51-32-80a4 4 0 0 0-4.57-2.41L132 67V40a4 4 0 0 0-8 0v28.79L55.13 84.1a4 4 0 0 0-2.84 2.41l-32 80A4 4 0 0 0 20 168c0 20.4 22.08 28 36 28s36-7.6 36-28a4 4 0 0 0-.29-1.49L61.46 90.88 124 77v135h-20a4 4 0 0 0 0 8h48a4 4 0 0 0 0-8h-20V75.21l61.47-13.66-29.18 73A4 4 0 0 0 164 136c0 20.4 22.08 28 36 28s36-7.6 36-28a4 4 0 0 0-.29-1.49M56 188c-7.15 0-27.37-3.56-28-19.27l28-70 28 70C83.37 184.44 63.15 188 56 188m144-32c-7.15 0-27.37-3.56-28-19.27l28-70 28 70c-.63 15.71-20.85 19.27-28 19.27"/></svg>