<svg xmlns="http://www.w3.org/2000/svg" fill="currentColor" viewBox="0 0 256 256"><path d="M202.84 186.83a18.61 18.61 0 0 0 0 26.34 4 4 0 0 1-5.66 5.66 26.63 26.63 0 0 1 0-37.66l9.38-9.37a18.63 18.63 0 1 0-26.35-26.34l-66.76 66.74a26.63 26.63 0 0 1-37.66-37.66l98.76-98.74a18.63 18.63 0 1 0-26.35-26.34L81.45 116.2a26.63 26.63 0 0 1-37.66-37.66l41.38-41.37a4 4 0 1 1 5.65 5.66L49.44 84.2a18.63 18.63 0 1 0 26.35 26.34l66.76-66.74a26.63 26.63 0 0 1 37.66 37.66L81.45 180.2a18.63 18.63 0 1 0 26.35 26.34l66.75-66.74a26.63 26.63 0 0 1 37.66 37.66Z"/></svg>