<svg xmlns="http://www.w3.org/2000/svg" fill="currentColor" viewBox="0 0 256 256"><path d="M148 40a4 4 0 0 1-4 4h-32a4 4 0 0 1 0-8h32a4 4 0 0 1 4 4m-4 172h-32a4 4 0 0 0 0 8h32a4 4 0 0 0 0-8m68-164v24a4 4 0 0 0 8 0V48a12 12 0 0 0-12-12h-24a4 4 0 0 0 0 8h24a4 4 0 0 1 4 4m4 60a4 4 0 0 0-4 4v32a4 4 0 0 0 8 0v-32a4 4 0 0 0-4-4M40 148a4 4 0 0 0 4-4v-32a4 4 0 0 0-8 0v32a4 4 0 0 0 4 4m32 64H48a4 4 0 0 1-4-4v-24a4 4 0 0 0-8 0v24a12 12 0 0 0 12 12h24a4 4 0 0 0 0-8m0-176H48a12 12 0 0 0-12 12v24a4 4 0 0 0 8 0V48a4 4 0 0 1 4-4h24a4 4 0 0 0 0-8m168 176h-20v-20a4 4 0 0 0-8 0v20h-20a4 4 0 0 0 0 8h20v20a4 4 0 0 0 8 0v-20h20a4 4 0 0 0 0-8"/></svg>