<svg xmlns="http://www.w3.org/2000/svg" fill="currentColor" viewBox="0 0 256 256"><path d="M108 40a4 4 0 0 1 4-4h32a4 4 0 0 1 0 8h-32a4 4 0 0 1-4-4m36 172h-32a4 4 0 0 0 0 8h32a4 4 0 0 0 0-8m64-176h-24a4 4 0 0 0 0 8h24a4 4 0 0 1 4 4v24a4 4 0 0 0 8 0V48a12 12 0 0 0-12-12m8 72a4 4 0 0 0-4 4v32a4 4 0 0 0 8 0v-32a4 4 0 0 0-4-4M40 148a4 4 0 0 0 4-4v-32a4 4 0 0 0-8 0v32a4 4 0 0 0 4 4m32 64H48a4 4 0 0 1-4-4v-24a4 4 0 0 0-8 0v24a12 12 0 0 0 12 12h24a4 4 0 0 0 0-8M51 37.31a4 4 0 0 0-6 5.38l160 176a4 4 0 1 0 5.92-5.38Z"/></svg>