<svg xmlns="http://www.w3.org/2000/svg" fill="currentColor" viewBox="0 0 256 256"><path d="M51 37.31a4 4 0 0 0-6 5.38l1.31 1.44A12 12 0 0 0 36 56v56c0 51.16 24.73 82.12 45.47 99.1 22.4 18.32 44.55 24.5 45.48 24.76a4 4 0 0 0 2.1 0c1.37-.37 32.56-9.14 58.23-36.71L205 218.69a4 4 0 1 0 5.92-5.38Zm77 190.51a132.2 132.2 0 0 1-41.71-23.11C58.23 181.63 44 150.44 44 112V56a4 4 0 0 1 4-4h5.5l128.38 141.21c-21.65 23.49-48.3 32.85-53.88 34.61M220 56v56c0 20-3.77 38.49-11.2 54.94a4 4 0 0 1-3.65 2.36 4.1 4.1 0 0 1-1.65-.36 4 4 0 0 1-2-5.29c7-15.41 10.49-32.79 10.49-51.65V56a4 4 0 0 0-4-4H98.52a4 4 0 1 1 0-8H208a12 12 0 0 1 12 12"/></svg>