<svg xmlns="http://www.w3.org/2000/svg" fill="currentColor" viewBox="0 0 256 256"><path d="M235.3 74.5 129.1 44.15a4.1 4.1 0 0 0-1.67-.11L22.3 59.06A12.06 12.06 0 0 0 12 70.94v114.12a12.06 12.06 0 0 0 10.3 11.88l105.13 15a3.6 3.6 0 0 0 .57 0 4 4 0 0 0 1.1-.15l106.2-30.29A12 12 0 0 0 244 170V86a12 12 0 0 0-8.7-11.5M96 124H76V59.47l48-6.86v150.78l-48-6.86V132h20a4 4 0 0 0 0-8m-76 61.06V70.94a4 4 0 0 1 3.43-4L68 60.61V124H48a4 4 0 0 0 0 8h20v63.39L23.43 189a4 4 0 0 1-3.43-3.94M236 170a4 4 0 0 1-2.9 3.84L132 202.7V53.3l101.1 28.89A4 4 0 0 1 236 86Z"/></svg>