<svg xmlns="http://www.w3.org/2000/svg" fill="currentColor" viewBox="0 0 256 256"><path d="M161.76 28.41a4 4 0 0 0-4.22.43L86.63 84H40a12 12 0 0 0-12 12v64a12 12 0 0 0 12 12h46.63l70.91 55.16a4.07 4.07 0 0 0 2.46.84 3.9 3.9 0 0 0 1.76-.41A4 4 0 0 0 164 224V32a4 4 0 0 0-2.24-3.59M156 215.82l-65.54-51A4.06 4.06 0 0 0 88 164H40a4 4 0 0 1-4-4V96a4 4 0 0 1 4-4h48a4.06 4.06 0 0 0 2.46-.84l65.54-51Zm94.83-66.65a4 4 0 0 1-5.66 5.66L224 133.66l-21.17 21.17a4 4 0 0 1-5.66-5.66L218.34 128l-21.17-21.17a4 4 0 0 1 5.66-5.66L224 122.34l21.17-21.17a4 4 0 1 1 5.66 5.66L229.66 128Z"/></svg>