<svg xmlns="http://www.w3.org/2000/svg" fill="currentColor" viewBox="0 0 256 256"><path d="M171.17 84.82a76 76 0 1 0-86.35 86.35 76 76 0 1 0 86.35-86.35M228 160a68.6 68.6 0 0 1-1.27 13.07l-57.34-57.34A76 76 0 0 0 172 96c0-1 0-2-.07-2.94A67.79 67.79 0 0 1 228 160m-81.19-7.54 58.33 58.34A68.1 68.1 0 0 1 182 224.33l-57.78-57.78a76.4 76.4 0 0 0 22.59-14.09m5.65-5.65a76.4 76.4 0 0 0 14.09-22.6L224.33 182a68.1 68.1 0 0 1-13.53 23.15ZM28 96a68 68 0 1 1 68 68 68.07 68.07 0 0 1-68-68m65.06 75.93c1 0 2 .07 2.94.07a76 76 0 0 0 19.73-2.61l57.34 57.34A68.6 68.6 0 0 1 160 228a67.79 67.79 0 0 1-66.94-56.07"/></svg>