<svg xmlns="http://www.w3.org/2000/svg" fill="currentColor" viewBox="0 0 256 256"><path d="M220 96v112a4 4 0 0 1-8 0V96a60.07 60.07 0 0 0-60-60h-48a60.07 60.07 0 0 0-60 60v112a4 4 0 0 1-8 0V96a68.07 68.07 0 0 1 68-68h48a68.07 68.07 0 0 1 68 68m-40 0v72a20 20 0 0 1-20 20h-1.53l5.11 10.21a4 4 0 0 1-1.79 5.37 4.1 4.1 0 0 1-1.79.42 4 4 0 0 1-3.58-2.21L149.53 188h-43.06l-6.89 13.79A4 4 0 0 1 96 204a4.1 4.1 0 0 1-1.79-.42 4 4 0 0 1-1.79-5.37L97.53 188H96a20 20 0 0 1-20-20V96a20 20 0 0 1 20-20h64a20 20 0 0 1 20 20m-96 0v52h88V96a12 12 0 0 0-12-12H96a12 12 0 0 0-12 12m32 60v24h24v-24Zm-20 24h12v-24H84v12a12 12 0 0 0 12 12m76-12v-12h-24v24h12a12 12 0 0 0 12-12"/></svg>