<svg xmlns="http://www.w3.org/2000/svg" fill="currentColor" viewBox="0 0 256 256"><path d="m245.68 64.73-51.77-28.24A4 4 0 0 0 192 36h-32a4 4 0 0 0-4 4 28 28 0 0 1-56 0 4 4 0 0 0-4-4H64a4 4 0 0 0-1.9.5L10.32 64.73a11.79 11.79 0 0 0-5 15.89l19.28 36.81a12.37 12.37 0 0 0 11 6.57H60v84a12 12 0 0 0 12 12h112a12 12 0 0 0 12-12v-84h24.33a12.37 12.37 0 0 0 11-6.57l19.28-36.81a11.79 11.79 0 0 0-4.93-15.89M35.67 116a4.46 4.46 0 0 1-4-2.28L12.44 76.91a3.79 3.79 0 0 1 1.71-5.15L60 46.74V116ZM188 208a4 4 0 0 1-4 4H72a4 4 0 0 1-4-4V44h24.22a36 36 0 0 0 71.56 0H188Zm55.56-131.09-19.27 36.81a4.46 4.46 0 0 1-4 2.28H196V46.74l45.85 25a3.79 3.79 0 0 1 1.71 5.17"/></svg>