<svg xmlns="http://www.w3.org/2000/svg" fill="currentColor" viewBox="0 0 256 256"><path d="M236 166.87V134a11.92 11.92 0 0 0-8.55-11.49h-.11L188 111.77V72a4 4 0 0 0-8 0v37.61l-32-8.67V52h12a4 4 0 0 0 0-8H40a4 4 0 0 0 0 8h12v40H40a4 4 0 0 0 0 8h28a72.08 72.08 0 0 1 72 72v12a4 4 0 0 0 4 4h36a32 32 0 1 0 56-21.13M68 92h-8V52h80v85.15A80.1 80.1 0 0 0 68 92m80 88v-70.77l77.19 20.9A4 4 0 0 1 228 134v26.36a31.7 31.7 0 0 0-16-4.36 32.06 32.06 0 0 0-31 24Zm64 32a24 24 0 1 1 24-24 24 24 0 0 1-24 24M68 124a48 48 0 1 0 48 48 48.05 48.05 0 0 0-48-48m0 88a40 40 0 1 1 40-40 40 40 0 0 1-40 40m8-40a8 8 0 1 1-8-8 8 8 0 0 1 8 8"/></svg>