<svg xmlns="http://www.w3.org/2000/svg" fill="currentColor" viewBox="0 0 256 256"><path d="m243.58 214.21-56-112a4 4 0 0 0-7.16 0L157.55 148A92.05 92.05 0 0 1 102 127.36 99.68 99.68 0 0 0 131.91 60H160a4 4 0 0 0 0-8h-60V32a4 4 0 0 0-8 0v20H32a4 4 0 0 0 0 8h91.91A91.8 91.8 0 0 1 96 122.05a92 92 0 0 1-22.77-35.38 4 4 0 1 0-7.54 2.66 99.6 99.6 0 0 0 24.3 38A91.6 91.6 0 0 1 32 148a4 4 0 0 0 0 8 99.54 99.54 0 0 0 64-23.21 100.1 100.1 0 0 0 57.66 23l-29.22 58.43a4 4 0 1 0 7.16 3.58l14.87-29.8h75.06l14.89 29.79A4 4 0 0 0 240 220a4.1 4.1 0 0 0 1.79-.42 4 4 0 0 0 1.79-5.37M150.47 180 184 112.94 217.53 180Z"/></svg>