<svg xmlns="http://www.w3.org/2000/svg" fill="currentColor" viewBox="0 0 256 256"><path d="m251.71 118.52-14-35A12 12 0 0 0 226.58 76H188V64a4 4 0 0 0-4-4H32a12 12 0 0 0-12 12v112a12 12 0 0 0 12 12h20.29a28 28 0 0 0 55.42 0h56.58a28 28 0 0 0 55.42 0H240a12 12 0 0 0 12-12v-64a4 4 0 0 0-.29-1.48M188 84h38.58a4 4 0 0 1 3.72 2.51L242.09 116H188ZM28 72a4 4 0 0 1 4-4h148v72H28Zm52 140a20 20 0 1 1 20-20 20 20 0 0 1-20 20m84.29-24h-56.58a28 28 0 0 0-55.42 0H32a4 4 0 0 1-4-4v-36h152v18.71A28.05 28.05 0 0 0 164.29 188M192 212a20 20 0 1 1 20-20 20 20 0 0 1-20 20m52-28a4 4 0 0 1-4 4h-20.29A28 28 0 0 0 188 164.29V124h56Z"/></svg>