<svg xmlns="http://www.w3.org/2000/svg" fill="currentColor" viewBox="0 0 256 256"><path d="M226.25 66.54 219 62.33a19.78 19.78 0 0 0 0-12.66l7.29-4.21a4 4 0 0 0-4-6.92l-7.31 4.21A20 20 0 0 0 204 36.4V28a4 4 0 0 0-8 0v8.4a20 20 0 0 0-10.94 6.35l-7.31-4.21a4 4 0 1 0-4 6.92l7.25 4.21a19.78 19.78 0 0 0 0 12.66l-7.29 4.21a4 4 0 0 0 2 7.46 3.9 3.9 0 0 0 2-.54l7.31-4.21A20 20 0 0 0 196 75.6V84a4 4 0 0 0 8 0v-8.4a20 20 0 0 0 10.94-6.35l7.31 4.21a3.9 3.9 0 0 0 2 .54 4 4 0 0 0 2-7.46M200 68a12 12 0 1 1 12-12 12 12 0 0 1-12 12m22 40.06a4 4 0 0 0-3.28 4.6A93.6 93.6 0 0 1 220 128a91.7 91.7 0 0 1-26.83 64.87 75.6 75.6 0 0 0-44.51-34 44 44 0 1 0-41.32 0 75.6 75.6 0 0 0-44.51 34A92 92 0 0 1 128 36a93.4 93.4 0 0 1 15.34 1.27 4 4 0 0 0 1.32-7.89 99.89 99.89 0 1 0 82 82 4 4 0 0 0-4.66-3.32M92 120a36 36 0 1 1 36 36 36 36 0 0 1-36-36m-23.13 78.42a68 68 0 0 1 118.27 0 91.81 91.81 0 0 1-118.27 0"/></svg>