<svg xmlns="http://www.w3.org/2000/svg" fill="currentColor" viewBox="0 0 256 256"><path d="M133.17 166.84a64 64 0 1 0-50.34 0c-23.76 5.46-45.18 18.69-61.89 38.59a4 4 0 1 0 6.12 5.14C48 185.7 76.71 172 108 172s60 13.7 80.94 38.57a4 4 0 0 0 6.12-5.14c-16.71-19.9-38.13-33.13-61.89-38.59M52 108a56 56 0 1 1 56 56 56.06 56.06 0 0 1-56-56m151.68-40.83a104.35 104.35 0 0 1 0 81.66 4 4 0 0 1-3.68 2.43 4.1 4.1 0 0 1-1.57-.32 4 4 0 0 1-2.11-5.25 96.32 96.32 0 0 0 0-75.38 4 4 0 0 1 7.36-3.14M244 108a135.2 135.2 0 0 1-11 53.58 4 4 0 0 1-3.68 2.42 3.9 3.9 0 0 1-1.57-.32 4 4 0 0 1-2.1-5.26 128.44 128.44 0 0 0 0-100.84 4 4 0 1 1 7.35-3.16A135.2 135.2 0 0 1 244 108"/></svg>