<svg xmlns="http://www.w3.org/2000/svg" fill="currentColor" viewBox="0 0 256 256"><path d="M172 56a4 4 0 0 1 4-4h20V32a4 4 0 0 1 8 0v20h20a4 4 0 0 1 0 8h-20v20a4 4 0 0 1-8 0V60h-20a4 4 0 0 1-4-4m54.62 55.34a99.89 99.89 0 1 1-82-82 4 4 0 0 1-1.32 7.89A93.4 93.4 0 0 0 128 36a92 92 0 0 0-65.17 156.87 75.6 75.6 0 0 1 44.51-34 44 44 0 1 1 41.32 0 75.6 75.6 0 0 1 44.51 34A91.7 91.7 0 0 0 220 128a93.6 93.6 0 0 0-1.27-15.34 4 4 0 0 1 7.89-1.32M128 156a36 36 0 1 0-36-36 36 36 0 0 0 36 36m0 64a91.6 91.6 0 0 0 59.14-21.58 68 68 0 0 0-118.27 0A91.56 91.56 0 0 0 128 220"/></svg>