<svg xmlns="http://www.w3.org/2000/svg" fill="currentColor" viewBox="0 0 256 256"><path d="m119.75 97.4-24 64a4 4 0 0 1-7.5 0l-24-64a4 4 0 1 1 7.5-2.8l20.25 54 20.25-54a4 4 0 0 1 7.5 2.8M252 128a76.08 76.08 0 0 1-76 76H80a76 76 0 0 1 0-152h96a76.08 76.08 0 0 1 76 76m-8 0a68.07 68.07 0 0 0-68-68H80a68 68 0 0 0 0 136h96a68.07 68.07 0 0 0 68-68m-68.5 9.06 12 21a4 4 0 0 1-1.49 5.45 3.9 3.9 0 0 1-2 .53 4 4 0 0 1-3.47-2l-12.75-22.34a25 25 0 0 1-3.79.3h-16v20a4 4 0 0 1-8 0V96a4 4 0 0 1 4-4h20a24 24 0 0 1 11.5 45.06M180 116a16 16 0 0 0-16-16h-16v32h16a16 16 0 0 0 16-16"/></svg>