<svg xmlns="http://www.w3.org/2000/svg" fill="currentColor" viewBox="0 0 256 256"><path d="M132 108a24 24 0 1 0-24 24 24 24 0 0 0 24-24m-24 16a16 16 0 1 1 16-16 16 16 0 0 1-16 16m80 4a12 12 0 1 1-12-12 12 12 0 0 1 12 12m-48 48a12 12 0 1 1-12-12 12 12 0 0 1 12 12m100-52h-20.09a91.64 91.64 0 0 0-24.12-58.13l15-15a4 4 0 1 0-5.66-5.66l-15 15A91.64 91.64 0 0 0 132 36.09V16a4 4 0 0 0-8 0v20.09a91.64 91.64 0 0 0-58.13 24.12l-15-15a4 4 0 0 0-5.66 5.66l15 15A91.64 91.64 0 0 0 36.09 124H16a4 4 0 0 0 0 8h20.09a91.64 91.64 0 0 0 24.12 58.13l-15 15a4 4 0 0 0 5.66 5.66l15-15A91.64 91.64 0 0 0 124 219.91V240a4 4 0 0 0 8 0v-20.09a91.64 91.64 0 0 0 58.13-24.12l15 15a4 4 0 0 0 5.66-5.66l-15-15A91.64 91.64 0 0 0 219.91 132H240a4 4 0 0 0 0-8m-112 88a84 84 0 1 1 84-84 84.09 84.09 0 0 1-84 84"/></svg>