<svg xmlns="http://www.w3.org/2000/svg" fill="currentColor" viewBox="0 0 256 256"><path d="M176 76a28 28 0 1 0-28-28 28 28 0 0 0 28 28m0-48a20 20 0 1 1-20 20 20 20 0 0 1 20-20m-12 140a60 60 0 1 1-60-60 4 4 0 0 1 0 8 52 52 0 1 0 52 52 4 4 0 0 1 8 0m39.09-34.54a4 4 0 0 1 .83 3.32l-16 80A4 4 0 0 1 184 220a3.4 3.4 0 0 1-.78-.08 4 4 0 0 1-3.14-4.7l15-75.22H128a4 4 0 0 1-3.47-6l22.08-38.42a84.05 84.05 0 0 0-96.06 7.61 4 4 0 0 1-5.1-6.19 92 92 0 0 1 108.73-6.15 4 4 0 0 1 1.29 5.34L134.91 132H200a4 4 0 0 1 3.09 1.46"/></svg>