<svg xmlns="http://www.w3.org/2000/svg" fill="currentColor" viewBox="0 0 256 256"><path d="M230 104a54.06 54.06 0 0 0-54-54h-42v-2a26 26 0 0 1 26-26 6 6 0 0 0 0-12 38 38 0 0 0-38 38v2H80a54.06 54.06 0 0 0-54 54 14 14 0 0 0 8 12.63V128c0 34.57 32.71 60.83 59 81.93 14.26 11.45 29 23.29 29 30.07a6 6 0 0 0 12 0c0-6.78 14.75-18.62 29-30.07 26.28-21.1 59-47.36 59-81.93v-11.37a14 14 0 0 0 8-12.63M80 62h96a42 42 0 0 1 42 42 2 2 0 0 1-2 2H40a2 2 0 0 1-2-2 42 42 0 0 1 42-42m75.5 138.58c-11.48 9.21-21.48 17.24-27.5 25-6-7.72-16-15.75-27.5-25C76.22 181.08 46 156.82 46 128v-10h164v10c0 28.82-30.22 53.08-54.5 72.58"/></svg>