<svg xmlns="http://www.w3.org/2000/svg" fill="currentColor" viewBox="0 0 256 256"><path d="M54 136a6 6 0 0 1-6 6H24a6 6 0 0 1 0-12h10V62H24a6 6 0 0 1 0-12h16a6 6 0 0 1 5.09 2.8L80 108.68l34.91-55.86A6 6 0 0 1 120 50h16a6 6 0 0 1 0 12h-10v68h10a6 6 0 0 1 0 12h-24a6 6 0 0 1 0-12h2V76.92l-28.91 46.26a6 6 0 0 1-10.18 0L46 76.92V130h2a6 6 0 0 1 6 6m114-26h64a6 6 0 0 0 0-12h-64a6 6 0 0 0 0 12m64 20h-64a6 6 0 0 0 0 12h64a6 6 0 0 0 0-12m0 32H80a6 6 0 0 0 0 12h152a6 6 0 0 0 0-12m0 32H80a6 6 0 0 0 0 12h152a6 6 0 0 0 0-12"/></svg>