<svg xmlns="http://www.w3.org/2000/svg" fill="currentColor" viewBox="0 0 256 256"><path d="M134 120v56a6 6 0 0 1-12 0v-56a6 6 0 0 1 12 0m40.83-.6-5.6 56a6 6 0 0 0 5.37 6.6h.61a6 6 0 0 0 6-5.4l5.6-56a6 6 0 0 0-11.94-1.2Zm-93.66 0a6 6 0 0 0-11.94 1.2l5.6 56a6 6 0 0 0 6 5.4h.61a6 6 0 0 0 5.37-6.57ZM238 88.79l-15.13 113.06A14 14 0 0 1 209 214H47a14 14 0 0 1-13.87-12.15L18.05 88.79A6 6 0 0 1 24 82h45.28l54.2-61.95a6 6 0 0 1 9 0l54.2 62H232a6 6 0 0 1 6 6.74M85.22 82h85.56L128 33.11Zm139.93 12H30.85L45 200.26a2 2 0 0 0 2 1.74h162a2 2 0 0 0 2-1.74Z"/></svg>