<svg xmlns="http://www.w3.org/2000/svg" fill="currentColor" viewBox="0 0 256 256"><path d="m244.24 43.76-32-32a6 6 0 0 0-8.48 8.48l3.11 3.11-57.38 43-38.67 7.74a5.9 5.9 0 0 0-3.06 1.64l-83.32 83.34a22 22 0 0 0 0 31.11l41.38 41.38a22 22 0 0 0 31.11 0l83.31-83.32a5.9 5.9 0 0 0 1.64-3.06l7.74-38.67 43-57.38 3.11 3.11a6 6 0 0 0 8.48-8.48ZM88.44 223.07a10 10 0 0 1-14.14 0L32.93 181.7a10 10 0 0 1 0-14.14l7.07-7.07L95.51 216ZM104 207.51 48.49 152 96 104.49 151.51 160Zm75.2-107.11a5.9 5.9 0 0 0-1.08 2.42L170.47 141 160 151.51 104.49 96 115 85.53l38.22-7.65a5.9 5.9 0 0 0 2.42-1.08l59.84-44.88 8.64 8.64Z"/></svg>