<svg xmlns="http://www.w3.org/2000/svg" fill="currentColor" viewBox="0 0 256 256"><path d="m220.43 112.48-14.43-4.8V56a14 14 0 0 0-14-14h-58V24a6 6 0 0 0-12 0v18H64a14 14 0 0 0-14 14v51.68l-14.43 4.8A14 14 0 0 0 26 125.77V152c0 60 96.44 84.79 100.54 85.82a6 6 0 0 0 2.92 0 235.4 235.4 0 0 0 49.4-19.54C212.32 200.15 230 177.24 230 152v-26.23a14 14 0 0 0-9.57-13.29M62 56a2 2 0 0 1 2-2h128a2 2 0 0 1 2 2v47.68l-64.1-21.37a6 6 0 0 0-3.8 0L62 103.68Zm156 96c0 47.1-78.28 70.54-90 73.79-11.73-3.25-90-26.69-90-73.79v-26.23a2 2 0 0 1 1.37-1.9L122 96.32V168a6 6 0 0 0 12 0V96.32l82.63 27.55a2 2 0 0 1 1.37 1.9Z"/></svg>