<svg xmlns="http://www.w3.org/2000/svg" fill="currentColor" viewBox="0 0 256 256"><path d="M248 34a6 6 0 0 0-6 6 54.1 54.1 0 0 1-3.57 17.77C234.06 68.69 226.72 74 216 74c-12.91 0-21.76-12.38-31.12-25.49C174.67 34.21 163.09 18 144 18c-15.74 0-27.35 8.22-33.57 23.77a65.4 65.4 0 0 0-4 16.23H88a14 14 0 0 0-14 14v10.83A86 86 0 0 0 112 246h1.55A86 86 0 0 0 150 82.83V72a14 14 0 0 0-14-14h-17.47a51.4 51.4 0 0 1 3.15-12c4.38-10.74 11.69-16 22.32-16 12.91 0 21.75 12.38 31.12 25.49C185.33 69.79 196.91 86 216 86c15.74 0 27.35-8.22 33.57-23.77A66.5 66.5 0 0 0 254 40a6 6 0 0 0-6-6M138 72v14.66a6 6 0 0 0 3.6 5.49 74 74 0 1 1-59.2 0 6 6 0 0 0 3.6-5.49V72a2 2 0 0 1 2-2h48a2 2 0 0 1 2 2m-33 130.08a6 6 0 0 1-1 11.92 7 7 0 0 1-1-.08A55.48 55.48 0 0 1 58.08 169a6 6 0 1 1 11.84-2A43.29 43.29 0 0 0 105 202.08"/></svg>