<svg xmlns="http://www.w3.org/2000/svg" fill="currentColor" viewBox="0 0 256 256"><path d="M230 112a22 22 0 0 0-22-22h-74V77.4A30.05 30.05 0 0 0 158 48c0-26.9-25.58-44.27-26.67-45a6 6 0 0 0-6.66 0C123.58 3.73 98 21.1 98 48a30.05 30.05 0 0 0 24 29.4V90H48a22 22 0 0 0-22 22v23.33a38.8 38.8 0 0 0 8 23.57V200a22 22 0 0 0 22 22h144a22 22 0 0 0 22-22v-41.1a38.8 38.8 0 0 0 8-23.57ZM110 48c0-15.4 12-27.41 18-32.44 6 5 18 17 18 32.44a18 18 0 0 1-36 0m-72 64a10 10 0 0 1 10-10h160a10 10 0 0 1 10 10v23.33c0 14.32-11.33 26.28-25.26 26.66A26 26 0 0 1 166 136a6 6 0 0 0-12 0 26 26 0 0 1-52 0 6 6 0 0 0-12 0 26 26 0 0 1-26.74 26C49.33 161.61 38 149.65 38 135.33Zm162 98H56a10 10 0 0 1-10-10v-30.69A36.8 36.8 0 0 0 62.94 174a37.82 37.82 0 0 0 27.56-10.76 38.8 38.8 0 0 0 5.5-6.74 38 38 0 0 0 64 0 38.8 38.8 0 0 0 5.52 6.74A37.73 37.73 0 0 0 192 174h1.07a36.8 36.8 0 0 0 16.93-4.69V200a10 10 0 0 1-10 10"/></svg>