<svg xmlns="http://www.w3.org/2000/svg" fill="currentColor" viewBox="0 0 256 256"><path d="M208 34h-26V24a6 6 0 0 0-12 0v10H86V24a6 6 0 0 0-12 0v10H48a14 14 0 0 0-14 14v160a14 14 0 0 0 14 14h160a14 14 0 0 0 14-14V48a14 14 0 0 0-14-14M48 46h26v10a6 6 0 0 0 12 0V46h84v10a6 6 0 0 0 12 0V46h26a2 2 0 0 1 2 2v34H46V48a2 2 0 0 1 2-2m160 164H48a2 2 0 0 1-2-2V94h164v114a2 2 0 0 1-2 2m-70-78a10 10 0 1 1-10-10 10 10 0 0 1 10 10m44 0a10 10 0 1 1-10-10 10 10 0 0 1 10 10m-88 40a10 10 0 1 1-10-10 10 10 0 0 1 10 10m44 0a10 10 0 1 1-10-10 10 10 0 0 1 10 10m44 0a10 10 0 1 1-10-10 10 10 0 0 1 10 10"/></svg>