<svg xmlns="http://www.w3.org/2000/svg" fill="currentColor" viewBox="0 0 256 256"><path d="M208 34h-26V24a6 6 0 0 0-12 0v10H86V24a6 6 0 0 0-12 0v10H48a14 14 0 0 0-14 14v160a14 14 0 0 0 14 14h160a14 14 0 0 0 14-14V48a14 14 0 0 0-14-14M48 46h26v10a6 6 0 0 0 12 0V46h84v10a6 6 0 0 0 12 0V46h26a2 2 0 0 1 2 2v34H46V48a2 2 0 0 1 2-2m160 164H48a2 2 0 0 1-2-2V94h164v114a2 2 0 0 1-2 2m-98-90v64a6 6 0 0 1-12 0v-54.29l-7.32 3.66a6 6 0 1 1-5.36-10.74l16-8A6 6 0 0 1 110 120m59.57 29.25L148 178h20a6 6 0 0 1 0 12h-32a6 6 0 0 1-4.8-9.6L160 142a10 10 0 1 0-16.65-11 6 6 0 1 1-10.35-6 22 22 0 1 1 36.62 24.26Z"/></svg>