<svg xmlns="http://www.w3.org/2000/svg" fill="currentColor" viewBox="0 0 256 256"><path d="M240 106h-12.1l-28.31-63.69A14 14 0 0 0 186.8 34H69.2a14 14 0 0 0-12.79 8.31L28.1 106H16a6 6 0 0 0 0 12h10v82a14 14 0 0 0 14 14h24a14 14 0 0 0 14-14v-18h100v18a14 14 0 0 0 14 14h24a14 14 0 0 0 14-14v-82h10a6 6 0 0 0 0-12M67.37 47.19A2 2 0 0 1 69.2 46h117.6a2 2 0 0 1 1.83 1.19L214.77 106H41.23ZM66 200a2 2 0 0 1-2 2H40a2 2 0 0 1-2-2v-18h28Zm150 2h-24a2 2 0 0 1-2-2v-18h28v18a2 2 0 0 1-2 2m2-32H38v-52h180ZM58 144a6 6 0 0 1 6-6h16a6 6 0 0 1 0 12H64a6 6 0 0 1-6-6m112 0a6 6 0 0 1 6-6h16a6 6 0 0 1 0 12h-16a6 6 0 0 1-6-6"/></svg>