<svg xmlns="http://www.w3.org/2000/svg" fill="currentColor" viewBox="0 0 256 256"><path d="M224 50H32a14 14 0 0 0-14 14v128a14 14 0 0 0 14 14h192a14 14 0 0 0 14-14V64a14 14 0 0 0-14-14M76 194l15-20h74l15 20Zm150-2a2 2 0 0 1-2 2h-29l-22.2-29.6a6 6 0 0 0-4.8-2.4H88a6 6 0 0 0-4.8 2.4L61 194H32a2 2 0 0 1-2-2V64a2 2 0 0 1 2-2h192a2 2 0 0 1 2 2ZM176 82H80a30 30 0 0 0 0 60h96a30 30 0 0 0 0-60m-24 12a29.92 29.92 0 0 0 0 36h-48a29.92 29.92 0 0 0 0-36Zm-90 18a18 18 0 1 1 18 18 18 18 0 0 1-18-18m114 18a18 18 0 1 1 18-18 18 18 0 0 1-18 18"/></svg>