<svg xmlns="http://www.w3.org/2000/svg" fill="currentColor" viewBox="0 0 256 256"><path d="M138 120a10 10 0 1 1-10-10 10 10 0 0 1 10 10m-54-10a10 10 0 1 0 10 10 10 10 0 0 0-10-10m88 0a10 10 0 1 0 10 10 10 10 0 0 0-10-10m58-54v128a14 14 0 0 1-14 14h-61.59l-14.25 25a14 14 0 0 1-24.32 0l-14.25-25H40a14 14 0 0 1-14-14V56a14 14 0 0 1 14-14h176a14 14 0 0 1 14 14m-12 0a2 2 0 0 0-2-2H40a2 2 0 0 0-2 2v128a2 2 0 0 0 2 2h65.07a6 6 0 0 1 5.21 3l16 28a2 2 0 0 0 3.48 0l16-28a6 6 0 0 1 5.21-3H216a2 2 0 0 0 2-2Z"/></svg>