<svg xmlns="http://www.w3.org/2000/svg" fill="currentColor" viewBox="0 0 256 256"><path d="M138 128a10 10 0 1 1-10-10 10 10 0 0 1 10 10m-54-10a10 10 0 1 0 10 10 10 10 0 0 0-10-10m88 0a10 10 0 1 0 10 10 10 10 0 0 0-10-10m58-54v128a14 14 0 0 1-14 14H82.23l-33.16 28.64-.06.05A13.87 13.87 0 0 1 40 238a14.1 14.1 0 0 1-5.95-1.33A13.88 13.88 0 0 1 26 224V64a14 14 0 0 1 14-14h176a14 14 0 0 1 14 14m-12 0a2 2 0 0 0-2-2H40a2 2 0 0 0-2 2v160a2 2 0 0 0 3.26 1.55l34.82-30.08A6 6 0 0 1 80 194h136a2 2 0 0 0 2-2Z"/></svg>