<svg xmlns="http://www.w3.org/2000/svg" fill="currentColor" viewBox="0 0 256 256"><path d="M184 34a6 6 0 0 0-1.72.25l-160 48A6 6 0 0 0 18 88v24a6 6 0 0 0 6 6h8a18.09 18.09 0 0 1 18 17.65 17.6 17.6 0 0 1-5.15 12.7A18.9 18.9 0 0 1 31.46 154H24a6 6 0 0 0-6 6v32a6 6 0 0 0 6 6h200a14 14 0 0 0 14-14V88a54.06 54.06 0 0 0-54-54m.85 12a42.07 42.07 0 0 1 40.72 36H64.88Zm9.15 58a26 26 0 1 1-50-10h48a25.9 25.9 0 0 1 2 10m-56 82H86v-2a26 26 0 0 1 52 0Zm88-2a2 2 0 0 1-2 2h-74v-2a38 38 0 0 0-76 0v2H30v-20h1.46a31 31 0 0 0 22-9.25A29.45 29.45 0 0 0 62 135.42 30.14 30.14 0 0 0 32 106h-2V94h101.34a38 38 0 1 0 73.32 0H226Z"/></svg>