<svg xmlns="http://www.w3.org/2000/svg" fill="currentColor" viewBox="0 0 256 256"><path d="M238 112a54.06 54.06 0 0 0-54-54 55 55 0 0 0-6.52.4 54 54 0 0 0-99 0A55 55 0 0 0 72 58a54 54 0 0 0-22 103.3V208a14 14 0 0 0 14 14h128a14 14 0 0 0 14-14v-46.7a54.07 54.07 0 0 0 32-49.3m-44 96a2 2 0 0 1-2 2H64a2 2 0 0 1-2-2v-42.94a54 54 0 0 0 10 .94h112a54 54 0 0 0 10-.94Zm-10-54h-16.31l6.13-24.54a6 6 0 1 0-11.64-2.92L155.31 154H134v-26a6 6 0 0 0-12 0v26h-21.31l-6.87-27.46a6 6 0 0 0-11.64 2.92L88.31 154H72a42 42 0 0 1 0-84c1 0 2 0 2.92.11A54.6 54.6 0 0 0 74 80a6 6 0 0 0 12 0 42 42 0 0 1 84 0 6 6 0 0 0 12 0 54.6 54.6 0 0 0-.92-9.89c1-.06 1.94-.11 2.92-.11a42 42 0 0 1 0 84"/></svg>