<svg xmlns="http://www.w3.org/2000/svg" fill="currentColor" viewBox="0 0 256 256"><path d="M224 130H32a14 14 0 0 0-14 14v32a14 14 0 0 0 14 14h192a14 14 0 0 0 14-14v-32a14 14 0 0 0-14-14M30 176v-32a2 2 0 0 1 2-2h50v36H32a2 2 0 0 1-2-2m196 0a2 2 0 0 1-2 2H94v-36h130a2 2 0 0 1 2 2ZM202.77 61.06c7.81-13.88 7.91-21.91 6.62-26.2a9 9 0 0 0-3.93-5.42A6 6 0 0 1 208 18a5.9 5.9 0 0 1 2.44.52 20.42 20.42 0 0 1 10.23 12.24c3.18 9.58.68 21.75-7.44 36.18-7.81 13.88-7.91 21.91-6.62 26.2a8.94 8.94 0 0 0 3.88 5.4A6 6 0 0 1 208 110a5.9 5.9 0 0 1-2.44-.52 20.42 20.42 0 0 1-10.23-12.24c-3.18-9.58-.68-21.75 7.44-36.18m-40 0c7.81-13.88 7.91-21.91 6.62-26.2a9 9 0 0 0-3.93-5.42A6 6 0 0 1 168 18a5.9 5.9 0 0 1 2.44.52 20.42 20.42 0 0 1 10.23 12.24c3.18 9.58.68 21.75-7.44 36.18-7.81 13.88-7.91 21.91-6.62 26.2a8.94 8.94 0 0 0 3.88 5.4A6 6 0 0 1 168 110a5.9 5.9 0 0 1-2.44-.52 20.42 20.42 0 0 1-10.23-12.24c-3.18-9.58-.68-21.75 7.44-36.18"/></svg>