<svg xmlns="http://www.w3.org/2000/svg" fill="currentColor" viewBox="0 0 256 256"><path d="M52.44 36a6 6 0 0 0-8.88 8l78.15 86H32a14 14 0 0 0-14 14v32a14 14 0 0 0 14 14h144.25l27.31 30a6 6 0 0 0 8.88-8.08ZM30 176v-32a2 2 0 0 1 2-2h50v36H32a2 2 0 0 1-2-2m64 2v-36h38.62l32.73 36Zm144-34v32a14 14 0 0 1-14 14h-1.84a6 6 0 1 1 0-12H224a2 2 0 0 0 2-2v-32a2 2 0 0 0-2-2h-45.48a6 6 0 1 1 0-12H224a14 14 0 0 1 14 14m-35.23-82.94c7.81-13.88 7.91-21.91 6.62-26.2a9 9 0 0 0-3.93-5.42A6 6 0 0 1 208 18a5.9 5.9 0 0 1 2.44.52 20.42 20.42 0 0 1 10.23 12.24c3.18 9.58.68 21.75-7.44 36.18-7.81 13.88-7.91 21.91-6.62 26.2a8.94 8.94 0 0 0 3.88 5.4A6 6 0 0 1 208 110a5.9 5.9 0 0 1-2.44-.52 20.42 20.42 0 0 1-10.23-12.24c-3.18-9.58-.68-21.75 7.44-36.18m-40 0c7.81-13.88 7.91-21.91 6.62-26.2a9 9 0 0 0-3.93-5.42A6 6 0 0 1 168 18a5.9 5.9 0 0 1 2.44.52 20.42 20.42 0 0 1 10.23 12.24c3.18 9.58.68 21.75-7.44 36.18-7.81 13.88-7.91 21.91-6.62 26.2a8.94 8.94 0 0 0 3.88 5.4A6 6 0 0 1 168 110a5.9 5.9 0 0 1-2.44-.52 20.42 20.42 0 0 1-10.23-12.24c-3.18-9.58-.68-21.75 7.44-36.18"/></svg>