<svg xmlns="http://www.w3.org/2000/svg" fill="currentColor" viewBox="0 0 256 256"><path d="M208 34H48a14 14 0 0 0-14 14v160a14 14 0 0 0 14 14h160a14 14 0 0 0 14-14V48a14 14 0 0 0-14-14M88 158a10 10 0 1 1-10 10 10 10 0 0 1 10-10m-42 50V48a2 2 0 0 1 2-2h34v100.84a22 22 0 1 0 12 0v-36.35l52 52V210H48a2 2 0 0 1-2-2m164 0a2 2 0 0 1-2 2h-50v-50a6 6 0 0 0-1.76-4.24L94 93.51V46h36v26a6 6 0 0 0 1.76 4.24l17 17a22 22 0 1 0 8.48-8.48L142 69.51V46h66a2 2 0 0 1 2 2ZM168 94a10 10 0 1 1-10 10 10 10 0 0 1 10-10"/></svg>