<svg xmlns="http://www.w3.org/2000/svg" fill="currentColor" viewBox="0 0 256 256"><path d="M166 152a6 6 0 0 1-6 6H96a6 6 0 0 1 0-12h64a6 6 0 0 1 6 6m-6-38H96a6 6 0 0 0 0 12h64a6 6 0 0 0 0-12m54-66v168a14 14 0 0 1-14 14H56a14 14 0 0 1-14-14V48a14 14 0 0 1 14-14h37.17a45.91 45.91 0 0 1 69.66 0H200a14 14 0 0 1 14 14M94 64v2h68v-2a34 34 0 0 0-68 0m108-16a2 2 0 0 0-2-2h-29.67A45.8 45.8 0 0 1 174 64v8a6 6 0 0 1-6 6H88a6 6 0 0 1-6-6v-8a45.8 45.8 0 0 1 3.67-18H56a2 2 0 0 0-2 2v168a2 2 0 0 0 2 2h144a2 2 0 0 0 2-2Z"/></svg>