<svg xmlns="http://www.w3.org/2000/svg" fill="currentColor" viewBox="0 0 256 256"><path d="M210.34 45.66C194 29.35 170 22.87 142.79 27.42 116.28 31.83 89.71 46.24 68 68s-36.14 48.3-40.56 74.81C22.87 170 29.35 194 45.66 210.34 58.57 223.25 76.29 230 96.64 230a101.6 101.6 0 0 0 16.57-1.41c26.51-4.42 53.08-18.83 74.82-40.56s36.14-48.31 40.56-74.82C233.13 86 226.65 62 210.34 45.66M76.46 76.46C101.52 51.4 132.46 38 159.18 38c12.58 0 24.22 3 33.87 9.12a108 108 0 0 0-34.71 18c-18.82 14.86-31 35.62-36.22 61.71C112 177.35 75.18 194 52 199.5c-25.7-29.08-15.17-83.41 24.46-123.04m103.08 103.08C142.68 216.4 93.1 228.1 63 208.91a108 108 0 0 0 34.71-18c18.82-14.86 31-35.62 36.22-61.71C144 78.65 180.82 62 204.05 56.5c25.65 29.09 15.12 83.41-24.51 123.04"/></svg>