<svg xmlns="http://www.w3.org/2000/svg" fill="currentColor" viewBox="0 0 256 256"><path d="M82 56V24a6 6 0 0 1 12 0v32a6 6 0 0 1-12 0m38 6a6 6 0 0 0 6-6V24a6 6 0 0 0-12 0v32a6 6 0 0 0 6 6m32 0a6 6 0 0 0 6-6V24a6 6 0 0 0-12 0v32a6 6 0 0 0 6 6m94 58v8a38 38 0 0 1-36.94 38 94.55 94.55 0 0 1-31.13 44H208a6 6 0 0 1 0 12H32a6 6 0 0 1 0-12h30.07A94.34 94.34 0 0 1 26 136V88a6 6 0 0 1 6-6h176a38 38 0 0 1 38 38m-44 16V94H38v42a82.27 82.27 0 0 0 46.67 74h70.66A82.27 82.27 0 0 0 202 136m32-16a26 26 0 0 0-20-25.29V136a93 93 0 0 1-1.69 17.64A26 26 0 0 0 234 128Z"/></svg>