<svg xmlns="http://www.w3.org/2000/svg" fill="currentColor" viewBox="0 0 256 256"><path d="M196.78 57.09C185.08 37 169.18 26 152 26h-48c-17.18 0-33.08 11-44.78 31.09C48.12 76.13 42 101.31 42 128s6.12 51.87 17.22 70.91C70.92 219 86.82 230 104 230h48c17.18 0 33.08-11 44.78-31.09 11.1-19 17.22-44.22 17.22-70.91s-6.12-51.87-17.22-70.91m5.1 64.91h-36c-.65-18.84-4.37-36.73-10.74-52H190c7.06 14.74 11.16 32.77 11.88 52M152 38c11.31 0 22.22 7.06 31.14 20h-33.86l-.5-.91A76.8 76.8 0 0 0 133.49 38ZM69.58 192.86C59.54 175.63 54 152.6 54 128s5.54-47.63 15.58-64.86C79 46.93 91.26 38 104 38s25 8.93 34.42 25.14C148.46 80.37 154 103.4 154 128s-5.54 47.63-15.58 64.86C129 209.07 116.74 218 104 218s-25-8.93-34.42-25.14M152 218h-18.51a76.8 76.8 0 0 0 15.29-19.09l.5-.91h33.86c-8.92 12.94-19.83 20-31.14 20m38-32h-34.86c6.37-15.27 10.09-33.16 10.74-52h36c-.72 19.23-4.82 37.26-11.88 52"/></svg>