<svg xmlns="http://www.w3.org/2000/svg" fill="currentColor" viewBox="0 0 256 256"><path d="M102 192a6 6 0 0 1-6 6H80a6 6 0 0 1 0-12h16a6 6 0 0 1 6 6m74-6h-16a6 6 0 0 0 0 12h16a6 6 0 0 0 0-12m-76-72a10 10 0 1 0 10 10 10 10 0 0 0-10-10m56 0a10 10 0 1 0 10 10 10 10 0 0 0-10-10m86.85 6.85A14 14 0 0 1 232 126h-34v35.05A38 38 0 0 1 176 230H80a38 38 0 0 1-22-68.95V126H24a14 14 0 0 1-10.87-5.15 13.82 13.82 0 0 1-2.88-11.5A54.12 54.12 0 0 1 63.22 66h6.89A53.93 53.93 0 0 1 50 24a6 6 0 0 1 12 0 42 42 0 0 0 42 42h48a42 42 0 0 0 42-42 6 6 0 0 1 12 0 53.93 53.93 0 0 1-20.11 42h6.89a54.12 54.12 0 0 1 52.95 43.35 13.82 13.82 0 0 1-2.88 11.5M58 114v-10a37.87 37.87 0 0 1 10.32-26h-5.1A42.08 42.08 0 0 0 22 111.7a1.83 1.83 0 0 0 .4 1.55 2 2 0 0 0 1.6.75Zm144 78a26 26 0 0 0-26-26H80a26 26 0 0 0 0 52h96a26 26 0 0 0 26-26m-16-36.66V104a26 26 0 0 0-26-26H96a26 26 0 0 0-26 26v51.34A38 38 0 0 1 80 154h96a38 38 0 0 1 10 1.34m48-43.64A42.08 42.08 0 0 0 192.78 78h-5.1A37.87 37.87 0 0 1 198 104v10h34a2 2 0 0 0 1.58-.75 1.83 1.83 0 0 0 .42-1.55"/></svg>