<svg xmlns="http://www.w3.org/2000/svg" fill="currentColor" viewBox="0 0 256 256"><path d="M152 98h-48a6 6 0 0 0-6 6v48a6 6 0 0 0 6 6h48a6 6 0 0 0 6-6v-48a6 6 0 0 0-6-6m-6 48h-36v-36h36Zm86 0h-18v-36h18a6 6 0 0 0 0-12h-18V56a14 14 0 0 0-14-14h-42V24a6 6 0 0 0-12 0v18h-36V24a6 6 0 0 0-12 0v18H56a14 14 0 0 0-14 14v42H24a6 6 0 0 0 0 12h18v36H24a6 6 0 0 0 0 12h18v42a14 14 0 0 0 14 14h42v18a6 6 0 0 0 12 0v-18h36v18a6 6 0 0 0 12 0v-18h42a14 14 0 0 0 14-14v-42h18a6 6 0 0 0 0-12m-30 54a2 2 0 0 1-2 2H56a2 2 0 0 1-2-2V56a2 2 0 0 1 2-2h144a2 2 0 0 1 2 2Z"/></svg>