<svg xmlns="http://www.w3.org/2000/svg" fill="currentColor" viewBox="0 0 256 256"><path d="M128 26a102 102 0 1 0 102 102A102.12 102.12 0 0 0 128 26m89.81 96.3c-3.26-.19-6.54-.3-9.8-.3a166.4 166.4 0 0 0-45.25 6.29A164.3 164.3 0 0 0 148.33 96c-.14-.25-.3-.49-.44-.74a166.3 166.3 0 0 0 40.79-33.71 89.8 89.8 0 0 1 29.13 60.75m-38.52-68.21a154.5 154.5 0 0 1-37.9 31.11 167 167 0 0 0-42.51-42.36 89.87 89.87 0 0 1 80.41 11.25m-93.58-5.51a155 155 0 0 1 45 42.27A153.7 153.7 0 0 1 64 106a157 157 0 0 1-22.84-1.69 90.37 90.37 0 0 1 44.55-55.73M38 128a90 90 0 0 1 .79-11.92A167 167 0 0 0 64 118a165.7 165.7 0 0 0 73.29-17c.22.37.46.73.67 1.1a152.2 152.2 0 0 1 13.38 29.9 164.6 164.6 0 0 0-26.09 12.11 167 167 0 0 0-55.68 52.29A89.84 89.84 0 0 1 38 128m41.19 75.58a155.24 155.24 0 0 1 52.05-49.12 153 153 0 0 1 23.38-10.93 154.3 154.3 0 0 1 4.3 36.16 154.8 154.8 0 0 1-3.81 34.13 89.88 89.88 0 0 1-75.92-10.24m89.24 4.81a167 167 0 0 0 2.49-28.7 166.7 166.7 0 0 0-4.86-39.87A154.6 154.6 0 0 1 208 134c3.25 0 6.52.11 9.77.32a90.16 90.16 0 0 1-49.34 74.07"/></svg>