<svg xmlns="http://www.w3.org/2000/svg" fill="currentColor" viewBox="0 0 256 256"><path d="M172.53 49.06a251.4 251.4 0 0 0-41.09-38 6 6 0 0 0-6.88 0 251.4 251.4 0 0 0-41.09 38C56.34 80.26 42 113.09 42 144a86 86 0 0 0 172 0c0-30.91-14.34-63.74-41.47-94.94M188.88 186H67.12a74 74 0 0 1-9.78-20h141.32a74 74 0 0 1-9.78 20M54.69 154a75 75 0 0 1-.69-10 92 92 0 0 1 .56-10h146.88a92 92 0 0 1 .56 10 75 75 0 0 1-.69 10ZM128 23.49c13.13 10.12 59.83 49.06 71.39 98.51H56.61C68.17 72.55 114.87 33.61 128 23.49M77.48 198h101a73.81 73.81 0 0 1-101 0"/></svg>