<svg xmlns="http://www.w3.org/2000/svg" fill="currentColor" viewBox="0 0 256 256"><path d="M172.53 49.06a251.4 251.4 0 0 0-41.09-38 6 6 0 0 0-6.88 0 251.4 251.4 0 0 0-41.09 38C56.34 80.26 42 113.09 42 144a86 86 0 0 0 172 0c0-30.91-14.34-63.74-41.47-94.94M202 144a75 75 0 0 1-.69 10H134v-20h67.44a92 92 0 0 1 .56 10m-15.2-54H134V70h39.89a176 176 0 0 1 12.91 20M134 198h44.52A73.76 73.76 0 0 1 134 217.74Zm0-12v-20h64.66a74 74 0 0 1-9.78 20Zm0-64v-20h58.7a117.4 117.4 0 0 1 6.69 20Zm30.29-64H134V28.3A257 257 0 0 1 164.29 58M54 144c0-53.42 47.35-98.56 68-115.7v189.44A74.09 74.09 0 0 1 54 144"/></svg>