<svg xmlns="http://www.w3.org/2000/svg" fill="currentColor" viewBox="0 0 256 256"><path d="M52.44 36a6 6 0 0 0-8.88 8l12.16 13.41A85.34 85.34 0 0 0 42 104c0 32.64 12.12 44.33 21.85 53.71C71.76 165.34 78 171.36 78 188a50.06 50.06 0 0 0 50 50c14.34 0 26.66-6.12 36.63-18.18a6 6 0 0 0-9.26-7.64C147.69 221.48 138.74 226 128 226a38 38 0 0 1-38-38c0-21.74-9.06-30.48-17.82-38.92C62.83 140.06 54 131.55 54 104a73.4 73.4 0 0 1 10.12-37.35l20.37 22.41A46 46 0 0 0 82 104a6 6 0 0 0 12 0 36 36 0 0 1 .26-4.19l45.15 49.66A39.3 39.3 0 0 0 138 160a22 22 0 0 0 29.71 20.6l35.85 39.4a6 6 0 0 0 8.88-8.08Zm97.64 125.25 7.78 8.55a10 10 0 0 1-7.78-8.59ZM81.83 38.38a6 6 0 0 1 2.07-8.22A86 86 0 0 1 214 104a6 6 0 0 1-12 0A74 74 0 0 0 90.06 40.45a6 6 0 0 1-8.23-2.07m76.83 78.87A27.9 27.9 0 0 0 162 104a34 34 0 0 0-45-32.17 6 6 0 0 1-3.89-11.35A46 46 0 0 1 174 104a40 40 0 0 1-4.68 18.76 6 6 0 1 1-10.66-5.51"/></svg>