<svg xmlns="http://www.w3.org/2000/svg" fill="currentColor" viewBox="0 0 256 256"><path d="M172.91 83.09a78 78 0 1 0-89.82 89.82 78 78 0 1 0 89.82-89.82M226 160a65 65 0 0 1-.62 8.9l-53.76-53.77A77.8 77.8 0 0 0 174 96v-.49A66.1 66.1 0 0 1 226 160M45.31 53.79l55.5 55.5a77.9 77.9 0 0 0-12 19L34 73.48a66 66 0 0 1 11.31-19.69M73.48 34l54.8 54.81a77.9 77.9 0 0 0-19 12l-55.5-55.5A66 66 0 0 1 73.48 34M94 160a66.08 66.08 0 0 1 66-66h1.95c0 .65.05 1.3.05 2a66.08 66.08 0 0 1-66 66c-.65 0-1.3 0-2-.05zm52.71-4.81 55.5 55.5A66 66 0 0 1 182.52 222l-54.8-54.81a77.9 77.9 0 0 0 18.99-12m8.48-8.48a77.9 77.9 0 0 0 12-19L222 182.52a66 66 0 0 1-11.35 19.69Zm5.3-64.7H160a77.8 77.8 0 0 0-19.13 2.38L87.1 30.62A65 65 0 0 1 96 30a66.1 66.1 0 0 1 64.49 52ZM30 96a65 65 0 0 1 .62-8.9l53.76 53.77A77.8 77.8 0 0 0 82 160v.49A66.1 66.1 0 0 1 30 96m65.51 78H96a77.8 77.8 0 0 0 19.13-2.38l53.77 53.76a65 65 0 0 1-8.9.62 66.1 66.1 0 0 1-64.49-52"/></svg>