<svg xmlns="http://www.w3.org/2000/svg" fill="currentColor" viewBox="0 0 256 256"><path d="M222 67.34a33.8 33.8 0 0 0-10.64-24.25c-13.24-12.53-34.68-12.09-47.82 1.09L142.82 65l-.63-.63a22 22 0 0 0-31.11 0l-9 9a14 14 0 0 0 0 19.81l3.47 3.47-52.41 52.45a37.81 37.81 0 0 0-9.84 36.73l-8.31 19a11.68 11.68 0 0 0 2.46 13 13.9 13.9 0 0 0 9.87 4.17 14.15 14.15 0 0 0 5.68-1.18l18-7.9a37.92 37.92 0 0 0 35.84-10.07l52.44-52.46 3.47 3.48a14 14 0 0 0 19.8 0l9-9a22.06 22.06 0 0 0 0-31.13l-.66-.65L212 91.85a33.76 33.76 0 0 0 10-24.51m-123.61 127a26 26 0 0 1-26 6.47 6 6 0 0 0-4.17.24l-20 8.75a2 2 0 0 1-2.09-.31l9.12-20.9a5.94 5.94 0 0 0 .19-4.31A25.9 25.9 0 0 1 56 166h70.78ZM138.78 154H65.24l48.83-48.84 36.76 36.78Zm64.77-70.59-25.38 25.49a6 6 0 0 0 0 8.47l4.88 4.89a10 10 0 0 1 0 14.15l-9 9a2 2 0 0 1-2.82 0l-60.69-60.7a2 2 0 0 1 0-2.83l9-9a10 10 0 0 1 14.14 0l4.89 4.89a6 6 0 0 0 4.24 1.75 6 6 0 0 0 4.25-1.77L172 52.66c8.57-8.58 22.51-9 31.07-.85a22 22 0 0 1 .44 31.57Z"/></svg>