<svg xmlns="http://www.w3.org/2000/svg" fill="currentColor" viewBox="0 0 256 256"><path d="M212 98a25.85 25.85 0 0 0-11.11 2.5L168.48 60A26 26 0 1 0 122 44a26 26 0 0 0 .34 4.19L73 68.74a26 26 0 1 0-26 40.78L49 159a26 26 0 1 0 29.74 37.6L130 211v1a26 26 0 1 0 44.63-18.11l28.85-45.33A26 26 0 1 0 212 98m-56 88c-.78 0-1.55 0-2.31.11l-17.49-52.49 50.8-2.42a26.1 26.1 0 0 0 6.35 10.91l-28.85 45.33A25.9 25.9 0 0 0 156 186m-83.73-22.26A26 26 0 0 0 61 158.48L59 109a26 26 0 0 0 11.86-7.17l46.42 26.87ZM148 70a25.85 25.85 0 0 0 11.11-2.5l32.41 40.5a25.9 25.9 0 0 0-5.07 11.2l-50.76 2.42zm0-40a14 14 0 1 1-14 14 14 14 0 0 1 14-14m-21 29.26a26.2 26.2 0 0 0 9.34 7.95L124 118.77 76.9 91.48a26 26 0 0 0 .76-11.67ZM38 84a14 14 0 1 1 14 14 14 14 0 0 1-14-14m18 114a14 14 0 1 1 14-14 14 14 0 0 1-14 14m26-13v-1a25.9 25.9 0 0 0-2.35-10.79L125 137.94l17.32 52a26.2 26.2 0 0 0-9.05 9.49Zm74 41a14 14 0 1 1 14-14 14 14 0 0 1-14 14m56-88a14 14 0 1 1 14-14 14 14 0 0 1-14 14"/></svg>