<svg xmlns="http://www.w3.org/2000/svg" fill="currentColor" viewBox="0 0 256 256"><path d="M154 208a6 6 0 0 1-6 6h-28a6 6 0 0 1-6-6v-56a6 6 0 1 1 12 0v50h22a6 6 0 0 1 6 6m-62.52-60.89a6 6 0 0 0-8.36 1.39L68 169.67 52.88 148.5a6 6 0 1 0-9.76 7L60.63 180l-17.51 24.5a6 6 0 1 0 9.76 7L68 190.31l15.12 21.16A6 6 0 0 0 88 214a5.9 5.9 0 0 0 3.48-1.12 6 6 0 0 0 1.4-8.37L75.37 180l17.51-24.51a6 6 0 0 0-1.4-8.38M191 173.22c-10.85-3.13-13.41-4.69-13-7.91a6.59 6.59 0 0 1 2.88-5.08c5.6-3.79 17.65-1.83 21.44-.84a6 6 0 0 0 3.07-11.6c-2-.54-20.1-5-31.21 2.48a18.64 18.64 0 0 0-8.08 13.54c-1.8 14.19 12.26 18.25 21.57 20.94 12.12 3.5 14.77 5.33 14.2 9.76a6.85 6.85 0 0 1-3 5.34c-5.61 3.73-17.48 1.64-21.19.62a6 6 0 0 0-3.21 11.53 59.4 59.4 0 0 0 14.68 2c5.49 0 11.54-.95 16.36-4.14a18.89 18.89 0 0 0 8.31-13.81c2.01-15.66-12.91-19.97-22.82-22.83M42 112V40a14 14 0 0 1 14-14h96a6 6 0 0 1 4.24 1.76l56 56A6 6 0 0 1 214 88v24a6 6 0 1 1-12 0V94h-50a6 6 0 0 1-6-6V38H56a2 2 0 0 0-2 2v72a6 6 0 1 1-12 0m116-30h35.5L158 46.48Z"/></svg>