<svg xmlns="http://www.w3.org/2000/svg" fill="currentColor" viewBox="0 0 256 256"><path d="M214 120V88a6 6 0 0 0-1.76-4.24l-56-56A6 6 0 0 0 152 26H56a14 14 0 0 0-14 14v80a6 6 0 0 0 12 0V40a2 2 0 0 1 2-2h90v50a6 6 0 0 0 6 6h50v26a6 6 0 0 0 12 0m-56-73.52L193.52 82H158ZM66 160v48a6 6 0 0 1-12 0v-18H30v18a6 6 0 0 1-12 0v-48a6 6 0 0 1 12 0v18h24v-18a6 6 0 0 1 12 0m56 0a6 6 0 0 1-6 6h-10v42a6 6 0 0 1-12 0v-42H84a6 6 0 0 1 0-12h32a6 6 0 0 1 6 6m72 0v48a6 6 0 0 1-12 0v-30l-13.2 17.6a6 6 0 0 1-9.6 0L146 178v30a6 6 0 0 1-12 0v-48a6 6 0 0 1 10.8-3.6L164 182l19.2-25.6A6 6 0 0 1 194 160m56 48a6 6 0 0 1-6 6h-28a6 6 0 0 1-6-6v-48a6 6 0 0 1 12 0v42h22a6 6 0 0 1 6 6"/></svg>