<svg xmlns="http://www.w3.org/2000/svg" fill="currentColor" viewBox="0 0 256 256"><path d="M60 146H44a6 6 0 0 0-6 6v56a6 6 0 0 0 12 0v-10h10a26 26 0 0 0 0-52m0 40H50v-28h10a14 14 0 0 1 0 28m162 14.87a6 6 0 0 1-1.67 4.15A28.06 28.06 0 0 1 200 214c-16.54 0-30-15.25-30-34s13.46-34 30-34a27.43 27.43 0 0 1 15.36 4.77 6 6 0 0 1-6.72 9.95A15.25 15.25 0 0 0 200 158c-9.93 0-18 9.87-18 22s8.07 22 18 22a15.75 15.75 0 0 0 10-3.73V190h-2a6 6 0 0 1 0-12h8a6 6 0 0 1 6 6ZM154 152v56a6 6 0 0 1-4.17 5.71 5.8 5.8 0 0 1-1.83.29 6 6 0 0 1-4.88-2.51L114 170.72V208a6 6 0 0 1-12 0v-56a6 6 0 0 1 10.88-3.49L142 189.28V152a6 6 0 0 1 12 0M48 118a6 6 0 0 0 6-6V40a2 2 0 0 1 2-2h90v50a6 6 0 0 0 6 6h50v18a6 6 0 0 0 12 0V88a6 6 0 0 0-1.76-4.24l-56-56A6 6 0 0 0 152 26H56a14 14 0 0 0-14 14v72a6 6 0 0 0 6 6m110-71.52L193.52 82H158Z"/></svg>