<svg xmlns="http://www.w3.org/2000/svg" fill="currentColor" viewBox="0 0 256 256"><path d="M46 180c0 12.13 8.07 22 18 22a16.23 16.23 0 0 0 11.67-5.28 6 6 0 0 1 8.66 8.3A28.06 28.06 0 0 1 64 214c-16.54 0-30-15.25-30-34s13.46-34 30-34a28.06 28.06 0 0 1 20.33 9 6 6 0 0 1-8.66 8.3A16.23 16.23 0 0 0 64 158c-9.93 0-18 9.87-18 22m168-92v136a6 6 0 0 1-12 0V94h-50a6 6 0 0 1-6-6V38H56a2 2 0 0 0-2 2v72a6 6 0 0 1-12 0V40a14 14 0 0 1 14-14h96a6 6 0 0 1 4.25 1.76l56 56A6 6 0 0 1 214 88m-56-6h35.52L158 46.48Zm8 84v20h10a6 6 0 0 1 0 12h-10v10a6 6 0 0 1-12 0v-10h-20v10a6 6 0 0 1-12 0v-10h-10a6 6 0 0 1 0-12h10v-20h-10a6 6 0 0 1 0-12h10v-10a6 6 0 0 1 12 0v10h20v-10a6 6 0 0 1 12 0v10h10a6 6 0 0 1 0 12Zm-12 0h-20v20h20Z"/></svg>