<svg xmlns="http://www.w3.org/2000/svg" fill="currentColor" viewBox="0 0 256 256"><path d="m212.24 83.76-56-56A6 6 0 0 0 152 26H56a14 14 0 0 0-14 14v72a6 6 0 0 0 12 0V40a2 2 0 0 1 2-2h90v50a6 6 0 0 0 6 6h50v122a2 2 0 0 1-2 2h-32a6 6 0 0 0 0 12h32a14 14 0 0 0 14-14V88a6 6 0 0 0-1.76-4.24M158 46.48 193.52 82H158ZM64 146H48a6 6 0 0 0-6 6v56a6 6 0 0 0 12 0v-10h10a26 26 0 0 0 0-52m0 40H54v-28h10a14 14 0 0 1 0 28m89.09-30.82L134 185.72V208a6 6 0 0 1-12 0v-22.28l-19.09-30.54a6 6 0 0 1 10.18-6.36L128 172.68l14.91-23.86a6 6 0 0 1 10.18 6.36"/></svg>