<svg xmlns="http://www.w3.org/2000/svg" fill="currentColor" viewBox="0 0 256 256"><path d="M46 152v56a6 6 0 0 1-12 0v-56a6 6 0 0 1 12 0m74-6a6 6 0 0 0-6 6v37.28l-29.12-40.77A6 6 0 0 0 74 152v56a6 6 0 0 0 12 0v-37.28l29.12 40.77A6 6 0 0 0 120 214a5.8 5.8 0 0 0 1.83-.29A6 6 0 0 0 126 208v-56a6 6 0 0 0-6-6m40 0a6 6 0 0 0-6 6v56a6 6 0 0 0 12 0v-56a6 6 0 0 0-6-6m54-58v136a6 6 0 0 1-12 0V94h-50a6 6 0 0 1-6-6V38H56a2 2 0 0 0-2 2v72a6 6 0 0 1-12 0V40a14 14 0 0 1 14-14h96a6 6 0 0 1 4.25 1.76l56 56A6 6 0 0 1 214 88m-56-6h35.52L158 46.48Z"/></svg>