<svg xmlns="http://www.w3.org/2000/svg" fill="currentColor" viewBox="0 0 256 256"><path d="M46 180c0 12.13 8.07 22 18 22a16.2 16.2 0 0 0 11.66-5.28 6 6 0 0 1 8.67 8.3A28.1 28.1 0 0 1 64 214c-16.54 0-30-15.25-30-34s13.46-34 30-34a28.1 28.1 0 0 1 20.33 9 6 6 0 0 1-8.67 8.3A16.2 16.2 0 0 0 64 158c-9.93 0-18 9.86-18 22m81-6.77c-10.85-3.13-13.4-4.69-13-7.91a6.56 6.56 0 0 1 2.88-5.08c5.59-3.79 17.66-1.82 21.44-.84a6 6 0 1 0 3.06-11.6c-2-.53-20.09-5-31.2 2.48a18.62 18.62 0 0 0-8.09 13.54c-1.79 14.19 12.27 18.25 21.57 20.94 12.12 3.5 14.78 5.33 14.21 9.76a6.89 6.89 0 0 1-3 5.34c-5.6 3.73-17.48 1.64-21.18.62a6 6 0 1 0-3.21 11.52 59.3 59.3 0 0 0 14.67 2c5.49 0 11.55-.95 16.36-4.14a18.89 18.89 0 0 0 8.31-13.81c2.01-15.66-12.9-19.97-22.82-22.83Zm64 0c-10.85-3.13-13.41-4.69-13-7.91a6.59 6.59 0 0 1 2.88-5.08c5.6-3.79 17.65-1.83 21.44-.84a6 6 0 0 0 3.07-11.6c-2-.54-20.1-5-31.21 2.48a18.64 18.64 0 0 0-8.08 13.54c-1.8 14.19 12.26 18.25 21.57 20.94 12.12 3.5 14.77 5.33 14.2 9.76a6.85 6.85 0 0 1-3 5.34c-5.61 3.73-17.48 1.64-21.19.62a6 6 0 0 0-3.21 11.52 59.4 59.4 0 0 0 14.68 2c5.49 0 11.54-.95 16.36-4.14a18.89 18.89 0 0 0 8.31-13.81c2.01-15.66-12.91-19.97-22.82-22.83ZM202 94h-50a6 6 0 0 1-6-6V38H56a2 2 0 0 0-2 2v72a6 6 0 1 1-12 0V40a14 14 0 0 1 14-14h96a6 6 0 0 1 4.24 1.76l56 56A6 6 0 0 1 214 88v24a6 6 0 1 1-12 0Zm-8.5-12L158 46.48V82Z"/></svg>