<svg xmlns="http://www.w3.org/2000/svg" fill="currentColor" viewBox="0 0 256 256"><path d="m212.24 83.76-56-56A6 6 0 0 0 152 26H56a14 14 0 0 0-14 14v176a14 14 0 0 0 14 14h144a14 14 0 0 0 14-14V88a6 6 0 0 0-1.76-4.24M158 46.48 193.52 82H158ZM202 216a2 2 0 0 1-2 2H56a2 2 0 0 1-2-2V40a2 2 0 0 1 2-2h90v50a6 6 0 0 0 6 6h50Zm-45.76-92.24a6 6 0 0 1 0 8.48L136.49 152l19.75 19.76a6 6 0 1 1-8.48 8.48L128 160.49l-19.76 19.75a6 6 0 0 1-8.48-8.48L119.51 152l-19.75-19.76a6 6 0 1 1 8.48-8.48L128 143.51l19.76-19.75a6 6 0 0 1 8.48 0"/></svg>