<svg xmlns="http://www.w3.org/2000/svg" fill="currentColor" viewBox="0 0 256 256"><path d="M226.49 50.5a6 6 0 0 0-6.42.92c-29 25.11-53.28 13.08-81.41-.84-27.92-13.82-59.57-29.49-94.59.84A6 6 0 0 0 42 56v168a6 6 0 0 0 12 0v-45.22c28.08-22.79 51.88-11 79.34 2.59 27.92 13.82 59.58 29.48 94.59-.85A6 6 0 0 0 230 176V56a6 6 0 0 0-3.51-5.5M218 68v45.2c-15.53 12.6-29.75 14.65-44 11.65V76.88c14 2.45 28.64.9 44-8.88m-56 5.87v47.4c-7.6-2.85-15.31-6.66-23.34-10.64-9.16-4.53-18.71-9.26-28.66-12.5V50.71a255 255 0 0 1 23.34 10.63c9.16 4.53 18.71 9.25 28.66 12.49ZM98 47.13V95c-14-2.45-28.64-.89-44 8.93V58.75c15.53-12.6 29.75-14.62 44-11.62M86.63 154c-10.5 0-21.39 2.79-32.63 10v-45.21c15.53-12.61 29.75-14.65 44-11.65v47.93A66.3 66.3 0 0 0 86.63 154m23.37 4.11v-47.39c7.6 2.84 15.31 6.66 23.34 10.63 9.16 4.53 18.71 9.26 28.66 12.5v47.39c-7.6-2.85-15.31-6.66-23.34-10.63-9.16-4.54-18.66-9.26-28.66-12.5m64 26.7v-47.92a66.3 66.3 0 0 0 11.37 1c10.5 0 21.39-2.78 32.63-10v45.24c-15.53 12.66-29.75 14.68-44 11.68"/></svg>