<svg xmlns="http://www.w3.org/2000/svg" fill="currentColor" viewBox="0 0 256 256"><path d="M224 66h-70l-28.27-21.2a14 14 0 0 0-8.4-2.8H72a14 14 0 0 0-14 14v18H40a14 14 0 0 0-14 14v112a14 14 0 0 0 14 14h152.89A13.12 13.12 0 0 0 206 200.89V182h18.89A13.12 13.12 0 0 0 238 168.89V80a14 14 0 0 0-14-14m-30 134.89a1.11 1.11 0 0 1-1.11 1.11H40a2 2 0 0 1-2-2V88a2 2 0 0 1 2-2h45.33a2 2 0 0 1 1.2.4l29.87 22.4a6 6 0 0 0 3.6 1.2h72a2 2 0 0 1 2 2Zm32-32a1.11 1.11 0 0 1-1.11 1.11H206v-58a14 14 0 0 0-14-14h-70L93.73 76.8a14 14 0 0 0-8.4-2.8H70V56a2 2 0 0 1 2-2h45.33a2 2 0 0 1 1.2.4l29.87 22.4A6 6 0 0 0 152 78h72a2 2 0 0 1 2 2Z"/></svg>