<svg xmlns="http://www.w3.org/2000/svg" fill="currentColor" viewBox="0 0 256 256"><path d="M128 82a46 46 0 1 0 46 46 46.06 46.06 0 0 0-46-46m0 80a34 34 0 1 1 34-34 34 34 0 0 1-34 34m86-31.16c.06-1.89.06-3.79 0-5.68L229.33 106a6 6 0 0 0 1.11-5.29 105.3 105.3 0 0 0-10.68-25.81 6 6 0 0 0-4.53-3l-24.45-2.71q-1.93-2.07-4-4l-2.72-24.46a6 6 0 0 0-3-4.53 105.7 105.7 0 0 0-25.77-10.66 6 6 0 0 0-5.29 1.14l-19.2 15.37a90 90 0 0 0-5.68 0L106 26.67a6 6 0 0 0-5.29-1.11A105.3 105.3 0 0 0 74.9 36.24a6 6 0 0 0-3 4.53l-2.67 24.45q-2.07 1.94-4 4L40.76 72a6 6 0 0 0-4.53 3 105.7 105.7 0 0 0-10.66 25.77 6 6 0 0 0 1.11 5.23l15.37 19.2a90 90 0 0 0 0 5.68l-15.38 19.17a6 6 0 0 0-1.11 5.29 105.3 105.3 0 0 0 10.68 25.76 6 6 0 0 0 4.53 3l24.45 2.71q1.94 2.07 4 4L72 215.24a6 6 0 0 0 3 4.53 105.7 105.7 0 0 0 25.77 10.66 6 6 0 0 0 5.29-1.11l19.1-15.32c1.89.06 3.79.06 5.68 0l19.21 15.38a6 6 0 0 0 3.75 1.31 6.2 6.2 0 0 0 1.54-.2 105.3 105.3 0 0 0 25.76-10.68 6 6 0 0 0 3-4.53l2.71-24.45q2.07-1.93 4-4l24.46-2.72a6 6 0 0 0 4.53-3 105.5 105.5 0 0 0 10.66-25.77 6 6 0 0 0-1.11-5.29Zm-3.1 41.63-23.64 2.63a6 6 0 0 0-3.82 2 75 75 0 0 1-6.31 6.31 6 6 0 0 0-2 3.82l-2.63 23.63a94.3 94.3 0 0 1-17.36 7.14l-18.57-14.86a6 6 0 0 0-3.75-1.31h-.36a78 78 0 0 1-8.92 0 6 6 0 0 0-4.11 1.3L100.87 218a94 94 0 0 1-17.34-7.17l-2.63-23.62a6 6 0 0 0-2-3.82 75 75 0 0 1-6.31-6.31 6 6 0 0 0-3.82-2l-23.63-2.63A94.3 94.3 0 0 1 38 155.14l14.86-18.57a6 6 0 0 0 1.3-4.11 78 78 0 0 1 0-8.92 6 6 0 0 0-1.3-4.11L38 100.87a94 94 0 0 1 7.17-17.34l23.62-2.63a6 6 0 0 0 3.82-2 75 75 0 0 1 6.31-6.31 6 6 0 0 0 2-3.82l2.63-23.63A94.3 94.3 0 0 1 100.86 38l18.57 14.86a6 6 0 0 0 4.11 1.3 78 78 0 0 1 8.92 0 6 6 0 0 0 4.11-1.3L155.13 38a94 94 0 0 1 17.34 7.17l2.63 23.64a6 6 0 0 0 2 3.82 75 75 0 0 1 6.31 6.31 6 6 0 0 0 3.82 2l23.63 2.63a94.3 94.3 0 0 1 7.14 17.29l-14.86 18.57a6 6 0 0 0-1.3 4.11 78 78 0 0 1 0 8.92 6 6 0 0 0 1.3 4.11L218 155.13a94 94 0 0 1-7.15 17.34Z"/></svg>