<svg xmlns="http://www.w3.org/2000/svg" fill="currentColor" viewBox="0 0 256 256"><path d="M216 74h-41.26a46.4 46.4 0 0 0 6-4.48 27.56 27.56 0 0 0 9.22-20A30.63 30.63 0 0 0 158.5 18a27.56 27.56 0 0 0-20 9.22A57.1 57.1 0 0 0 128 45.76a57.1 57.1 0 0 0-10.48-18.53A27.56 27.56 0 0 0 97.5 18 30.63 30.63 0 0 0 66 49.51a27.56 27.56 0 0 0 9.22 20 46 46 0 0 0 6 4.48H40A14 14 0 0 0 26 88v32a14 14 0 0 0 14 14h2v66a14 14 0 0 0 14 14h144a14 14 0 0 0 14-14v-66h2a14 14 0 0 0 14-14V88a14 14 0 0 0-14-14m-80.23-11c2.25-12.12 6.29-21.75 11.69-27.85a15.68 15.68 0 0 1 11.4-5.15h.55A18.6 18.6 0 0 1 178 49.14a15.68 15.68 0 0 1-5.18 11.4c-10.72 9.46-28.9 12.29-38.48 13.11.25-2.89.66-6.57 1.43-10.65M83.45 35.45A18.7 18.7 0 0 1 96.59 30h.55a15.68 15.68 0 0 1 11.4 5.18c9.46 10.72 12.29 28.9 13.11 38.48-2.89-.25-6.57-.68-10.61-1.43-12.12-2.23-21.75-6.29-27.85-11.7A15.64 15.64 0 0 1 78 49.14a18.65 18.65 0 0 1 5.45-13.69M38 120V88a2 2 0 0 1 2-2h82v36H40a2 2 0 0 1-2-2m16 80v-66h68v68H56a2 2 0 0 1-2-2m148 0a2 2 0 0 1-2 2h-66v-68h68Zm16-80a2 2 0 0 1-2 2h-82V86h82a2 2 0 0 1 2 2Z"/></svg>