<svg xmlns="http://www.w3.org/2000/svg" fill="currentColor" viewBox="0 0 256 256"><path d="M112 154a6 6 0 0 0-6 6v33.52l-41.07-41.08a9.93 9.93 0 0 1-2.93-7.07v-52a30 30 0 1 0-12 0v52a21.88 21.88 0 0 0 6.44 15.56L97.52 202H64a6 6 0 0 0 0 12h48a6 6 0 0 0 6-6v-48a6 6 0 0 0-6-6M38 64a18 18 0 1 1 18 18 18 18 0 0 1-18-18m168 98.6v-52a21.88 21.88 0 0 0-6.44-15.56L158.48 54H192a6 6 0 0 0 0-12h-48a6 6 0 0 0-6 6v48a6 6 0 0 0 12 0V62.48l41.07 41.08a9.93 9.93 0 0 1 2.93 7.07v52a30 30 0 1 0 12 0Zm-6 47.4a18 18 0 1 1 18-18 18 18 0 0 1-18 18"/></svg>