<svg xmlns="http://www.w3.org/2000/svg" fill="currentColor" viewBox="0 0 256 256"><path d="M128 26a102 102 0 1 0 102 102A102.12 102.12 0 0 0 128 26m0 12a89.53 89.53 0 0 1 50 15.2V74a2 2 0 0 1-.48 1.31L155.35 101a2 2 0 0 1-1.25.68L122.63 106a2 2 0 0 1-1.44-.36l-.24-.16-19.7-12.89a14 14 0 0 0-19.71 3.64l-21 31.3a13.94 13.94 0 0 0-2.36 7.71L58 171.45a2 2 0 0 1-.9 1.66l-5 3.27A90 90 0 0 1 128 38M59.28 186.05l4.43-2.9A14 14 0 0 0 70 171.52l.21-36.23a2.05 2.05 0 0 1 .33-1.1l21-31.3a2 2 0 0 1 1.31-.86 2 2 0 0 1 1.52.35l.24.16 19.7 12.89a13.93 13.93 0 0 0 10 2.44l31.47-4.26a14 14 0 0 0 8.73-4.74l22.17-25.76A14 14 0 0 0 190 74V62.82a89.91 89.91 0 0 1 22.68 95.67l-18.4-16.82a14 14 0 0 0-14.82-2.6L149 151.73a14.11 14.11 0 0 0-8.48 10.89l-2.38 16.19a14 14 0 0 0 10.3 15.58L169.9 200a2.1 2.1 0 0 1 .91.53l4.18 4.18a89.86 89.86 0 0 1-115.71-18.66m125.62 11.63-5.59-5.61a14 14 0 0 0-6.36-3.65l-21.46-5.63a2 2 0 0 1-1.47-2.23l2.39-16.19a2 2 0 0 1 1.21-1.56l30.45-12.66a2 2 0 0 1 2.12.37l21.36 19.54a90.8 90.8 0 0 1-22.65 27.62"/></svg>