<svg xmlns="http://www.w3.org/2000/svg" fill="currentColor" viewBox="0 0 256 256"><path d="M224 50H32a14 14 0 0 0-14 14v128a14 14 0 0 0 14 14h64a6 6 0 0 0 4.24-1.76l26.35-26.34a2 2 0 0 1 2.82 0l26.35 26.34A6 6 0 0 0 160 206h64a14 14 0 0 0 14-14V64a14 14 0 0 0-14-14m2 142a2 2 0 0 1-2 2h-61.51l-24.59-24.58a14 14 0 0 0-19.8 0L93.51 194H32a2 2 0 0 1-2-2V64a2 2 0 0 1 2-2h192a2 2 0 0 1 2 2ZM80 98a30 30 0 1 0 30 30 30 30 0 0 0-30-30m0 48a18 18 0 1 1 18-18 18 18 0 0 1-18 18m96-48a30 30 0 1 0 30 30 30 30 0 0 0-30-30m0 48a18 18 0 1 1 18-18 18 18 0 0 1-18 18"/></svg>