<svg xmlns="http://www.w3.org/2000/svg" fill="currentColor" viewBox="0 0 256 256"><path d="M235.9 144.82 167.43 32.58A13.91 13.91 0 0 0 155.56 26h-55.13a13.92 13.92 0 0 0-11.87 6.58v.05L20.13 144.76a14 14 0 0 0-.28 14.37L47.17 207a14 14 0 0 0 12.15 7h137.35a14 14 0 0 0 12.16-7l27.32-47.82a14 14 0 0 0-.25-14.36M222.56 146h-51.17L135 85.33l25.08-41.79Zm-124 0L128 97l29.4 49Zm66 12L191 202H65l26.4-44ZM128 73.67 106.6 38h42.8ZM95.93 43.54 121 85.33 84.6 146H33.43ZM33 158h44.4l-22.73 37.89Zm168.3 37.89L178.59 158H223Z"/></svg>