<svg xmlns="http://www.w3.org/2000/svg" fill="currentColor" viewBox="0 0 256 256"><path d="M208 138H48a14 14 0 0 0-14 14v48a14 14 0 0 0 14 14h160a14 14 0 0 0 14-14v-48a14 14 0 0 0-14-14m2 62a2 2 0 0 1-2 2H48a2 2 0 0 1-2-2v-48a2 2 0 0 1 2-2h160a2 2 0 0 1 2 2Zm-2-158H48a14 14 0 0 0-14 14v48a14 14 0 0 0 14 14h160a14 14 0 0 0 14-14V56a14 14 0 0 0-14-14m2 62a2 2 0 0 1-2 2H48a2 2 0 0 1-2-2V56a2 2 0 0 1 2-2h160a2 2 0 0 1 2 2Zm-20-24a10 10 0 1 1-10-10 10 10 0 0 1 10 10m0 96a10 10 0 1 1-10-10 10 10 0 0 1 10 10"/></svg>