<svg xmlns="http://www.w3.org/2000/svg" fill="currentColor" viewBox="0 0 256 256"><path d="M198 75.64V40a14 14 0 0 0-14-14H72a14 14 0 0 0-14 14v36a14.06 14.06 0 0 0 5.6 11.2L118 128l-54.4 40.8A14.06 14.06 0 0 0 58 180v36a14 14 0 0 0 14 14h112a14 14 0 0 0 14-14v-35.64a14.08 14.08 0 0 0-5.56-11.17L138 128l54.49-41.19A14.08 14.08 0 0 0 198 75.64M70 40a2 2 0 0 1 2-2h112a2 2 0 0 1 2 2v35.64a2 2 0 0 1-.79 1.6L178.9 82H76.67l-5.87-4.4A2 2 0 0 1 70 76Zm58 80.49L92.67 94H163Zm58 59.87V216a2 2 0 0 1-2 2H72a2 2 0 0 1-2-2v-36a2 2 0 0 1 .8-1.6L122 140v28a6 6 0 0 0 12 0v-27.94l51.21 38.7a2 2 0 0 1 .79 1.6"/></svg>