<svg xmlns="http://www.w3.org/2000/svg" fill="currentColor" viewBox="0 0 256 256"><path d="M198 75.64V40a14 14 0 0 0-14-14H72a14 14 0 0 0-14 14v36a14.06 14.06 0 0 0 5.6 11.2L118 128l-54.4 40.8A14.06 14.06 0 0 0 58 180v36a14 14 0 0 0 14 14h112a14 14 0 0 0 14-14v-35.64a14.08 14.08 0 0 0-5.56-11.17L138 128l54.49-41.19A14.08 14.08 0 0 0 198 75.64M184.2 178H71.33L128 135.51Zm-.2 40H72a2 2 0 0 1-2-2v-26h116v26a2 2 0 0 1-2 2m2-142.36a2 2 0 0 1-.79 1.6L128 120.49 70.8 77.6A2 2 0 0 1 70 76V40a2 2 0 0 1 2-2h112a2 2 0 0 1 2 2Z"/></svg>