<svg xmlns="http://www.w3.org/2000/svg" fill="currentColor" viewBox="0 0 256 256"><path d="M128 98a30 30 0 1 0 30 30 30 30 0 0 0-30-30m0 48a18 18 0 1 1 18-18 18 18 0 0 1-18 18m27.91-99.37 9.89-37.09a6 6 0 0 0-7.06-7.41 194 194 0 0 0-58 24.82C62.32 51.66 42 86.6 42 128a86.1 86.1 0 0 0 58.09 81.37l-9.89 37.08a6 6 0 0 0 7.06 7.42 194 194 0 0 0 58-24.82C193.68 204.34 214 169.4 214 128a86.09 86.09 0 0 0-58.09-81.37m-6.86 172.13a187.6 187.6 0 0 1-44.55 20.67l8.68-32.57a6 6 0 0 0-4.26-7.34A74.06 74.06 0 0 1 54 128c0-37.53 17.82-68.07 53-90.77a188 188 0 0 1 44.5-20.66l-8.68 32.57a6 6 0 0 0 4.26 7.34A74.06 74.06 0 0 1 202 128c0 37.53-17.82 68.07-52.95 90.76"/></svg>