<svg xmlns="http://www.w3.org/2000/svg" fill="currentColor" viewBox="0 0 256 256"><path d="M213.64 214 162.38 73l9.82-27H184a6 6 0 0 0 0-12H88a6 6 0 0 0 0 12h7.43L34.36 214a6 6 0 0 0 3.64 7.64 6.2 6.2 0 0 0 2 .36 6 6 0 0 0 5.64-3.95L55.84 190h51.23l-8.71 24a6 6 0 0 0 3.59 7.69 6.2 6.2 0 0 0 2 .36 6 6 0 0 0 5.64-3.95l18.98-52.1h54.86l18.93 52.05A6 6 0 0 0 208 222a6.2 6.2 0 0 0 2.05-.36 6 6 0 0 0 3.59-7.64m-84.75-84H77.66l13.09-36H142Zm30.54-84-13.09 36H95.11l13.09-36ZM60.2 178l13.09-36h51.23l-13.09 36Zm72.73-24L156 90.56 179.07 154Z"/></svg>