<svg xmlns="http://www.w3.org/2000/svg" fill="currentColor" viewBox="0 0 256 256"><path d="M246 152a6 6 0 0 1-6 6h-18v18a6 6 0 0 1-12 0v-18h-18a6 6 0 0 1 0-12h18v-18a6 6 0 0 1 12 0v18h18a6 6 0 0 1 6 6M56 70h18v18a6 6 0 0 0 12 0V70h18a6 6 0 0 0 0-12H86V40a6 6 0 0 0-12 0v18H56a6 6 0 0 0 0 12m128 124h-10v-10a6 6 0 0 0-12 0v10h-10a6 6 0 0 0 0 12h10v10a6 6 0 0 0 12 0v-10h10a6 6 0 0 0 0-12m33.9-115.41L78.58 217.9a14 14 0 0 1-19.8 0l-20.69-20.69a14 14 0 0 1 0-19.8L177.41 38.1a14 14 0 0 1 19.8 0l20.69 20.69a14 14 0 0 1 0 19.8M167.51 112 144 88.49 46.58 185.9a2 2 0 0 0 0 2.83l20.69 20.68a2 2 0 0 0 2.82 0Zm41.9-44.73-20.68-20.68a2 2 0 0 0-2.83 0L152.48 80 176 103.52l33.41-33.42a2 2 0 0 0 0-2.83"/></svg>