<svg xmlns="http://www.w3.org/2000/svg" fill="currentColor" viewBox="0 0 256 256"><path d="m228 88.59-176.08-54A14 14 0 0 0 34 48v144a14 14 0 0 0 14 14 14.6 14.6 0 0 0 4-.59L138 179v13a14 14 0 0 0 14 14h32a14 14 0 0 0 14-14v-31.38l30-9.19A14.07 14.07 0 0 0 238 138v-36a14 14 0 0 0-10-13.41M48.56 193.92a2 2 0 0 1-1.76-.32 2 2 0 0 1-.8-1.6V48a2 2 0 0 1 .8-1.6A2.05 2.05 0 0 1 48 46a1.8 1.8 0 0 1 .49.08L138 73.53v92.95ZM186 192a2 2 0 0 1-2 2h-32a2 2 0 0 1-2-2v-16.65l36-11Zm40-54a2 2 0 0 1-1.44 1.92h-.08L150 162.8V77.21l74.56 22.87A2 2 0 0 1 226 102Z"/></svg>