<svg xmlns="http://www.w3.org/2000/svg" fill="currentColor" viewBox="0 0 256 256"><path d="m213.33 203.75-28.45-89.41L212.43 84a6 6 0 0 0-8.88-8l-22.87 25.17-18.26-57.42A13.94 13.94 0 0 0 149.08 34h-42.16a13.94 13.94 0 0 0-13.34 9.75l-50.91 160A14 14 0 0 0 56 222h144a14 14 0 0 0 13.34-18.25ZM187.45 162h-45.89l34-37.39ZM105 47.39a2 2 0 0 1 1.92-1.39h42.16a2 2 0 0 1 1.92 1.39l20.36 64-46 50.61H68.55Zm96.6 161.79a1.94 1.94 0 0 1-1.6.82H56a2 2 0 0 1-1.9-2.61L64.73 174h126.54l10.62 33.39a1.94 1.94 0 0 1-.29 1.79"/></svg>