<svg xmlns="http://www.w3.org/2000/svg" fill="currentColor" viewBox="0 0 256 256"><path d="M200 26H72a14 14 0 0 0-14 14v26H40a14 14 0 0 0-14 14v96a14 14 0 0 0 14 14h18v26a14 14 0 0 0 14 14h128a14 14 0 0 0 14-14V40a14 14 0 0 0-14-14m-42 76h44v52h-44Zm44-62v50h-44V80a14 14 0 0 0-14-14h-2V38h58a2 2 0 0 1 2 2M70 40a2 2 0 0 1 2-2h58v28H70ZM38 176V80a2 2 0 0 1 2-2h104a2 2 0 0 1 2 2v96a2 2 0 0 1-2 2H40a2 2 0 0 1-2-2m32 40v-26h60v28H72a2 2 0 0 1-2-2m130 2h-58v-28h2a14 14 0 0 0 14-14v-10h44v50a2 2 0 0 1-2 2M67.39 148.16 84.19 128l-16.8-20.16a6 6 0 1 1 9.22-7.68L92 118.63l15.39-18.47a6 6 0 0 1 9.22 7.68L99.81 128l16.8 20.16a6 6 0 1 1-9.22 7.68L92 137.37l-15.39 18.47a6 6 0 0 1-9.22-7.68"/></svg>