<svg xmlns="http://www.w3.org/2000/svg" fill="currentColor" viewBox="0 0 256 256"><path d="M128 166a38 38 0 1 0-38-38 38 38 0 0 0 38 38m0-64a26 26 0 1 1-26 26 26 26 0 0 1 26-26m112-44H16a6 6 0 0 0-6 6v128a6 6 0 0 0 6 6h224a6 6 0 0 0 6-6V64a6 6 0 0 0-6-6M22 108.82A54.73 54.73 0 0 0 60.82 70h134.36A54.73 54.73 0 0 0 234 108.82v38.36A54.73 54.73 0 0 0 195.18 186H60.82A54.73 54.73 0 0 0 22 147.18Zm212-12.53A42.8 42.8 0 0 1 207.71 70H234ZM48.29 70A42.8 42.8 0 0 1 22 96.29V70ZM22 159.71A42.8 42.8 0 0 1 48.29 186H22ZM207.71 186A42.8 42.8 0 0 1 234 159.71V186Z"/></svg>