<svg xmlns="http://www.w3.org/2000/svg" fill="currentColor" viewBox="0 0 256 256"><path d="M78 48a14 14 0 1 1-14-14 14 14 0 0 1 14 14m50-14a14 14 0 1 0 14 14 14 14 0 0 0-14-14m64 28a14 14 0 1 0-14-14 14 14 0 0 0 14 14M64 90a14 14 0 1 0 14 14 14 14 0 0 0-14-14m64 0a14 14 0 1 0 14 14 14 14 0 0 0-14-14m64 0a14 14 0 1 0 14 14 14 14 0 0 0-14-14M64 146a14 14 0 1 0 14 14 14 14 0 0 0-14-14m64 0a14 14 0 1 0 14 14 14 14 0 0 0-14-14m0 56a14 14 0 1 0 14 14 14 14 0 0 0-14-14m64-56a14 14 0 1 0 14 14 14 14 0 0 0-14-14"/></svg>