<svg xmlns="http://www.w3.org/2000/svg" fill="currentColor" viewBox="0 0 256 256"><path d="m222.72 67.91-88-48.18a13.9 13.9 0 0 0-13.44 0l-88 48.18A14 14 0 0 0 26 80.18v95.64a14 14 0 0 0 7.28 12.27l88 48.18a13.92 13.92 0 0 0 13.44 0l88-48.18a14 14 0 0 0 7.28-12.27V80.18a14 14 0 0 0-7.28-12.27M127 30.25a2 2 0 0 1 1.92 0L212.51 76l-33.94 18.57-84.52-46.26ZM122 223l-83-45.43a2 2 0 0 1-1-1.75V86.66l84 46ZM43.49 76l38.07-20.85 84.51 46.26L128 122.24ZM218 175.82a2 2 0 0 1-1 1.75L134 223v-90.36l36-19.71V152a6 6 0 0 0 12 0v-45.63l36-19.71Z"/></svg>