<svg xmlns="http://www.w3.org/2000/svg" fill="currentColor" viewBox="0 0 256 256"><path d="M237 164.67a6 6 0 0 0-10 0c-.7 1-17 25.72-17 43.33a22 22 0 0 0 44 0c0-17.61-16.31-42.29-17-43.33M232 218a10 10 0 0 1-10-10c0-8.17 5.37-19.92 10-28.34 4.63 8.41 10 20.15 10 28.34a10 10 0 0 1-10 10m1.9-80.82a6 6 0 0 0 2.34-9.94L120.76 11.76a6 6 0 0 0-8.49 0l-42 42-26-26a6 6 0 0 0-8.49 8.48l26 26-45.34 45.35a22 22 0 0 0 0 31.11l84.86 84.86a22 22 0 0 0 31.11 0l78.83-78.83Zm-30.14-1.94-79.83 79.83a10 10 0 0 1-14.14 0l-84.86-84.86a10 10 0 0 1 0-14.14l45.32-45.32 31.62 31.61a26 26 0 0 0 3.75 32 26 26 0 0 0 36.76 0 26 26 0 0 0-32-40.51L78.74 62.26l37.78-37.77 104.37 104.37-14.79 4.93a6.1 6.1 0 0 0-2.34 1.45m-89.66-29.13a14 14 0 1 1 0 19.82 13.91 13.91 0 0 1 0-19.82"/></svg>