<svg xmlns="http://www.w3.org/2000/svg" fill="currentColor" viewBox="0 0 256 256"><path d="M218.54 94.77A53.84 53.84 0 0 0 198 78.66 54 54 0 0 0 144 26H84a14 14 0 0 0-13.58 10.6l-36 144A14 14 0 0 0 48 198h30.07l-3.65 14.6A14 14 0 0 0 88 230h31.5a14 14 0 0 0 13.58-10.6l9-35.88A2 2 0 0 1 144 182h32a54 54 0 0 0 42.56-87.23ZM79.51 186H48a2 2 0 0 1-1.94-2.49l36-144A2 2 0 0 1 84 38h60a42 42 0 0 1 41.69 36.87A54.6 54.6 0 0 0 176 74h-56a14 14 0 0 0-13.59 10.6l-25 99.89a2 2 0 0 1-1.9 1.51m105.86-98.95c-.18 1-.39 2.09-.65 3.14A41.94 41.94 0 0 1 144 122h-34.56l8.62-34.48A2 2 0 0 1 120 86h56a42.4 42.4 0 0 1 9.37 1.05m31.35 51.14A41.94 41.94 0 0 1 176 170h-32a14 14 0 0 0-13.58 10.6l-9 35.89a2 2 0 0 1-1.94 1.51H88a2 2 0 0 1-1.94-2.49l20-80a2 2 0 0 1 2-1.52h36a53.92 53.92 0 0 0 52.38-40.9c.14-.55.25-1.1.36-1.64a42.06 42.06 0 0 1 20 46.73Z"/></svg>