<svg xmlns="http://www.w3.org/2000/svg" fill="currentColor" viewBox="0 0 256 256"><path d="M152 78a30 30 0 1 0-30-30 30 30 0 0 0 30 30m0-48a18 18 0 1 1-18 18 18 18 0 0 1 18-18m46 114v88a6 6 0 0 1-12 0v-82.19c-26.23-1.73-34.76-14.89-42.35-26.59-3.43-5.3-6.68-10.31-11.5-14.52L117 143.61l38.52 27.51A6 6 0 0 1 158 176v56a6 6 0 0 1-12 0v-52.91l-33.92-24.23-34.58 79.53a6 6 0 0 1-11-4.78L124 97.29a6 6 0 0 1 8.25-2.94 39 39 0 0 1 7.65 5.21c6.15 5.34 10 11.33 13.79 17.13C161.44 128.59 167.54 138 192 138a6 6 0 0 1 6 6m-126 6a6 6 0 0 0 5.52-3.64l24-56a6 6 0 0 0-3.16-7.88l-28-12a6 6 0 0 0-7.87 3.16l-24 56a6 6 0 0 0 3.15 7.87l28 12A6 6 0 0 0 72 150m-20.12-21.15 19.27-45 17 7.27-19.27 45Z"/></svg>