<svg xmlns="http://www.w3.org/2000/svg" fill="currentColor" viewBox="0 0 256 256"><path d="M238 196.2a14 14 0 0 0-5.86-10.2l-39.93-28.52 18.62-18.62a37.65 37.65 0 0 0 10.46-34 97.43 97.43 0 0 0-34.69-56.74 99.82 99.82 0 0 0-64-22.11 98.29 98.29 0 0 0-96.6 96.6 100.1 100.1 0 0 0 22.11 64 97.4 97.4 0 0 0 56.72 34.69 37.65 37.65 0 0 0 34-10.46l18.62-18.62L186 232.14a14 14 0 0 0 10.2 5.86c.39 0 .78.05 1.16.05a14 14 0 0 0 9.89-4.1l26.65-26.64a14 14 0 0 0 4.1-11.11M57.47 179.08A88.12 88.12 0 0 1 38 122.77 86.29 86.29 0 0 1 122.77 38a88.2 88.2 0 0 1 56.31 19.46 87.3 87.3 0 0 1 20 22.93L80.4 199.12a87.1 87.1 0 0 1-22.93-20.04m167.94 19.69-26.64 26.64a2 2 0 0 1-3-.25l-32.64-45.69a6 6 0 0 0-4.43-2.47h-.49a6 6 0 0 0-4.24 1.76l-23.63 23.62a25.69 25.69 0 0 1-23.17 7.17 82 82 0 0 1-15.49-4.72L204.8 91.68a82 82 0 0 1 4.72 15.49 25.67 25.67 0 0 1-7.18 23.17L178.72 154a6 6 0 0 0 .75 9.12l45.69 32.64a2 2 0 0 1 .25 3Z"/></svg>