<svg xmlns="http://www.w3.org/2000/svg" fill="currentColor" viewBox="0 0 256 256"><path d="M208 114H48a14 14 0 0 0-14 14v24a14 14 0 0 0 14 14h160a14 14 0 0 0 14-14v-24a14 14 0 0 0-14-14m2 38a2 2 0 0 1-2 2H48a2 2 0 0 1-2-2v-24a2 2 0 0 1 2-2h160a2 2 0 0 1 2 2Zm-2-110H48a14 14 0 0 0-14 14v24a14 14 0 0 0 14 14h160a14 14 0 0 0 14-14V56a14 14 0 0 0-14-14m2 38a2 2 0 0 1-2 2H48a2 2 0 0 1-2-2V56a2 2 0 0 1 2-2h160a2 2 0 0 1 2 2Zm-52 136a6 6 0 0 1-6 6h-18v18a6 6 0 0 1-12 0v-18h-18a6 6 0 0 1 0-12h18v-18a6 6 0 0 1 12 0v18h18a6 6 0 0 1 6 6"/></svg>