<svg xmlns="http://www.w3.org/2000/svg" fill="currentColor" viewBox="0 0 256 256"><path d="M208 42H48a14 14 0 0 0-14 14v56c0 51.94 25.12 83.4 46.2 100.64 22.73 18.6 45.27 24.89 46.22 25.15a6 6 0 0 0 3.16 0c.95-.26 23.49-6.55 46.22-25.15C196.88 195.4 222 163.94 222 112V56a14 14 0 0 0-14-14m-39.44 161.06A131.2 131.2 0 0 1 128 225.72a131 131 0 0 1-40.56-22.66 113.1 113.1 0 0 1-25.56-29.45L128 127.32l66.12 46.29a113.1 113.1 0 0 1-25.56 29.45M210 112c0 18.75-3.44 35.75-10.28 50.88l-68.28-47.8a6 6 0 0 0-6.88 0l-68.28 47.8C49.44 147.75 46 130.75 46 112V56a2 2 0 0 1 2-2h160a2 2 0 0 1 2 2Z"/></svg>