<svg xmlns="http://www.w3.org/2000/svg" fill="currentColor" viewBox="0 0 256 256"><path d="M218 128a30 30 0 1 0-36-48V56a30 30 0 0 0-54-18 30 30 0 1 0-48 36H56a30 30 0 0 0-18 54 30 30 0 1 0 36 48v24a30 30 0 0 0 54 18 30 30 0 1 0 48-36h24a30 30 0 0 0 18-54m-18-42a18 18 0 0 1 0 36h-18v-18a18 18 0 0 1 18-18m-48-48a18 18 0 0 1 18 18v48a18 18 0 0 1-18 18h-18V56a18 18 0 0 1 18-18M86 56a18 18 0 0 1 36 0v18h-18a18 18 0 0 1-18-18m-48 48a18 18 0 0 1 18-18h48a18 18 0 0 1 18 18v18H56a18 18 0 0 1-18-18m18 66a18 18 0 0 1 0-36h18v18a18 18 0 0 1-18 18m48 48a18 18 0 0 1-18-18v-48a18 18 0 0 1 18-18h18v66a18 18 0 0 1-18 18m66-18a18 18 0 0 1-36 0v-18h18a18 18 0 0 1 18 18m30-30h-48a18 18 0 0 1-18-18v-18h66a18 18 0 0 1 0 36"/></svg>