<svg xmlns="http://www.w3.org/2000/svg" fill="currentColor" viewBox="0 0 256 256"><path d="m228 131-60.73-20.24a26 26 0 0 1-15.51-14l-23.25-54.45a14 14 0 0 0-17.57-7.47L35.22 62.37A14.05 14.05 0 0 0 26 75.53V192a14 14 0 0 0 14 14h200a14 14 0 0 0 14-14v-24.94A38 38 0 0 0 228 131M39.32 73.65 115 46.12a1.8 1.8 0 0 1 .68-.12 2 2 0 0 1 1.79 1.11l8 18.68L102 74.36A6 6 0 0 0 104 86a5.9 5.9 0 0 0 2-.37l24.18-8.79 6.31 14.76L118 98.36a6 6 0 0 0 2 11.64 6.2 6.2 0 0 0 2-.36l19.26-7a38 38 0 0 0 10.57 13.21L134 122.36a6 6 0 0 0 2 11.64 6.2 6.2 0 0 0 2.05-.36l28.64-10.42 57.53 19.18a25.94 25.94 0 0 1 17.27 19.6H38V75.53a2 2 0 0 1 1.32-1.88M240 194H40a2 2 0 0 1-2-2v-18h204v18a2 2 0 0 1-2 2"/></svg>