<svg xmlns="http://www.w3.org/2000/svg" fill="currentColor" viewBox="0 0 256 256"><path d="m245.37 125.32-40-80A6 6 0 0 0 200 42H56a6 6 0 0 0-5.37 3.32l-40 80A6.1 6.1 0 0 0 10 128v56a14 14 0 0 0 14 14h208a14 14 0 0 0 14-14v-56a6.1 6.1 0 0 0-.63-2.68M99.71 122l-14-28h34.58l14 28Zm.58-68 14 28H79.71l-14-28Zm48 0 14 28h-34.58l-14-28Zm-.58 68-14-28h34.58l14 28Zm48 0-14-28h34.58l14 28Zm14.58-40h-34.58l-14-28h34.58ZM22 184v-54.58l34-68 34 68V186H24a2 2 0 0 1-2-2m210 2H102v-52h132v50a2 2 0 0 1-2 2"/></svg>