<svg xmlns="http://www.w3.org/2000/svg" fill="currentColor" viewBox="0 0 256 256"><path d="M104 42H56a14 14 0 0 0-14 14v48a14 14 0 0 0 14 14h48a14 14 0 0 0 14-14V56a14 14 0 0 0-14-14m2 62a2 2 0 0 1-2 2H56a2 2 0 0 1-2-2V56a2 2 0 0 1 2-2h48a2 2 0 0 1 2 2Zm94-62h-48a14 14 0 0 0-14 14v48a14 14 0 0 0 14 14h48a14 14 0 0 0 14-14V56a14 14 0 0 0-14-14m2 62a2 2 0 0 1-2 2h-48a2 2 0 0 1-2-2V56a2 2 0 0 1 2-2h48a2 2 0 0 1 2 2Zm-98 34H56a14 14 0 0 0-14 14v48a14 14 0 0 0 14 14h48a14 14 0 0 0 14-14v-48a14 14 0 0 0-14-14m2 62a2 2 0 0 1-2 2H56a2 2 0 0 1-2-2v-48a2 2 0 0 1 2-2h48a2 2 0 0 1 2 2Zm94-62h-48a14 14 0 0 0-14 14v48a14 14 0 0 0 14 14h48a14 14 0 0 0 14-14v-48a14 14 0 0 0-14-14m2 62a2 2 0 0 1-2 2h-48a2 2 0 0 1-2-2v-48a2 2 0 0 1 2-2h48a2 2 0 0 1 2 2Z"/></svg>