<svg xmlns="http://www.w3.org/2000/svg" fill="currentColor" viewBox="0 0 256 256"><path d="M160 110h48a14 14 0 0 0 14-14V48a14 14 0 0 0-14-14h-48a14 14 0 0 0-14 14v18h-18a22 22 0 0 0-22 22v34H70v-10a14 14 0 0 0-14-14H24a14 14 0 0 0-14 14v32a14 14 0 0 0 14 14h32a14 14 0 0 0 14-14v-10h36v34a22 22 0 0 0 22 22h18v18a14 14 0 0 0 14 14h48a14 14 0 0 0 14-14v-48a14 14 0 0 0-14-14h-48a14 14 0 0 0-14 14v18h-18a10 10 0 0 1-10-10V88a10 10 0 0 1 10-10h18v18a14 14 0 0 0 14 14M58 144a2 2 0 0 1-2 2H24a2 2 0 0 1-2-2v-32a2 2 0 0 1 2-2h32a2 2 0 0 1 2 2Zm100 16a2 2 0 0 1 2-2h48a2 2 0 0 1 2 2v48a2 2 0 0 1-2 2h-48a2 2 0 0 1-2-2Zm0-112a2 2 0 0 1 2-2h48a2 2 0 0 1 2 2v48a2 2 0 0 1-2 2h-48a2 2 0 0 1-2-2Z"/></svg>