<svg xmlns="http://www.w3.org/2000/svg" fill="currentColor" viewBox="0 0 256 256"><path d="M158 216a6 6 0 0 1-6 6h-48a6 6 0 0 1 0-12h48a6 6 0 0 1 6 6m77.07-26.91-4.66-8.09a6 6 0 1 0-10.4 6l4.66 8.09a9.49 9.49 0 0 1 0 9.72 10.46 10.46 0 0 1-9.21 5.2H192a6 6 0 0 0 0 12h23.45a22.37 22.37 0 0 0 19.6-11.19 21.53 21.53 0 0 0 .02-21.73M64 210H40.55a10.46 10.46 0 0 1-9.21-5.2 9.49 9.49 0 0 1 0-9.72L36 187a6 6 0 0 0-10.4-6l-4.66 8.08a21.53 21.53 0 0 0 0 21.72A22.37 22.37 0 0 0 40.55 222H64a6 6 0 0 0 0-12m138.18-60a6 6 0 0 0 5.2-9l-23-40a6 6 0 1 0-10.4 6l23 40a6 6 0 0 0 5.2 3M147.61 37.22a22.75 22.75 0 0 0-39.22 0L94.69 61a6 6 0 1 0 10.4 6l13.7-23.78a10.75 10.75 0 0 1 18.42 0L150.91 67a6 6 0 0 0 10.4-6ZM79.85 98.8a6 6 0 0 0-8.19 2.2l-23 40A6 6 0 1 0 59 147l23-40a6 6 0 0 0-2.15-8.2"/></svg>