<svg xmlns="http://www.w3.org/2000/svg" fill="currentColor" viewBox="0 0 256 256"><path d="m212.44 212-160-176a6 6 0 0 0-8.88 8l17.75 19.56A78 78 0 0 0 122 181.75V202H32a6 6 0 0 0 0 12h166.07l5.49 6a6 6 0 0 0 8.88-8.08Zm-91.67-83a26.05 26.05 0 0 1-18.31-20.15ZM62 104a65.6 65.6 0 0 1 7.78-31.12l21.07 23.18A38 38 0 0 0 128 142a38 38 0 0 0 4.38-.26l21.06 23.17A66 66 0 0 1 62 104m72 98v-20.24a78.3 78.3 0 0 0 27.93-7.51L187.16 202ZM87.26 44.32a6 6 0 0 1 2.26-8.18 78 78 0 0 1 102.37 112.61 6 6 0 1 1-9.82-6.89 66 66 0 0 0-86.63-95.29 6 6 0 0 1-8.18-2.25m65.47 67.73a26 26 0 0 0-30.4-33.43 6 6 0 1 1-2.6-11.72 38 38 0 0 1 44.41 48.86 6 6 0 0 1-11.41-3.71"/></svg>