<svg xmlns="http://www.w3.org/2000/svg" fill="currentColor" viewBox="0 0 256 256"><path d="M138 204a10 10 0 1 1-10-10 10 10 0 0 1 10 10m70.48-124 19.76-19.76a6 6 0 0 0-8.48-8.48L200 71.52l-19.76-19.76a6 6 0 0 0-8.48 8.48L191.52 80l-19.76 19.76a6 6 0 1 0 8.48 8.48L200 88.48l19.76 19.76a6 6 0 0 0 8.48-8.48Zm-36.95 80.15a74 74 0 0 0-87.06 0 6 6 0 0 0 7.06 9.7 62 62 0 0 1 72.94 0 6 6 0 0 0 8.38-1.32 6 6 0 0 0-1.32-8.38m-35.82-98a6 6 0 0 0 .58-12c-2.75-.13-5.54-.2-8.29-.2a170.32 170.32 0 0 0-107.81 38.6 6 6 0 1 0 7.62 9.27A158.26 158.26 0 0 1 128 62c2.56 0 5.16.06 7.71.18Zm-.12 48.08a6 6 0 1 0 .82-12c-2.79-.19-5.62-.29-8.41-.29a120.75 120.75 0 0 0-75.73 26.34 6 6 0 0 0 7.46 9.41A108.78 108.78 0 0 1 128 110c2.52 0 5.08.09 7.59.26Z"/></svg>