<svg xmlns="http://www.w3.org/2000/svg" fill="currentColor" viewBox="0 0 256 256"><path d="M232 218h-56a102 102 0 1 0-48 12h104a6 6 0 1 0 0-12M128 38a89.53 89.53 0 0 1 48.24 14 220 220 0 0 0-32.19 17.19A220.4 220.4 0 0 0 93.2 45a89.65 89.65 0 0 1 34.8-7M78.2 53.07a208.6 208.6 0 0 1 55.09 23.57 224 224 0 0 0-22.84 19.16 180 180 0 0 0-56.22-19.3A90.9 90.9 0 0 1 78.2 53.07M47.58 87.62a168.1 168.1 0 0 1 54.07 17.11A223 223 0 0 0 83.42 127 140.4 140.4 0 0 0 39 114.79a89.5 89.5 0 0 1 8.58-27.17m7.53 93.11A89.5 89.5 0 0 1 38 128v-1.25a128.5 128.5 0 0 1 38.6 10.33 220.5 220.5 0 0 0-21.49 43.65m9 10.64A211.27 211.27 0 0 1 187.39 60.44a90.6 90.6 0 0 1 18.76 23A181.86 181.86 0 0 0 88.22 208.71a90.4 90.4 0 0 1-24.07-17.34Zm63 26.62a89.7 89.7 0 0 1-27.75-4.65 169.86 169.86 0 0 1 112-119 89.1 89.1 0 0 1 6.34 27.41A142.57 142.57 0 0 0 127.15 218Zm90.62-83.53a90.15 90.15 0 0 1-77.88 82.75 130.62 130.62 0 0 1 77.92-82.75Z"/></svg>