<svg xmlns="http://www.w3.org/2000/svg" fill="currentColor" viewBox="0 0 256 256"><path d="M176 68a12 12 0 1 1-12-12 12 12 0 0 1 12 12m64 12a8 8 0 0 1-3.56 6.66L216 100.28V120a104.11 104.11 0 0 1-104 104H24a16 16 0 0 1-12.49-26l.1-.12L96 96.63V76.89c0-33.42 26.79-60.73 59.71-60.89h.29a60 60 0 0 1 57.21 41.86l23.23 15.48A8 8 0 0 1 240 80m-22.42 0L201.9 69.54a8 8 0 0 1-3.31-4.64A44 44 0 0 0 156 32h-.22C131.64 32.12 112 52.25 112 76.89v22.63a8 8 0 0 1-1.85 5.13L24 208h26.9l70.94-85.12a8 8 0 1 1 12.29 10.24L71.75 208H112a88.1 88.1 0 0 0 88-88V96a8 8 0 0 1 3.56-6.66Z"/></svg>