<svg xmlns="http://www.w3.org/2000/svg" fill="currentColor" viewBox="0 0 256 256"><path d="M168 16h-48a56.06 56.06 0 0 0-56 56h-8a32 32 0 0 0-32 32v29.19a16.1 16.1 0 0 0 3.51 10 8 8 0 0 0 .62.69L64 179.34V216a16 16 0 0 0 16 16h112a16 16 0 0 0 16-16v-38.88l15.38-53.85a16 16 0 0 0 .62-4.39V72a56.06 56.06 0 0 0-56-56m40 102.88-15.69 54.92a8 8 0 0 0-.31 2.2v40H80v-40a8 8 0 0 0-2.38-5.69L40 133.12V104a16 16 0 0 1 16-16h8v16a8 8 0 0 0 16 0V72a40 40 0 0 1 40-40h48a40 40 0 0 1 40 40Zm-36.42 48.28L153.89 176l17.69 8.84a8 8 0 0 1-7.16 14.32L136 184.94l-28.42 14.22a8 8 0 1 1-7.16-14.32l17.69-8.84-17.69-8.84a8 8 0 1 1 7.16-14.32L136 167.06l28.42-14.22a8 8 0 1 1 7.16 14.32"/></svg>