<svg xmlns="http://www.w3.org/2000/svg" fill="currentColor" viewBox="0 0 256 256"><path d="M240 208h-8V72a8 8 0 0 0-8-8h-40V40a8 8 0 0 0-8-8H80a8 8 0 0 0-8 8v56H32a8 8 0 0 0-8 8v104h-8a8 8 0 0 0 0 16h224a8 8 0 0 0 0-16M40 112h40a8 8 0 0 0 8-8V48h80v24a8 8 0 0 0 8 8h40v128h-64v-40a8 8 0 0 0-8-8h-32a8 8 0 0 0-8 8v40H40Zm96 96h-16v-32h16ZM112 72a8 8 0 0 1 8-8h16a8 8 0 0 1 0 16h-16a8 8 0 0 1-8-8m0 32a8 8 0 0 1 8-8h16a8 8 0 0 1 0 16h-16a8 8 0 0 1-8-8m56 0a8 8 0 0 1 8-8h16a8 8 0 0 1 0 16h-16a8 8 0 0 1-8-8m-80 32a8 8 0 0 1-8 8H64a8 8 0 0 1 0-16h16a8 8 0 0 1 8 8m0 32a8 8 0 0 1-8 8H64a8 8 0 0 1 0-16h16a8 8 0 0 1 8 8m24-32a8 8 0 0 1 8-8h16a8 8 0 0 1 0 16h-16a8 8 0 0 1-8-8m56 0a8 8 0 0 1 8-8h16a8 8 0 0 1 0 16h-16a8 8 0 0 1-8-8m0 32a8 8 0 0 1 8-8h16a8 8 0 0 1 0 16h-16a8 8 0 0 1-8-8"/></svg>