<svg xmlns="http://www.w3.org/2000/svg" fill="currentColor" viewBox="0 0 256 256"><path d="M208 32h-24v-8a8 8 0 0 0-16 0v8H88v-8a8 8 0 0 0-16 0v8H48a16 16 0 0 0-16 16v160a16 16 0 0 0 16 16h160a16 16 0 0 0 16-16V48a16 16 0 0 0-16-16M72 48v8a8 8 0 0 0 16 0v-8h80v8a8 8 0 0 0 16 0v-8h24v32H48V48Zm136 160H48V96h160zm-50.34-74.34L139.31 152l18.35 18.34a8 8 0 0 1-11.32 11.32L128 163.31l-18.34 18.35a8 8 0 0 1-11.32-11.32L116.69 152l-18.35-18.34a8 8 0 0 1 11.32-11.32L128 140.69l18.34-18.35a8 8 0 0 1 11.32 11.32"/></svg>