<svg xmlns="http://www.w3.org/2000/svg" fill="currentColor" viewBox="0 0 256 256"><path d="M128 136a8 8 0 0 1-8 8H72a8 8 0 0 1 0-16h48a8 8 0 0 1 8 8m-8-40H72a8 8 0 0 0 0 16h48a8 8 0 0 0 0-16m112 65.47V224a8 8 0 0 1-12 7l-24-13.74L172 231a8 8 0 0 1-12-7v-24H40a16 16 0 0 1-16-16V56a16 16 0 0 1 16-16h176a16 16 0 0 1 16 16v30.53a51.88 51.88 0 0 1 0 74.94M160 184v-22.53A52 52 0 0 1 216 76V56H40v128Zm56-12a51.88 51.88 0 0 1-40 0v38.22l16-9.16a8 8 0 0 1 7.94 0l16 9.16Zm16-48a36 36 0 1 0-36 36 36 36 0 0 0 36-36"/></svg>