<svg xmlns="http://www.w3.org/2000/svg" fill="currentColor" viewBox="0 0 256 256"><path d="M232.07 186.76a80 80 0 0 0-62.5-114.17 80 80 0 1 0-145.64 66.17l-7.27 24.71a16 16 0 0 0 19.87 19.87l24.71-7.27a80.4 80.4 0 0 0 25.18 7.35 80 80 0 0 0 108.34 40.65l24.71 7.27a16 16 0 0 0 19.87-19.86ZM62 159.5a8.3 8.3 0 0 0-2.26.32L32 168l8.17-27.76a8 8 0 0 0-.63-6A64 64 0 1 1 65.8 160.5a8 8 0 0 0-3.8-1m153.79 28.73L224 216l-27.76-8.17a8 8 0 0 0-6 .63 64.05 64.05 0 0 1-85.87-24.88 79.93 79.93 0 0 0 70.33-93.87 64 64 0 0 1 41.75 92.48 8 8 0 0 0-.63 6.04Z"/></svg>