<svg xmlns="http://www.w3.org/2000/svg" fill="currentColor" viewBox="0 0 256 256"><path d="M224 128H32a16 16 0 0 0-16 16v32a16 16 0 0 0 16 16h192a16 16 0 0 0 16-16v-32a16 16 0 0 0-16-16M32 144h48v32H32Zm192 32H96v-32h128zM201 60.08c8-14.23 7.42-21.71 6.36-24.91a7.8 7.8 0 0 0-2.64-3.86 8 8 0 1 1 6.5-14.62 22.57 22.57 0 0 1 11.32 13.44c3.36 10.14.81 22.85-7.6 37.79-8 14.23-7.42 21.72-6.36 24.91a7.8 7.8 0 0 0 2.64 3.86 8 8 0 1 1-6.5 14.62 22.57 22.57 0 0 1-11.32-13.44c-3.33-10.14-.78-22.87 7.6-37.79m-40 0c8-14.23 7.42-21.71 6.36-24.91a7.8 7.8 0 0 0-2.64-3.86 8 8 0 1 1 6.5-14.62 22.57 22.57 0 0 1 11.32 13.44c3.36 10.14.81 22.85-7.6 37.79-8 14.23-7.42 21.72-6.36 24.91a7.8 7.8 0 0 0 2.64 3.86 8 8 0 1 1-6.5 14.62 22.57 22.57 0 0 1-11.32-13.44c-3.33-10.14-.78-22.87 7.6-37.79"/></svg>