<svg xmlns="http://www.w3.org/2000/svg" fill="currentColor" viewBox="0 0 256 256"><path d="M216 120a8 8 0 0 0-6.78 3.76A180 180 0 0 1 195.41 143l-17.09-89.93a16 16 0 0 0-25.72-9.55l-.13.1L128 64l-24.47-20.38-.13-.1a16 16 0 0 0-25.72 9.53L60.59 143a179 179 0 0 1-13.81-19.25A8 8 0 0 0 40 120a40 40 0 0 0 0 80h176a40 40 0 0 0 0-80M93.41 56l24.47 20.4.12.1a15.92 15.92 0 0 0 20 0l.12-.1L162.59 56l13.68 72H79.73ZM40 184a24 24 0 0 1-4.14-47.64C51.28 159.83 67.73 174.65 82.4 184Zm88 0c-.33 0-25.49-.4-53.86-26.6l2.54-13.4h102.63l2.54 13.35a113.3 113.3 0 0 1-27.35 19c-15.4 7.42-26.44 7.65-26.5 7.65m88 0h-42.4c14.67-9.35 31.12-24.17 46.54-47.64A24 24 0 0 1 216 184"/></svg>