<svg xmlns="http://www.w3.org/2000/svg" fill="currentColor" viewBox="0 0 256 256"><path d="M248 112h-27.92l-47.5-65.41a16 16 0 0 0-25.31-.72l-12.85 14.9-.2.23a7.95 7.95 0 0 1-12.44 0l-.2-.23-12.85-14.9a16 16 0 0 0-25.31.72L35.92 112H8a8 8 0 0 0 0 16h240a8 8 0 0 0 0-16M96.34 56l.19.23 12.85 14.89a24 24 0 0 0 37.24 0l12.85-14.89c.06-.08.1-.15.17-.23l40.66 56H55.69ZM180 144a36 36 0 0 0-35.77 32h-32.46a36 36 0 1 0-1.83 16h36.12A36 36 0 1 0 180 144M76 200a20 20 0 1 1 20-20 20 20 0 0 1-20 20m104 0a20 20 0 1 1 20-20 20 20 0 0 1-20 20"/></svg>