<svg xmlns="http://www.w3.org/2000/svg" fill="currentColor" viewBox="0 0 256 256"><path d="M214.7 209.7a2 2 0 0 0-.11-.25l-45.48-96.86 20.5-32.18a2 2 0 0 0 .11-.18 16 16 0 0 0 0-16.46c-.09-.16-.2-.32-.3-.47L168 32.7V8a8 8 0 0 0-16 0v24.42L146.74 39a24 24 0 0 1-37.48 0L104 32.42V8a8 8 0 0 0-16 0v24.7L66.58 63.3c-.1.15-.21.31-.3.47a16 16 0 0 0 0 16.46 2 2 0 0 0 .11.18l20.5 32.18-45.48 96.86a2 2 0 0 0-.11.25A16 16 0 0 0 56 232h144a16 16 0 0 0 14.71-22.3ZM80 72l16.43-23.43.33.42a40 40 0 0 0 62.48 0l.33-.42L176 72l-20.38 32h-55.23ZM56 216l45.07-96h53.84L200 216Z"/></svg>