<svg xmlns="http://www.w3.org/2000/svg" fill="currentColor" viewBox="0 0 256 256"><path d="M80 96a8 8 0 0 1-8 8H24a8 8 0 0 1 0-16h48a8 8 0 0 1 8 8m-8 24H24a8 8 0 0 0 0 16h48a8 8 0 0 0 0-16m0 32H24a8 8 0 0 0 0 16h48a8 8 0 0 0 0-16m0 32H24a8 8 0 0 0 0 16h48a8 8 0 0 0 0-16m80-64h-48a8 8 0 0 0 0 16h48a8 8 0 0 0 0-16m0 32h-48a8 8 0 0 0 0 16h48a8 8 0 0 0 0-16m0 32h-48a8 8 0 0 0 0 16h48a8 8 0 0 0 0-16m80-96h-48a8 8 0 0 0 0 16h48a8 8 0 0 0 0-16m-48-16h48a8 8 0 0 0 0-16h-48a8 8 0 0 0 0 16m48 48h-48a8 8 0 0 0 0 16h48a8 8 0 0 0 0-16m0 32h-48a8 8 0 0 0 0 16h48a8 8 0 0 0 0-16m0 32h-48a8 8 0 0 0 0 16h48a8 8 0 0 0 0-16"/></svg>