<svg xmlns="http://www.w3.org/2000/svg" fill="currentColor" viewBox="0 0 256 256"><path d="M181.66 146.34a8 8 0 0 1 0 11.32l-24 24a8 8 0 0 1-11.32-11.32L164.69 152l-18.35-18.34a8 8 0 0 1 11.32-11.32Zm-72-24a8 8 0 0 0-11.32 0l-24 24a8 8 0 0 0 0 11.32l24 24a8 8 0 0 0 11.32-11.32L91.31 152l18.35-18.34a8 8 0 0 0 0-11.32M216 88v128a16 16 0 0 1-16 16H56a16 16 0 0 1-16-16V40a16 16 0 0 1 16-16h96a8 8 0 0 1 5.66 2.34l56 56A8 8 0 0 1 216 88m-56-8h28.69L160 51.31Zm40 136V96h-48a8 8 0 0 1-8-8V40H56v176z"/></svg>