<svg xmlns="http://www.w3.org/2000/svg" fill="currentColor" viewBox="0 0 256 256"><path d="M48 120a8 8 0 0 0 8-8V40h88v48a8 8 0 0 0 8 8h48v16a8 8 0 0 0 16 0V88a8 8 0 0 0-2.34-5.66l-56-56A8 8 0 0 0 152 24H56a16 16 0 0 0-16 16v72a8 8 0 0 0 8 8m112-68.69L188.69 80H160Zm-5.49 105.34L137.83 180l16.68 23.35a8 8 0 0 1-13 9.3L128 193.76l-13.49 18.89a8 8 0 1 1-13-9.3L118.17 180l-16.68-23.35a8 8 0 1 1 13-9.3L128 166.24l13.49-18.89a8 8 0 0 1 13 9.3ZM92 152a8 8 0 0 1-8 8H72v48a8 8 0 0 1-16 0v-48H44a8 8 0 0 1 0-16h40a8 8 0 0 1 8 8m128 0a8 8 0 0 1-8 8h-12v48a8 8 0 0 1-16 0v-48h-12a8 8 0 0 1 0-16h40a8 8 0 0 1 8 8"/></svg>