<svg xmlns="http://www.w3.org/2000/svg" fill="currentColor" viewBox="0 0 256 256"><path d="M52 144H36a8 8 0 0 0-8 8v56a8 8 0 0 0 8 8h16a36 36 0 0 0 0-72m0 56h-8v-40h8a20 20 0 0 1 0 40m169.53-4.91a8 8 0 0 1 .25 11.31A30.06 30.06 0 0 1 200 216c-17.65 0-32-16.15-32-36s14.35-36 32-36a30.06 30.06 0 0 1 21.78 9.6 8 8 0 0 1-11.56 11.06A14.24 14.24 0 0 0 200 160c-8.82 0-16 9-16 20s7.18 20 16 20a14.24 14.24 0 0 0 10.22-4.66 8 8 0 0 1 11.31-.25M128 144c-17.65 0-32 16.15-32 36s14.35 36 32 36 32-16.15 32-36-14.35-36-32-36m0 56c-8.82 0-16-9-16-20s7.18-20 16-20 16 9 16 20-7.18 20-16 20m-80-80a8 8 0 0 0 8-8V40h88v48a8 8 0 0 0 8 8h48v16a8 8 0 0 0 16 0V88a8 8 0 0 0-2.34-5.66l-56-56A8 8 0 0 0 152 24H56a16 16 0 0 0-16 16v72a8 8 0 0 0 8 8m112-68.69L188.69 80H160Z"/></svg>