<svg xmlns="http://www.w3.org/2000/svg" fill="currentColor" viewBox="0 0 256 256"><path d="M232 120h-16.37a87.3 87.3 0 0 0-7.74-28.88l14.18-8.19a8 8 0 0 0-8-13.86l-14.2 8.2a88.8 88.8 0 0 0-21.14-21.14l8.2-14.2a8 8 0 0 0-13.86-8l-8.19 14.18A87.3 87.3 0 0 0 136 40.37V24a8 8 0 0 0-16 0v16.37a87.3 87.3 0 0 0-28.88 7.74l-8.19-14.18a8 8 0 0 0-13.86 8l8.2 14.2a88.8 88.8 0 0 0-21.14 21.14l-14.2-8.2a8 8 0 0 0-8 13.86l14.18 8.19A87.3 87.3 0 0 0 40.37 120H24a8 8 0 0 0 0 16h16.37a87.3 87.3 0 0 0 7.74 28.88l-14.18 8.19a8 8 0 0 0 4 14.93 7.9 7.9 0 0 0 4-1.07l14.2-8.2a88.8 88.8 0 0 0 21.14 21.14l-8.2 14.2a8 8 0 0 0 13.86 8l8.19-14.18a87.3 87.3 0 0 0 28.88 7.74V232a8 8 0 0 0 16 0v-16.37a87.3 87.3 0 0 0 28.88-7.74l8.19 14.18a8 8 0 0 0 13.86-8l-8.2-14.2a88.8 88.8 0 0 0 21.14-21.14l14.2 8.2A8 8 0 0 0 225 184a8 8 0 0 0-2.92-10.93l-14.18-8.19a87.3 87.3 0 0 0 7.73-28.88H232a8 8 0 0 0 0-16M128 56a72.08 72.08 0 0 1 71.54 64h-66.92L99.16 62.05A71.6 71.6 0 0 1 128 56m-72 72a72 72 0 0 1 29.31-57.94L118.76 128l-33.45 57.94A72 72 0 0 1 56 128m72 72a71.6 71.6 0 0 1-28.84-6l33.46-58h66.92A72.08 72.08 0 0 1 128 200"/></svg>