<svg xmlns="http://www.w3.org/2000/svg" fill="currentColor" viewBox="0 0 256 256"><path d="m251.76 88.94-120-64a8 8 0 0 0-7.52 0l-120 64a8 8 0 0 0 0 14.12L32 117.87v48.42a15.9 15.9 0 0 0 4.06 10.65C49.16 191.53 78.51 216 128 216a130 130 0 0 0 48-8.76V240a8 8 0 0 0 16 0v-40.49a115.6 115.6 0 0 0 27.94-22.57 15.9 15.9 0 0 0 4.06-10.65v-48.42l27.76-14.81a8 8 0 0 0 0-14.12M128 200c-43.27 0-68.72-21.14-80-33.71V126.4l76.24 40.66a8 8 0 0 0 7.52 0L176 143.47v46.34c-12.6 5.88-28.48 10.19-48 10.19m80-33.75a97.8 97.8 0 0 1-16 14.25v-45.57l16-8.53Zm-20-47.31-.22-.13-56-29.87a8 8 0 0 0-7.52 14.12L171 128l-43 22.93L25 96l103-54.93L231 96Z"/></svg>