<svg xmlns="http://www.w3.org/2000/svg" fill="currentColor" viewBox="0 0 256 256"><path d="M230.33 141.06a24.34 24.34 0 0 0-18.61-4.77C230.5 117.33 240 98.48 240 80c0-26.47-21.29-48-47.46-48A47.58 47.58 0 0 0 156 48.75 47.58 47.58 0 0 0 119.46 32C93.29 32 72 53.53 72 80c0 11 3.24 21.69 10.06 33a31.87 31.87 0 0 0-14.75 8.4L44.69 144H16a16 16 0 0 0-16 16v40a16 16 0 0 0 16 16h104a8 8 0 0 0 1.94-.24l64-16a7 7 0 0 0 1.19-.4L226 182.82l.44-.2a24.6 24.6 0 0 0 3.93-41.56ZM119.46 48a31.15 31.15 0 0 1 29.14 19 8 8 0 0 0 14.8 0 31.15 31.15 0 0 1 29.14-19C209.59 48 224 62.65 224 80c0 19.51-15.79 41.58-45.66 63.9l-11.09 2.55A28 28 0 0 0 140 112h-39.32C92.05 100.36 88 90.12 88 80c0-17.35 14.41-32 31.46-32M16 160h24v40H16Zm203.43 8.21-38 16.18L119 200H56v-44.69l22.63-22.62A15.86 15.86 0 0 1 89.94 128H140a12 12 0 0 1 0 24h-28a8 8 0 0 0 0 16h32a8.3 8.3 0 0 0 1.79-.2l67-15.41.31-.08a8.6 8.6 0 0 1 6.3 15.9Z"/></svg>