<svg xmlns="http://www.w3.org/2000/svg" fill="currentColor" viewBox="0 0 256 256"><path d="M201.89 54.66A103.43 103.43 0 0 0 128.79 24H128A104 104 0 0 0 24 128v56a24 24 0 0 0 24 24h16a24 24 0 0 0 24-24v-40a24 24 0 0 0-24-24H40.36A88 88 0 0 1 128 40h.67a87.71 87.71 0 0 1 87 80H192a24 24 0 0 0-24 24v40a24 24 0 0 0 24 24h16a24 24 0 0 0 24-24v-56a103.4 103.4 0 0 0-30.11-73.34M64 136a8 8 0 0 1 8 8v40a8 8 0 0 1-8 8H48a8 8 0 0 1-8-8v-48Zm152 48a8 8 0 0 1-8 8h-16a8 8 0 0 1-8-8v-40a8 8 0 0 1 8-8h24Z"/></svg>