<svg xmlns="http://www.w3.org/2000/svg" fill="currentColor" viewBox="0 0 256 256"><path d="M224 152h-93.1L38.1 42.82a8 8 0 0 0-12.2 10.36l133.61 157.18A16 16 0 0 0 171.7 216H224a16 16 0 0 0 16-16v-32a16 16 0 0 0-16-16m-79.5 16H192v32h-20.3Zm79.5 32h-16v-32h16Zm-111.82-20.45a8 8 0 0 0-11.27.91L84.3 200H64v-32h21.2a8 8 0 0 0 0-16H32a16 16 0 0 0-16 16v32a16 16 0 0 0 16 16h52.3a16 16 0 0 0 12.19-5.64l16.61-19.53a8 8 0 0 0-.92-11.28M32 168h16v32H32Zm117.9-45.18 68-80a8 8 0 0 1 12.2 10.36l-68 80a8 8 0 1 1-12.2-10.36"/></svg>