<svg xmlns="http://www.w3.org/2000/svg" fill="currentColor" viewBox="0 0 256 256"><path d="M174.63 81.37a80 80 0 1 0-93.26 93.26 80 80 0 1 0 93.26-93.26M100.69 136 120 155.31A63.5 63.5 0 0 1 96 160a63.5 63.5 0 0 1 4.69-24m33.75 11.13-25.57-25.57a64.7 64.7 0 0 1 12.69-12.69l25.57 25.57a64.7 64.7 0 0 1-12.69 12.69M155.31 120 136 100.69A63.5 63.5 0 0 1 160 96a63.5 63.5 0 0 1-4.69 24M32 96a64 64 0 0 1 126-16 80.08 80.08 0 0 0-77.95 78A64.11 64.11 0 0 1 32 96m128 128a64.11 64.11 0 0 1-62-48 80.08 80.08 0 0 0 78-78 64 64 0 0 1-16 126"/></svg>