<svg xmlns="http://www.w3.org/2000/svg" fill="currentColor" viewBox="0 0 256 256"><path d="M224 128a8 8 0 0 1-8 8h-88a8 8 0 0 1 0-16h88a8 8 0 0 1 8 8m-96-56h88a8 8 0 0 0 0-16h-88a8 8 0 0 0 0 16m88 112h-88a8 8 0 0 0 0 16h88a8 8 0 0 0 0-16M82.34 42.34 56 68.69 45.66 58.34a8 8 0 0 0-11.32 11.32l16 16a8 8 0 0 0 11.32 0l32-32a8 8 0 0 0-11.32-11.32m0 64L56 132.69l-10.34-10.35a8 8 0 0 0-11.32 11.32l16 16a8 8 0 0 0 11.32 0l32-32a8 8 0 0 0-11.32-11.32m0 64L56 196.69l-10.34-10.35a8 8 0 0 0-11.32 11.32l16 16a8 8 0 0 0 11.32 0l32-32a8 8 0 0 0-11.32-11.32"/></svg>