<svg xmlns="http://www.w3.org/2000/svg" fill="currentColor" viewBox="0 0 256 256"><path d="M232 48H24A16 16 0 0 0 8 64v128a16 16 0 0 0 16 16h208a16 16 0 0 0 16-16V64a16 16 0 0 0-16-16m0 144H24V64h208zm-104-88v48a8 8 0 0 1-16 0v-28.69l-18.34 18.35a8 8 0 0 1-11.32 0L64 123.31V152a8 8 0 0 1-16 0v-48a8 8 0 0 1 13.66-5.66L88 124.69l26.34-26.35A8 8 0 0 1 128 104m77.66 18.34a8 8 0 0 1 0 11.32l-24 24a8 8 0 0 1-11.32 0l-24-24a8 8 0 0 1 11.32-11.32L168 132.69V104a8 8 0 0 1 16 0v28.69l10.34-10.35a8 8 0 0 1 11.32 0"/></svg>