<svg xmlns="http://www.w3.org/2000/svg" fill="currentColor" viewBox="0 0 256 256"><path d="M96 120a40 40 0 1 0 40 40 40 40 0 0 0-40-40m0 64a24 24 0 1 1 24-24 24 24 0 0 1-24 24m125.66-61.66a8 8 0 0 1 0 11.32l-48 48a8 8 0 0 1-11.32-11.32l48-48a8 8 0 0 1 11.32 0M160 136a8 8 0 0 1-5.66-13.66l24-24a8 8 0 0 1 11.32 11.32l-24 24A8 8 0 0 1 160 136m69.66-66.34-16 16a8 8 0 0 1-11.32-11.32l16-16a8 8 0 0 1 11.32 11.32M122.34 90.34l72-72a8 8 0 1 1 11.32 11.32l-72 72a8 8 0 0 1-11.32-11.32m24.57 109.26a8 8 0 0 1 0 11.31A72 72 0 1 1 45.09 109.09l82.74-82.75a8 8 0 1 1 11.32 11.32L56.4 120.4a56 56 0 0 0 79.2 79.2 8 8 0 0 1 11.31 0"/></svg>