<svg xmlns="http://www.w3.org/2000/svg" fill="currentColor" viewBox="0 0 256 256"><path d="m213.92 218.62-160-176a8 8 0 0 0-11.84 10.76L80 95.09V128a48 48 0 0 0 69.11 43.12l11.1 12.2A63.4 63.4 0 0 1 128 192a64.07 64.07 0 0 1-64-64 8 8 0 0 0-16 0 80.11 80.11 0 0 0 72 79.6V240a8 8 0 0 0 16 0v-32.41a78.8 78.8 0 0 0 35.16-12.22l30.92 34a8 8 0 1 0 11.84-10.76ZM128 160a32 32 0 0 1-32-32v-15.31l41.66 45.82A32 32 0 0 1 128 160m57.52-3.91A63.3 63.3 0 0 0 192 128a8 8 0 0 1 16 0 79.16 79.16 0 0 1-8.11 35.12 8 8 0 0 1-7.19 4.49 7.9 7.9 0 0 1-3.51-.82 8 8 0 0 1-3.67-10.7M84 44.87A48 48 0 0 1 176 64v64a49 49 0 0 1-.26 5 8 8 0 0 1-8 7.17 8 8 0 0 1-.84 0 8 8 0 0 1-7.12-8.79c.11-1.1.17-2.24.17-3.36V64a32 32 0 0 0-61.31-12.75A8 8 0 1 1 84 44.87"/></svg>