<svg xmlns="http://www.w3.org/2000/svg" fill="currentColor" viewBox="0 0 256 256"><path d="M144 16h-32a64.07 64.07 0 0 0-64 64v96a64.07 64.07 0 0 0 64 64h32a64.07 64.07 0 0 0 64-64V80a64.07 64.07 0 0 0-64-64m48 160a48.05 48.05 0 0 1-48 48h-32a48.05 48.05 0 0 1-48-48V80a48.05 48.05 0 0 1 48-48h32a48.05 48.05 0 0 1 48 48Zm-56-92.69v89.38l10.34-10.35a8 8 0 0 1 11.32 11.32l-24 24a8 8 0 0 1-11.32 0l-24-24a8 8 0 0 1 11.32-11.32L120 172.69V83.31l-10.34 10.35a8 8 0 0 1-11.32-11.32l24-24a8 8 0 0 1 11.32 0l24 24a8 8 0 0 1-11.32 11.32Z"/></svg>