<svg xmlns="http://www.w3.org/2000/svg" fill="currentColor" viewBox="0 0 256 256"><path d="M216 40H40a16 16 0 0 0-16 16v160a8 8 0 0 0 11.58 7.15L64 208.94l28.42 14.21a8 8 0 0 0 7.16 0L128 208.94l28.42 14.21a8 8 0 0 0 7.16 0L192 208.94l28.42 14.21A8 8 0 0 0 232 216V56a16 16 0 0 0-16-16m0 163.06-20.42-10.22a8 8 0 0 0-7.16 0L160 207.06l-28.42-14.22a8 8 0 0 0-7.16 0L96 207.06l-28.42-14.22a8 8 0 0 0-7.16 0L40 203.06V56h176ZM136 112a8 8 0 0 1 8-8h48a8 8 0 0 1 0 16h-48a8 8 0 0 1-8-8m0 32a8 8 0 0 1 8-8h48a8 8 0 0 1 0 16h-48a8 8 0 0 1-8-8m-72 24h48a8 8 0 0 0 8-8V96a8 8 0 0 0-8-8H64a8 8 0 0 0-8 8v64a8 8 0 0 0 8 8m8-64h32v48H72Z"/></svg>