<svg xmlns="http://www.w3.org/2000/svg" fill="currentColor" viewBox="0 0 256 256"><path d="M80 48a16 16 0 1 1-16-16 16 16 0 0 1 16 16m48-16a16 16 0 1 0 16 16 16 16 0 0 0-16-16m64 32a16 16 0 1 0-16-16 16 16 0 0 0 16 16M64 88a16 16 0 1 0 16 16 16 16 0 0 0-16-16m64 0a16 16 0 1 0 16 16 16 16 0 0 0-16-16m64 0a16 16 0 1 0 16 16 16 16 0 0 0-16-16M64 144a16 16 0 1 0 16 16 16 16 0 0 0-16-16m64 0a16 16 0 1 0 16 16 16 16 0 0 0-16-16m0 56a16 16 0 1 0 16 16 16 16 0 0 0-16-16m64-56a16 16 0 1 0 16 16 16 16 0 0 0-16-16"/></svg>