<svg xmlns="http://www.w3.org/2000/svg" fill="currentColor" viewBox="0 0 256 256"><path d="M200.77 53.89A103.27 103.27 0 0 0 128 24h-1.07A104 104 0 0 0 24 128c0 43 26.58 79.06 69.36 94.17A32 32 0 0 0 136 192a16 16 0 0 1 16-16h46.21a31.81 31.81 0 0 0 31.2-24.88 104.4 104.4 0 0 0 2.59-24 103.28 103.28 0 0 0-31.23-73.23m13 93.71a15.89 15.89 0 0 1-15.56 12.4H152a32 32 0 0 0-32 32 16 16 0 0 1-21.31 15.07C62.49 194.3 40 164 40 128a88 88 0 0 1 87.09-88h.9a88.35 88.35 0 0 1 88 87.25 89 89 0 0 1-2.18 20.35ZM140 76a12 12 0 1 1-12-12 12 12 0 0 1 12 12m-44 24a12 12 0 1 1-12-12 12 12 0 0 1 12 12m0 56a12 12 0 1 1-12-12 12 12 0 0 1 12 12m88-56a12 12 0 1 1-12-12 12 12 0 0 1 12 12"/></svg>