<svg xmlns="http://www.w3.org/2000/svg" fill="currentColor" viewBox="0 0 256 256"><path d="M128 88a32 32 0 1 0-32-32 32 32 0 0 0 32 32m0-48a16 16 0 1 1-16 16 16 16 0 0 1 16-16M48 96a16 16 0 1 1 16 16 16 16 0 0 1-16-16m174.24 14.61a8 8 0 0 1-11.24 1.26c-1.15-.89-23.71-17.7-59.32.61a215 215 0 0 1-3 30.35l32.43 27a8 8 0 0 1 2.47 8.68l-16 48a8 8 0 0 1-15.18-5.06l14.27-42.82-22.08-18.4a142 142 0 0 1-5.1 14.33c-13.75 32.74-38.38 54.63-73.2 65.08a8 8 0 0 1-4.6-15.32c60.68-18.21 71.14-72.22 73.42-101.65C108 139.88 86.57 144 72.36 144a59.6 59.6 0 0 1-19.67-3.27A8 8 0 0 1 56 125.4a7.8 7.8 0 0 1 3.31.73s26.76 10.68 72.19-20.2c52.29-35.54 88-7.77 89.51-6.57a8 8 0 0 1 1.23 11.25"/></svg>