<svg xmlns="http://www.w3.org/2000/svg" fill="currentColor" viewBox="0 0 256 256"><path d="m214.36 166.46-47.1-21.11-.12-.06a16 16 0 0 0-15.18 1.4 8 8 0 0 0-.75.56L126.87 168c-15.42-7.49-31.34-23.29-38.83-38.51l20.78-24.71c.2-.25.39-.5.57-.77a16 16 0 0 0 1.32-15.06v-.12L89.54 41.64a16 16 0 0 0-16.62-9.52A56.26 56.26 0 0 0 24 88c0 79.4 64.6 144 144 144a56.26 56.26 0 0 0 55.88-48.92 16 16 0 0 0-9.52-16.62M168 216A128.14 128.14 0 0 1 40 88a40.2 40.2 0 0 1 34.87-40 .6.6 0 0 0 0 .12l21 47-20.67 24.74a6 6 0 0 0-.57.77 16 16 0 0 0-1 15.7c9.06 18.53 27.73 37.06 46.46 46.11a16 16 0 0 0 15.75-1.14 7 7 0 0 0 .74-.57L160.89 160l47 21.06h.11A40.21 40.21 0 0 1 168 216m24-112V48a8 8 0 0 1 16 0v56a8 8 0 0 1-16 0m-40 0V48a8 8 0 0 1 16 0v56a8 8 0 0 1-16 0"/></svg>