<svg xmlns="http://www.w3.org/2000/svg" fill="currentColor" viewBox="0 0 256 256"><path d="M237.66 66.34a8 8 0 0 0-11.32 0L192 100.69 155.31 64l34.35-34.34a8 8 0 1 0-11.32-11.32L144 52.69l-26.34-26.35a8 8 0 0 0-11.32 11.32l6.35 6.34-53 53a40 40 0 0 0 0 56.57l15.71 15.71-49.06 49.06a8 8 0 0 0 11.32 11.32l49.09-49.09 15.71 15.71a40 40 0 0 0 56.57 0l53-53 6.34 6.35a8 8 0 0 0 11.32-11.32L203.31 112l34.35-34.34a8 8 0 0 0 0-11.32M147.72 185a24 24 0 0 1-33.95 0L71 142.23a24 24 0 0 1 0-33.95l53-53L200.69 132Z"/></svg>