<svg xmlns="http://www.w3.org/2000/svg" fill="currentColor" viewBox="0 0 256 256"><path d="M237.66 18.34a8 8 0 0 0-11.32 0l-52.4 52.41-5.37-5.38a32.05 32.05 0 0 0-45.26 0L100 88.69l-6.34-6.35a8 8 0 0 0-11.32 11.32l6.35 6.34-23.32 23.31a32 32 0 0 0 0 45.26l5.38 5.37-52.41 52.4a8 8 0 0 0 11.32 11.32l52.4-52.41 5.37 5.38a32 32 0 0 0 45.26 0L156 167.31l6.34 6.35a8 8 0 0 0 11.32-11.32l-6.35-6.34 23.32-23.31a32 32 0 0 0 0-45.26l-5.38-5.37 52.41-52.4a8 8 0 0 0 0-11.32m-116.29 161a16 16 0 0 1-22.62 0l-22.06-22.09a16 16 0 0 1 0-22.62L100 111.31 144.69 156Zm57.94-57.94L156 144.69 111.31 100l23.32-23.31a16 16 0 0 1 22.62 0l22.06 22a16 16 0 0 1 0 22.68ZM88.57 35a8 8 0 0 1 14.86-6l8 20a8 8 0 0 1-14.86 6Zm-64 58A8 8 0 0 1 35 88.57l20 8a8 8 0 0 1-6 14.86l-20-8A8 8 0 0 1 24.57 93m206.86 70a8 8 0 0 1-10.4 4.46l-20-8a8 8 0 1 1 5.97-14.89l20 8a8 8 0 0 1 4.43 10.43m-64 58.06a8 8 0 0 1-14.86 5.94l-8-20a8 8 0 0 1 14.86-6Z"/></svg>