<svg xmlns="http://www.w3.org/2000/svg" fill="currentColor" viewBox="0 0 256 256"><path d="M230 26.05C202-1.88 151.53 3.16 117.4 37.3c-31.79 31.79-38.33 77.77-16.51 106.49l-29.56 29.56-.68-.68a16 16 0 0 0-22.64 0L20.69 200a16 16 0 0 0 0 22.64l12.69 12.69a16 16 0 0 0 22.63 0L83.34 208a16 16 0 0 0 0-22.63l-.69-.69 29.56-29.56c11.29 8.58 25.24 12.79 40 12.79 22.72 0 47.25-10 66.54-29.3C252.83 104.47 257.88 54 230 26.05M44.7 224 32 211.31 59.33 184l6.33 6.34 6.34 6.33Zm179.53-120h-24.17V72h32a72.45 72.45 0 0 1-7.83 32M136 149.61A44.15 44.15 0 0 1 106.39 120H136ZM104 104a72.24 72.24 0 0 1 7.86-32H136v32Zm48-32h32v32h-32Zm77.67-16h-29.61V26.28a44.23 44.23 0 0 1 29.66 29.66Zm-45.82-32h.16v32h-32V31.76a72.5 72.5 0 0 1 31.89-7.86ZM136 42.06v13.88h-13.84a90 90 0 0 1 6.56-7.32 93 93 0 0 1 7.28-6.56m16 109.92V120h32v24.16a72.24 72.24 0 0 1-31.95 7.84Zm48-18.14V120h14a92 92 0 0 1-6.56 7.32 90 90 0 0 1-7.38 6.52Z"/></svg>