<svg xmlns="http://www.w3.org/2000/svg" fill="currentColor" viewBox="0 0 256 256"><path d="M205.66 50.32a8 8 0 0 1 0 11.32l-56 56a8 8 0 0 1-11.32-11.31l56-56a8 8 0 0 1 11.32-.01M248 58.41a50.13 50.13 0 0 1-14.77 35.66L180 147.3a15.86 15.86 0 0 1-11.31 4.7H152v16.83a16 16 0 0 1-3.25 9.66 8 8 0 0 1-.72.83l-8 8a16 16 0 0 1-22.62 0L98.7 168.6l-77 77.06a8 8 0 0 1-11.32-11.32l77.05-77.05-18.7-18.71a16 16 0 0 1 0-22.63l8-8a8 8 0 0 1 .82-.72 16.14 16.14 0 0 1 9.62-3.23H104V87.3a15.92 15.92 0 0 1 4.68-11.3l53.24-53.23A50.43 50.43 0 0 1 248 58.41m-16 0a34.43 34.43 0 0 0-58.77-24.35L120 87.3V104a16 16 0 0 1-16 16H87.28L80 127.27 128.72 176l7.28-7.28V152a16 16 0 0 1 16-16h16.69l53.23-53.24A34.2 34.2 0 0 0 232 58.41"/></svg>