<svg xmlns="http://www.w3.org/2000/svg" fill="currentColor" viewBox="0 0 256 256"><path d="M208 40H48a16 16 0 0 0-16 16v56c0 52.72 25.52 84.67 46.93 102.19 23.06 18.86 46 25.26 47 25.53a8 8 0 0 0 4.2 0c1-.27 23.91-6.67 47-25.53C198.48 196.67 224 164.72 224 112V56a16 16 0 0 0-16-16m-40.6 161.42a129.3 129.3 0 0 1-39.4 22.2 128.3 128.3 0 0 1-38.92-21.81 111.8 111.8 0 0 1-24.51-27.64l63.43-44.4 63.43 44.4a111.6 111.6 0 0 1-24.03 27.25M208 112q0 26.31-9.14 47.84l-66.27-46.39a8 8 0 0 0-9.18 0l-66.28 46.39C51.06 145.52 48 129.54 48 112V56h160Z"/></svg>