<svg xmlns="http://www.w3.org/2000/svg" fill="currentColor" viewBox="0 0 256 256"><path d="M80.57 117A8 8 0 0 1 91 112.57l29 11.61V96a8 8 0 0 1 16 0v28.18l29-11.61a8 8 0 1 1 6 14.86l-30.31 12.12 17.71 23.65a8 8 0 1 1-12.8 9.6L128 149.33l-17.6 23.47a8 8 0 1 1-12.8-9.6l17.74-23.65L85 127.43A8 8 0 0 1 80.57 117M224 56v56c0 52.72-25.52 84.67-46.93 102.19-23.06 18.86-46 25.27-47 25.53a8 8 0 0 1-4.2 0c-1-.26-23.91-6.67-47-25.53C57.52 196.67 32 164.72 32 112V56a16 16 0 0 1 16-16h160a16 16 0 0 1 16 16m-16 0H48v56c0 37.3 13.82 67.51 41.07 89.81A128.3 128.3 0 0 0 128 223.62a129.3 129.3 0 0 0 39.41-22.2C194.34 179.16 208 149.07 208 112Z"/></svg>