<svg xmlns="http://www.w3.org/2000/svg" fill="currentColor" viewBox="0 0 256 256"><path d="m114.34 154.34 96-96a8 8 0 0 1 11.32 11.32l-96 96a8 8 0 0 1-11.32-11.32M128 88a63.9 63.9 0 0 1 20.44 3.33 8 8 0 1 0 5.11-15.16 80 80 0 0 0-105.06 84.71 8 8 0 0 0 7.94 7.12c.29 0 .59 0 .89-.05a8 8 0 0 0 7.07-8.83A65 65 0 0 1 64 152a64.07 64.07 0 0 1 64-64m99.74 13a8 8 0 0 0-14.24 7.3 96.27 96.27 0 0 1 5 75.71l-181.1-.07A96.24 96.24 0 0 1 128 56h.88a95 95 0 0 1 42.82 10.5 8 8 0 1 0 7.3-14.23 112 112 0 0 0-156.66 137A16.07 16.07 0 0 0 37.46 200h181.07a16 16 0 0 0 15.11-10.71 112.35 112.35 0 0 0-5.9-88.3Z"/></svg>