<svg xmlns="http://www.w3.org/2000/svg" fill="currentColor" viewBox="0 0 256 256"><path d="M128 24a104 104 0 1 0 104 104A104.11 104.11 0 0 0 128 24m0 192a88 88 0 1 1 88-88 88.1 88.1 0 0 1-88 88m31.07-46.26a8 8 0 0 1-10.81 3.33 42.79 42.79 0 0 0-40.52 0 8 8 0 0 1-7.48-14.14 59.33 59.33 0 0 1 55.48 0 8 8 0 0 1 3.33 10.81m32-56a8 8 0 0 1-10.83 3.29 110.62 110.62 0 0 0-104.46 0 8 8 0 0 1-7.54-14.12 126.67 126.67 0 0 1 119.54 0 8 8 0 0 1 3.28 10.85Zm-16 28a8 8 0 0 1-10.82 3.3 77 77 0 0 0-72.48 0 8 8 0 0 1-7.52-14.12 93 93 0 0 1 87.52 0 8 8 0 0 1 3.29 10.84Z"/></svg>