<svg xmlns="http://www.w3.org/2000/svg" fill="currentColor" viewBox="0 0 256 256"><path d="M232 96a8 8 0 0 0-.3-2.2l-14.35-50.2A16.07 16.07 0 0 0 202 32H54a16.07 16.07 0 0 0-15.35 11.6L24.31 93.8A8 8 0 0 0 24 96v16a40 40 0 0 0 16 32v72a8 8 0 0 0 8 8h160a8 8 0 0 0 8-8v-72a40 40 0 0 0 16-32zM54 48h148l11.42 40H42.61Zm50 56h48v8a24 24 0 0 1-48 0Zm-16 0v8a24 24 0 0 1-35.12 21.26 8 8 0 0 0-1.82-1.06A24 24 0 0 1 40 112v-8Zm112 104H56v-56.8a40.6 40.6 0 0 0 8 .8 40 40 0 0 0 32-16 40 40 0 0 0 64 0 40 40 0 0 0 32 16 40.6 40.6 0 0 0 8-.8Zm4.93-75.8a8 8 0 0 0-1.8 1.05A24 24 0 0 1 168 112v-8h48v8a24 24 0 0 1-11.07 20.2"/></svg>