<svg xmlns="http://www.w3.org/2000/svg" fill="currentColor" viewBox="0 0 256 256"><path d="M216 32h-64a8 8 0 0 0-6.34 3.12l-64 83.21-9.66-9.64a16 16 0 0 0-22.64 0l-12.69 12.7a16 16 0 0 0 0 22.63l20 20-28 28a16 16 0 0 0 0 22.63l12.69 12.68a16 16 0 0 0 22.62 0l28-28 20 20a16 16 0 0 0 22.64 0l12.69-12.7a16 16 0 0 0 0-22.63l-9.64-9.64 83.21-64A8 8 0 0 0 224 104V40a8 8 0 0 0-8-8M52.69 216 40 203.32l28-28L80.68 188Zm70.61-8L48 132.71 60.7 120l75.3 75.31ZM208 100.06l-81.74 62.88L115.32 152l50.34-50.34a8 8 0 0 0-11.32-11.31L104 140.68l-10.93-10.94L155.94 48H208Z"/></svg>