<svg xmlns="http://www.w3.org/2000/svg" fill="currentColor" viewBox="0 0 256 256"><path d="M128 153V48a8 8 0 0 0-16 0v105a32 32 0 1 0 16 0m-8 47a16 16 0 1 1 16-16 16 16 0 0 1-16 16m40-66V48a40 40 0 0 0-80 0v86a64 64 0 1 0 80 0m-40 98a48 48 0 0 1-27.42-87.4A8 8 0 0 0 96 138V48a24 24 0 0 1 48 0v90a8 8 0 0 0 3.42 6.56A48 48 0 0 1 120 232m57.3-151.23a8 8 0 0 1 2.33-11.07c15-9.79 26.87-4.75 35.51-1.06 7.86 3.36 12.62 5.36 20.49.25a8 8 0 0 1 8.74 13.41C237.88 86.53 232 88 226.69 88c-7 0-12.92-2.54-17.83-4.63C201 80 196.24 78 188.37 83.11a8 8 0 0 1-11.07-2.34m69.4 22.46a8 8 0 0 1-2.33 11.07c-6.49 4.23-12.37 5.7-17.68 5.7-7 0-12.92-2.54-17.83-4.63-7.87-3.36-12.62-5.38-20.49-.25a8 8 0 0 1-8.74-13.41c15-9.79 26.87-4.75 35.51-1.06 7.87 3.36 12.62 5.39 20.49.25a8 8 0 0 1 11.07 2.33"/></svg>