<svg xmlns="http://www.w3.org/2000/svg" fill="currentColor" viewBox="0 0 256 256"><path d="M208 32H48a16 16 0 0 0-16 16v160a16 16 0 0 0 16 16h160a16 16 0 0 0 16-16V48a16 16 0 0 0-16-16m0 16v104h-28.7a15.86 15.86 0 0 0-11.3 4.69L148.69 176h-41.38L88 156.69A15.86 15.86 0 0 0 76.69 152H48V48Zm0 160H48v-40h28.69L96 187.31a15.86 15.86 0 0 0 11.31 4.69h41.38a15.86 15.86 0 0 0 11.31-4.69L179.31 168H208zM90.34 125.66a8 8 0 0 1 11.32-11.32L120 132.69V72a8 8 0 0 1 16 0v60.69l18.34-18.35a8 8 0 0 1 11.32 11.32l-32 32a8 8 0 0 1-11.32 0Z"/></svg>