<svg xmlns="http://www.w3.org/2000/svg" fill="currentColor" viewBox="0 0 256 256"><path d="M198.1 62.59a76 76 0 0 0-140.2 0A71.71 71.71 0 0 0 16 127.8C15.9 166 48 199 86.14 200a72.1 72.1 0 0 0 33.86-7.53V232a8 8 0 0 0 16 0v-39.53a72.2 72.2 0 0 0 32 7.53h1.82c38.18-1 70.29-34 70.18-72.2a71.71 71.71 0 0 0-41.9-65.21M169.45 184A56.08 56.08 0 0 1 136 174v-41l43.58-21.78a8 8 0 1 0-7.16-14.32L136 115.06V88a8 8 0 0 0-16 0v51.06l-36.42-18.22a8 8 0 1 0-7.16 14.32L120 156.94v17a56 56 0 0 1-33.45 10c-29.65-.71-54.63-26.42-54.55-56.1A55.77 55.77 0 0 1 67.11 76a8 8 0 0 0 4.53-4.67 60 60 0 0 1 112.72 0 8 8 0 0 0 4.53 4.67A55.79 55.79 0 0 1 224 127.84c.08 29.68-24.9 55.39-54.55 56.16"/></svg>