<svg xmlns="http://www.w3.org/2000/svg" fill="currentColor" viewBox="0 0 256 256"><path d="M56 96v64a8 8 0 0 1-16 0V96a8 8 0 0 1 16 0m-2.08-61.38a8 8 0 1 0-11.84 10.76L80 87.09V224a8 8 0 0 0 16 0V104.69l24 26.4V192a8 8 0 0 0 16 0v-43.31l66.08 72.69a8 8 0 1 0 11.84-10.76ZM88 44.43a8 8 0 0 0 8-8V32a8 8 0 0 0-16 0v4.43a8 8 0 0 0 8 8m40 44a8 8 0 0 0 8-8V64a8 8 0 0 0-16 0v16.43a8 8 0 0 0 8 8m40 44a8 8 0 0 0 8-8V96a8 8 0 0 0-16 0v28.43a8 8 0 0 0 8 8M208 72a8 8 0 0 0-8 8v88.43a8 8 0 0 0 16 0V80a8 8 0 0 0-8-8"/></svg>