<svg xmlns="http://www.w3.org/2000/svg" width="24" height="24" fill="none" stroke="currentColor" stroke-linecap="round" stroke-linejoin="round" stroke-width="2" viewBox="0 0 24 24"><path d="M5 5a1 1 0 0 1 1-1h2a1 1 0 0 1 1 1v14a1 1 0 0 1-1 1H6a1 1 0 0 1-1-1zm4 0a1 1 0 0 1 1-1h2a1 1 0 0 1 1 1v14a1 1 0 0 1-1 1h-2a1 1 0 0 1-1-1zM5 8h4m0 8h4"/><path d="m13.803 4.56 2.184-.53c.562-.135 1.133.19 1.282.732l3.695 13.418a1.02 1.02 0 0 1-.634 1.219l-.133.041-2.184.53c-.562.135-1.133-.19-1.282-.732L13.036 5.82a1.02 1.02 0 0 1 .634-1.219zM14 9l4-1m-2 8 3.923-.98"/></svg>