<svg xmlns="http://www.w3.org/2000/svg" width="24" height="24" fill="none" stroke="currentColor" stroke-linecap="round" stroke-linejoin="round" stroke-width="2" viewBox="0 0 24 24"><path d="M10 5h4V3a1 1 0 0 0-1-1h-2a1 1 0 0 0-1 1z"/><path d="M14 3.5c0 1.626.507 3.212 1.45 4.537l.05.07a8.1 8.1 0 0 1 1.5 4.694V13m0 4v2a2 2 0 0 1-2 2H9a2 2 0 0 1-2-2v-6.2a8.1 8.1 0 0 1 1.35-4.474m1.336-2.63A7.8 7.8 0 0 0 10 3.5"/><path d="M7 14.803A2.4 2.4 0 0 0 8 14a2.4 2.4 0 0 1 2-1 2.4 2.4 0 0 1 2 1 2.4 2.4 0 0 0 2 1 2.4 2.4 0 0 0 .866-.142M3 3l18 18"/></svg>