<svg xmlns="http://www.w3.org/2000/svg" width="24" height="24" fill="none" stroke="currentColor" stroke-linecap="round" stroke-linejoin="round" stroke-width="2" viewBox="0 0 24 24"><path d="M4 9.5a1 1.5 0 1 0 2 0 1 1.5 0 1 0-2 0m10.463 2.096c1.282 1.774 3.476 3.416 3.476 3.416s1.921 1.574.593 3.636S13.64 19.8 13.64 19.8s-1.416-.44-3.06-.088c-1.644.356-3.06.22-3.06.22s-2.055-.22-2.47-2.304 1.918-3.638 2.102-3.858c.182-.222 1.409-.966 2.284-2.394s3.337-2.287 5.027.221M8 4.5a1 1.5 0 1 0 2 0 1 1.5 0 1 0-2 0m6 0a1 1.5 0 1 0 2 0 1 1.5 0 1 0-2 0m4 5a1 1.5 0 1 0 2 0 1 1.5 0 1 0-2 0"/></svg>