<svg xmlns="http://www.w3.org/2000/svg" width="24" height="24" fill="none" stroke="currentColor" stroke-linecap="round" stroke-linejoin="round" stroke-width="2" viewBox="0 0 24 24"><path d="M21 16.008V7.99a1.98 1.98 0 0 0-1-1.717l-7-4.008a2.02 2.02 0 0 0-2 0L4 6.273c-.619.355-1 1.01-1 1.718v8.018c0 .709.381 1.363 1 1.717l7 4.008c.62.354 1.38.354 2 0l7-4.008c.619-.355 1-1.01 1-1.718M12 22V12m0 0 8.73-5.04m-17.46 0L12 12m0 5 3.003-1.668m3-1.667L21 12m-9 5-9-5"/><path d="m15 17 3-1.67v-3L15 14z"/></svg>