<svg xmlns="http://www.w3.org/2000/svg" width="24" height="24" fill="none" stroke="currentColor" stroke-linecap="round" stroke-linejoin="round" stroke-width="2" viewBox="0 0 24 24"><path d="M16.5 10c3.038 0 5.5 2.015 5.5 4.5 0 1.397-.778 2.645-2 3.47V20l-1.964-1.178A6.7 6.7 0 0 1 16.5 19c-3.038 0-5.5-2.015-5.5-4.5s2.462-4.5 5.5-4.5"/><path d="M11.197 15.698c-.69.196-1.43.302-2.197.302a8 8 0 0 1-2.612-.432L4 17v-2.801C2.763 13.117 2 11.635 2 10c0-3.314 3.134-6 7-6 3.782 0 6.863 2.57 7 5.785v.233M10 8h.01M7 8h.01M15 14h.01M18 14h.01"/></svg>