<svg xmlns="http://www.w3.org/2000/svg" width="24" height="24" fill="none" stroke="currentColor" stroke-linecap="round" stroke-linejoin="round" stroke-width="2" viewBox="0 0 24 24"><path d="M8.286 7.008C5.07 7.008 4 10.238 4 12.928 4 16.157 6.143 21 8.286 21c1.165-.05 1.799-.538 3.214-.538 1.406 0 1.607.538 3.214.538S19 17.771 19 15.619c-.03-.011-2.649-.434-2.679-3.23-.02-2.335 2.589-3.179 2.679-3.228-1.096-1.606-3.162-2.113-3.75-2.153-1.535-.12-3.032 1.077-3.75 1.077-.729 0-2.036-1.077-3.214-1.077M12 4a2 2 0 0 0 2-2 2 2 0 0 0-2 2"/></svg>