<svg xmlns="http://www.w3.org/2000/svg" width="24" height="24" fill="none" stroke="currentColor" stroke-linecap="round" stroke-linejoin="round" stroke-width="2" viewBox="0 0 24 24"><path d="M6.306 8.711C3.704 9.434 2 10.637 2 12c0 2.21 4.477 4 10 4 .773 0 1.526-.035 2.248-.102m3.444-.609C20.295 14.567 22 13.363 22 12c0-2.21-4.477-4-10-4-.773 0-1.526.035-2.25.102"/><path d="M6.305 15.287C5.629 17.902 5.82 19.98 7 20.66c1.913 1.105 5.703-1.877 8.464-6.66q.581-1.007 1.036-2m1.194-3.284C18.371 6.1 18.181 4.02 17 3.34 15.087 2.235 11.297 5.217 8.536 10c-.387.67-.733 1.34-1.037 2"/><path d="M12 5.424C10.075 3.532 8.18 2.658 7 3.34 5.087 4.444 5.774 9.217 8.536 14c.386.67.793 1.304 1.212 1.896M12 18.574c1.926 1.893 3.821 2.768 5 2.086 1.913-1.104 1.226-5.877-1.536-10.66q-.563-.976-1.212-1.897M11.5 12.866a1 1 0 1 0 1-1.732 1 1 0 0 0-1 1.732"/></svg>