<svg xmlns="http://www.w3.org/2000/svg" width="24" height="24" fill="none" stroke="currentColor" stroke-linecap="round" stroke-linejoin="round" stroke-width="2" viewBox="0 0 24 24"><path d="M10.5 20H5a2 2 0 0 1-2-2V9a2 2 0 0 1 2-2h1a2 2 0 0 0 2-2 1 1 0 0 1 1-1h6a1 1 0 0 1 1 1 2 2 0 0 0 2 2h1a2 2 0 0 1 2 2v2.5"/><path d="M14.569 11.45a3 3 0 1 0-4.518 3.83m7.749 5.537-2.172 1.138a.392.392 0 0 1-.568-.41l.415-2.411-1.757-1.707a.389.389 0 0 1 .217-.665l2.428-.352 1.086-2.193a.392.392 0 0 1 .702 0l1.086 2.193 2.428.352a.39.39 0 0 1 .217.665l-1.757 1.707.414 2.41a.39.39 0 0 1-.567.411z"/></svg>