<svg xmlns="http://www.w3.org/2000/svg" width="24" height="24" fill="none" stroke="currentColor" stroke-linecap="round" stroke-linejoin="round" stroke-width="2" viewBox="0 0 24 24"><path d="M21 15h-2.5a1.503 1.503 0 0 0-1.5 1.5 1.503 1.503 0 0 0 1.5 1.5h1a1.503 1.503 0 0 1 1.5 1.5 1.503 1.503 0 0 1-1.5 1.5H17m2 0v1m0-8v1m-6 6H6a2 2 0 0 1-2-2V9a2 2 0 0 1 2-2h2m12 3.12V9a2 2 0 0 0-2-2h-2"/><path d="M16 10V4a2 2 0 0 0-2-2h-4a2 2 0 0 0-2 2v6m8 0H8m8 0h1m-9 0H7m1 4v.01M8 17v.01m4-3.02V14m0 3v.01"/></svg>