<svg xmlns="http://www.w3.org/2000/svg" width="24" height="24" fill="none" stroke="currentColor" stroke-linecap="round" stroke-linejoin="round" stroke-width="2" viewBox="0 0 24 24"><path d="M9 5H7a2 2 0 0 0-2 2v12a2 2 0 0 0 2 2h10a2 2 0 0 0 2-2V7a2 2 0 0 0-2-2h-2"/><path d="M9 5a2 2 0 0 1 2-2h2a2 2 0 0 1 2 2 2 2 0 0 1-2 2h-2a2 2 0 0 1-2-2m2.993 11.75 2.747-2.815a1.9 1.9 0 0 0 0-2.632 1.775 1.775 0 0 0-2.56 0l-.183.188-.183-.189a1.775 1.775 0 0 0-2.56 0 1.9 1.9 0 0 0 0 2.632l2.738 2.825z"/></svg>