<svg xmlns="http://www.w3.org/2000/svg" width="24" height="24" fill="none" stroke="currentColor" stroke-linecap="round" stroke-linejoin="round" stroke-width="2" viewBox="0 0 24 24"><path d="M12 18.004H6.657C4.085 18 2 15.993 2 13.517s2.085-4.482 4.657-4.482c.393-1.762 1.794-3.2 3.675-3.773 1.88-.572 3.956-.193 5.444 1 1.488 1.19 2.162 3.007 1.77 4.769h.99c.956 0 1.822.39 2.449 1.02M17.001 19a2 2 0 1 0 4 0 2 2 0 1 0-4 0m2-3.5V17m0 4v1.5m3.031-5.25-1.299.75m-3.463 2-1.3.75m0-3.5 1.3.75m3.463 2 1.3.75"/></svg>