<svg xmlns="http://www.w3.org/2000/svg" width="24" height="24" fill="none" stroke="currentColor" stroke-linecap="round" stroke-linejoin="round" stroke-width="2" viewBox="0 0 24 24"><path d="M12 10 8.603 6.56a2.104 2.104 0 0 1 0-2.95 2.04 2.04 0 0 1 2.912 0L12 4l.485-.39a2.04 2.04 0 0 1 2.912 0 2.104 2.104 0 0 1 0 2.95zm0 4-3.397 3.44a2.104 2.104 0 0 0 0 2.95 2.04 2.04 0 0 0 2.912 0L12 20l.485.39a2.04 2.04 0 0 0 2.912 0 2.104 2.104 0 0 0 0-2.95zm2-2 3.44-3.397a2.104 2.104 0 0 1 2.95 0 2.04 2.04 0 0 1 0 2.912L20 12l.39.485a2.04 2.04 0 0 1 0 2.912 2.104 2.104 0 0 1-2.95 0zm-4 0L6.56 8.603a2.104 2.104 0 0 0-2.95 0 2.04 2.04 0 0 0 0 2.912L4 12l-.39.485a2.04 2.04 0 0 0 0 2.912 2.104 2.104 0 0 0 2.95 0z"/></svg>