<svg xmlns="http://www.w3.org/2000/svg" width="24" height="24" fill="none" stroke="currentColor" stroke-linecap="round" stroke-linejoin="round" stroke-width="2" viewBox="0 0 24 24"><path d="M11 11 7.603 7.56a2.104 2.104 0 0 1 0-2.95 2.04 2.04 0 0 1 2.912 0L11 5l.485-.39a2.04 2.04 0 0 1 2.912 0 2.104 2.104 0 0 1 0 2.95zm0 0-3.397 3.44a2.104 2.104 0 0 0 0 2.95 2.04 2.04 0 0 0 2.912 0L11 17l.485.39a2.04 2.04 0 0 0 2.912 0 2.104 2.104 0 0 0 0-2.95zm3.44-3.397a2.104 2.104 0 0 1 2.95 0 2.04 2.04 0 0 1 0 2.912L17 11l.39.485a2.04 2.04 0 0 1 0 2.912 2.104 2.104 0 0 1-2.95 0M7.56 7.603a2.104 2.104 0 0 0-2.95 0 2.04 2.04 0 0 0 0 2.912L5 11l-.39.485a2.04 2.04 0 0 0 0 2.912 2.104 2.104 0 0 0 2.95 0M15 15l6 6"/></svg>