<svg xmlns="http://www.w3.org/2000/svg" width="24" height="24" fill="none" stroke="currentColor" stroke-linecap="round" stroke-linejoin="round" stroke-width="2" viewBox="0 0 24 24"><path d="M4 6c0 1.657 3.582 3 8 3s8-1.343 8-3-3.582-3-8-3-8 1.343-8 3"/><path d="M4 6v6c0 1.453 2.755 2.665 6.414 2.941M20 11V6"/><path d="M4 12v6c0 1.579 3.253 2.873 7.383 2.991M18 22l3.35-3.284a2.143 2.143 0 0 0 .005-3.071 2.24 2.24 0 0 0-3.129-.006l-.224.22-.223-.22a2.24 2.24 0 0 0-3.128-.006 2.143 2.143 0 0 0-.006 3.071z"/></svg>