<svg xmlns="http://www.w3.org/2000/svg" width="24" height="24" fill="none" stroke="currentColor" stroke-linecap="round" stroke-linejoin="round" stroke-width="2" viewBox="0 0 24 24"><path d="m17.496 10.034-4.321-6.417c-.421-.625-1.288-.803-1.937-.397a1.4 1.4 0 0 0-.41.397l-4.893 7.26C4.24 13.715 4.9 17.318 7.502 19.423a7.1 7.1 0 0 0 3.547 1.517m6.751-.123-2.172 1.138a.392.392 0 0 1-.568-.41l.415-2.411-1.757-1.707a.389.389 0 0 1 .217-.665l2.428-.352 1.086-2.193a.392.392 0 0 1 .702 0l1.086 2.193 2.428.352a.39.39 0 0 1 .217.665l-1.757 1.707.414 2.41a.39.39 0 0 1-.567.411z"/></svg>