<svg xmlns="http://www.w3.org/2000/svg" width="24" height="24" fill="none" stroke="currentColor" stroke-linecap="round" stroke-linejoin="round" stroke-width="2" viewBox="0 0 24 24"><path d="M15.536 17.586a2.123 2.123 0 0 0-2.929 0 1.95 1.95 0 0 0 0 2.828c.809.781 2.12.781 2.929 0s-.805.778 0 0l1.46-1.41 1.46-1.419"/><path d="m15.54 17.582 1.46 1.42 1.46 1.41c.809.78-.805-.779 0 0s2.12.781 2.929 0a1.95 1.95 0 0 0 0-2.828 2.123 2.123 0 0 0-2.929 0M14 3v4a1 1 0 0 0 1 1h4"/><path d="M9.5 21H7a2 2 0 0 1-2-2V5a2 2 0 0 1 2-2h7l5 5v6"/></svg>