<svg xmlns="http://www.w3.org/2000/svg" width="24" height="24" fill="none" stroke="currentColor" stroke-linecap="round" stroke-linejoin="round" stroke-width="2" viewBox="0 0 24 24"><path d="m7.72 3.728 3.484-1.558a1.95 1.95 0 0 1 1.59 0l4.496 2.01c.554.246.963.736 1.112 1.328l2.538 10.158c.103.412.07.832-.075 1.206m-2.299 1.699-5.725 2.738a1.95 1.95 0 0 1-1.682 0l-7.035-3.365a1.99 1.99 0 0 1-1.064-2.278l2.52-10.08"/><path d="m18 4.82-5.198 2.324a1.96 1.96 0 0 1-1.602 0m.8.176V8m0 4v9.5M3 3l18 18"/></svg>