<svg xmlns="http://www.w3.org/2000/svg" width="24" height="24" fill="none" stroke="currentColor" stroke-linecap="round" stroke-linejoin="round" stroke-width="2" viewBox="0 0 24 24"><path d="m12.802 2.165 5.575 2.389c.48.206.863.589 1.07 1.07l2.388 5.574c.22.512.22 1.092 0 1.604l-2.389 5.575c-.206.48-.589.863-1.07 1.07l-5.574 2.388c-.512.22-1.092.22-1.604 0l-5.575-2.389a2.04 2.04 0 0 1-1.07-1.07l-2.388-5.574a2.04 2.04 0 0 1 0-1.604l2.389-5.575c.206-.48.589-.863 1.07-1.07l5.574-2.388a2.04 2.04 0 0 1 1.604 0M12 16v.01"/><path d="M12 13a2 2 0 0 0 .914-3.782 1.98 1.98 0 0 0-2.414.483"/></svg>