<svg xmlns="http://www.w3.org/2000/svg" width="24" height="24" fill="none" stroke="currentColor" stroke-linecap="round" stroke-linejoin="round" stroke-width="2" viewBox="0 0 24 24"><path d="M6.436 8A8.6 8.6 0 0 0 6 10.727C6 14.744 8.686 18 12 18s6-3.256 6-7.273A8.6 8.6 0 0 0 17.564 8M14.5 21s-.682-3-2.5-3-2.5 3-2.5 3m9.02-15.77C18.812 6.896 17.5 8 17.5 8s-1.603-.563-1.895-2.23C15.313 4.104 16.625 3 16.625 3s1.603.563 1.895 2.23"/><path d="M21.094 12.14c-1.281 1.266-3.016.76-3.016.76s-.454-1.772.828-3.04c1.28-1.266 3.016-.76 3.016-.76s.454 1.772-.828 3.04m-3.36 6.686c-1.5-.575-1.734-2.19-1.734-2.19s1.267-1.038 2.767-.462c1.5.575 1.733 2.19 1.733 2.19s-1.267 1.038-2.767.462m-11.466 0c1.5-.575 1.733-2.19 1.733-2.19s-1.267-1.038-2.767-.462c-1.5.575-1.733 2.19-1.733 2.19s1.267 1.038 2.767.462M2.906 12.14c1.281 1.266 3.016.76 3.016.76s.454-1.772-.828-3.04C3.813 8.595 2.078 9.1 2.078 9.1s-.454 1.772.828 3.04M5.48 5.23C5.188 6.896 6.5 8 6.5 8s1.603-.563 1.895-2.23C8.687 4.104 7.375 3 7.375 3s-1.603.563-1.895 2.23"/></svg>