<svg xmlns="http://www.w3.org/2000/svg" width="24" height="24" fill="none" stroke="currentColor" stroke-linecap="round" stroke-linejoin="round" stroke-width="2" viewBox="0 0 24 24"><path d="M6.081 20C7.693 20 9 18.665 9 17.02V7.257C9 6.563 8.448 6 7.768 6c-.205 0-.405.052-.584.15l-.13.083C5.594 7.292 4.622 8.88 3.65 12.057q-.63 2.055-.648 4.775c-.012 1.675 1.261 3.054 2.877 3.161zm11.839 0C16.307 20 15 18.665 15 17.02V7.257C15 6.563 15.552 6 16.233 6c.204 0 .405.052.584.15l.13.083c1.46 1.059 2.432 2.647 3.405 5.824q.63 2.055.648 4.775c.012 1.675-1.261 3.054-2.878 3.161zM9 12a3 3 0 0 0 3-3 3 3 0 0 0 3 3m-3-8v5"/></svg>