<svg xmlns="http://www.w3.org/2000/svg" width="24" height="24" fill="none" stroke="currentColor" stroke-linecap="round" stroke-linejoin="round" stroke-width="2" viewBox="0 0 24 24"><path d="M10.59 19.88A9.8 9.8 0 0 1 7.7 19L3 20l1.3-3.9C1.976 12.663 2.874 8.228 6.4 5.726c3.526-2.501 8.59-2.296 11.845.48 1.565 1.335 2.479 3.065 2.71 4.861"/><path d="m18 22 3.35-3.284a2.143 2.143 0 0 0 .005-3.071 2.24 2.24 0 0 0-3.129-.006l-.224.22-.223-.22a2.24 2.24 0 0 0-3.128-.006 2.143 2.143 0 0 0-.006 3.071z"/></svg>