<svg xmlns="http://www.w3.org/2000/svg" width="24" height="24" fill="none" stroke="currentColor" stroke-linecap="round" stroke-linejoin="round" stroke-width="2" viewBox="0 0 24 24"><path d="M9.5 3h5A1.5 1.5 0 0 1 16 4.5 3.5 3.5 0 0 1 12.5 8h-1A3.5 3.5 0 0 1 8 4.5 1.5 1.5 0 0 1 9.5 3"/><path d="M11.5 21H8a4 4 0 0 1-4-4v-1a8 8 0 0 1 14.376-4.833"/><path d="m18 22 3.35-3.284a2.143 2.143 0 0 0 .005-3.071 2.24 2.24 0 0 0-3.129-.006l-.224.22-.223-.22a2.24 2.24 0 0 0-3.128-.006 2.143 2.143 0 0 0-.006 3.071z"/></svg>