<svg xmlns="http://www.w3.org/2000/svg" width="24" height="24" fill="none" stroke="currentColor" stroke-linecap="round" stroke-linejoin="round" stroke-width="2" viewBox="0 0 24 24"><path d="m13.163 2.168 8.021 5.828c.694.504.984 1.397.719 2.212l-3.064 9.43a1.98 1.98 0 0 1-1.881 1.367H7.042a1.98 1.98 0 0 1-1.881-1.367l-3.064-9.43a1.98 1.98 0 0 1 .719-2.212l8.021-5.828a1.98 1.98 0 0 1 2.326 0"/><path d="M12 12h-1a1 1 0 0 1-1-1V9a1 1 0 0 1 1-1h2a1 1 0 0 1 1 1v2a1 1 0 0 1-1 1h-2a1 1 0 0 0-1 1v2a1 1 0 0 0 1 1h2a1 1 0 0 0 1-1v-2a1 1 0 0 0-1-1"/></svg>