<svg xmlns="http://www.w3.org/2000/svg" width="24" height="24" fill="none" stroke="currentColor" stroke-linecap="round" stroke-linejoin="round" stroke-width="2" viewBox="0 0 24 24"><path d="M2 20a2.4 2.4 0 0 0 2 1 2.4 2.4 0 0 0 2-1 2.4 2.4 0 0 1 2-1 2.4 2.4 0 0 1 2 1 2.4 2.4 0 0 0 2 1 2.4 2.4 0 0 0 2-1 2.4 2.4 0 0 1 2-1 2.4 2.4 0 0 1 2 1 2.4 2.4 0 0 0 2 1 2.4 2.4 0 0 0 2-1M2 16a2.4 2.4 0 0 0 2 1 2.4 2.4 0 0 0 2-1 2.4 2.4 0 0 1 2-1 2.4 2.4 0 0 1 2 1 2.4 2.4 0 0 0 2 1 2.4 2.4 0 0 0 2-1 2.4 2.4 0 0 1 2-1 2.4 2.4 0 0 1 2 1 2.4 2.4 0 0 0 2 1 2.4 2.4 0 0 0 2-1m-7-4V4.5a1.5 1.5 0 0 1 3 0M9 12V4.5a1.5 1.5 0 0 0-3 0m9 .5H9m0 5h6"/></svg>