<svg xmlns="http://www.w3.org/2000/svg" width="24" height="24" fill="none" stroke="currentColor" stroke-linecap="round" stroke-linejoin="round" stroke-width="2" viewBox="0 0 24 24"><path d="M4 6a2 2 0 0 1 2-2h12a2 2 0 0 1 2 2v12a2 2 0 0 1-2 2H6a2 2 0 0 1-2-2z"/><path d="M12 4v2.5a.5.5 0 0 1-.5.5 1.5 1.5 0 0 0 0 3 .5.5 0 0 1 .5.5V12m0 0v1.5a.5.5 0 0 0 .5.5 1.5 1.5 0 0 1 0 3 .5.5 0 0 0-.5.5V20m8-8h-2.5a.5.5 0 0 1-.5-.5 1.5 1.5 0 0 0-3 0 .5.5 0 0 1-.5.5H12m0 0h-1.5a.5.5 0 0 0-.5.5 1.5 1.5 0 0 1-3 0 .5.5 0 0 0-.5-.5H4"/></svg>