<svg xmlns="http://www.w3.org/2000/svg" width="24" height="24" fill="none" stroke="currentColor" stroke-linecap="round" stroke-linejoin="round" stroke-width="2" viewBox="0 0 24 24"><path d="M5 17a2 2 0 1 0 4 0 2 2 0 1 0-4 0m10 0a2 2 0 1 0 4 0 2 2 0 1 0-4 0m-6 0h6"/><path d="M19 17h1a1 1 0 0 0 1-1v-4.528a2 2 0 0 0-.211-.894l-.96-1.92A3 3 0 0 0 17.146 7H6a3 3 0 0 0-3 3v6a1 1 0 0 0 1 1h1m-2-5h18m-6 0V7M6 5.5A1.5 1.5 0 0 1 7.5 4h7A1.5 1.5 0 0 1 16 5.5 1.5 1.5 0 0 1 14.5 7h-7A1.5 1.5 0 0 1 6 5.5"/></svg>