<svg xmlns="http://www.w3.org/2000/svg" width="24" height="24" fill="none" stroke="currentColor" stroke-linecap="round" stroke-linejoin="round" stroke-width="2" viewBox="0 0 24 24"><path d="M12.003 21c-.732.001-1.465-.438-1.678-1.317a1.724 1.724 0 0 0-2.573-1.066c-1.543.94-3.31-.826-2.37-2.37a1.724 1.724 0 0 0-1.065-2.572c-1.756-.426-1.756-2.924 0-3.35a1.724 1.724 0 0 0 1.066-2.573c-.94-1.543.826-3.31 2.37-2.37 1 .608 2.296.07 2.572-1.065.426-1.756 2.924-1.756 3.35 0a1.724 1.724 0 0 0 2.573 1.066c1.543-.94 3.31.826 2.37 2.37a1.724 1.724 0 0 0 1.065 2.572c.886.215 1.325.957 1.318 1.694"/><path d="M9 12a3 3 0 1 0 6 0 3 3 0 0 0-6 0m8.001 7a2 2 0 1 0 4 0 2 2 0 1 0-4 0m2-3.5V17m0 4v1.5m3.031-5.25-1.299.75m-3.463 2-1.3.75m0-3.5 1.3.75m3.463 2 1.3.75"/></svg>