<svg xmlns="http://www.w3.org/2000/svg" width="24" height="24" fill="none" stroke="currentColor" stroke-linecap="round" stroke-linejoin="round" stroke-width="2" viewBox="0 0 24 24"><path d="M3.486 8.965Q3.738 8.996 4 9c.79.009 1.539-.178 2-.5.426-.296.777-.5 1.5-.5h1M16 8l.615.034c.552.067 1.046.23 1.385.466.461.322 1.21.509 2 .5q.256-.002.503-.034M14 10.5l.586.578a1.516 1.516 0 0 0 2 0c.476-.433.55-1.112.176-1.622L15 7c-.37-.506-1.331-1-2-1H9.883a1 1 0 0 0-.992.876l-.499 3.986A3.86 3.86 0 0 0 11 15a2.28 2.28 0 0 0 3-2.162z"/><path d="m3 6 1.721 10.329A2 2 0 0 0 6.694 18h10.612a2 2 0 0 0 1.973-1.671L21 6"/></svg>