<svg xmlns="http://www.w3.org/2000/svg" width="24" height="24" fill="none" stroke="currentColor" stroke-linecap="round" stroke-linejoin="round" stroke-width="2" viewBox="0 0 24 24"><path d="M12 9a1 1 0 1 0 2 0 1 1 0 0 0-2 0"/><path d="m5 8 3 4 4.5 1 7.5-1M3 18.75A2.4 2.4 0 0 0 4 19a2.4 2.4 0 0 0 2-1 2.4 2.4 0 0 1 2-1 2.4 2.4 0 0 1 2 1 2.4 2.4 0 0 0 2 1 2.4 2.4 0 0 0 2-1 2.4 2.4 0 0 1 2-1 2.4 2.4 0 0 1 2 1 2.4 2.4 0 0 0 2 1 2.4 2.4 0 0 0 1-.25M12 16l.5-3"/><path fill="currentColor" d="M6.5 5a.5.5 0 1 0 0-1 .5.5 0 0 0 0 1"/></svg>