<svg xmlns="http://www.w3.org/2000/svg" width="24" height="24" fill="none" stroke="currentColor" stroke-linecap="round" stroke-linejoin="round" stroke-width="2" viewBox="0 0 24 24"><path d="m3 3 18 18m-9 .5v-3.75M5.916 9.49l-.43 1.604a4.984 4.984 0 0 0 3.524 6.104L12 18v-3.44a4.98 4.98 0 0 0-3.677-4.426zm4.333-5.239.021-.021L12 2.5"/><path d="M10.27 11.15a4.9 4.9 0 0 1-1.246-2.118m5.964-.044A4.9 4.9 0 0 0 13.73 4.23L12 2.5m4.038 7.537 2.046-.547.431 1.604c.142.53.193 1.063.162 1.583m-2.171 3.828c-.45.307-.959.544-1.516.694L12 18v-3.44a5 5 0 0 1 .582-1.978"/></svg>