<svg xmlns="http://www.w3.org/2000/svg" fill="currentColor" viewBox="0 0 256 256"><path d="M228 48v48a12 12 0 0 1-12 12h-48a12 12 0 0 1 0-24h19l-7.8-7.8a75.55 75.55 0 0 0-53.32-22.26h-.43a75.5 75.5 0 0 0-53.06 21.63 12 12 0 1 1-16.78-17.16 99.38 99.38 0 0 1 69.87-28.47h.52a99.42 99.42 0 0 1 70.2 29.29L204 67V48a12 12 0 0 1 24 0m-44.39 132.43a75.5 75.5 0 0 1-53.09 21.63h-.43a75.55 75.55 0 0 1-53.32-22.26L69 172h19a12 12 0 0 0 0-24H40a12 12 0 0 0-12 12v48a12 12 0 0 0 24 0v-19l7.8 7.8a99.42 99.42 0 0 0 70.2 29.26h.56a99.38 99.38 0 0 0 69.87-28.47 12 12 0 0 0-16.78-17.16Z"/></svg>