<svg xmlns="http://www.w3.org/2000/svg" fill="currentColor" viewBox="0 0 256 256"><path d="M232 52v40a12 12 0 0 1-24 0V64h-28a12 12 0 0 1 0-24h40a12 12 0 0 1 12 12M76 192H48v-28a12 12 0 0 0-24 0v40a12 12 0 0 0 12 12h40a12 12 0 0 0 0-24m144-40a12 12 0 0 0-12 12v28h-28a12 12 0 0 0 0 24h40a12 12 0 0 0 12-12v-40a12 12 0 0 0-12-12M36 104a12 12 0 0 0 12-12V64h28a12 12 0 0 0 0-24H36a12 12 0 0 0-12 12v40a12 12 0 0 0 12 12m52-24a12 12 0 0 0-12 12v72a12 12 0 0 0 24 0V92a12 12 0 0 0-12-12m92 84V92a12 12 0 0 0-24 0v72a12 12 0 0 0 24 0m-52-84a12 12 0 0 0-12 12v72a12 12 0 0 0 24 0V92a12 12 0 0 0-12-12"/></svg>