<svg xmlns="http://www.w3.org/2000/svg" fill="currentColor" viewBox="0 0 256 256"><path d="M100 84a12 12 0 0 1 12-12h32a12 12 0 0 1 0 24h-32a12 12 0 0 1-12-12m152 116a12 12 0 0 1-12 12H16a12 12 0 0 1 0-24h4v-48.69A12 12 0 0 1 6.24 121l40-56a11.9 11.9 0 0 1 2.94-2.9l67.56-46.65.17-.11a19.94 19.94 0 0 1 22.18 0l.17.11 67.56 46.65a11.9 11.9 0 0 1 2.94 2.9l40 56A12 12 0 0 1 236 139.31V188h4a12 12 0 0 1 12 12M44 188h20v-64a12 12 0 0 1 12-12h104a12 12 0 0 1 12 12v64h20v-78.55l-20.55-28.76L128 36.87 64.55 80.69 44 109.45Zm124-52h-54.1l54.1 38.07Zm-80 52h58.1L88 147.12Z"/></svg>