<svg xmlns="http://www.w3.org/2000/svg" fill="currentColor" viewBox="0 0 256 256"><path d="M196 52H28A28 28 0 0 0 0 80v96a28 28 0 0 0 28 28h168a28 28 0 0 0 28-28V80a28 28 0 0 0-28-28m4 124a4 4 0 0 1-4 4H28a4 4 0 0 1-4-4V80a4 4 0 0 1 4-4h168a4 4 0 0 1 4 4Zm-16-72v48a12 12 0 0 1-24 0v-48a12 12 0 0 1 24 0m-40 0v48a12 12 0 0 1-24 0v-48a12 12 0 0 1 24 0m-40 0v48a12 12 0 0 1-24 0v-48a12 12 0 0 1 24 0m-40 0v48a12 12 0 0 1-24 0v-48a12 12 0 0 1 24 0m192 0v48a12 12 0 0 1-24 0v-48a12 12 0 0 1 24 0"/></svg>