<svg xmlns="http://www.w3.org/2000/svg" fill="currentColor" viewBox="0 0 256 256"><path d="m216.88 207.93-160-176a12 12 0 1 0-17.76 16.14l14.8 16.29A83.6 83.6 0 0 0 44 104c0 25.58-4.59 47-13.27 61.93a20.08 20.08 0 0 0-.05 20.07A19.75 19.75 0 0 0 48 196h36.19a44 44 0 0 0 87.62 0h1.79l25.52 28.07a12 12 0 0 0 17.76-16.14M68 104a59.8 59.8 0 0 1 3.52-20.29L151.78 172h-97.1C63.52 154 68 131.14 68 104m60 108a20 20 0 0 1-19.6-16h39.2a20 20 0 0 1-19.6 16M88.89 42.35a12 12 0 0 1 6.37-15.73A84 84 0 0 1 212 104c0 18.68 2.38 34.93 7.07 48.28a12 12 0 1 1-22.64 8C190.83 144.32 188 125.4 188 104a60 60 0 0 0-83.38-55.28 12 12 0 0 1-15.73-6.37"/></svg>