<svg xmlns="http://www.w3.org/2000/svg" fill="currentColor" viewBox="0 0 256 256"><path d="M92 24c-23.55 0-40 19.74-40 48s16.45 48 40 48 40-19.74 40-48-16.45-48-40-48m0 72c-15.55 0-16-21.54-16-24s.45-24 16-24 16 21.54 16 24-.45 24-16 24m53.27-42.63a12 12 0 0 1 5.36-16.1l24-12A12 12 0 0 1 192 36v72a12 12 0 0 1-24 0V55.42l-6.63 3.31a12 12 0 0 1-16.1-5.36M164 136c-23.55 0-40 19.74-40 48s16.45 48 40 48 40-19.74 40-48-16.45-48-40-48m0 72c-15.55 0-16-21.54-16-24s.45-24 16-24 16 21.54 16 24-.45 24-16 24m-60-60v72a12 12 0 0 1-24 0v-52.58l-6.63 3.31a12 12 0 1 1-10.74-21.46l24-12A12 12 0 0 1 104 148"/></svg>