<svg xmlns="http://www.w3.org/2000/svg" fill="currentColor" viewBox="0 0 256 256"><path d="M54.8 119.49a35 35 0 0 1-5.75 8.51 35 35 0 0 1 5.75 8.51C60 147.24 60 159.83 60 172c0 25.94 1.84 32 20 32a12 12 0 0 1 0 24c-19.14 0-32.2-6.9-38.8-20.51C36 196.76 36 184.17 36 172c0-25.94-1.84-32-20-32a12 12 0 0 1 0-24c18.16 0 20-6.06 20-32 0-12.17 0-24.76 5.2-35.49C47.8 34.9 60.86 28 80 28a12 12 0 0 1 0 24c-18.16 0-20 6.06-20 32 0 12.17 0 24.76-5.2 35.49M240 116c-18.16 0-20-6.06-20-32 0-12.17 0-24.76-5.2-35.49C208.2 34.9 195.14 28 176 28a12 12 0 0 0 0 24c18.16 0 20 6.06 20 32 0 12.17 0 24.76 5.2 35.49A35 35 0 0 0 207 128a35 35 0 0 0-5.75 8.51C196 147.24 196 159.83 196 172c0 25.94-1.84 32-20 32a12 12 0 0 0 0 24c19.14 0 32.2-6.9 38.8-20.51 5.2-10.73 5.2-23.32 5.2-35.49 0-25.94 1.84-32 20-32a12 12 0 0 0 0-24"/></svg>