<svg xmlns="http://www.w3.org/2000/svg" fill="currentColor" viewBox="0 0 256 256"><path d="M252 124a60.14 60.14 0 0 0-32-53.08 52 52 0 0 0-92-32.11 52 52 0 0 0-92 32.11 60 60 0 0 0 0 106.14 52 52 0 0 0 92 32.13 52 52 0 0 0 92-32.13A60.05 60.05 0 0 0 252 124M88 204a28 28 0 0 1-26.85-20.07c1 0 1.89.07 2.85.07h8a12 12 0 0 0 0-24h-8a36 36 0 0 1-12-69.95 12 12 0 0 0 8-11.32V72a28 28 0 0 1 56 0v60.18a51.6 51.6 0 0 0-7.2-3.85 12 12 0 1 0-9.6 22A28 28 0 0 1 88 204m104-44h-8a12 12 0 0 0 0 24h8c1 0 1.9 0 2.85-.07a28 28 0 1 1-38-33.61 12 12 0 1 0-9.6-22 51.6 51.6 0 0 0-7.2 3.85V72a28 28 0 0 1 56 0v6.73a12 12 0 0 0 8 11.32 36 36 0 0 1-12 70Zm16-44a12 12 0 0 1-12 12 40 40 0 0 1-40-40v-4a12 12 0 0 1 24 0v4a16 16 0 0 0 16 16 12 12 0 0 1 12 12M100 88a40 40 0 0 1-40 40 12 12 0 0 1 0-24 16 16 0 0 0 16-16v-4a12 12 0 0 1 24 0Z"/></svg>