<svg xmlns="http://www.w3.org/2000/svg" fill="currentColor" viewBox="0 0 256 256"><path d="M208 28h-20v-4a12 12 0 0 0-24 0v4H92v-4a12 12 0 0 0-24 0v4H48a20 20 0 0 0-20 20v160a20 20 0 0 0 20 20h160a20 20 0 0 0 20-20V48a20 20 0 0 0-20-20M68 52a12 12 0 0 0 24 0h72a12 12 0 0 0 24 0h16v24H52V52ZM52 204V100h152v104Zm60-80v56a12 12 0 0 1-24 0v-36.68a12 12 0 0 1-9.37-22l16-8A12 12 0 0 1 112 124m61.49 33.88L163.9 168h4.1a12 12 0 0 1 0 24h-32a12 12 0 0 1-8.71-20.25L155.45 142a4 4 0 0 0 .55-2 4 4 0 0 0-7.47-2 12 12 0 0 1-20.78-12A28 28 0 0 1 180 140a27.77 27.77 0 0 1-5.64 16.86 11 11 0 0 1-.87 1.02"/></svg>