<svg xmlns="http://www.w3.org/2000/svg" fill="currentColor" viewBox="0 0 256 256"><path d="M216.49 191.51a12 12 0 0 1-17 17L184 193l-15.51 15.52a12 12 0 0 1-17-17L167 176l-15.52-15.51a12 12 0 0 1 17-17L184 159l15.51-15.52a12 12 0 0 1 17 17L201 176ZM160 120a12 12 0 0 0 12-12V72a12 12 0 0 0-24 0v36a12 12 0 0 0 12 12m40 0a12 12 0 0 0 12-12V32a12 12 0 0 0-24 0v76a12 12 0 0 0 12 12m-80-20a12 12 0 0 0-12 12v88a12 12 0 0 0 24 0v-88a12 12 0 0 0-12-12m-40 40a12 12 0 0 0-12 12v48a12 12 0 0 0 24 0v-48a12 12 0 0 0-12-12m-40 40a12 12 0 0 0-12 12v8a12 12 0 0 0 24 0v-8a12 12 0 0 0-12-12"/></svg>