<svg xmlns="http://www.w3.org/2000/svg" fill="currentColor" viewBox="0 0 256 256"><path d="M138.67 86.51a12 12 0 0 0-21.34 0l-72 140a12 12 0 1 0 21.34 11l11-21.49h100.61l11.05 21.49a12 12 0 1 0 21.34-11ZM128 118.24 145.36 152h-34.72ZM90.07 192l8.22-16h59.42l8.22 16Zm84.44-123.27a12 12 0 1 1-21.45 10.75 28 28 0 0 0-50.37.52A12 12 0 1 1 81 69.7 52.28 52.28 0 0 1 128 40a51.74 51.74 0 0 1 46.51 28.73m-124.58 76a92 92 0 1 1 156.14 0A12 12 0 0 1 185.71 132a68 68 0 1 0-115.42 0 12 12 0 0 1-20.36 12.7Z"/></svg>