<svg xmlns="http://www.w3.org/2000/svg" fill="currentColor" viewBox="0 0 256 256"><path d="M128 20a108 108 0 1 0 108 108A108.12 108.12 0 0 0 128 20m83.13 96h-16.21A68.16 68.16 0 0 0 140 61.08V44.87A84.18 84.18 0 0 1 211.13 116M116 116H85.68A44.13 44.13 0 0 1 116 85.68Zm0 24v30.32A44.13 44.13 0 0 1 85.68 140Zm24 0h30.32A44.13 44.13 0 0 1 140 170.32Zm0-24V85.68A44.13 44.13 0 0 1 170.32 116Zm-24-71.13v16.21A68.16 68.16 0 0 0 61.08 116H44.87A84.18 84.18 0 0 1 116 44.87M44.87 140h16.21A68.16 68.16 0 0 0 116 194.92v16.21A84.18 84.18 0 0 1 44.87 140M140 211.13v-16.21A68.16 68.16 0 0 0 194.92 140h16.21A84.18 84.18 0 0 1 140 211.13"/></svg>