<svg xmlns="http://www.w3.org/2000/svg" fill="currentColor" viewBox="0 0 256 256"><path d="M164 68a80.4 80.4 0 0 0-18.46 2.15 60 60 0 0 0-6-7.42l7.57-10.82a12 12 0 0 0-19.66-13.77L119.87 49a59.9 59.9 0 0 0-22.26-5l-2.3-13a12 12 0 0 0-23.63 4.17l2.3 13a60 60 0 0 0-19.21 12.3l-10.86-7.61a12 12 0 0 0-13.77 19.66L41 80.11a59.5 59.5 0 0 0-5 22.25l-13 2.3a12 12 0 0 0 2.07 23.82 12.6 12.6 0 0 0 2.1-.18l13-2.3a59 59 0 0 0 3.44 7.25A56 56 0 0 0 84 228h80a80 80 0 0 0 0-160m-68 0a36 36 0 0 1 26.45 11.61 80.37 80.37 0 0 0-32.06 36.75A57 57 0 0 0 84 116a55.8 55.8 0 0 0-20.33 3.83A36 36 0 0 1 96 68m68 136H84a32 32 0 0 1 0-64h.28c-.11 1.1-.2 2.2-.26 3.3a12 12 0 0 0 24 1.4 56 56 0 0 1 1.74-11l.15-.55A56.06 56.06 0 1 1 164 204"/></svg>