<svg xmlns="http://www.w3.org/2000/svg" fill="currentColor" viewBox="0 0 256 256"><path d="M156 88h-56a12 12 0 0 0-12 12v56a12 12 0 0 0 12 12h56a12 12 0 0 0 12-12v-56a12 12 0 0 0-12-12m-12 56h-32v-32h32Zm88-4h-12v-24h12a12 12 0 0 0 0-24h-12V56a20 20 0 0 0-20-20h-36V24a12 12 0 0 0-24 0v12h-24V24a12 12 0 0 0-24 0v12H56a20 20 0 0 0-20 20v36H24a12 12 0 0 0 0 24h12v24H24a12 12 0 0 0 0 24h12v36a20 20 0 0 0 20 20h36v12a12 12 0 0 0 24 0v-12h24v12a12 12 0 0 0 24 0v-12h36a20 20 0 0 0 20-20v-36h12a12 12 0 0 0 0-24m-36 56H60V60h136Z"/></svg>