<svg xmlns="http://www.w3.org/2000/svg" fill="currentColor" viewBox="0 0 256 256"><path d="M180 56c-15.4 0-29.19 4.61-40 12.5V44h12a12 12 0 0 0 0-24h-12v-8a12 12 0 0 0-24 0v8h-12a12 12 0 0 0 0 24h12v24.5C105.19 60.61 91.4 56 76 56a64.07 64.07 0 0 0-64 64c0 31.66 15.53 50.6 28.55 60.91A85.8 85.8 0 0 0 60 192.45V208a20 20 0 0 0 20 20h96a20 20 0 0 0 20-20v-15.55a85.8 85.8 0 0 0 19.45-11.54C228.47 170.6 244 151.66 244 120a64.07 64.07 0 0 0-64-64m1.09 116.36A12 12 0 0 0 172 184v20H84v-20a12 12 0 0 0-9.09-11.64 59.4 59.4 0 0 1-19.46-10.27C42.54 151.87 36 137.71 36 120a40 40 0 0 1 40-40c23.18 0 40 15.14 40 36v60a12 12 0 0 0 24 0v-60c0-20.86 16.82-36 40-36a40 40 0 0 1 40 40c0 41.68-37.38 52-38.91 52.36"/></svg>