<svg xmlns="http://www.w3.org/2000/svg" fill="currentColor" viewBox="0 0 256 256"><path d="M80 108a12 12 0 0 1-12 12H28a12 12 0 0 1 0-24h40a12 12 0 0 1 12 12m-12 28H28a12 12 0 0 0 0 24h40a12 12 0 0 0 0-24m0 40H28a12 12 0 0 0 0 24h40a12 12 0 0 0 0-24m80-40h-40a12 12 0 0 0 0 24h40a12 12 0 0 0 0-24m0 40h-40a12 12 0 0 0 0 24h40a12 12 0 0 0 0-24m40-96h40a12 12 0 0 0 0-24h-40a12 12 0 0 0 0 24m40 16h-40a12 12 0 0 0 0 24h40a12 12 0 0 0 0-24m0 40h-40a12 12 0 0 0 0 24h40a12 12 0 0 0 0-24m0 40h-40a12 12 0 0 0 0 24h40a12 12 0 0 0 0-24"/></svg>