<svg xmlns="http://www.w3.org/2000/svg" fill="currentColor" viewBox="0 0 256 256"><path d="M216 36H40a20 20 0 0 0-20 20v160a12 12 0 0 0 17.37 10.73L64 213.42l26.63 13.31a12 12 0 0 0 10.74 0L128 213.42l26.63 13.31a12 12 0 0 0 10.74 0L192 213.42l26.63 13.31A12 12 0 0 0 236 216V56a20 20 0 0 0-20-20m-4 160.58-14.63-7.31a12 12 0 0 0-10.74 0L160 202.58l-26.63-13.31a12 12 0 0 0-10.74 0L96 202.58l-26.63-13.31a12 12 0 0 0-10.74 0L44 196.58V60h168ZM62.63 170.73a12 12 0 0 0 16.1-5.36l2.69-5.37h37.16l2.69 5.37a12 12 0 1 0 21.46-10.74l-32-64a12 12 0 0 0-21.46 0l-32 64a12 12 0 0 0 5.36 16.1M106.58 136H93.42l6.58-13.17Zm37.42-8a12 12 0 0 1 12-12h4v-4a12 12 0 0 1 24 0v4h4a12 12 0 0 1 0 24h-4v4a12 12 0 0 1-24 0v-4h-4a12 12 0 0 1-12-12"/></svg>