<svg xmlns="http://www.w3.org/2000/svg" fill="currentColor" viewBox="0 0 256 256"><path d="M100 152v56a12 12 0 0 1-24 0v-17.93l-6.17 8.81a12 12 0 0 1-19.66 0L44 190.07V208a12 12 0 0 1-24 0v-56a12 12 0 0 1 21.83-6.88L60 171.07l18.17-25.95A12 12 0 0 1 100 152m84 28a40 40 0 0 1-40 40h-16a12 12 0 0 1-12-12v-56a12 12 0 0 1 12-12h16a40 40 0 0 1 40 40m-24 0a16 16 0 0 0-16-16h-4v32h4a16 16 0 0 0 16-16m60-92v136a12 12 0 0 1-24 0V104h-48a12 12 0 0 1-12-12V44H60v64a12 12 0 0 1-24 0V40a20 20 0 0 1 20-20h96a12 12 0 0 1 8.49 3.52l56 56A12 12 0 0 1 220 88m-60-8h23l-23-23Z"/></svg>