<svg xmlns="http://www.w3.org/2000/svg" fill="currentColor" viewBox="0 0 256 256"><path d="M232 152a12 12 0 0 1-12 12h-8v44a12 12 0 0 1-24 0v-44h-8a12 12 0 0 1 0-24h40a12 12 0 0 1 12 12M92 172a32 32 0 0 1-32 32h-4v4a12 12 0 0 1-24 0v-56a12 12 0 0 1 12-12h16a32 32 0 0 1 32 32m-24 0a8 8 0 0 0-8-8h-4v16h4a8 8 0 0 0 8-8m96 0a32 32 0 0 1-32 32h-4v4a12 12 0 0 1-24 0v-56a12 12 0 0 1 12-12h16a32 32 0 0 1 32 32m-24 0a8 8 0 0 0-8-8h-4v16h4a8 8 0 0 0 8-8M36 108V40a20 20 0 0 1 20-20h96a12 12 0 0 1 8.49 3.52l56 56A12 12 0 0 1 220 88v20a12 12 0 0 1-24 0v-4h-48a12 12 0 0 1-12-12V44H60v64a12 12 0 0 1-24 0m124-28h23l-23-23Z"/></svg>