<svg xmlns="http://www.w3.org/2000/svg" fill="currentColor" viewBox="0 0 256 256"><path d="M48 128a12 12 0 0 0 12-12V44h76v48a12 12 0 0 0 12 12h48v12a12 12 0 0 0 24 0V88a12 12 0 0 0-3.51-8.49l-56-56A12 12 0 0 0 152 20H56a20 20 0 0 0-20 20v76a12 12 0 0 0 12 12m135-48h-23V57ZM68 160v48a12 12 0 0 1-24 0v-12H32v12a12 12 0 0 1-24 0v-48a12 12 0 0 1 24 0v12h12v-12a12 12 0 0 1 24 0m60 0a12 12 0 0 1-12 12h-4v36a12 12 0 0 1-24 0v-36h-4a12 12 0 0 1 0-24h32a12 12 0 0 1 12 12m72 0v48a12 12 0 0 1-24 0v-9.36l-.11.16a12 12 0 0 1-19.78 0l-.11-.16V208a12 12 0 0 1-24 0v-48a12 12 0 0 1 21.89-6.8L166 170.82l12.11-17.62A12 12 0 0 1 200 160m56 48a12 12 0 0 1-12 12h-24a12 12 0 0 1-12-12v-48a12 12 0 0 1 24 0v36h12a12 12 0 0 1 12 12"/></svg>