<svg xmlns="http://www.w3.org/2000/svg" fill="currentColor" viewBox="0 0 256 256"><path d="m216.49 79.51-56-56A12 12 0 0 0 152 20H56a20 20 0 0 0-20 20v68a12 12 0 0 0 24 0V44h76v48a12 12 0 0 0 12 12h48v108h-72a12 12 0 0 0 0 24h76a20 20 0 0 0 20-20V88a12 12 0 0 0-3.51-8.49M160 57l23 23h-23ZM48 180c0 8.67 5.5 16 12 16a10.27 10.27 0 0 0 7.33-3.43 12 12 0 1 1 17.34 16.6A34 34 0 0 1 60 220c-19.85 0-36-17.94-36-40s16.15-40 36-40a34 34 0 0 1 24.67 10.83 12 12 0 1 1-17.34 16.6A10.27 10.27 0 0 0 60 164c-6.5 0-12 7.33-12 16"/></svg>