<svg xmlns="http://www.w3.org/2000/svg" fill="currentColor" viewBox="0 0 256 256"><path d="M120 140h-16a12 12 0 0 0-12 12v56a12 12 0 0 0 24 0v-4h4a32 32 0 0 0 0-64m0 40h-4v-16h4a8 8 0 0 1 0 16m104 20.87a12 12 0 0 1-3.33 8.3A34 34 0 0 1 196 220c-19.85 0-36-17.94-36-40s16.15-40 36-40a33.4 33.4 0 0 1 18.71 5.8 12 12 0 1 1-13.42 19.89A9.4 9.4 0 0 0 196 164c-6.5 0-12 7.33-12 16s5.5 16 12 16a9 9 0 0 0 2.7-.42A12 12 0 0 1 208 176h4a12 12 0 0 1 12 12ZM80 152v38a30 30 0 0 1-60 0 12 12 0 0 1 24 0 6 6 0 0 0 12 0v-38a12 12 0 0 1 24 0m-32-32a12 12 0 0 0 12-12V44h76v48a12 12 0 0 0 12 12h48v4a12 12 0 0 0 24 0V88a12 12 0 0 0-3.51-8.48l-56-56A12 12 0 0 0 152 20H56a20 20 0 0 0-20 20v68a12 12 0 0 0 12 12m112-63 23 23h-23Z"/></svg>