<svg xmlns="http://www.w3.org/2000/svg" fill="currentColor" viewBox="0 0 256 256"><path d="M48 152v56a12 12 0 0 1-24 0v-56a12 12 0 0 1 24 0m72-12a12 12 0 0 0-12 12v18.55L89.76 145A12 12 0 0 0 68 152v56a12 12 0 0 0 24 0v-18.55L110.24 215a12 12 0 0 0 9.76 5 12.2 12.2 0 0 0 3.66-.57A12 12 0 0 0 132 208v-56a12 12 0 0 0-12-12m44 0a12 12 0 0 0-12 12v56a12 12 0 0 0 24 0v-56a12 12 0 0 0-12-12m56-52v136a12 12 0 0 1-24 0V104h-48a12 12 0 0 1-12-12V44H60v64a12 12 0 0 1-24 0V40a20 20 0 0 1 20-20h96a12 12 0 0 1 8.49 3.52l56 56A12 12 0 0 1 220 88m-60-8h23l-23-23Z"/></svg>