<svg xmlns="http://www.w3.org/2000/svg" fill="currentColor" viewBox="0 0 256 256"><path d="M128 20a108 108 0 1 0 108 108A108.12 108.12 0 0 0 128 20m83.13 96h-31.57a144.3 144.3 0 0 0-21.35-66.36A84.22 84.22 0 0 1 211.13 116M128 207c-9.36-10.81-24.46-33.13-27.45-67h54.94a119.74 119.74 0 0 1-17.11 52.77A108.6 108.6 0 0 1 128 207m-27.45-91a119.74 119.74 0 0 1 17.11-52.77A108.6 108.6 0 0 1 128 49c9.36 10.81 24.46 33.13 27.45 67Zm-2.76-66.36A144.3 144.3 0 0 0 76.44 116H44.87a84.22 84.22 0 0 1 52.92-66.36M44.87 140h31.57a144.3 144.3 0 0 0 21.35 66.36A84.22 84.22 0 0 1 44.87 140m113.34 66.36A144.3 144.3 0 0 0 179.56 140h31.57a84.22 84.22 0 0 1-52.92 66.36"/></svg>