<svg xmlns="http://www.w3.org/2000/svg" fill="currentColor" viewBox="0 0 256 256"><path d="M128 20a108 108 0 1 0 108 108A108.12 108.12 0 0 0 128 20m84 108a83.6 83.6 0 0 1-4.47 27L167 130a19.65 19.65 0 0 0-7.8-2.78l-22.82-3.08a20.14 20.14 0 0 0-18.66 7.86h-4.07l-2.71-5.6a19.88 19.88 0 0 0-13.8-10.84l-2.68-.56 4-7h14.39a20 20 0 0 0 9.66-2.49l12.25-6.76a20.6 20.6 0 0 0 3.74-2.68l26.92-24.33A20 20 0 0 0 172 56.49 84 84 0 0 1 212 128m-71.24-83 6.2 11.1L122.75 78l-10.93 6H96.14a20.05 20.05 0 0 0-17.36 10.06l-4.49 7.85-6.61-17.63 9.91-23.42A83.9 83.9 0 0 1 140.76 45M44 128a83.5 83.5 0 0 1 4.4-26.77l7.74 20.65a19.89 19.89 0 0 0 14.52 12.53l19.53 4.2 3 6.1a20.11 20.11 0 0 0 13.55 10.77l-5 11.12a20 20 0 0 0 3.58 21.71l.21.22 18.16 18.7-.89 4.59A84.09 84.09 0 0 1 44 128m103.65 81.66a20.11 20.11 0 0 0-5-17.3l-.21-.22-17.72-18.25 11.37-25.52 19 2.56 41.43 25.48a84.2 84.2 0 0 1-48.87 33.25"/></svg>