<svg xmlns="http://www.w3.org/2000/svg" fill="currentColor" viewBox="0 0 256 256"><path d="M140 16v32a12 12 0 0 1-24 0V16a12 12 0 0 1 24 0m36 36a12 12 0 0 0-12 12v32a12 12 0 0 0 24 0V64a12 12 0 0 0-12-12m-48 144a12 12 0 0 0-12 12v32a12 12 0 0 0 24 0v-32a12 12 0 0 0-12-12m0-120a12 12 0 0 0-12 12v80a12 12 0 0 0 24 0V88a12 12 0 0 0-12-12M80 52a12 12 0 0 0-12 12v56a12 12 0 0 0 24 0V64a12 12 0 0 0-12-12m96 72a12 12 0 0 0-12 12v56a12 12 0 0 0 24 0v-56a12 12 0 0 0-12-12M32 100a12 12 0 0 0-12 12v32a12 12 0 0 0 24 0v-32a12 12 0 0 0-12-12m48 48a12 12 0 0 0-12 12v32a12 12 0 0 0 24 0v-32a12 12 0 0 0-12-12m144-48a12 12 0 0 0-12 12v32a12 12 0 0 0 24 0v-32a12 12 0 0 0-12-12"/></svg>