<svg xmlns="http://www.w3.org/2000/svg" fill="currentColor" viewBox="0 0 256 256"><path d="m249.8 85.49-116-64a12 12 0 0 0-11.6 0l-116 64a12 12 0 0 0 0 21l21.8 12v47.76a19.9 19.9 0 0 0 5.09 13.32C46.63 194.7 77 220 128 220a136.9 136.9 0 0 0 40-5.75V240a12 12 0 0 0 24 0v-35.88a119.5 119.5 0 0 0 30.91-24.51 19.9 19.9 0 0 0 5.09-13.32v-47.76l21.8-12a12 12 0 0 0 0-21ZM128 45.71 219.16 96 186 114.3a2 2 0 0 1-.18-.12l-52-28.69a12 12 0 0 0-11.6 21l39 21.49L128 146.3 36.84 96ZM128 196c-40.42 0-64.65-19.07-76-31.27v-33l70.2 38.74a12 12 0 0 0 11.6 0l34.2-18.83v37.23a110.5 110.5 0 0 1-40 7.13m76-31.27a93 93 0 0 1-12 10.81v-37.15l12-6.62Z"/></svg>