<svg xmlns="http://www.w3.org/2000/svg" fill="currentColor" viewBox="0 0 256 256"><path d="M224 44H32a20 20 0 0 0-20 20v128a20 20 0 0 0 20 20h192a20 20 0 0 0 20-20V64a20 20 0 0 0-20-20m-4 144H36V68h184ZM52 128a12 12 0 0 1 12-12h128a12 12 0 0 1 0 24H64a12 12 0 0 1-12-12m0-36a12 12 0 0 1 12-12h128a12 12 0 0 1 0 24H64a12 12 0 0 1-12-12m0 72a12 12 0 0 1 12-12h8a12 12 0 0 1 0 24h-8a12 12 0 0 1-12-12m108 0a12 12 0 0 1-12 12h-40a12 12 0 0 1 0-24h40a12 12 0 0 1 12 12m44 0a12 12 0 0 1-12 12h-8a12 12 0 0 1 0-24h8a12 12 0 0 1 12 12"/></svg>