<svg xmlns="http://www.w3.org/2000/svg" fill="currentColor" viewBox="0 0 256 256"><path d="M108 80a20 20 0 1 1 20 20 20 20 0 0 1-20-20m-48 0a68 68 0 0 1 136 0c0 62.25-59.51 97-62.05 98.42a12 12 0 0 1-11.9 0C119.51 177 60 142.25 60 80m24 0c0 38.2 30.71 64.2 44 73.64 13.21-9.49 44-35.64 44-73.64a44 44 0 0 0-88 0m124.57 65.6a12 12 0 1 0-9.14 22.19C213.56 173.61 220 180.27 220 184c0 4-7.13 11.07-22.77 17.08-18.3 7-42.89 10.92-69.23 10.92s-50.93-3.88-69.23-10.92C43.12 195.07 36 188 36 184c0-3.73 6.44-10.39 20.57-16.21a12 12 0 1 0-9.14-22.19C31.27 152.25 12 164.31 12 184c0 34.14 58.36 52 116 52 29.22 0 56.86-4.44 77.85-12.52C220.1 218 244 205.59 244 184c0-19.69-19.27-31.75-35.43-38.4"/></svg>