<svg xmlns="http://www.w3.org/2000/svg" fill="currentColor" viewBox="0 0 256 256"><path d="M232 108h-92V92h4a20 20 0 0 0 20-20V40a20 20 0 0 0-20-20h-32a20 20 0 0 0-20 20v32a20 20 0 0 0 20 20h4v16H24a12 12 0 0 0 0 24h28v24h-4a20 20 0 0 0-20 20v32a20 20 0 0 0 20 20h32a20 20 0 0 0 20-20v-32a20 20 0 0 0-20-20h-4v-24h104v8a12 12 0 0 0 24 0v-8h28a12 12 0 0 0 0-24M116 44h24v24h-24ZM76 204H52v-24h24Zm148.49-27.51L209 192l15.52 15.51a12 12 0 0 1-17 17L192 209l-15.51 15.52a12 12 0 0 1-17-17L175 192l-15.52-15.51a12 12 0 0 1 17-17L192 175l15.51-15.52a12 12 0 0 1 17 17Z"/></svg>