<svg xmlns="http://www.w3.org/2000/svg" fill="currentColor" viewBox="0 0 256 256"><path d="M84 48a20 20 0 1 1-20-20 20 20 0 0 1 20 20m44-20a20 20 0 1 0 20 20 20 20 0 0 0-20-20m64 40a20 20 0 1 0-20-20 20 20 0 0 0 20 20M64 84a20 20 0 1 0 20 20 20 20 0 0 0-20-20m64 0a20 20 0 1 0 20 20 20 20 0 0 0-20-20m64 0a20 20 0 1 0 20 20 20 20 0 0 0-20-20M64 140a20 20 0 1 0 20 20 20 20 0 0 0-20-20m64 0a20 20 0 1 0 20 20 20 20 0 0 0-20-20m0 56a20 20 0 1 0 20 20 20 20 0 0 0-20-20m64-56a20 20 0 1 0 20 20 20 20 0 0 0-20-20"/></svg>