<svg xmlns="http://www.w3.org/2000/svg" fill="currentColor" viewBox="0 0 256 256"><path d="M235.4 86.85A23.55 23.55 0 0 0 212 68h-61.41a36 36 0 1 0-45.18 0H44a24 24 0 0 0-10 45.79l.19.09 47.63 21L61.76 211a24 24 0 0 0 12.11 30.74A23.8 23.8 0 0 0 84 244a24 24 0 0 0 21.52-13.29l22.48-38.8 22.51 38.8A24 24 0 0 0 194.24 211l-20-76.15 47.63-21 .19-.09a23.55 23.55 0 0 0 13.34-26.91M128 28a12 12 0 1 1-12 12 12 12 0 0 1 12-12m27.16 89a12 12 0 0 0-6.77 14l22.87 87a12 12 0 0 0 .73 2c-.15-.32-.32-.64-.5-.95L138.38 162a12 12 0 0 0-20.76 0l-33.11 57.05c-.18.31-.35.63-.5.95a12 12 0 0 0 .73-2l22.87-86.92a12 12 0 0 0-6.77-14L44 92h168Z"/></svg>