<svg xmlns="http://www.w3.org/2000/svg" fill="currentColor" viewBox="0 0 256 256"><path d="M68 100a12 12 0 0 1 12-12h96a12 12 0 0 1 0 24H80a12 12 0 0 1-12-12m12 52h96a12 12 0 0 0 0-24H80a12 12 0 0 0 0 24m156-96v152a12 12 0 0 1-17.37 10.73L192 205.42l-26.63 13.31a12 12 0 0 1-10.74 0L128 205.42l-26.63 13.31a12 12 0 0 1-10.74 0L64 205.42l-26.63 13.31A12 12 0 0 1 20 208V56a20 20 0 0 1 20-20h176a20 20 0 0 1 20 20m-24 4H44v128.58l14.63-7.31a12 12 0 0 1 10.74 0L96 194.58l26.63-13.31a12 12 0 0 1 10.74 0L160 194.58l26.63-13.31a12 12 0 0 1 10.74 0l14.63 7.31Z"/></svg>