<svg xmlns="http://www.w3.org/2000/svg" fill="currentColor" viewBox="0 0 256 256"><path d="M84 48a12 12 0 0 1-12 12H44v12a12 12 0 0 1-24 0V56a20 20 0 0 1 20-20h32a12 12 0 0 1 12 12M32 156a12 12 0 0 0 12-12v-32a12 12 0 0 0-24 0v32a12 12 0 0 0 12 12m40 40H44v-12a12 12 0 0 0-24 0v16a20 20 0 0 0 20 20h32a12 12 0 0 0 0-24m72 0h-32a12 12 0 0 0 0 24h32a12 12 0 0 0 0-24m80-24a12 12 0 0 0-12 12v12h-28a12 12 0 0 0 0 24h32a20 20 0 0 0 20-20v-16a12 12 0 0 0-12-12m0-72a12 12 0 0 0-12 12v32a12 12 0 0 0 24 0v-32a12 12 0 0 0-12-12m-8-64h-32a12 12 0 0 0 0 24h28v12a12 12 0 0 0 24 0V56a20 20 0 0 0-20-20m-72 0h-32a12 12 0 0 0 0 24h32a12 12 0 0 0 0-24"/></svg>