<svg xmlns="http://www.w3.org/2000/svg" fill="currentColor" viewBox="0 0 256 256"><path d="M228 40v40a12 12 0 0 1-24 0V52h-28a12 12 0 0 1 0-24h40a12 12 0 0 1 12 12M80 204H52v-28a12 12 0 0 0-24 0v40a12 12 0 0 0 12 12h40a12 12 0 0 0 0-24m136-40a12 12 0 0 0-12 12v28h-28a12 12 0 0 0 0 24h40a12 12 0 0 0 12-12v-40a12 12 0 0 0-12-12M40 92a12 12 0 0 0 12-12V52h28a12 12 0 0 0 0-24H40a12 12 0 0 0-12 12v40a12 12 0 0 0 12 12m44-20h88a12 12 0 0 1 12 12v88a12 12 0 0 1-12 12H84a12 12 0 0 1-12-12V84a12 12 0 0 1 12-12m12 88h64V96H96Z"/></svg>