<svg xmlns="http://www.w3.org/2000/svg" fill="currentColor" viewBox="0 0 256 256"><path d="M100 40a12 12 0 0 1 12-12h32a12 12 0 0 1 0 24h-32a12 12 0 0 1-12-12m44 164h-32a12 12 0 0 0 0 24h32a12 12 0 0 0 0-24m64-176h-24a12 12 0 0 0 0 24h20v20a12 12 0 0 0 24 0V48a20 20 0 0 0-20-20m8 72a12 12 0 0 0-12 12v32a12 12 0 0 0 24 0v-32a12 12 0 0 0-12-12M40 156a12 12 0 0 0 12-12v-32a12 12 0 0 0-24 0v32a12 12 0 0 0 12 12m32 48H52v-20a12 12 0 0 0-24 0v24a20 20 0 0 0 20 20h24a12 12 0 0 0 0-24M56.88 31.93a12 12 0 1 0-17.76 16.14l160 176a12 12 0 0 0 17.76-16.14Z"/></svg>