<svg xmlns="http://www.w3.org/2000/svg" fill="currentColor" viewBox="0 0 256 256"><path d="M240.49 175.51a12 12 0 0 1 0 17l-24 24a12 12 0 0 1-17-17L203 196h-35a12 12 0 0 1-9.76-5L81.82 84H32a12 12 0 0 1 0-24h56a12 12 0 0 1 9.76 5l76.42 107H203l-3.52-3.51a12 12 0 0 1 17-17ZM110.4 152.64a12 12 0 0 0-16.74 2.79L81.82 172H32a12 12 0 0 0 0 24h56a12 12 0 0 0 9.76-5l15.43-21.59a12 12 0 0 0-2.79-16.77m35.2-49.28a12 12 0 0 0 16.74-2.79L174.18 84H203l-3.52 3.51a12 12 0 0 0 17 17l24-24a12 12 0 0 0 0-17l-24-24a12 12 0 0 0-17 17L203 60h-35a12 12 0 0 0-9.76 5l-15.43 21.6a12 12 0 0 0 2.79 16.76"/></svg>