<svg xmlns="http://www.w3.org/2000/svg" fill="currentColor" viewBox="0 0 256 256"><path d="M116 20v-8a12 12 0 0 1 24 0v8a12 12 0 0 1-24 0m84 36a12 12 0 0 0 8.49-3.51l8-8a12 12 0 1 0-17-17l-8 8A12 12 0 0 0 200 56M47.51 52.49a12 12 0 0 0 17-17l-8-8a12 12 0 0 0-17 17ZM236 176v24a20 20 0 0 1-20 20H40a20 20 0 0 1-20-20v-24a20 20 0 0 1 16-19.6V140a92 92 0 0 1 92-92h.71C179 48.38 220 90.1 220 141v15.4a20 20 0 0 1 16 19.6M60 140v16h136v-15c0-37.77-30.27-68.72-67.48-69H128a68 68 0 0 0-68 68m152 40H44v16h168Zm-75.6-66.72a28 28 0 0 1 18.32 18.32 12 12 0 0 0 22.9-7.2 52 52 0 0 0-34-34 12 12 0 0 0-7.2 22.9Z"/></svg>