<svg xmlns="http://www.w3.org/2000/svg" fill="currentColor" viewBox="0 0 256 256"><path d="m119.51 143.51 88-88a12 12 0 1 1 17 17l-88 88a12 12 0 1 1-17-17m14.23-43.2a12 12 0 1 0 2.62-23.85A75 75 0 0 0 128 76a76.08 76.08 0 0 0-76 76 12 12 0 0 0 24 0 52.06 52.06 0 0 1 52-52 55 55 0 0 1 5.74.31m101.54 7.5a12 12 0 0 0-22.19 9.19 92.47 92.47 0 0 1 2.58 63H40.34A92.23 92.23 0 0 1 128 60h.84a91.4 91.4 0 0 1 34.2 6.91 12 12 0 0 0 9.14-22.19A116.07 116.07 0 0 0 18.57 190.58 20.09 20.09 0 0 0 37.46 204h181.07a20.06 20.06 0 0 0 18.88-13.38 116.4 116.4 0 0 0-2.13-82.81"/></svg>