<svg xmlns="http://www.w3.org/2000/svg" fill="currentColor" viewBox="0 0 256 256"><path d="M234.36 170a12 12 0 0 1-4.36 16.37l-96 56a12 12 0 0 1-12.1 0l-96-56a12 12 0 0 1 12.09-20.74l90 52.48L218 165.63a12 12 0 0 1 16.36 4.37M218 117.63l-90 52.48-89.95-52.48A12 12 0 0 0 26 138.37l96 56a12 12 0 0 0 12.1 0l96-56a12 12 0 0 0-12.1-20.74M20 80a12 12 0 0 1 6-10.37l96-56a12.06 12.06 0 0 1 12.1 0l96 56a12 12 0 0 1 0 20.74l-96 56a12 12 0 0 1-12.1 0l-96-56A12 12 0 0 1 20 80m35.82 0L128 122.11 200.18 80 128 37.89Z"/></svg>