<svg xmlns="http://www.w3.org/2000/svg" fill="currentColor" viewBox="0 0 256 256"><path d="M116 36v-4a12 12 0 0 1 24 0v4a12 12 0 0 1-24 0m80 92a68 68 0 1 1-68-68 68.07 68.07 0 0 1 68 68m-24 0a44 44 0 1 0-44 44 44.05 44.05 0 0 0 44-44M51.51 68.49a12 12 0 1 0 17-17l-4-4a12 12 0 0 0-17 17Zm0 119-4 4a12 12 0 0 0 17 17l4-4a12 12 0 1 0-17-17M196 72a12 12 0 0 0 8.49-3.51l4-4a12 12 0 0 0-17-17l-4 4A12 12 0 0 0 196 72m8.49 115.51a12 12 0 0 0-17 17l4 4a12 12 0 0 0 17-17ZM48 128a12 12 0 0 0-12-12h-4a12 12 0 0 0 0 24h4a12 12 0 0 0 12-12m80 80a12 12 0 0 0-12 12v4a12 12 0 0 0 24 0v-4a12 12 0 0 0-12-12m96-92h-4a12 12 0 0 0 0 24h4a12 12 0 0 0 0-24"/></svg>