<svg xmlns="http://www.w3.org/2000/svg" fill="currentColor" viewBox="0 0 256 256"><path d="M160 116h48a20 20 0 0 0 20-20V48a20 20 0 0 0-20-20h-48a20 20 0 0 0-20 20v12h-12a28 28 0 0 0-28 28v28H76v-4a20 20 0 0 0-20-20H24a20 20 0 0 0-20 20v32a20 20 0 0 0 20 20h32a20 20 0 0 0 20-20v-4h24v28a28 28 0 0 0 28 28h12v12a20 20 0 0 0 20 20h48a20 20 0 0 0 20-20v-48a20 20 0 0 0-20-20h-48a20 20 0 0 0-20 20v12h-12a4 4 0 0 1-4-4V88a4 4 0 0 1 4-4h12v12a20 20 0 0 0 20 20M52 140H28v-24h24Zm112 24h40v40h-40Zm0-112h40v40h-40Z"/></svg>