<svg xmlns="http://www.w3.org/2000/svg" fill="currentColor" viewBox="0 0 256 256"><path d="M164 216a12 12 0 0 1-12 12h-48a12 12 0 0 1 0-24h48a12 12 0 0 1 12 12m76.26-29.9-4.66-8.1a12 12 0 1 0-20.79 12l4.65 8.08a3.56 3.56 0 0 1 0 3.73 4.46 4.46 0 0 1-4 2.2H192a12 12 0 0 0 0 24h23.46a28.31 28.31 0 0 0 24.79-14.19 27.47 27.47 0 0 0 .01-27.72M64 204H40.55a4.46 4.46 0 0 1-4-2.2 3.56 3.56 0 0 1 0-3.73l4.64-8.07a12 12 0 1 0-20.79-12l-4.66 8.09a27.47 27.47 0 0 0 0 27.71A28.31 28.31 0 0 0 40.55 228H64a12 12 0 0 0 0-24m138.17-48a12 12 0 0 0 10.39-18l-23-40a12 12 0 0 0-20.8 12l23 40a12 12 0 0 0 10.42 6ZM166.5 58l-13.69-23.77a28.74 28.74 0 0 0-49.62 0L89.5 58a12 12 0 1 0 20.79 12L124 46.2a4.75 4.75 0 0 1 8 0L145.71 70a12 12 0 0 0 10.41 6 11.87 11.87 0 0 0 6-1.6A12 12 0 0 0 166.5 58M82.85 93.6A12 12 0 0 0 66.46 98l-23 40a12 12 0 0 0 20.8 12l23-40a12 12 0 0 0-4.41-16.4"/></svg>