<svg xmlns="http://www.w3.org/2000/svg" fill="currentColor" viewBox="0 0 256 256"><path d="M251.09 67.41A12 12 0 0 0 240 60h-28.18a52.73 52.73 0 0 0-43.67-24 50.85 50.85 0 0 0-36.6 14.85A51.87 51.87 0 0 0 116 88v.78c-36.83-11.57-66.38-40.9-66.7-41.23a12 12 0 0 0-20.47 7.38c-6.31 70.17 24.65 107.79 42.06 123.12C56.4 192.83 36 200.68 35.8 200.76a12 12 0 0 0-5.8 17.9C32 221.55 43.44 236 80 236c72.25 0 132.7-55.26 139.6-126.63l28.88-28.88a12 12 0 0 0 2.61-13.08m-51.57 28.11a11.93 11.93 0 0 0-3.49 7.72C192.14 164.23 141.18 212 80 212a91 91 0 0 1-12.49-.79C78 204.55 89.72 195.07 98 182.66a12 12 0 0 0-3.9-17c-.12-.07-12.33-7.49-23.43-24.42s-17.26-37-18.46-59.78C69.37 94.4 96 110.79 126 115.84A12 12 0 0 0 140 104V88a28 28 0 0 1 8.41-20.07A27.07 27.07 0 0 1 167.86 60a28.83 28.83 0 0 1 25.82 16.81 12 12 0 0 0 11 7.19H211Z"/></svg>