<svg xmlns="http://www.w3.org/2000/svg" fill="currentColor" viewBox="0 0 256 256"><path d="M164 56a12 12 0 0 1 12-12h48a12 12 0 0 1 0 24h-48a12 12 0 0 1-12-12m65.85 36A108 108 0 1 1 128 20a109 109 0 0 1 18 1.49 12 12 0 0 1-4 23.67A85 85 0 0 0 128 44a83.94 83.94 0 0 0-65.95 135.94 83.5 83.5 0 0 1 29-23.42 52 52 0 1 1 74 0 83.36 83.36 0 0 1 29 23.42A83.94 83.94 0 0 0 207.22 100a12 12 0 0 1 22.63-8M128 148a28 28 0 1 0-28-28 28 28 0 0 0 28 28m0 64a83.53 83.53 0 0 0 48.43-15.43 60 60 0 0 0-96.86 0A83.53 83.53 0 0 0 128 212"/></svg>