<svg xmlns="http://www.w3.org/2000/svg" fill="currentColor" viewBox="0 0 256 256"><path d="M228 40v36a12 12 0 0 1-24 0V52h-24a12 12 0 0 1 0-24h36a12 12 0 0 1 12 12m-12 128a12 12 0 0 0-12 12v24h-24a12 12 0 0 0 0 24h36a12 12 0 0 0 12-12v-36a12 12 0 0 0-12-12M76 204H52v-24a12 12 0 0 0-24 0v36a12 12 0 0 0 12 12h36a12 12 0 0 0 0-24M40 88a12 12 0 0 0 12-12V52h24a12 12 0 0 0 0-24H40a12 12 0 0 0-12 12v36a12 12 0 0 0 12 12m136 92a12 12 0 0 1-9.6-4.79 48 48 0 0 0-76.82 0 12 12 0 0 1-19.18-14.42 72.1 72.1 0 0 1 23.92-20.5 44 44 0 1 1 67.34 0 72.1 72.1 0 0 1 23.92 20.5A12 12 0 0 1 176 180m-48-48a20 20 0 1 0-20-20 20 20 0 0 0 20 20"/></svg>