<svg xmlns="http://www.w3.org/2000/svg" fill="currentColor" viewBox="0 0 256 256"><path d="M224 220h-37.59l-4.72-33a20 20 0 0 0 23.55-8.83l12-20.33a20 20 0 0 0-7.09-27.4l-31.57-18.58 38.66-65.68a20 20 0 0 0-7.08-27.39l-20.34-12a20 20 0 0 0-27.39 7.09l-18.59 31.55L78.15 6.77a20 20 0 0 0-27.39 7.09l-12 20.33a20 20 0 0 0 7.09 27.4l31.58 18.58-38.66 65.68a20 20 0 0 0 7.08 27.39l20.34 12a19.8 19.8 0 0 0 8 2.65L69.59 220H32a12 12 0 0 0 0 24h192a12 12 0 0 0 0-24m-37.41-57.47-62.26-36.64 7.93-13.46 62.26 36.65Zm-5.52-133 13.46 7.93-36.64 62.21-13.46-7.92Zm-111.66 0 62.26 36.64-7.93 13.46-62.26-36.7Zm-7.94 125.06 36.64-62.25 13.46 7.92-36.64 62.26Zm40.34 9.56 10.35-17.57L155.3 172l6.86 48H93.84Z"/></svg>